<?xml version="1.0" standalone="no"?>
<!DOCTYPE svg PUBLIC "-//W3C//DTD SVG 1.1//EN" "http://www.w3.org/Graphics/SVG/1.1/DTD/svg11.dtd" >
<svg xmlns="http://www.w3.org/2000/svg">
<metadata></metadata>
<defs>
<font id="berolinaregular" horiz-adv-x="696" >
<font-face units-per-em="2048" ascent="1536" descent="-512" />
<missing-glyph horiz-adv-x="485" />
<glyph horiz-adv-x="0" />
<glyph horiz-adv-x="682" />
<glyph unicode=" "  horiz-adv-x="485" />
<glyph unicode="&#x09;" horiz-adv-x="485" />
<glyph unicode="&#xa0;" horiz-adv-x="485" />
<glyph unicode="!" horiz-adv-x="315" d="M63 76q0 29 21.5 54.5t52.5 25.5q37 0 62.5 -26t25.5 -62q0 -29 -25.5 -53.5t-54.5 -24.5q-37 0 -59.5 25.5t-22.5 60.5zM96 631v766q0 27 16.5 47t45.5 20q23 0 41 -17t18 -40v-786q0 -23 -18.5 -40.5t-40.5 -17.5q-29 0 -45.5 20.5t-16.5 47.5z" />
<glyph unicode="&#x22;" horiz-adv-x="319" d="M94 1278q-2 43 2 86t18.5 74.5t47.5 31.5q23 0 41 -17t18 -40q0 -25 2 -69t-2 -89t-17.5 -77.5t-45.5 -32.5q-29 0 -45.5 20.5t-16.5 46.5q0 23 -2 66z" />
<glyph unicode="#" horiz-adv-x="817" d="M96 354q0 29 16.5 42.5t40 17.5t49 2t44.5 -2q4 27 6 53.5t6 54.5q-16 0 -44 -2t-54.5 2t-45 16.5t-18.5 43.5t20.5 44t50.5 16t59.5 1t47.5 -2q2 20 5.5 47t10.5 51.5t22.5 41t43.5 16.5q23 0 37.5 -15.5t14.5 -38.5q0 -25 -4.5 -50t-8.5 -52l107 2l5 45t10 51.5 t22.5 41t44.5 16.5q23 0 38 -15.5t15 -38.5t-5 -48t-9 -50q18 0 40.5 1t44 -4t36 -17.5t14.5 -38.5q0 -29 -17.5 -42.5t-41 -17.5t-49 -3t-44.5 1q-4 -27 -6 -53.5t-6 -52.5q18 0 46 2t53.5 -2t45 -16.5t19.5 -43.5t-21.5 -45t-51.5 -17t-59.5 -1t-47.5 2q-2 -18 -4.5 -46 t-10.5 -52.5t-23.5 -43t-45.5 -18.5q-20 0 -36 15.5t-16 37.5q0 25 4.5 52.5t8.5 52.5l-107 -2q-2 -20 -5 -47t-10 -51.5t-22.5 -41t-44.5 -16.5q-20 0 -36.5 15.5t-16.5 37.5q0 25 5 51.5t9 51.5q-18 0 -40.5 -1t-42 4t-34 18.5t-14.5 39.5zM367 414l106 2q4 27 6 53t6 55 h-106q-10 -59 -12 -110z" />
<glyph unicode="$" horiz-adv-x="673" d="M14 485l29 11q14 0 36.5 -19.5t50.5 -44t59.5 -48.5t64.5 -32l2 406q-76 47 -129 109.5t-53 158.5q0 37 16 66.5t43 51t60.5 35t66.5 17.5q0 23 -4 63.5t-2 81.5t17.5 71t52.5 30t51 -33t16 -76t-2 -86t-4 -65q12 -4 23.5 -6t23.5 -2q14 0 27.5 6t27.5 6q18 0 34 -22.5 t27 -53.5t16 -60.5t5 -43.5q0 -6 -1 -11.5t-3 -11.5l-14 -16q-20 4 -39.5 19t-40 33.5t-41 35t-45.5 26.5l-2 -256q51 -29 99 -58.5t85 -68.5t58.5 -88t21.5 -114q0 -53 -22.5 -102.5t-59.5 -87.5t-85 -61.5t-101 -25.5q0 -20 4 -57t1 -72t-17.5 -61.5t-49.5 -26.5 q-37 0 -52 30.5t-17 71.5t2 83t4 65q-16 6 -35.5 11t-40.5 5q-18 0 -31.5 -16t-31.5 -16q-20 0 -39 32.5t-32 75.5t-21.5 84t-8.5 57zM193 1008q0 -35 19 -62.5t46 -48.5l2 199q-29 -10 -48 -32.5t-19 -55.5zM379 346q59 10 99 49.5t40 102.5q0 66 -43 109.5t-94 76.5z" />
<glyph unicode="%" horiz-adv-x="1110" d="M96 1161q0 51 19.5 103.5t53.5 93.5t80 66.5t101 25.5q59 0 109.5 -25.5t87.5 -67.5t58.5 -95.5t21.5 -110.5t-21.5 -110.5t-58.5 -95.5t-87 -66.5t-110 -24.5q-61 0 -108 27.5t-79 71.5t-49.5 98.5t-17.5 109.5zM150 86q0 2 28.5 57.5t76.5 145.5t109.5 205.5t127 237.5 t129 240t115.5 214t88 159.5t46 75.5q8 14 22.5 22.5t31.5 8.5q37 0 46 -24.5t9 -53.5q0 -4 -32 -63.5t-80 -148.5t-106.5 -194.5t-110.5 -200.5t-91 -167t-51 -92q-25 -45 -56.5 -109.5t-65.5 -131t-67.5 -126t-64.5 -94.5q-8 -10 -21.5 -15t-25.5 -5q-25 0 -41 17t-16 42z M217 1151q0 -31 10.5 -61.5t29.5 -55t46 -40t62 -15.5t61.5 15.5t43.5 40t26.5 55t9.5 61.5t-9.5 62.5t-26.5 56t-43 40t-60 15.5q-35 0 -63 -15.5t-47 -40t-29.5 -56t-10.5 -62.5zM485 303q0 51 18.5 103.5t52.5 93.5t80 66.5t101 25.5q59 0 109.5 -25.5t87.5 -67.5 t58.5 -95.5t21.5 -110.5t-21.5 -110.5t-58.5 -95.5t-87 -66.5t-110 -24.5q-61 0 -107 27.5t-79 71.5t-49.5 98.5t-16.5 109.5zM604 293q0 -31 10.5 -61.5t30 -55t46 -40t61.5 -15.5t61.5 15.5t43.5 40t26.5 55t9.5 61.5t-9.5 62.5t-26.5 56t-43 40t-60 15.5 q-35 0 -62.5 -15.5t-47 -40t-30 -56t-10.5 -62.5z" />
<glyph unicode="&#x26;" horiz-adv-x="1286" d="M98 422q0 74 28 138.5t72 120.5t98 104.5t107 91.5v2q0 27 -8 58.5t-17 65t-16.5 67.5t-7.5 69q0 98 53.5 166.5t159.5 68.5q100 0 156.5 -60.5t56.5 -160.5q0 -57 -21.5 -102t-56 -82t-76.5 -70t-81 -63q51 -147 117.5 -288.5t158.5 -266.5q29 31 50.5 58.5t38 56 t29.5 61t28 69.5q8 20 22 34.5t39 14.5q23 0 40 -17t17 -40q0 -41 -18 -88t-46 -91t-59.5 -84t-60.5 -67l84 -59l45 -4q23 18 46.5 41.5t53.5 23.5q23 0 40.5 -17t17.5 -40q0 -16 -11.5 -33.5t-27.5 -33t-33.5 -28.5t-30.5 -24q-8 -2 -20 -6t-18 -4q-78 0 -130.5 24.5 t-107.5 82.5q-68 -51 -148.5 -90t-168.5 -39q-82 0 -154 38.5t-125 102t-84 142.5t-31 157zM217 424q0 -57 22.5 -114.5t61.5 -102.5t92.5 -74t114.5 -29q63 0 120.5 29t104.5 68q-96 127 -162.5 269t-126.5 290q-39 -31 -79.5 -67t-73.5 -78t-53.5 -90t-20.5 -101z M473 1135q0 -45 8.5 -92.5t22.5 -90.5q25 18 51.5 40t49 46.5t37.5 54t15 62.5q0 41 -16 73t-66 32q-59 0 -80.5 -37t-21.5 -88z" />
<glyph unicode="'" horiz-adv-x="524" d="M94 1278q-2 43 2 86t18.5 74.5t47.5 31.5q23 0 41 -17t18 -40q0 -25 2 -69t-2 -89t-17.5 -77.5t-45.5 -32.5q-29 0 -45.5 20.5t-16.5 46.5q0 23 -2 66zM309 1278q-2 43 2 86t18.5 74.5t45.5 31.5q23 0 42 -17t19 -40q0 -25 2 -70t-3 -89t-19.5 -76.5t-44.5 -32.5 q-29 0 -44.5 20.5t-15.5 46.5q0 23 -2 66z" />
<glyph unicode="(" horiz-adv-x="573" d="M98 727q0 82 15.5 193.5t48.5 223t84 207t123 144.5q10 4 22.5 8t22.5 4q25 0 44 -16t19 -43q0 -18 -11 -34.5t-26.5 -32t-32 -30t-26.5 -28.5q-45 -61 -73.5 -145t-46 -176.5t-24 -184.5t-6.5 -168q0 -68 6.5 -147.5t22.5 -159.5t43 -153.5t70 -131.5q12 -14 29.5 -28.5 t34 -29.5t28.5 -32.5t12 -36.5q0 -27 -19.5 -44t-43.5 -17q-20 0 -45 14q-86 55 -138.5 159.5t-82 225.5t-40 244t-10.5 215z" />
<glyph unicode=")" horiz-adv-x="573" d="M96 -70q0 18 12.5 35t29 32t34.5 30.5t29 29.5q43 57 69.5 131t43 154t22.5 160t6 147q0 76 -6 168t-23.5 184.5t-46 176.5t-73.5 145q-10 14 -26.5 28.5t-32 30t-27 32t-11.5 34.5q0 27 19.5 43t44.5 16q10 0 22.5 -4t22.5 -8q72 -49 123 -144.5t83.5 -207t48 -223 t15.5 -193.5q0 -92 -10 -215t-40 -244t-82 -225t-138 -160q-25 -14 -45 -14q-25 0 -44.5 17.5t-19.5 43.5z" />
<glyph unicode="*" horiz-adv-x="438" d="M37 1186q0 31 22.5 47t44.5 31q-20 14 -42.5 30.5t-22.5 44.5q0 25 18.5 41.5t40.5 16.5q8 0 15.5 -2t15.5 -4q8 -8 19.5 -13.5t21.5 -11.5q0 16 1 34.5t6 34t17 25.5t35 10t35 -10t18.5 -25.5t7.5 -35t1 -35.5q16 10 32.5 19.5t36.5 9.5q23 0 40.5 -17.5t17.5 -40.5 q0 -33 -22.5 -48t-47.5 -27q25 -14 46.5 -30t21.5 -46q0 -25 -17.5 -42.5t-40.5 -17.5q-18 0 -37.5 11.5t-33.5 19.5q0 -35 -8.5 -69.5t-53.5 -34.5q-23 0 -35 10t-17 25.5t-6 35t-1 35.5q-16 -10 -32.5 -19.5t-37.5 -9.5q-25 0 -42 16.5t-17 41.5z" />
<glyph unicode="+" horiz-adv-x="718" d="M96 582q0 35 25.5 48t59.5 16t69 -1t53 -4q0 18 -2 50t1 62.5t16.5 53t46.5 22.5q31 0 44 -22.5t16 -53t1 -61t-2 -49.5q35 2 66.5 2h66.5q25 0 43 -17.5t18 -41.5q0 -31 -22.5 -44.5t-53 -17.5t-63.5 -2t-53 2q2 -41 2 -82v-82q0 -23 -20.5 -38t-38.5 -15 q-33 0 -46.5 25.5t-17.5 60.5t-2 71t2 58q-18 0 -53 -4t-70 -1t-60.5 16.5t-25.5 48.5z" />
<glyph unicode="," horiz-adv-x="436" d="M96 -225q0 27 18.5 43t42 33.5t42 42t18.5 67.5q0 10 -4 31q-35 2 -56.5 26.5t-21.5 59.5t25.5 57.5t60.5 22.5q63 0 89 -45t26 -101q0 -41 -12.5 -90t-37 -91t-61.5 -69.5t-86 -27.5q-16 0 -29.5 11t-13.5 30z" />
<glyph unicode="-" horiz-adv-x="718" d="M96 582q0 23 15.5 39t38.5 20q45 8 96 10t105.5 0t106.5 -4t99 -2q25 0 43 -17.5t18 -41.5q0 -27 -18 -42.5t-43 -19.5q-98 -8 -202.5 -5t-204.5 3q-20 0 -37 20.5t-17 39.5z" />
<glyph unicode="." horiz-adv-x="356" d="M96 78q0 29 22.5 54.5t53.5 25.5q35 0 60.5 -26t25.5 -62q0 -29 -25.5 -53.5t-54.5 -24.5q-35 0 -58.5 25.5t-23.5 60.5z" />
<glyph unicode="/" horiz-adv-x="759" d="M96 78q0 4 17.5 58t47 142.5t67.5 200t78 229t80 232.5t73 210t55.5 159.5t30.5 81.5q10 20 23.5 34.5t35.5 14.5q35 0 46.5 -24.5t11.5 -53.5q0 -2 -10.5 -33t-24 -67.5t-25.5 -70.5t-14 -42q-66 -190 -132.5 -378.5t-129.5 -381.5q-27 -80 -51.5 -172t-61.5 -168 q-6 -16 -22.5 -27.5t-34.5 -11.5q-29 0 -44.5 21.5t-15.5 46.5z" />
<glyph unicode="0" horiz-adv-x="905" d="M25 745q0 72 6 153t24.5 160t49 151.5t78.5 127t118 87t162 32.5q84 0 147.5 -31.5t111.5 -84t80 -121t52 -143.5t28.5 -151.5t8.5 -142.5q0 -76 -4 -165t-19.5 -180t-45 -176t-79 -149.5t-122 -104.5t-175.5 -40q-98 0 -166.5 38t-115.5 99.5t-75 142.5t-42 168t-18 172 t-4 158zM160 659q0 -43 3 -103t12 -124.5t26.5 -128t47.5 -114t74 -81t105 -30.5q82 0 137.5 40t91 105.5t53 147.5t25.5 166t9 162.5t1 136.5q0 66 -10 153.5t-38.5 167.5t-84 135.5t-143.5 55.5q-96 0 -155.5 -53.5t-94.5 -131.5t-47 -168t-12 -164v-172z" />
<glyph unicode="1" horiz-adv-x="460" d="M16 1245q43 29 73 47.5t55.5 39t50 47t55.5 69.5q6 8 14.5 17.5t22.5 9.5l16 -13q6 -4 9 -52t4 -117.5t1 -151.5t-1 -154t-2 -123t-1 -61v-74.5v-124t1 -145.5t3 -143.5t6.5 -115.5t10.5 -61q8 -16 25.5 -23t35 -13.5t30.5 -16.5t13 -31q0 -18 -9 -26.5t-23.5 -11.5 t-29 -4t-26.5 -5q-45 4 -87 1t-87 -3q-29 0 -56.5 7t-27.5 44q0 25 16.5 37t35 20.5t35 18.5t16.5 31v1042q0 23 -9 39q-33 -6 -57.5 -26.5t-58.5 -20.5q-20 0 -37 12.5t-17 34.5z" />
<glyph unicode="2" horiz-adv-x="915" d="M27 55q0 43 21.5 103.5t54 122t69.5 117t66 85.5q55 59 131.5 124t145.5 135.5t117 150.5t48 170q0 59 -12.5 113.5t-41 95.5t-73.5 65.5t-113 24.5q-96 0 -153.5 -40t-92 -89t-57 -89t-49.5 -40l-14 2q-18 14 -19 41q0 66 34 126t88 106t119 74t126 28q90 0 166 -30 t130 -83t83.5 -128t29.5 -167q0 -96 -32.5 -172t-83.5 -139.5t-117 -118.5t-130.5 -109.5t-123.5 -114t-98 -130.5q-18 -31 -41 -63.5t-23 -69.5q0 -16 17.5 -19.5t29.5 -3.5q104 0 210 -1t210 7q53 4 83 26.5t51.5 48.5t39 46.5t45.5 20.5q16 0 26.5 -12.5t10.5 -28.5 q0 -18 -11 -51t-28.5 -69t-36 -65.5t-32.5 -38.5q-6 -4 -44 -7t-93.5 -4t-119 -2t-122 -1h-102.5h-58q-18 0 -56 -3t-77 0t-68.5 15.5t-29.5 40.5z" />
<glyph unicode="3" horiz-adv-x="940" d="M33 385q0 16 14 30.5t31 14.5q20 0 37.5 -26.5t33 -61.5t30 -69.5t26.5 -51.5q27 -35 54.5 -54.5t58 -29.5t66.5 -13t77 -3q94 0 155.5 32.5t98.5 88t51 129t14 153.5q0 63 -21.5 118.5t-59 96.5t-92 64.5t-120.5 23.5q-25 0 -49 -7t-47.5 -16t-47.5 -16.5t-48 -7.5 q-14 0 -20.5 9.5t-6.5 21.5q0 16 28 57t69 94.5t89 113t89 113.5t68.5 97t29.5 64q-27 10 -54.5 10h-54.5q-92 0 -147 -18.5t-88 -42t-50.5 -42t-33.5 -18.5t-27.5 12.5t-11.5 28.5q0 18 12.5 53t32 68t41.5 57.5t45 24.5q123 0 245 -2t245 -2q16 0 37.5 -3t21.5 -26 q0 -16 -26.5 -55t-66.5 -91.5t-87 -109.5t-87 -110.5t-67.5 -94.5t-27.5 -59q35 -6 67.5 -6t65.5 -11q156 -39 232.5 -145t76.5 -264q0 -115 -28.5 -209t-87 -161.5t-147.5 -104.5t-208 -37q-90 0 -168 25.5t-136.5 75.5t-92 123t-33.5 169z" />
<glyph unicode="4" horiz-adv-x="980" d="M16 449q0 29 38 102.5t94.5 167.5t122 197.5t122 192.5t94 153.5t37.5 78.5t-10 22.5t-23.5 14.5t-23.5 13.5t-10 23.5q0 18 11 28.5t27.5 14.5t35 5t32.5 1q20 0 63.5 2t87.5 -1t77.5 -15t33.5 -41q0 -18 -12 -28.5t-29.5 -17.5t-35 -13.5t-27.5 -14.5q-2 -8 -2 -16v-16 q0 -59 1 -120t1 -120v-520q0 -23 8 -41q14 -12 37 -13q41 0 58.5 14.5t28.5 33t22.5 37t39.5 28.5q20 0 28.5 -32.5t10.5 -75.5t1 -84t-1 -56q0 -23 -4 -49t-35 -26q-23 0 -32 17t-21 38.5t-34.5 40t-73.5 18.5q-10 0 -16.5 -10t-9.5 -23.5t-3 -28v-20.5q0 -47 -2 -99t6 -99 q2 -20 19.5 -29.5t38 -16t36 -12.5t15.5 -20q0 -25 -23.5 -36t-55.5 -14t-63.5 -2t-48.5 1h-35.5t-53.5 4t-49.5 11t-21.5 24q0 20 13.5 31.5t30 18.5t34 15t25.5 25q4 8 6 24.5t3 33.5t1 33.5v26.5q0 37 -2 76t-25 70q-29 8 -93 9t-137 0t-142.5 -4t-108.5 -3q-35 0 -63 14 q-8 12 -10.5 26.5t-2.5 29.5zM162 502q37 -12 75.5 -13.5t77.5 -1.5q129 0 189.5 3.5t81 35t15.5 106.5t-5 218q0 80 2 173t-16 171l-23 -8q-12 -18 -46 -73.5t-77 -128.5t-90 -153.5t-87 -150.5t-67.5 -119t-29.5 -59z" />
<glyph unicode="5" horiz-adv-x="937" d="M16 397q0 14 10.5 26.5t26.5 12.5q14 0 27.5 -16.5t24 -39t18.5 -45t12 -34.5q41 -90 129 -135t182 -45q86 0 147.5 33.5t101.5 89t59.5 127t19.5 149.5q0 74 -20.5 139.5t-61.5 114.5t-102.5 78t-140.5 29q-39 0 -80 -12.5t-76 -26t-58.5 -25.5t-29.5 -12 q-23 0 -30 21.5t-7 39.5q0 135 21.5 282.5t48.5 281.5q8 37 24 47t51 10l361 -2q31 0 53.5 -21.5t35.5 -52.5t19 -65.5t6 -61.5q0 -16 -10 -28.5t-26 -12.5q-31 0 -43.5 18.5t-33 41t-62.5 41t-132 18.5h-32.5t-45 -2t-42 -7t-23.5 -16q-6 -18 -11 -66t-10.5 -103.5 t-7.5 -106.5t-2 -74l23 -2q29 0 55.5 8t54.5 8q125 0 215 -40.5t147.5 -113.5t84 -171t26.5 -211q0 -92 -34.5 -175t-96 -145.5t-143.5 -99.5t-176 -37q-80 0 -140.5 11.5t-109.5 40t-88 75.5t-74 119q-35 70 -35 143z" />
<glyph unicode="6" horiz-adv-x="892" d="M37 592q0 119 14.5 229.5t53 208.5t107.5 182t175 152q18 12 53 27.5t72 31t71.5 25.5t57.5 10q16 0 30.5 -9t14.5 -30q0 -4 -4 -16q-18 -23 -45 -34t-55 -21q-63 -20 -130 -70.5t-121.5 -117t-89 -142.5t-34.5 -144l2 -16q14 0 40.5 18.5t61.5 39t80 38t101 17.5 q117 0 193.5 -44t121.5 -118t63.5 -168t18.5 -195q0 -76 -25.5 -157.5t-75 -149t-118 -111.5t-154.5 -44q-141 0 -234.5 49t-147.5 132t-75.5 193.5t-21.5 233.5zM176 569q0 -72 9.5 -155.5t40 -155.5t88 -119t151.5 -47q80 0 136 41t90 104.5t49.5 137.5t15.5 141 q0 53 -19.5 112.5t-54.5 108.5t-86 82t-113 33q-47 0 -100 -26.5t-99 -67.5t-77 -91.5t-31 -97.5z" />
<glyph unicode="7" horiz-adv-x="788" d="M25 1300q0 8 10 36t23.5 58.5t26.5 55.5t19 29q14 8 31 9t33 1q129 0 260 -3t260 -3q43 0 64.5 -13.5t21.5 -60.5q0 -98 -28.5 -189.5t-71.5 -182.5t-94.5 -184t-94.5 -192.5t-71.5 -209t-28.5 -234.5q0 -18 1 -37.5t7 -40.5q6 -18 21.5 -24t32 -11.5t29.5 -14.5t13 -32 q0 -29 -16 -41t-41 -12q-29 0 -77 -1t-97 3t-90 16.5t-53 40.5q0 23 10 33t24.5 15.5t31 10.5t26.5 17l6 34t15.5 85t21.5 114.5t25.5 124t27.5 110.5t27 77q33 66 84 144.5t99 160.5t83 163t35 155q0 55 -58 55q-66 0 -128 3t-128 3q-72 0 -112.5 -18.5t-65 -40t-39 -40 t-34.5 -18.5t-30.5 15.5t-10.5 33.5z" />
<glyph unicode="8" horiz-adv-x="935" d="M27 428q0 68 23.5 125t57 104.5t74.5 85t77 66.5t59.5 49.5t25.5 32.5q-25 37 -55.5 65.5t-58 58t-46 65.5t-18.5 89q0 68 23.5 122.5t64.5 91t97 56t124 19.5q57 0 112.5 -16.5t98.5 -49t69.5 -81.5t26.5 -113q0 -74 -26.5 -126t-57 -87t-57.5 -55.5t-27 -32.5 q0 -16 48.5 -53t106.5 -95.5t106.5 -136t48.5 -174.5q0 -242 -120 -351.5t-358 -109.5q-94 0 -170.5 37t-132 98.5t-86 143.5t-30.5 172zM174 401q0 -63 19.5 -120.5t56.5 -100.5t90 -68.5t119 -25.5q61 0 117.5 19.5t99.5 55.5t68.5 88t25.5 118q0 76 -14.5 131t-43 101 t-71.5 86t-100 85q-14 12 -33 20.5t-37 8.5q-51 0 -103.5 -45t-95.5 -108.5t-70.5 -131.5t-27.5 -113zM307 1204q0 -31 15.5 -69.5t40 -72.5t56.5 -57.5t66 -23.5q33 0 59.5 27.5t45 65.5t28 79t9.5 70q0 25 -13.5 47t-34 40.5t-46 29t-48.5 10.5q-70 0 -124 -35t-54 -111z " />
<glyph unicode="9" horiz-adv-x="874" d="M37 961q0 96 26.5 186t80 158.5t133.5 110.5t186 42q88 0 148.5 -24.5t103.5 -68.5t71.5 -105.5t53.5 -133.5q14 -41 24 -80.5t10 -82.5q0 -53 -7 -106.5t-7 -108.5q0 -51 -12 -100.5t-23 -96.5q-29 -115 -57.5 -193.5t-73.5 -138t-113.5 -106.5t-174.5 -99 q-43 -23 -87.5 -35t-93.5 -12q-20 0 -36.5 12.5t-16.5 34.5q0 14 32 31.5t73.5 34t80.5 30t54 21.5q49 27 97 78t85 113.5t60.5 129t23.5 121.5q-20 0 -45 -15t-57.5 -33.5t-73.5 -34t-92 -15.5q-94 0 -164 46t-116 117t-69.5 157t-23.5 166zM178 993q0 -59 12.5 -129.5 t43 -132t82 -102.5t126.5 -41q80 0 133.5 39t84 99t44 131t13.5 136q0 63 -12.5 127t-41 116t-78.5 85t-126 33q-59 0 -99.5 -17.5t-69 -49.5t-47 -75t-32.5 -94q-10 -31 -21.5 -61.5t-11.5 -63.5z" />
<glyph unicode=":" horiz-adv-x="356" d="M96 78q0 29 22.5 54.5t53.5 25.5q35 0 60.5 -26t25.5 -62q0 -29 -25.5 -53.5t-54.5 -24.5q-35 0 -58.5 25.5t-23.5 60.5zM96 483q0 29 22.5 54.5t53.5 25.5q35 0 60.5 -25.5t25.5 -62.5q0 -29 -25.5 -53.5t-54.5 -24.5q-35 0 -58.5 26t-23.5 60z" />
<glyph unicode=";" horiz-adv-x="436" d="M96 -225q0 27 18.5 43t42 33.5t42 42t18.5 67.5q0 10 -4 31q-35 2 -56.5 26.5t-21.5 59.5t25.5 57.5t60.5 22.5q63 0 89 -45t26 -101q0 -41 -12.5 -90t-37 -91t-61.5 -69.5t-86 -27.5q-16 0 -29.5 11t-13.5 30zM135 483q0 29 22.5 54.5t53.5 25.5q35 0 60.5 -25.5 t25.5 -62.5q0 -29 -25.5 -53.5t-54.5 -24.5q-35 0 -58.5 26t-23.5 60z" />
<glyph unicode="&#x3c;" horiz-adv-x="833" d="M98 403q0 12 36 42t91.5 66t122 76t128 74.5t109.5 62.5t68 38q16 4 23 4q25 0 42 -15.5t17 -39.5q0 -29 -24 -54q-27 -23 -84.5 -57.5t-123 -71t-127 -70.5t-97.5 -55q35 -20 97 -54t126.5 -70.5t122 -71.5t82.5 -57q25 -25 24 -54q0 -25 -17 -40t-42 -15q-8 0 -47 20.5 t-93.5 51t-118 67.5t-120.5 71t-100 60.5t-58 36.5q-16 10 -26.5 23.5t-10.5 31.5z" />
<glyph unicode="=" horiz-adv-x="718" d="M96 354q0 23 15.5 39.5t38.5 20.5q45 8 96 10t105.5 0t106.5 -4t99 -2q25 0 43 -17.5t18 -42.5q0 -27 -18 -42t-43 -19q-98 -8 -202.5 -6t-204.5 2q-20 0 -37 21.5t-17 39.5zM96 582q0 23 15.5 39t38.5 20q45 8 96 10t105.5 0t106.5 -4t99 -2q25 0 43 -17.5t18 -41.5 q0 -27 -18 -42.5t-43 -19.5q-98 -8 -202.5 -5t-204.5 3q-20 0 -37 20.5t-17 39.5z" />
<glyph unicode="&#x3e;" horiz-adv-x="833" d="M96 711q0 25 18.5 40t43.5 15q6 0 46 -20.5t96 -53.5t122.5 -70.5t125 -73.5t101.5 -62.5t56 -34.5q12 -10 20 -21t8 -27q0 -18 -9 -31.5t-26 -23.5q-123 -82 -255 -156.5t-261 -146.5q-16 -4 -20 -4q-25 0 -43.5 15.5t-18.5 39.5q0 31 27 54q25 23 82 57.5t121.5 71 t126 70.5t98.5 54q-37 20 -99.5 54.5t-128 71t-121.5 71.5t-83 57q-27 23 -27 54z" />
<glyph unicode="?" horiz-adv-x="929" d="M98 1114q0 76 30 139.5t81 109.5t117.5 71.5t140.5 25.5q76 0 142.5 -25.5t115.5 -71.5t77.5 -111.5t28.5 -143.5q0 -68 -30.5 -122t-75.5 -98t-98.5 -82t-98.5 -74t-75.5 -71.5t-30.5 -76.5q0 -16 9 -29.5t24 -24.5q16 -4 26 -4t23.5 2t23.5 9q12 14 18.5 33.5t12.5 37 t18.5 29.5t36.5 12q25 0 42.5 -18.5t17.5 -42.5q0 -37 -16.5 -71t-43 -58.5t-61.5 -38.5t-70 -14q-78 0 -128 52t-50 128q0 66 30 116t75 89.5t98 74.5t98 72t75 80t30 98q0 49 -18.5 91t-50.5 72t-75 47t-90 17q-45 0 -91 -15t-83 -43t-59.5 -68t-22.5 -91 q0 -37 11.5 -61.5t23.5 -41.5t23.5 -32.5t11.5 -36.5q0 -25 -17.5 -41t-40.5 -16q-31 0 -56 24.5t-42.5 59.5t-27 72t-9.5 61zM373 106q0 29 22 54.5t51 25.5q37 0 63 -25.5t26 -62.5q0 -29 -26 -53.5t-54 -24.5q-35 0 -58.5 26t-23.5 60z" />
<glyph unicode="A" horiz-adv-x="1226" d="M18 55q0 20 16.5 27.5t39 13.5t44 18.5t34.5 41.5l8 50t22.5 131t30.5 184.5t34.5 212t35 214t30 188.5t21.5 136t8 59q0 27 -16.5 36t-35 15.5t-34.5 14.5t-16 30q0 18 12 28.5t28.5 16t35 7.5t30.5 2q154 0 307.5 -4t307.5 -4q23 0 41 -6.5t18 -34.5q0 -31 -18.5 -40.5 t-42 -15.5t-42 -16t-18.5 -41q0 -16 7 -75.5t19.5 -146.5t28 -191.5t31.5 -212t31.5 -209t29 -180.5t21.5 -128t10 -51q12 -16 34 -20.5t43.5 -8.5t37.5 -13t16 -32q0 -33 -26.5 -38t-48.5 -5h-220q-18 0 -45.5 5t-27.5 32q0 23 20 33q12 16 32.5 23.5t37.5 23.5l2 16 q0 20 -7 39t-12 37q-4 18 -10 71.5t-14 123t-18.5 144.5t-18.5 138.5t-16.5 106.5t-14.5 47q-4 2 -55 6t-116.5 6t-126 4t-83.5 2h-20t-19 -2q-8 -2 -20 -50t-27.5 -120.5t-31 -158.5t-27.5 -165t-20.5 -140.5t-8.5 -82.5q0 -27 17.5 -39t38 -19t38 -16.5t17.5 -29.5 q0 -16 -10.5 -24.5t-25.5 -11.5t-30.5 -4t-25.5 -1q-23 0 -67 -2q-18 -1 -35 -1l-53 2q-44 3 -78 14.5t-34 39.5zM412 1016q0 -14 4 -35q35 -14 73 -14q72 0 142.5 3t142.5 3q14 0 22.5 13t8.5 26q0 72 -16.5 158.5t-30.5 160.5q-2 14 -18.5 21.5t-38 10.5t-42 3h-30.5 q-29 0 -64 1h-10q-29 0 -53 -5q-18 -4 -34.5 -52t-29 -106.5t-19.5 -114t-7 -73.5z" />
<glyph unicode="B" horiz-adv-x="1093" d="M18 33q0 25 15.5 36t35 20t38 19.5t24.5 30.5q4 18 0 57.5t-4 61.5q0 270 7 536.5t7 536.5q0 23 -14 33t-32.5 17.5t-33 16.5t-14.5 32q0 31 26.5 40t49.5 9l485 -2q78 0 146.5 -16.5t121 -54.5t82 -97.5t29.5 -145.5q0 -47 -10 -80.5t-28.5 -60.5t-46.5 -49.5t-64 -46.5 v-31q72 -33 117.5 -77t71.5 -99t36 -121t10 -139q0 -119 -42 -207t-113.5 -145.5t-169 -85t-207.5 -27.5l-459 2q-16 0 -40 8t-24 29zM270 178q0 -6 1 -18.5t4.5 -23.5t9.5 -19t16 -8h225q86 0 159 24.5t125 71.5t82 115.5t30 158.5q0 141 -49.5 218t-131.5 113t-186 43 t-215 7q-10 0 -19.5 -1t-19.5 -3q-8 -8 -13 -54t-8.5 -115t-5.5 -148.5t-3 -152.5t-1 -130v-78zM285 1102q0 -63 2 -94q2 -32 16 -44q13 -12 43 -11h5q34 1 95 1q55 0 123 5.5t127.5 26t99.5 62.5t40 117q0 84 -39 124t-97.5 55.5t-126 17.5t-124.5 8q-35 4 -70 6t-70 2 q-10 -12 -15 -51t-7 -83t-2 -84v-58z" />
<glyph unicode="C" horiz-adv-x="1038" d="M18 817q0 125 39 247t114 216t182.5 152.5t244.5 58.5q31 0 59.5 -8t57 -17.5t57.5 -17.5t57 -8q23 0 39.5 15t38.5 15q16 0 36 -38.5t37 -88t28.5 -95.5t11.5 -58q0 -20 -15.5 -31.5t-33.5 -11.5q-31 0 -53.5 35t-57.5 78t-94 77.5t-164 34.5q-109 0 -187.5 -52 t-131 -133t-78 -179.5t-25.5 -190.5q0 -106 10.5 -228t51.5 -226.5t121.5 -173t222.5 -68.5q98 0 162.5 39t106.5 85t67.5 86t46.5 40q39 -6 39 -45q0 -72 -45 -133.5t-112 -106.5t-143.5 -70.5t-140.5 -25.5q-115 0 -199.5 35.5t-146 98t-100.5 144.5t-61.5 173t-32 188.5 t-9.5 187.5z" />
<glyph unicode="D" horiz-adv-x="1110" d="M18 49q0 23 13.5 32t31 16t34 15.5t22.5 26.5q10 43 12 91.5t2 91.5l-2 972q0 41 -15.5 58.5t-34 27t-33.5 17.5t-15 33t40 34t92 12q31 2 61 2q20 0 40 -1q49 -2 66 -2q86 0 179 -8.5t179 -34t159 -75.5t118 -134q27 -51 49 -97.5t39.5 -92.5t27 -96.5t9.5 -111.5v-194 q0 -86 -29 -183.5t-81 -185.5t-126 -155.5t-162 -90.5q-70 -18 -140.5 -23t-141.5 -5q-26 0 -90 -2q-22 -1 -43 -1q-45 0 -89 3q-68 4 -120 17t-52 44zM266 190q0 -18 3 -37.5t14 -35.5q25 -10 58.5 -11.5t61.5 -1.5h71t73 5q111 8 184.5 74.5t117.5 160.5t62.5 201.5 t18.5 199.5q0 123 -24.5 243t-108.5 218q-27 31 -62 58.5t-73.5 49t-79.5 35t-82 13.5h-140q-16 0 -31.5 -1t-31.5 -7q-13 -12 -17 -42q-3 -22 -3 -48q1 -8 1 -17q2 -35 3.5 -67.5t1.5 -51.5q0 -193 -8.5 -382t-8.5 -379v-177z" />
<glyph unicode="E" horiz-adv-x="1171" d="M18 35q12 31 26.5 44t28 18t25 9.5t19.5 18.5q4 6 7 71.5t5 164t2 217t1 234.5t1 215v157q0 12 -1 35.5t-2 48t-4 46t-9 32.5q-6 10 -20.5 16t-30 12t-26.5 13.5t-11 21.5q0 31 45 42q46 11 104 13q20 1 38 1q39 0 77 -3q57 -4 80 -4q135 0 265 6t265 6q20 0 36.5 -25.5 t29 -59t19.5 -67.5t7 -50t-11 -28.5t-28 -12.5q-18 0 -32.5 15t-27.5 34.5t-28.5 38t-33.5 24.5q-39 12 -81 14.5t-81 2.5q-90 0 -177 -4t-178 -4q-29 0 -28 -25q-6 -16 -9.5 -58t-5.5 -91.5t-2 -95.5v-66q0 -31 12.5 -43.5t43.5 -12.5q20 0 72 -1q26 0 56 -0.5t62 0.5 q66 1 139.5 2t135 4.5t105.5 10.5t52 17q12 18 20.5 40t24.5 38l17 2q25 0 37 -24.5t17 -57.5q4 -28 4 -55v-12q-1 -34 -1 -50q0 -14 -1 -36.5t-6 -45t-16.5 -39t-31.5 -16.5q-6 0 -13.5 2t-11.5 4q-18 18 -27.5 42t-27.5 44q-8 8 -47 13.5t-95.5 8.5t-123 5t-127 3 t-107.5 1h-67q-35 0 -54.5 -7t-30 -20.5t-12.5 -36t-2 -53.5q0 -123 6.5 -244.5t6.5 -244.5q0 -29 -5.5 -57.5t-5.5 -57.5l2 -26q14 -2 27.5 -2.5t30.5 -0.5h117.5t164.5 2.5t160 9.5t100 21q12 6 31 24.5t38.5 38t35.5 35t27 15.5q18 0 34.5 -12.5t16.5 -30.5 q0 -12 -16.5 -48t-38 -74t-43 -66.5t-31.5 -28.5h-820q-10 0 -25 1t-28.5 6t-24 13t-10.5 23z" />
<glyph unicode="F" horiz-adv-x="1120" d="M31 43q0 23 10 35t25.5 19t33 14.5t29.5 21.5q8 4 12 22.5t6.5 42t2.5 44v28.5l2 680v326q0 61 -17.5 80.5t-37 24.5t-37 10.5t-17.5 38.5q0 29 24.5 42t49.5 14q205 0 405.5 -5.5t405.5 -5.5q10 0 23.5 -4.5t17.5 -14.5l51 -172q4 -14 -10.5 -24.5t-24.5 -10.5 q-20 0 -35.5 18.5t-38 42t-59.5 42t-100 18.5h-297q-35 0 -70 -1t-70 -7q-18 -14 -18 -36.5t-6 -41.5q4 -48 4 -94q0 -22 -1 -46q-3 -68 -3 -140q0 -18 16.5 -24.5t30.5 -6.5h465h48.5t47.5 8q16 6 28.5 22.5t23 35t21.5 32.5t27 14q23 0 32 -21.5t9 -37.5t4 -64 q2 -33 2 -67v-30q-2 -50 -11 -93t-36 -49q-25 6 -36 28.5t-22 47t-29.5 45t-59.5 20.5l-487 2q-12 0 -25.5 1t-24.5 -3q-14 -4 -20 -46t-7 -94v-52v-50q1 -50 1 -67v-315q0 -23 -1 -46.5t3 -46.5t21.5 -30.5t36 -15t33.5 -18.5t15 -38q0 -25 -23.5 -35t-43.5 -10h-230 q-23 0 -46 7t-23 36z" />
<glyph unicode="G" horiz-adv-x="1124" d="M18 694q0 145 31 282.5t101.5 245t185 172t280.5 64.5q37 0 77 -7t74 -16.5t59.5 -16.5t35.5 -7q14 0 26.5 9.5t22.5 19.5q8 4 19 4q23 0 46 -35t43.5 -79t33 -87t12.5 -61q0 -16 -13.5 -30.5t-29.5 -14.5q-18 0 -52 31.5t-86.5 70.5t-123 70.5t-160.5 31.5 q-123 0 -205 -66.5t-131 -166.5t-70.5 -215t-21.5 -213q0 -295 136 -437.5t431 -142.5q23 0 46.5 1t48.5 8q8 20 12 62t6 87t2 88v68v81.5t-1 133t-6 128t-13 68.5q-16 16 -45 24.5t-50 22.5l-8 46q8 12 27.5 18t43 9t45 3h34.5q14 0 51 1h19q28 0 57 -2q39 -3 68.5 -13 t29.5 -31q0 -25 -17.5 -35t-39 -20t-39 -30.5t-17.5 -65.5v-498v-32.5t1 -42t5.5 -41t12.5 -29.5q8 -12 23.5 -20.5t29.5 -17t25.5 -19.5t11.5 -27t-15.5 -25.5t-36 -13.5t-41 -5t-32.5 -1q-106 0 -212 6t-212 6q-141 0 -242.5 64.5t-166 166t-95.5 226t-31 245.5z" />
<glyph unicode="H" horiz-adv-x="1230" d="M23 55q0 25 13 36t29.5 19t34 16.5t25.5 27.5q4 10 12 91t16.5 196.5t17.5 251.5t16.5 259t11.5 215.5t4 122.5q0 33 -15.5 51.5t-33 31.5t-33 23.5t-15.5 28.5q0 16 11.5 29t21.5 23q20 4 35 4q23 0 70 1h19l75 -3q47 -4 83 -18.5t36 -45.5q0 -20 -12.5 -29.5t-29 -18.5 t-30.5 -20.5t-18 -33.5q-16 -78 -25.5 -161t-9.5 -161q0 -4 4 -14t6 -14q29 -10 66 -11q16 0 59 -1t95 -1t110.5 1t106.5 4t80 8.5t36 15.5q4 16 4 25q0 20 -2 68t-5 100.5t-8 97.5t-12 59q-8 14 -23 25.5t-30.5 21.5t-28 22.5t-12.5 31.5q0 25 20.5 36t41.5 11h176 q14 0 32.5 -1t33 -7.5t24.5 -17.5t10 -32q0 -25 -13 -34t-28.5 -19t-29 -26.5t-13.5 -53.5q0 -125 13.5 -248t21.5 -245q8 -154 10 -309.5t29 -307.5q4 -31 22.5 -47t38 -27.5t35 -22.5t15.5 -32q0 -25 -17.5 -35t-39.5 -14q-18 -3 -39 -3h-10q-26 1 -40 1h-36.5t-51.5 1 t-49.5 5t-30.5 12q-29 6 -29 37q0 20 13.5 31.5t31 22t31 26.5t13.5 49q0 43 -5.5 86t-5.5 88q0 35 -3 98.5t-8 132t-12 130t-18 92.5q-8 23 -22.5 27t-34.5 4l-494 2q-27 0 -37 -24.5t-11 -57.5v-13q0 -26 3 -53q4 -33 4 -49q0 -29 -8 -54.5t-8 -53.5q0 -88 -10 -174.5 t-10 -172.5q0 -41 13 -60t29.5 -30.5t30 -20.5t13.5 -30q0 -23 -19.5 -36t-38.5 -13h-233q-23 0 -39 17.5t-16 39.5z" />
<glyph unicode="I" horiz-adv-x="417" d="M18 53q0 25 18.5 36t40 21.5t40 27t18.5 52.5v996v36.5t-1 52.5t-3 50.5t-6 30.5q-10 14 -26.5 17t-34 7t-29.5 15.5t-12 46.5q0 16 32.5 24t74.5 12q32 2 61 2h20q39 -1 49 -1q14 0 38 -1t46.5 -6.5t38.5 -17.5t16 -33q0 -18 -18.5 -28.5t-41 -19.5t-40.5 -20.5 t-18 -35.5q0 -293 -4.5 -582t-4.5 -581q0 -31 17.5 -42.5t39 -17.5t39 -15t17.5 -34q0 -18 -13.5 -31.5t-31.5 -13.5h-63.5t-97.5 3t-92 7t-48 15q-6 4 -13.5 12t-7.5 16z" />
<glyph unicode="J" horiz-adv-x="811" d="M18 248q0 20 17.5 32.5t36.5 12.5q16 0 39.5 -28.5t55.5 -63.5t73 -63.5t94 -28.5q66 0 106.5 18t63 52t31 81t8.5 105l2 413v117t-3 171t-8.5 166t-17.5 105q-8 16 -25.5 22.5t-35 12.5t-30.5 17.5t-13 37.5q0 29 28.5 37.5t51.5 8.5q63 0 124.5 -2.5t124.5 -2.5 q18 0 34 -18t16 -37q0 -23 -17.5 -29t-39 -14t-40 -27.5t-18.5 -70.5q-2 -87 -2 -173q0 -108 3 -217q5 -194 5 -390q0 -88 -1 -177.5t-26.5 -162t-87 -118.5t-182.5 -46q-47 0 -90 16t-88 16q-18 0 -32.5 -9t-33.5 -9q-18 0 -37.5 32t-37 74t-29.5 82.5t-19 57.5z" />
<glyph unicode="K" horiz-adv-x="1239" d="M25 45q0 18 12 27.5t28.5 16.5t33 15.5t26.5 24.5q8 16 12 44t6 58.5t2 59v47.5q0 29 -1 111.5t-2 192.5t-3 230.5t-4 222t-5 171t-5 75.5q-8 14 -24.5 23.5t-33 18t-28.5 18.5t-12 29q0 6 4 14q23 23 56.5 24.5t62.5 1.5q18 0 58 2l34 2q24 0 47 -2q41 -4 71.5 -14 t30.5 -35q0 -18 -10 -27.5t-25.5 -15.5t-32 -10t-28.5 -12q-8 -6 -12 -38t-5.5 -71t-1.5 -72.5v-46.5v-84.5t5 -84.5q14 0 42.5 20t65.5 50t78 67t79 71.5t68.5 62.5t47.5 40q6 6 22 15t32.5 20.5t29 21.5t12.5 19q0 12 -8.5 18t-18.5 13t-18 16.5t-8 25.5q0 25 25.5 35 t59.5 14q23 2 46 2h20q33 -2 49 -2h41t58.5 -5t52 -14t22.5 -28q0 -10 -5 -20t-15 -14q-29 -23 -66 -30t-67 -24q-12 -8 -48 -34.5t-74 -58.5t-67.5 -60.5t-29.5 -40.5q0 -6 22.5 -69.5t56 -158t74.5 -205t78 -212t65.5 -181t38.5 -108.5q10 -27 23.5 -53.5t40.5 -40.5 q25 -12 54.5 -18.5t45.5 -28.5q18 -10 19 -33q0 -10 -2 -15q-16 -14 -46 -20t-65 -8q-23 -1 -46 -1h-22q-32 1 -53 1q-20 0 -48 -1h-9q-24 0 -46 4q-26 5 -44.5 19.5t-18.5 44.5q8 14 22.5 23.5t29 16.5t26.5 17.5t15 28.5q-37 135 -90.5 262t-96.5 261q-23 70 -55.5 135 t-52.5 137q-8 25 -10.5 51.5t-12.5 48.5l-14 2q-8 0 -34 -17t-59.5 -44t-69.5 -59.5t-67.5 -63.5t-52 -55.5t-22.5 -34.5q-2 -12 -3.5 -25.5t-1.5 -25.5v-66.5v-111t2 -131t2.5 -128t2.5 -100.5t6 -49q6 -16 23.5 -21.5t36 -11.5t33.5 -16t15 -37q0 -18 -15 -32.5t-32 -14.5 h-289q-12 0 -24 18.5t-12 30.5z" />
<glyph unicode="L" horiz-adv-x="1015" d="M18 1415q0 16 10.5 25.5t25 13.5t30 5t27.5 1h219q41 0 61 -30q6 -6 11.5 -13.5t5.5 -17.5q0 -25 -19.5 -33t-43 -14t-43 -19.5t-19.5 -50.5q0 -287 6 -570.5t7 -570.5q0 -23 20 -29t36 -6q26 0 88 -1q31 0 63.5 -0.5t66.5 0.5q68 1 130 8.5t88 23.5q16 12 37 37 t42.5 49.5t43 43t39.5 18.5q16 0 30.5 -13.5t14.5 -29.5q0 -18 -12 -61.5t-30.5 -88.5t-41 -78.5t-43.5 -33.5q-68 0 -138.5 8t-139.5 8q-119 0 -236.5 -8t-236.5 -8q-10 0 -24.5 2t-30 8t-25.5 14t-10 21q0 27 15 40t34.5 22t38 17.5t26.5 26.5q8 16 8.5 49t0.5 51 q0 193 -7.5 385.5t-7.5 384.5q0 66 -3 128.5t-3 127.5q0 51 -17.5 72t-38 31t-38 18t-17.5 37z" />
<glyph unicode="M" horiz-adv-x="1619" d="M18 49q0 18 10.5 28.5t26 17.5t31.5 12.5t27 13.5q29 16 35 48t12 60q41 203 76.5 405t78.5 404q14 68 35 134.5t21 136.5q0 27 -15.5 39t-35 21t-35 20.5t-15.5 35.5q14 33 31.5 41.5t52.5 8.5h203q23 0 50.5 -13.5t27.5 -42.5q0 -16 -11.5 -24.5t-24.5 -16.5t-24.5 -16 t-11.5 -25q8 -18 26.5 -53t41 -79t48.5 -92t48.5 -89t40.5 -69.5t29 -36.5q10 6 30.5 37.5t46 74.5t52 93.5t49 94.5t37 76.5t14.5 42.5l-2 13q-10 12 -23.5 18t-25.5 12t-21.5 15.5t-9.5 27.5q0 37 27.5 45.5t56.5 8.5q18 0 66 1h17q39 0 79 -4q49 -4 87 -16t38 -37 t-13.5 -36t-31 -18t-30.5 -18.5t-13 -37.5q0 -68 20.5 -159t45 -184.5t45 -178t20.5 -140.5q12 -27 21.5 -73t18.5 -100t17 -110.5t18.5 -106.5t21.5 -87t28 -51q14 -14 34.5 -19.5t39 -12.5t32 -18.5t13.5 -37.5q0 -16 -16.5 -30.5t-33.5 -14.5q-23 0 -77 -1h-22 q-44 0 -90 3q-58 4 -102 16t-44 41l2 10q8 12 24.5 21.5t31.5 20t26.5 21.5t11.5 30q0 23 -12.5 100.5t-32 181t-44 222t-47 225t-41 188.5t-28.5 113l-23 6q-66 -104 -130 -220t-111 -231q-6 -18 -18.5 -36.5t-34.5 -18.5q-14 0 -41 37t-59 92t-65.5 120.5t-63.5 122 t-53.5 94.5t-33.5 38l-20 -21q-2 -4 -11.5 -50t-22.5 -118.5t-30.5 -164t-36 -186.5t-35 -186t-30 -164t-21.5 -120t-8 -53q8 -18 27.5 -25.5t38 -13.5t33 -15.5t14.5 -33.5q0 -23 -20.5 -30t-37.5 -7q-18 0 -67 -1h-20q-40 0 -80 3q-50 4 -90 15.5t-40 35.5z" />
<glyph unicode="N" horiz-adv-x="1198" d="M18 1430q0 25 19.5 36t47.5 14t55.5 2t43.5 -1q14 0 43 -1t57.5 -5.5t51 -16.5t22.5 -33q0 -23 -16 -33t-34.5 -18t-35 -18t-16.5 -31q0 -33 42 -90t107.5 -127t145.5 -146.5t153.5 -148.5t134 -134.5t87.5 -100.5h30q0 172 -3 342t-3 344q0 33 -1 52t-9 31.5t-25.5 20.5 t-50.5 18q-10 10 -18 22.5t-8 27.5q0 23 34.5 33t80.5 13q34 2 68 2h23q44 -1 64 -1q25 0 48.5 -9.5t23.5 -39.5q0 -29 -18.5 -39.5t-40 -18.5t-39 -21.5t-17.5 -47.5q0 -59 5 -120t5 -120q0 -145 -3 -286.5t-3 -284.5v-74.5t1 -114t4 -110t7 -62.5q6 -16 22.5 -24.5 t33 -16.5t29 -17t12.5 -26q0 -20 -9.5 -31.5t-24 -17.5t-31.5 -7t-32 -1q-18 0 -57 -1h-20q-30 0 -60 2q-41 3 -71.5 13t-30.5 33q0 18 11 29.5t26.5 20.5t31 18.5t23.5 25.5q12 25 14 52.5t2 56.5q0 57 -47 136t-112.5 156.5t-134 144.5t-111.5 99q-76 57 -137.5 127 t-126.5 137l-17 7l-22 -21q0 -86 2 -170t2 -168q0 -59 -3 -134q-3 -76 -4 -152v-38q0 -57 2 -112q3 -74 15 -129q16 -16 38.5 -23.5t39.5 -23.5q14 -4 20 -17.5t6 -27.5l-2 -17q-12 -18 -31.5 -21t-37.5 -3q-21 0 -65 -1h-17q-36 0 -71 3q-44 4 -77.5 16.5t-33.5 38.5 q0 4 2 10.5t4 10.5q27 37 46 40t31.5 10t18.5 35.5t6 116.5v562v60v100.5t-2 117t-4 112.5t-7 88t-11 42q-10 8 -24.5 15t-30 14.5t-26 17.5t-10.5 27z" />
<glyph unicode="O" horiz-adv-x="1126" d="M18 752q0 119 27 248.5t88.5 239.5t161 180.5t244.5 70.5q172 0 282.5 -62.5t174 -167t88 -240.5t24.5 -282q0 -141 -24.5 -274t-88 -236.5t-171 -166t-273.5 -62.5q-158 0 -260.5 68.5t-162.5 177t-85 243t-25 263.5zM174 666q0 -94 20.5 -191.5t68.5 -177.5t124 -131 t186 -51q76 0 133.5 31.5t99.5 83t68.5 119t43 139t23.5 142t7 128.5q0 96 -14 203.5t-55 198.5t-117 150.5t-199 59.5q-86 0 -148.5 -35t-105.5 -92t-69.5 -131t-41 -152.5t-19.5 -155.5t-5 -138z" />
<glyph unicode="P" horiz-adv-x="1091" d="M27 49q0 23 14 32t33.5 15t38 13.5t24.5 25.5q6 12 8 32.5t3.5 44.5t1.5 45.5v35.5v723v61v103.5t-1.5 100.5t-3.5 52q-6 18 -23.5 25.5t-35.5 12.5t-32.5 13.5t-14.5 32.5q0 31 23.5 43.5t52.5 12.5h405q88 0 186.5 -5.5t181.5 -36t137 -95t54 -183.5 q0 -98 -36.5 -158.5t-97 -93.5t-138.5 -45t-160 -13h-27q-68 0 -134 4q-80 5 -144 5q-27 0 -38 -8t-11 -35q0 -141 -1 -278.5t-1 -278.5q0 -29 -1 -58.5t3 -58.5q4 -23 22.5 -33t39 -17t37 -17.5t16.5 -30.5q0 -14 -10.5 -23.5t-25 -15.5t-29.5 -8t-26 -2q-23 0 -71 -2 q-16 -1 -31 -1q-31 0 -65 3q-50 4 -86.5 17t-36.5 44zM284 1113v-20q0 -21 1 -41q2 -30 7 -57.5t17 -36.5q10 -2 18.5 -3t18.5 -1q45 0 103.5 -3t122 -3t124 8.5t107.5 31t76.5 62.5t29.5 103q0 59 -25.5 98t-67.5 61.5t-95 34t-109 14.5q-42 2 -83 2h-27q-53 -1 -94 -1 q-48 0 -91 -6q-12 -8 -19 -35t-10 -58.5t-3 -61.5v-44t-1 -44z" />
<glyph unicode="Q" horiz-adv-x="1146" d="M12 778q0 129 34 251t102.5 217t174 153.5t248.5 58.5q127 0 217.5 -34.5t150.5 -94t95 -140.5t53.5 -174t23.5 -193.5t5 -200.5q0 -59 -14.5 -142.5t-42 -164.5t-67.5 -150.5t-93 -102.5q-51 -33 -106.5 -51t-112.5 -41q0 -6 -2 -14t-2 -14q0 -16 9 -38t23.5 -40.5 t33 -31.5t36.5 -13q25 0 46.5 11t47.5 11q25 0 38.5 -16.5t13.5 -38.5q0 -29 -14.5 -51.5t-36 -37.5t-48 -23.5t-51.5 -8.5q-92 0 -131 21.5t-55.5 59.5t-24.5 88t-39 106q-6 12 -50 23t-101.5 30.5t-116.5 54.5t-96 92q-47 72 -76 150t-45 158.5t-21.5 163.5t-5.5 167z M166 780q0 -102 6 -201.5t35 -197.5q10 -37 34.5 -87t58.5 -95t75 -77t86 -32q12 0 24 4l2 15q0 27 -17 47t-17 47q0 23 9 36t34 13l22 -2q14 -10 35.5 -36t44.5 -53.5t42 -48t30 -20.5q14 0 35 8q86 49 137 124t76.5 164t32.5 185.5t7 184.5q0 94 -14 198.5t-54 191.5 t-114 143.5t-192 56.5h-41t-41 -2q-53 -4 -98.5 -35t-83 -79t-66.5 -108.5t-48.5 -122t-29.5 -119t-10 -102.5z" />
<glyph unicode="R" horiz-adv-x="1071" d="M18 51q0 25 18.5 33t41 14t41 20.5t18.5 51.5q0 285 -4 566.5t-4 566.5q0 39 -17.5 55t-37 24.5t-37 15.5t-17.5 32q0 18 10.5 29t26.5 16q18 4 64.5 6t106.5 3h62h66q68 -1 130.5 -1t113.5 -1t80 -1q84 0 152.5 -21.5t117.5 -66.5t76 -112t27 -155q0 -61 -29 -109 t-75 -81t-102 -50.5t-112 -17.5q-12 0 -18 -11t-6 -21q0 -14 13 -68.5t32.5 -130.5t43 -160t45 -155.5t39 -121.5t23.5 -57q16 -16 31.5 -22t27 -13.5t18.5 -20.5t7 -44q0 -20 -14 -31l-74 -4t-72 -2q-39 0 -65 29q-12 14 -30.5 78.5t-40 153.5t-45 188.5t-44 185.5 t-38 144.5t-27.5 66.5q-20 16 -48 11t-51 -5q-33 0 -65.5 6t-65.5 6q-16 0 -24 -10t-12.5 -24.5t-4.5 -31v-26.5l6 -635q0 -18 19.5 -25t43 -15.5t43 -22.5t19.5 -45q-12 -14 -52 -21.5t-89 -9.5t-95 -2h-69q-25 0 -51.5 10.5t-26.5 38.5zM269 1102q-1 -12 -1 -24 q0 -24 4 -44q6 -30 30 -46.5t79 -16.5q41 0 95 -2q27 -1 55 -1q29 0 57 1q58 2 112 11t97 31.5t68.5 60.5t25.5 99t-25.5 101.5t-68.5 62t-97 29.5t-112 10q-23 1 -46 1q-34 0 -67 -2q-55 -3 -98 -3q-18 0 -38 -1t-40 -3l-23 -16q-2 -41 -3 -82t-1 -82q0 -45 -3 -84z" />
<glyph unicode="S" horiz-adv-x="1001" d="M18 291q0 27 19 43q8 2 15 4t14 2q31 0 61.5 -34t79.5 -73.5t121.5 -73.5t187.5 -34q141 0 228 77t87 224q0 72 -41.5 130t-107.5 108.5t-144.5 93.5t-153.5 85t-135.5 85t-86.5 92q-23 37 -29 78t-6 86q0 76 28.5 135t77 100t112.5 62.5t136 21.5q35 0 72 -9t69.5 -19.5 t58.5 -19.5t38 -9q25 0 41 18.5t39 18.5q18 0 35.5 -30t31 -68.5t21.5 -75.5t8 -52q0 -45 -41 -45q-27 0 -54.5 28t-67.5 60.5t-97 60.5t-143 28q-98 0 -167 -51.5t-69 -157.5q0 -68 53 -118t134 -95t175.5 -91.5t175 -106.5t134 -141t53.5 -196q0 -111 -37 -192.5 t-102.5 -134t-154.5 -78t-193 -25.5q-47 0 -90.5 8t-77 19.5t-58 19.5t-35.5 8q-25 0 -40 -20.5t-39 -20.5q-6 0 -18.5 18.5t-28 47.5t-31 62.5t-28.5 64.5t-21.5 53.5t-8.5 28.5z" />
<glyph unicode="T" horiz-adv-x="1091" d="M27 1225q0 25 7 45t17 41q27 51 33 85t17.5 54t41 28.5t103.5 8.5h700q39 0 61.5 -26.5t36 -65.5t20.5 -80t15 -72q2 -5 2 -10q0 -13 -11 -23q-15 -14 -34 -14q-6 0 -13 2t-15 4q-49 49 -64.5 80t-34 49.5t-55.5 24.5t-125 6q-23 0 -44 -2t-44 -10q-2 -6 -4 -73t-3 -165 t-3 -214t-3 -220.5t-1 -181v-99.5q0 -59 1 -118.5t7 -118.5q2 -37 21.5 -51.5t42 -20.5t40 -13t17.5 -30q0 -12 -16.5 -30.5t-26.5 -18.5q-23 0 -81 -2q-23 -1 -46 -1q-35 0 -70 2q-59 3 -104 14t-45 36q0 29 18 37t41 17.5t41 28.5t18 71l-6 1097q0 31 -17.5 43.5 t-45.5 12.5q-25 0 -55.5 -1t-61.5 -6.5t-59.5 -14.5t-49.5 -27q-12 -10 -25 -29t-27.5 -38t-31 -33.5t-30.5 -14.5t-31.5 11t-17.5 26z" />
<glyph unicode="U" horiz-adv-x="1212" d="M18 1430q0 18 11.5 26t28 12.5t34 4.5h29.5h55h72t70.5 -3.5t50.5 -9.5q8 -6 14 -17t6 -24q0 -4 -4 -12q-14 -18 -32.5 -24.5t-36 -12.5t-29 -20.5t-11.5 -51.5v-841q0 -180 80 -262t260 -82q106 0 173 40t104 105.5t52.5 150.5t17.5 175q1 28 1 55q0 62 -4 122 q-4 87 -4 159v80.5t-1 132t-3 128t-6 68.5q-10 20 -30.5 31.5t-41 20t-35 20.5t-14.5 37q0 20 38 30.5t88 12.5q33 1 66 1h31q48 -1 66 -1q25 0 50.5 -13.5t25.5 -42.5q0 -27 -18.5 -34t-40 -12t-39 -14t-17.5 -40q0 -166 5 -332t5 -331q0 -74 -2 -149t-6 -148 q-4 -78 -47 -144.5t-107.5 -116t-141 -78t-146.5 -28.5q-115 0 -207 24.5t-157.5 79t-100.5 139.5t-35 208q0 211 -2 419.5t-2 419.5q0 51 -17.5 71.5t-39 28t-39 12.5t-17.5 30z" />
<glyph unicode="V" horiz-adv-x="1263" d="M18 1436q0 23 24 33t56 13q24 2 48 2h16q31 -1 47 -1q12 0 46 -1t68.5 -5t61.5 -15.5t27 -31.5q0 -4 -2 -10.5t-2 -10.5q-12 -12 -30 -18.5t-34 -11.5t-27.5 -13t-11.5 -25q0 -12 14.5 -60t34 -104.5t37 -108.5t23.5 -73q27 -84 49 -172t44.5 -176t48.5 -175t60 -169 l25 8q12 35 42 118t66.5 188.5t75.5 220t72 215t54.5 172t21.5 92.5q0 39 -15.5 53t-44.5 31q-2 4 -4 10t-2 10q0 20 11.5 31.5t29 18t35.5 7.5t33 1q14 0 51 -1t77 -5.5t70.5 -16.5t30.5 -33q0 -23 -13 -33t-31.5 -16t-38 -11t-32.5 -17q-12 -10 -32.5 -59.5t-47 -118 t-54 -149.5t-51 -153.5t-41 -131t-23.5 -81.5q-10 -45 -39 -116.5t-59.5 -145.5t-54 -139.5t-23.5 -95.5q0 -31 12 -41.5t27.5 -16.5t32 -15t26.5 -40q0 -14 -11.5 -22.5t-25.5 -13.5t-29.5 -6t-25.5 -1h-64.5t-94.5 4t-84 16.5t-36 36.5q0 20 13.5 28.5t31 14.5t30.5 16.5 t13 39.5q0 6 -14 58t-38 133t-54.5 182.5t-63.5 209t-64.5 210t-58 186.5t-45 139t-24.5 65q-12 25 -36 35t-46.5 16.5t-40 16t-17.5 29.5z" />
<glyph unicode="W" horiz-adv-x="1601" d="M18 1421q0 25 36 36t83 15q27 2 55 2q18 0 38 -2q46 -2 65 -2q27 0 58.5 -7t31.5 -42q0 -18 -13.5 -25t-28.5 -13.5t-27.5 -17.5t-12.5 -38q0 -10 14.5 -88t35 -189.5t46 -239.5t47 -237.5t37 -183.5t17.5 -78l16 8q14 20 36.5 75t49.5 124.5t54.5 144t52 138t44 106.5 t27.5 49l13 2q10 0 18 -6t8 -18q66 -156 129.5 -310.5t126.5 -312.5q4 -10 13.5 -13t19.5 -3q6 23 23.5 104.5t41 193.5t49 235.5t47 230t36 180.5t14.5 82q0 4 -4 16.5t-6 16.5q-16 12 -36 21t-34 26q-2 39 18.5 50t55.5 11q55 0 110.5 4t112.5 4q16 0 30.5 -18t14.5 -35 q0 -20 -15.5 -31.5t-36 -19.5t-41 -17.5t-30.5 -25.5q-2 -2 -13 -52t-30.5 -131t-42 -183.5t-47.5 -211t-47.5 -214t-39.5 -190.5t-28.5 -140.5t-11.5 -65.5q0 -4 4 -17.5t6 -17.5q25 -10 53.5 -21t41.5 -40q0 -20 -13.5 -34.5t-34.5 -14.5q-27 0 -77 -1h-20q-40 0 -81 3 q-51 4 -94 15t-53 36q0 25 22 35q10 12 24.5 19t29.5 12q0 12 -14.5 53t-35 96t-46 115.5t-49 116t-44 95.5t-29.5 54h-8q-6 -12 -24.5 -53t-43 -95.5t-51 -116t-48 -114.5t-36 -90t-14.5 -43q0 -23 15.5 -31t33 -14t32.5 -15.5t15 -31.5q0 -23 -17 -29t-38 -6 q-31 0 -65.5 -2t-71.5 -3h-25q-24 0 -48 1q-36 2 -64 12q-8 8 -14.5 18.5t-6.5 22.5q0 20 12.5 27.5t28 15.5t28.5 22.5t13 49.5q0 47 -15.5 93t-23.5 93q-4 31 -19.5 114t-36 190.5t-44 224t-46 217t-42 170t-29.5 80.5q-12 12 -31.5 17t-39 11t-33 15.5t-13.5 31.5z" />
<glyph unicode="X" horiz-adv-x="1271" d="M29 72q0 31 22.5 40t52 18t59.5 28.5t44 72.5q16 68 44 137.5t62.5 137t78.5 129t93 110.5q20 16 42 37t22 49q0 4 -19.5 41t-48 90.5t-64.5 114t-68 114.5t-56.5 95t-32.5 51q-12 14 -36.5 26.5l-49 25t-44 25.5t-19.5 28q0 27 24 40t47 12q41 0 81 -2.5t79 -2.5 q14 0 41 -1t52.5 -7t44 -18.5t18.5 -35.5q0 -16 -12.5 -22t-27 -11t-26.5 -13.5t-12 -30.5q0 -6 14.5 -35t36 -69t48 -85t51 -86t44 -71.5t27.5 -40.5q0 -23 25 -23q10 0 19 8t20 15q25 29 57.5 73.5t61 95t48 100.5t19.5 89q0 37 -19.5 51t-42 21.5t-42 15.5t-19.5 35 q0 29 17.5 40t43.5 10q21 0 73 3q18 1 35 1q35 0 71 -4q54 -4 95.5 -17t41.5 -41q0 -12 -4 -21q-12 -18 -29.5 -22t-36 -7.5t-35 -14.5t-24.5 -42q-18 -61 -33.5 -107t-34 -88t-44 -83t-66.5 -93q-23 -27 -50.5 -55.5t-44.5 -56.5q-4 -6 -8 -19q86 -156 170 -315.5 t180 -310.5q25 -41 57 -55.5t58.5 -22.5t45 -20.5t18.5 -45.5q0 -20 -15.5 -31.5t-36 -16.5t-42 -6t-35.5 -1h-61.5t-86.5 4t-75.5 15.5t-32.5 35.5q0 14 8 23.5t20.5 16.5t24.5 13.5t20 12.5l4 8t2 8q0 10 -23.5 56.5t-59 108t-77.5 130t-80 126.5t-65.5 96t-34.5 38 q-8 0 -16 -4q-41 -41 -91 -104.5t-94 -135t-74 -144.5t-30 -132q0 -35 16.5 -45t37 -15t37 -14.5t16.5 -42.5q0 -25 -41 -35t-93 -13q-32 -2 -63 -2q-21 0 -41 1q-51 2 -71 2q-27 0 -54.5 15.5t-27.5 46.5z" />
<glyph unicode="Y" horiz-adv-x="1253" d="M20 1452q0 25 23 35t53 13q23 2 47 2h16q32 -1 48 -1t49 -1t64.5 -7t56 -19.5t24.5 -39.5q0 -27 -20 -33q-8 -6 -25.5 -15.5t-17.5 -19.5q0 -6 18.5 -36t47 -70.5t63.5 -88t65.5 -91.5t55 -77.5t35.5 -46.5l22 -10q8 0 30.5 24.5t50.5 60.5t58.5 78t56 78t43 61.5 t19.5 27.5q4 6 14.5 17.5t21.5 22.5t19.5 21.5t8.5 16.5q0 18 -12.5 25t-27 13.5t-26.5 16.5t-12 33q8 25 23.5 37t34 15t40 2t43.5 -1q16 0 51 -1t69 -7t59.5 -20.5t25.5 -41.5q0 -16 -10.5 -27.5t-25.5 -17.5t-32.5 -10t-29.5 -8q-16 -14 -55.5 -58t-86.5 -103.5t-98 -126 t-93 -127t-68.5 -106.5t-26.5 -63q0 -72 4 -140.5t4 -139.5q0 -66 -7.5 -128.5t-7.5 -127.5q0 -23 1.5 -44.5t5.5 -41.5q4 -25 21.5 -33t35.5 -14.5t33.5 -15.5t15.5 -34q0 -20 -25.5 -30.5t-59.5 -15.5t-66.5 -6t-49.5 -1q-14 0 -41.5 1t-55.5 7t-49.5 18.5t-21.5 33.5 q0 33 18.5 40t41 14t41 29.5t18.5 88.5v86v115.5t-1 128t-4 121.5t-9 97t-14 54q-12 16 -43 62t-71 104.5t-85 122t-85 117.5t-68.5 91t-37.5 41q-14 6 -35.5 10.5t-42 11.5t-35 18.5t-14.5 33.5z" />
<glyph unicode="Z" horiz-adv-x="976" d="M20 41q0 106 51.5 221t127 230.5t165 228.5t165 219.5t127 201.5t51.5 173q0 14 -5 35q-16 6 -34.5 7t-34.5 1h-156q-84 0 -132 -20.5t-76.5 -44t-46 -44t-40.5 -20.5q-18 0 -31.5 18.5t-13.5 34.5q0 29 19.5 62.5t31.5 60.5q18 37 42 50t65 13q139 0 274.5 3.5 t272.5 3.5q16 0 31.5 -11.5t15.5 -27.5q0 -119 -51.5 -241t-129 -241.5t-167.5 -234.5t-168 -220.5t-129 -198.5t-51 -169q0 -23 17 -27t34 -4q31 0 101.5 1t147 4.5t141 8.5t85.5 15q20 10 47 35.5t54.5 53.5t52 49.5t40.5 21.5q20 0 32.5 -17.5t12.5 -33.5 q0 -29 -13 -55.5t-25 -53.5q-12 -31 -19.5 -55.5t-19 -42t-33 -26.5t-60.5 -9q-180 0 -356 -3t-354 -3q-20 0 -39 14t-19 37z" />
<glyph unicode="[" horiz-adv-x="434" d="M96 -139l6 1593q0 29 12.5 48.5t43.5 19.5h110q25 0 43.5 -17.5t18.5 -44.5q0 -23 -10.5 -35t-25.5 -17t-34.5 -6t-36.5 -1l-6 -1491h36.5t38 -5t30 -17.5t12.5 -37.5t-18.5 -43t-43.5 -18h-120q-27 0 -41.5 23.5t-14.5 48.5z" />
<glyph unicode="\" horiz-adv-x="759" d="M98 1362q0 29 11.5 53.5t46.5 24.5q23 0 37 -14.5t22 -34.5q8 -16 30.5 -81t55.5 -160t73 -210t80 -232.5t77.5 -229t67.5 -200t47.5 -142.5t17.5 -58q0 -25 -15.5 -46.5t-44.5 -21.5q-18 0 -33.5 11.5t-23.5 27.5q-37 76 -60.5 168t-50.5 172q-66 193 -131 381t-131 379 q-4 8 -15.5 42t-25.5 70.5t-24.5 67.5t-10.5 33z" />
<glyph unicode="]" horiz-adv-x="434" d="M98 -150q0 25 12.5 37.5t30 17.5t38 5h36.5l-4 1491q-16 0 -35.5 1t-36 6t-27 17.5t-10.5 34.5q0 27 19.5 44.5t44.5 17.5h110q31 0 42.5 -19.5t11.5 -48.5l6 -1593q0 -25 -13.5 -48.5t-39.5 -23.5h-121q-25 0 -44.5 18.5t-19.5 42.5z" />
<glyph unicode="^" horiz-adv-x="516" d="M39 1100q0 23 26.5 72t58.5 102t59.5 101t27.5 71q4 16 21.5 24.5t33.5 8.5q29 0 47 -29q0 2 1 0t1 -4q12 -27 40 -77t57.5 -103.5t52 -100.5t22.5 -65q0 -23 -15 -42.5t-40 -19.5q-18 0 -42.5 32t-49.5 73t-46.5 82t-31.5 59q-10 -18 -30.5 -59t-45 -82t-48.5 -73 t-42 -32q-27 0 -42 19.5t-15 42.5z" />
<glyph unicode="`" horiz-adv-x="587" d="M10 1411q0 25 16.5 41t39.5 16q10 0 35.5 -15t58.5 -38.5t68.5 -53.5t64.5 -57.5t48 -51t19 -33.5q0 -25 -17 -41.5t-40 -16.5q-16 0 -28.5 8.5t-24.5 16.5q2 -4 8 -7t10 -8q-16 12 -58 43t-86 68t-79 73t-35 56z" />
<glyph unicode="a" horiz-adv-x="778" d="M12 254q0 70 37 120t91.5 88t119 67.5t118.5 57t91 56.5t37 66q0 63 -25.5 108t-97.5 45q-14 0 -34.5 -4t-40 -11t-35 -19.5t-21.5 -28.5q-12 -12 -14 -31.5t-5.5 -36t-13.5 -29t-37 -12.5q-18 0 -36.5 19.5t-35 46t-26.5 53.5t-10 43q0 25 7 35t19.5 13t27.5 2t32 -1 q14 0 37.5 9.5t52.5 21.5t61.5 21.5t65.5 9.5q18 0 41.5 -2.5t47 -7.5t46.5 -12t37 -17q33 -23 51 -80.5t28.5 -132t12.5 -159.5t2 -167t1 -151.5t5 -110.5q2 -25 18.5 -33t35 -14t34 -15.5t15.5 -35.5q0 -23 -14.5 -30t-32.5 -7q-47 0 -78 -1t-51.5 6t-36 27.5t-29.5 63.5 q-14 0 -36.5 -16.5t-51.5 -37t-67 -37t-83 -16.5q-59 0 -107 21.5t-82 58.5t-52.5 87.5t-18.5 109.5zM156 246q0 -57 33.5 -102.5t95.5 -45.5q63 0 107 26t72 66.5t40 94t12 106.5q0 33 -1 67t-13 62h-39q-39 -18 -91.5 -44.5t-100.5 -62.5t-81.5 -78t-33.5 -89z" />
<glyph unicode="b" horiz-adv-x="811" d="M29 1419q0 29 21 36t46 7q18 0 62 2q22 1 44 1t44 -1q45 -2 79.5 -12t34.5 -35q0 -23 -12 -32t-27.5 -16t-31 -15t-19.5 -25q-8 -27 -8 -55.5v-54.5v-161t8 -157q20 0 42 12.5t47.5 26.5t56 26.5t69.5 12.5q104 0 167 -55.5t95.5 -136t43 -176t10.5 -175.5 q0 -74 -13.5 -153.5t-46 -146t-90 -109.5t-145.5 -43q-35 0 -59.5 7t-45 18t-42 24.5t-50.5 25.5q-18 -27 -29.5 -40t-24.5 -18t-31.5 -5h-49.5q-14 0 -32.5 1t-35 5t-27.5 14.5t-11 28.5q0 25 13 35t29.5 20.5t30 30t13.5 59.5q0 262 -11.5 522.5t-11.5 522.5q0 23 -3 57.5 t-13 50.5q-6 12 -20.5 20.5t-29 15.5t-25.5 15.5t-11 24.5zM278 392q0 -6 -1 -11q-1 -48 11 -91q12 -48 43 -88t95 -71q16 -8 30.5 -16.5t30.5 -8.5q66 0 103 41t54.5 99.5t20.5 123t3 111.5t-5.5 112.5t-25 125t-57 100.5t-103.5 41q-70 0 -109.5 -36t-59 -88t-24.5 -114.5 t-5 -113.5q1 -62 -1 -116z" />
<glyph unicode="c" horiz-adv-x="679" d="M20 522q0 80 16.5 164t55.5 153.5t105.5 113.5t164.5 44q72 0 132 -26q14 -16 27.5 -20.5t25.5 -2.5t25.5 5t29.5 3q18 0 33.5 -15t15.5 -34q0 -16 -15 -50t-36.5 -66.5t-45.5 -57t-42 -24.5q-29 0 -33 26.5t-7 57t-16.5 57.5t-62.5 27q-70 0 -117 -35t-74.5 -88.5 t-39.5 -116t-12 -119.5q0 -55 10 -122.5t35.5 -127t70.5 -99.5t117 -40q74 0 105.5 21.5t50 52t37 62.5t65.5 52q20 -20 21 -51q0 -49 -22 -97t-57.5 -86t-82.5 -61.5t-99 -23.5q-113 0 -186.5 48t-116.5 124t-60.5 169t-17.5 183z" />
<glyph unicode="d" horiz-adv-x="794" d="M31 475q0 82 11 171t46 165t98.5 125t169.5 49q49 0 75 -11t42 -24.5t28.5 -27t33.5 -17.5v-8q10 27 11 54.5t1 56.5v69v108.5t-3 104.5t-9 58q-6 14 -21.5 20t-30 12t-26 14.5t-11.5 26.5q1 52 50 52q18 0 62 1h14q37 0 75 -4q45 -6 80 -17t35 -36t-13.5 -30t-30 -10 t-29.5 -21.5t-13 -61.5q0 -37 -1 -134t-1 -222v-262t3 -256t8 -202t13 -99q23 -12 44.5 -20.5t41.5 -26.5q0 -39 -20.5 -51.5t-54.5 -12.5q-55 0 -82 -1t-40.5 7.5t-22.5 27.5t-29 60q-31 -25 -50.5 -43t-39 -32.5t-46 -21.5t-69.5 -7q-90 0 -148.5 48t-92.5 121t-46 156 t-12 152zM162 477q0 -43 7 -103.5t26.5 -117.5t55.5 -97t93 -40q68 0 109 34.5t63.5 86t30.5 112t8 109.5q0 51 -3 121.5t-22.5 134t-59.5 107.5t-114 44q-63 0 -102 -44t-59.5 -105.5t-26.5 -128t-6 -113.5z" />
<glyph unicode="e" horiz-adv-x="653" d="M4 500q0 72 12.5 155.5t45 155.5t91 119t150.5 47q76 0 128 -15.5t88 -48t57.5 -85t37.5 -123.5l2 -15q0 -23 -30.5 -44t-77.5 -44.5t-103.5 -46.5t-108.5 -47.5t-93 -49t-56 -50.5l-2 -17q0 -49 16.5 -97t46.5 -86t72 -62.5t95 -24.5q55 0 88 27.5t55.5 61.5t39.5 62.5 t44 28.5q23 0 30 -14.5t7 -32.5q0 -49 -28.5 -95t-73.5 -82t-97.5 -56.5t-99.5 -20.5q-104 0 -170 47t-102.5 121t-50 162t-13.5 170zM137 594l2 -31q4 0 12.5 -3t12.5 -3q12 0 57 20.5t96.5 47t91.5 52t42 36.5l2 20q0 70 -47.5 102.5t-110.5 32.5q-35 0 -64.5 -31.5 t-50 -75.5t-32 -91t-11.5 -76z" />
<glyph unicode="f" horiz-adv-x="423" d="M12 1307q0 74 52 122t124 48q41 0 77 -10.5t97 -10.5q35 0 35 -37q0 -14 -10 -41.5t-24.5 -55.5t-32 -48.5t-31.5 -20.5q-25 0 -32 17.5t-11 39t-16.5 40t-44.5 18.5q-27 0 -44.5 -17.5t-17.5 -45.5q0 -27 14.5 -47.5t32.5 -36.5q47 -43 61.5 -76t15.5 -60.5t1 -52 t16 -53.5q12 -4 28.5 -7t32 -9.5t26 -16.5t10.5 -26q0 -29 -17.5 -33t-39 -10.5t-39 -24.5t-17.5 -76v-77t1 -123.5t2 -146.5t4 -141.5t7 -110.5t11 -54q14 -20 38.5 -20.5t47.5 -4.5l14 -6q4 -12 4 -22q0 -31 -20.5 -45.5t-49 -19.5t-58.5 -4t-48 1t-47 -2q-12 -1 -23 -1 q-16 0 -31 2q-26 3 -45.5 14.5t-19.5 37.5q0 20 8 30.5t20.5 15.5t27 9.5t26.5 14.5q4 4 8 38t6 83t3 106.5t1 109.5v93v57v56.5t-2 64.5t-6 62.5t-10 52.5q-6 18 -21.5 26.5t-31 14.5t-27.5 14t-12 27q0 27 16.5 32t34.5 8t34.5 14t16.5 48q0 49 -19.5 78t-43 55.5t-43 58 t-19.5 85.5z" />
<glyph unicode="g" horiz-adv-x="778" d="M20 520q0 66 9.5 147t38 151.5t82 117.5t141.5 47q53 0 107.5 -15.5t93.5 -54.5l16 7q8 25 28.5 35t45 13t50 1t48.5 -2q20 0 49 -10.5t29 -36.5q0 -29 -15.5 -38.5t-36 -14.5t-38 -13t-21.5 -35q-4 -25 -4 -50.5v-49.5q0 -203 6 -402.5t6 -400.5q0 -84 -8 -158.5 t-38.5 -132t-90 -91.5t-160.5 -34q-61 0 -117.5 11.5t-99.5 39t-69.5 73.5t-26.5 118q0 18 8 50t23.5 61.5t36 51t45.5 21.5q14 0 39.5 -16t50 -40t43 -47.5t18.5 -37.5q0 -4 -4 -16q-6 -4 -14 -9.5t-19 -5.5q-16 0 -31.5 7.5t-31.5 7.5q-23 0 -29 -17.5t-6 -34.5 q0 -33 13.5 -54t36 -33.5t50 -17.5t56.5 -5q115 0 161 67.5t46 173.5v54.5t-1 74t-4.5 71.5t-7.5 48l-16 -8q-43 -53 -81 -69.5t-101 -16.5q-111 0 -173.5 49t-91 125t-35 167t-6.5 177zM147 451q0 -39 7.5 -97.5t27 -113t54 -93t88.5 -38.5q70 0 109.5 38.5t60 95t24.5 120 t4 112.5t-4 116.5t-22.5 129t-56.5 105.5t-107 44q-31 0 -58 -12q-43 0 -68.5 -52t-37.5 -121t-16.5 -136.5t-4.5 -97.5z" />
<glyph unicode="h" horiz-adv-x="796" d="M18 1421q0 20 21.5 30.5t50.5 13.5q22 2 43 2h13q28 -1 40 -1q14 0 41 -1t53.5 -6t47 -16t20.5 -32q0 -27 -16.5 -33t-36 -12t-35.5 -24.5t-16 -69.5v-301q0 -23 2 -46.5t6 -47.5h22q35 43 79 73.5t104 30.5q109 0 169 -48t89.5 -123t36 -164t6.5 -171q0 -88 -15.5 -173 t-56.5 -165l8 -31q10 -4 24.5 -6t27 -7t21.5 -14t9 -24q0 -20 -21.5 -31.5t-51 -16.5t-58.5 -6t-43 -1q-12 0 -29.5 1t-33 5t-26.5 13.5t-11 27.5q0 16 16.5 54t36.5 85t38.5 96.5t22.5 88.5q4 47 8.5 91t4.5 91q0 39 -4 91t-19.5 100.5t-47.5 82t-85 33.5 q-66 0 -108.5 -31.5t-67.5 -81t-35 -106.5t-10 -109v-47.5v-76.5t2 -90.5t4 -88.5t6 -70.5t10 -35.5q6 -10 21.5 -19.5t30 -18.5t25.5 -18.5t11 -19.5q0 -23 -24 -33q-22 -10 -54 -13q-24 -2 -48 -2h-16q-32 1 -46 1q-12 0 -34.5 1t-44 5t-37 15.5t-15.5 29.5 q0 20 11.5 31.5t26.5 21t28.5 22.5t17.5 36q6 45 7 93t1 93q0 25 -1 106t-3 186t-5 224t-6 220.5t-8.5 171t-9.5 81.5q-8 18 -22 28.5t-27.5 17t-24 14.5t-10.5 24z" />
<glyph unicode="i" horiz-adv-x="358" d="M18 905q0 25 18.5 41.5t43.5 16.5h139h10q12 0 31 -2.5t35 -7.5t28.5 -15t12.5 -27q0 -14 -12.5 -22t-28.5 -16.5t-30.5 -17.5t-20.5 -28q-8 -23 -8 -44v-42v-58q0 -47 -2 -111q-1 -32 -0.5 -67t0.5 -72q2 -75 5 -141.5t7 -115.5t12 -65q20 -10 47 -18.5t27 -39.5 q0 -25 -10.5 -36t-26.5 -15t-34.5 -4h-35.5q-14 0 -46 1t-64.5 6t-58 16.5t-25.5 33.5q0 18 11 28.5t25.5 18t26.5 15.5t17 24q8 41 9 86t1 88q0 121 -6 241q-2 45 -2 90q0 75 6 151q-14 43 -26.5 57t-24 17t-23.5 7.5t-27 26.5zM96 1276q0 39 16.5 68.5t61.5 29.5 q43 0 58.5 -33.5t15.5 -70.5q0 -35 -17.5 -63.5t-56.5 -28.5q-47 0 -62.5 29.5t-15.5 68.5z" />
<glyph unicode="j" horiz-adv-x="354" d="M-213 -317q0 16 7 28.5t28 12.5q14 0 32.5 -16.5t42 -37t52 -37t63.5 -16.5q37 0 59.5 13.5t37 37t19.5 52t5 59.5v96v196.5t-1 244.5t-4 245t-6 195t-9 92q-6 14 -21.5 22.5t-31 15.5t-26.5 16t-11 26q0 23 17 33t40.5 14t48.5 3t39 -1q12 0 40 -1t55.5 -6t49 -16.5 t21.5 -31.5q0 -10 -8.5 -19.5t-20.5 -16.5t-24.5 -13.5t-20.5 -8.5q-6 -10 -11 -43t-7 -69.5t-3 -71.5t-1 -49q0 -229 7 -455.5t7 -456.5q0 -55 -19.5 -96t-53.5 -67.5t-79 -40t-96 -13.5q-29 0 -54.5 7.5t-53.5 7.5q-12 -4 -24.5 -6.5t-23.5 -8.5q-10 8 -20 33t-19.5 52.5 t-15.5 54t-6 41.5zM96 1309q0 37 20.5 60.5t57.5 23.5q41 0 61.5 -31t20.5 -66q0 -39 -13.5 -72.5t-60.5 -33.5q-23 0 -38 12t-26.5 29.5t-16.5 38t-5 39.5z" />
<glyph unicode="k" horiz-adv-x="880" d="M18 1419q4 16 20.5 25.5t36 13.5t40 5t32.5 1h43t59 -3t55.5 -8t33.5 -17q10 -4 11 -12.5t5 -18.5l-30 -25q-27 -8 -41.5 -14t-21.5 -15.5t-11 -23.5t-12 -39q5 -69 5 -137v-23q-1 -80 -3 -160q-1 -40 -1 -80.5t1 -80.5q2 -80 12 -158h16q57 53 119 98.5t115 104.5v16 q-8 12 -15.5 24.5t-7.5 29.5q0 27 13.5 34t35.5 7h121h40t48.5 -2.5t45 -9.5t30.5 -21q0 -12 -1 -24.5t-7 -22.5q0 -2 -44 -19.5t-96.5 -43t-95.5 -57.5t-43 -63q0 -14 7.5 -23t15.5 -20q51 -63 86 -134.5t70 -145.5q27 -59 28 -119.5t19 -122.5q4 -18 22.5 -27.5 t37.5 -15.5t34.5 -14t15.5 -27q0 -27 -26.5 -38t-63.5 -14q-28 -2 -55 -2h-17q-36 1 -55 1q-10 0 -29.5 1t-38 5t-32 13.5t-13.5 25.5q0 29 15.5 41t33 20.5t33 20.5t15.5 43q0 20 -10.5 61t-27 91.5t-39 101.5t-47 94t-50 69.5t-49.5 26.5q-25 0 -52.5 -20.5t-51 -49 t-40 -61t-16.5 -57.5v-65.5t2 -98.5t5 -94t7 -53q20 -10 38.5 -16.5t39.5 -14.5q16 -16 16 -39q0 -16 -23.5 -25.5t-53 -13.5t-58.5 -5t-41 -1q-14 0 -38 -1h-9l-37 3q-24 4 -40.5 14.5t-16.5 32.5q0 31 27.5 42t48.5 24q10 16 14 33.5t4 35.5q0 281 -1 560.5t-17 560.5 q-2 39 -14.5 53t-28 20t-30.5 12.5t-22 30.5z" />
<glyph unicode="l" horiz-adv-x="368" d="M18 1440q18 23 44 26.5t51 3.5q14 0 53 -1t79 -5t70.5 -14t30.5 -31q0 -20 -15.5 -29.5t-35 -16.5t-34.5 -17t-15 -33q0 -281 3 -558.5t3 -557.5q0 -57 15.5 -77.5t32.5 -28t32.5 -12.5t15.5 -32q0 -23 -19.5 -34t-46 -16t-52 -6t-40.5 -1q-18 0 -46 -1h-9q-23 0 -43 4 q-26 5 -45.5 17.5t-19.5 36.5q0 25 16 34t34.5 17.5t35 23.5t16.5 54q0 276 -4 549t-4 549q0 55 -16.5 74.5t-35 27t-35 15.5t-16.5 39z" />
<glyph unicode="m" horiz-adv-x="1292" d="M18 903q0 10 5 31q23 23 55.5 22.5t60.5 -0.5q27 0 53.5 -2t49.5 -12l22 -70l8 31v-31q31 55 93.5 76t121.5 21q76 0 140.5 -32t95.5 -103h25q39 59 88 100t125 41q86 0 145 -40t96 -101.5t52.5 -136t15.5 -144.5q0 -78 -8.5 -133t-20.5 -103.5t-27.5 -98.5t-29.5 -118 q10 -6 24.5 -11t26.5 -11t21.5 -16.5t9.5 -26.5q0 -35 -28 -39t-52 -4q-18 0 -50 1t-65 7t-56.5 20.5t-23.5 38.5q0 14 12.5 37t30 47.5t33.5 48t23 41.5q27 72 37 162t10 168q0 39 -7.5 88t-26 94.5t-51 76t-83.5 30.5q-41 0 -79 -26.5t-67.5 -66.5t-48 -85t-18.5 -82v-445 q0 -29 15 -41t33.5 -19t34 -16.5t15.5 -31.5q0 -29 -17.5 -36t-39.5 -7h-156q-14 0 -32.5 1t-35 6t-27.5 16.5t-11 29.5q0 31 23.5 42t47.5 18q8 8 12.5 26.5t6.5 39t2 39.5v32q0 106 -4.5 210.5t-4.5 211.5q0 35 -4 68.5t-17 59t-40 41t-70 15.5q-100 0 -150 -57.5 t-70.5 -139.5t-20.5 -174v-162q0 -10 1 -40.5t2 -64.5t3 -62.5t4 -34.5q8 -18 23.5 -23.5t32 -9.5t28.5 -12.5t12 -32.5q0 -25 -24.5 -34t-42.5 -9q-21 0 -63 -2q-14 -1 -28 -1q-28 0 -57 3q-43 4 -74.5 15.5t-31.5 39.5q0 23 13 30t30.5 11t32 13.5t18.5 33.5q4 47 4 92v93 q0 119 -6 236.5t-6 236.5q0 31 -15.5 43t-34 18t-34 14.5t-15.5 30.5z" />
<glyph unicode="n" horiz-adv-x="778" d="M18 944q27 27 45.5 29t55.5 2h28.5t35 -1t34.5 -5t27 -11q14 -33 14 -61h25q14 14 35.5 30.5t46 31t49.5 24.5t43 10q12 0 22 -3t21 -7q92 -35 143 -79t76.5 -100t32 -129t6.5 -163q0 -53 -13.5 -103.5t-30 -99.5t-29.5 -98t-13 -100q12 -6 26.5 -9.5t26.5 -9.5t21.5 -16 t9.5 -27q0 -20 -12.5 -29.5t-30 -13.5t-37 -4h-33.5q-16 0 -42 1t-50.5 7t-41.5 18.5t-17 34.5q0 25 16 48q33 51 50 105t36 114q20 72 25.5 145.5t5.5 149.5q0 33 -6.5 73.5t-22.5 76.5t-43 60.5t-70 24.5q-59 0 -101 -20.5t-70.5 -55t-42 -82t-13.5 -100.5 q0 -117 3 -233.5t7 -233.5q8 -10 23.5 -19.5t32 -18.5t28.5 -19t12 -23q0 -23 -24.5 -33t-57 -14t-64.5 -4h-46q-16 0 -37.5 1t-41 7t-34 17.5t-14.5 31.5q0 23 12.5 33t26.5 17.5t27.5 18.5t17.5 36q4 29 5 58.5t1 58.5q0 123 -3 244.5t-3 244.5q0 55 -11.5 73.5t-27.5 27 t-34.5 19.5t-35.5 52z" />
<glyph unicode="o" d="M16 580q0 74 18.5 146.5t58.5 130.5t100.5 95t144.5 37q98 0 162.5 -41t102.5 -105.5t54.5 -146.5t16.5 -164q0 -78 -12.5 -170t-46 -172.5t-96 -135t-163.5 -54.5q-115 0 -182.5 57.5t-102 144.5t-45 188.5t-10.5 189.5zM152 557q0 -53 4 -129t23.5 -144.5t61.5 -116.5 t117 -48q45 0 77 31.5t52.5 77.5t30.5 95.5t10 84.5v176q0 51 -8 102t-30.5 93t-61.5 68.5t-100 26.5q-49 0 -83 -35.5t-54.5 -87t-29.5 -104.5t-9 -90z" />
<glyph unicode="p" horiz-adv-x="780" d="M16 913q0 25 22.5 36.5t41.5 11.5q35 0 66.5 -4.5t66.5 -4.5l39 -39h6l-6 -14q33 6 50 18.5t35.5 24.5t45.5 21.5t78 9.5q96 0 154.5 -49.5t90 -123t42 -158.5t10.5 -157q0 -74 -9.5 -159.5t-40 -158.5t-88 -121t-153.5 -48q-72 0 -116 28.5t-91 79.5l-2 -460 q0 -31 32 -44.5t54 -17.5l25 -24l-9 -47q-16 -10 -33.5 -14.5t-35.5 -4.5h-54t-71 3t-70 8.5t-47 15.5l-12 35l4 20q16 20 30.5 25.5t26 8.5t20.5 9t13 31q6 37 6 74.5v74.5q0 256 -5 507t-5 507q0 25 -17.5 37t-38 19.5t-38 16.5t-17.5 27zM252 412q0 -74 16.5 -141.5 t56 -114.5t121.5 -47q57 0 93 31.5t56.5 78.5t27 100.5t6.5 98.5q0 49 -3 127t-21.5 151.5t-57.5 125.5t-111 52q-59 0 -96 -35.5t-56.5 -88t-25.5 -109.5t-6 -100v-129z" />
<glyph unicode="q" horiz-adv-x="794" d="M12 543q0 74 11.5 150.5t43 138t88 101.5t148.5 40q66 0 112 -21.5t87 -77.5q10 16 12 36t10 38q23 10 54.5 9t54.5 -1q29 0 62.5 -4t56.5 -28q-2 -29 -10.5 -40.5t-20.5 -14.5t-26.5 -3t-26 -5t-19.5 -20.5t-8 -47.5q0 -281 5 -557.5t5 -557.5q0 -49 17.5 -65t39 -22.5 t40 -15.5t18.5 -44q0 -18 -18.5 -28.5t-34.5 -10.5h-64t-79 3t-75.5 9.5t-54.5 18.5l-8 39q29 29 47.5 36t29.5 14t15 26.5t4 72.5v196.5t-2 196.5q-43 -51 -91 -80.5t-118 -29.5q-111 0 -172 55t-90.5 138t-36 179.5t-6.5 176.5zM147 580q0 -31 1.5 -78t5.5 -100.5 t14 -106.5t30.5 -97t50.5 -71t75 -27q61 0 98 35t57.5 86t26.5 108.5t6 102.5v96q0 59 -6 119t-29.5 108t-67.5 77.5t-118 29.5q-41 0 -68.5 -32.5t-44 -77.5t-24 -93.5t-7.5 -78.5z" />
<glyph unicode="r" horiz-adv-x="630" d="M41 915l8 9q0 10 12.5 15t27.5 8t30.5 4t21.5 1q47 0 66.5 -2t28 -9t13.5 -20.5t25 -35.5h17q31 33 73 53t87 20q20 0 50.5 -7t60.5 -21.5t50.5 -33.5t20.5 -44q0 -12 -12.5 -36.5t-29 -48.5t-35.5 -41t-34 -17q-29 0 -35 22.5t-10 48t-13 48t-44 22.5q-39 0 -66.5 -37 t-45 -87t-26 -101.5t-8.5 -81.5v-334q0 -27 3.5 -57.5t13.5 -53.5q23 -4 45 -8t39 -22q2 -4 5 -11.5t3 -11.5q0 -20 -13.5 -33.5t-35.5 -13.5q-18 0 -62 -1h-18q-36 0 -73 3q-46 4 -80.5 15.5t-34.5 35.5q0 12 8 24.5t22 16.5q10 10 25.5 12t36.5 27v346t-17 346 q-8 16 -21.5 26.5t-28.5 19t-28.5 18.5t-21.5 28z" />
<glyph unicode="s" horiz-adv-x="673" d="M14 262l29 12q25 0 46.5 -23.5t52 -53t76.5 -53t122 -23.5q72 0 125 40t53 115q0 59 -32.5 100.5t-82 75t-107.5 64.5t-107.5 70t-82 91t-32.5 126q0 41 20.5 73.5t52 55t70.5 35t76 12.5t70.5 -13.5t68.5 -13.5q14 0 27.5 5.5t27.5 5.5q18 0 34 -22.5t27 -52.5t16 -59.5 t5 -44.5q0 -8 -4 -24l-14 -15q-31 6 -52.5 28t-47 44.5t-62.5 41t-98 18.5q-41 0 -69.5 -25t-28.5 -66q0 -47 33.5 -79.5t83.5 -62.5t109.5 -60.5t110 -71.5t84 -98.5t33.5 -139.5q0 -53 -22.5 -103t-61.5 -88t-88 -61.5t-104 -23.5q-25 0 -49.5 7t-47 16.5t-47 17.5 t-49.5 8q-18 0 -31.5 -16.5t-31.5 -16.5q-20 0 -39 33t-32 75t-21.5 83t-8.5 57z" />
<glyph unicode="t" horiz-adv-x="380" d="M16 905q0 29 15.5 35t34 12t34 23.5t15.5 66.5q0 47 -9.5 90.5t-9.5 90.5q0 14 15.5 36.5t36 42t43 34t36.5 14.5q18 0 38 -5.5t20 -27.5q0 -25 -14.5 -45.5t-18.5 -42.5q-10 -43 -10 -89v-91v-42t4 -42q10 -10 27.5 -11.5t31.5 -1.5q16 0 32.5 -7t16.5 -27 q0 -41 -18.5 -49.5t-40 -11.5t-38.5 -14.5t-17 -56.5v-73.5v-128t1 -153.5t2 -148.5t3 -114.5t6 -51q6 -10 23.5 -16.5t35 -13.5t30.5 -19.5t13 -30.5l-16 -21q-29 -10 -68 -11t-69 -1q-12 0 -41 1t-59.5 5t-54 13.5t-23.5 27.5q0 14 11 23.5t25.5 15.5t29.5 12.5t24 14.5 q10 55 12 110.5t2 110.5v59v93.5t-1 110.5t-3 107.5t-4 85t-6 46.5q-6 14 -21.5 18t-32 7t-30 10.5t-13.5 29.5z" />
<glyph unicode="u" horiz-adv-x="796" d="M4 479q0 49 12.5 100.5t27.5 98.5t27.5 88t12.5 70q0 25 -11.5 27.5t-24.5 4.5t-23.5 12.5t-10.5 49.5q8 12 27.5 17t42 6t44.5 1h34q29 0 58.5 -5t49.5 -27l2 -11q0 -16 -22.5 -54t-48 -95t-48 -129t-22.5 -154q0 -49 4 -113.5t23.5 -124t57.5 -100.5t106 -41 q35 0 70.5 22.5t64 55.5t46 72t17.5 74v106.5t-2 161.5t-5 155.5t-9 88.5q-6 14 -20.5 24t-31 19.5t-28.5 19.5t-12 25l14 28q18 8 43 9q29 0 65 1h37h37q37 -1 71 -8.5t58 -23.5v-39q-39 -18 -67.5 -39t-28.5 -70q0 -25 -1 -80t-1 -125.5t1 -147.5t4 -143.5t8 -113.5 t16 -59q29 -10 60.5 -26.5t31.5 -51.5q-18 -20 -45 -25.5t-53 -5.5h-78q-25 0 -38.5 6t-18.5 17.5t-5 27t2 35.5q-41 -39 -92 -67.5t-110 -28.5q-96 0 -158 47t-96.5 119.5t-49 157.5t-14.5 161z" />
<glyph unicode="v" horiz-adv-x="878" d="M14 918l15 16q41 14 85 16t89 2q12 0 33.5 -1t44 -5t39 -13t16.5 -28q0 -10 -4 -26q-23 -14 -48.5 -27.5t-25.5 -44.5q0 -2 12.5 -42t32 -100.5t42 -130t43 -133t35.5 -109.5t19 -59h23q61 127 110.5 269.5t49.5 283.5q0 27 -10.5 42.5t-26 27.5t-32.5 24.5t-30 30.5 q10 23 31 30t45 7h109q14 0 35.5 -1t43 -6t40 -14t24.5 -24q-6 -23 -31.5 -41t-46.5 -14l-16 -14q-10 -29 -14.5 -62t-8.5 -63q-8 -63 -25.5 -136t-42 -147t-55 -141.5t-63.5 -120.5q-6 -10 -11 -18.5t-5 -18.5q0 -18 14 -25.5t24 -15.5q31 -6 39 -31v-32 q-8 -14 -24.5 -20.5t-32.5 -6.5q-23 0 -48.5 7t-51.5 7q-33 0 -65 -3t-64 -3q-23 0 -42.5 9.5t-19.5 35.5q0 18 12.5 28.5t26.5 17.5t26.5 16.5t12.5 25.5q0 8 -15.5 62.5t-40 131.5t-52 164t-53 161.5t-44 126t-22.5 57.5q-10 14 -27.5 19t-34 10t-28 14.5t-11.5 34.5z" />
<glyph unicode="w" horiz-adv-x="1388" d="M12 905q0 27 22.5 34t43.5 7h186q20 0 40 -7t30 -26q2 -16 -8.5 -27.5t-25.5 -20.5t-31.5 -15t-26.5 -14q0 -33 20.5 -110t47 -165t52 -171t37.5 -126q8 12 24.5 55t37 101.5t42 123t39 122t29 100.5t11.5 55q0 8 -5.5 16.5t-9.5 14.5q-16 4 -40.5 12t-24.5 31 q0 43 25.5 48t54.5 5q14 0 60 1h23q35 0 72 -2q49 -3 87 -13t38 -33q0 -6 -2 -13l-4 -14q-16 -12 -34.5 -20t-35.5 -18q-4 -12 -4 -25q0 -20 11.5 -63t30 -99.5t41 -117t45 -116t42 -97.5t31.5 -60q68 115 113 254t45 274q0 37 -14.5 53.5t-33 25.5t-32.5 17.5t-14 28.5 q0 14 13 23.5t30.5 12.5t35 4t27.5 1q16 0 48 -1t64.5 -5t60.5 -13t36 -26v-24q-10 -29 -32.5 -31t-45.5 -8l-22 -25q-10 -123 -35 -240.5t-76 -232.5q-25 -59 -55.5 -118.5t-44.5 -123.5q6 -4 19 -7t26.5 -8t22.5 -13t9 -19q0 -14 -3 -28.5t-13 -24.5q-23 -8 -51 -8 q-16 0 -60.5 1t-90.5 5t-81.5 10t-35.5 19q0 68 54 68q11 0 25 -3q16 10 17 27l-2 6q0 14 -13.5 60.5t-33 106.5t-44 128t-47 130t-42 110.5t-27.5 66.5q-6 -20 -23.5 -71.5t-40 -115t-47 -133t-44 -128t-33 -98.5t-13.5 -46q0 -18 13.5 -28.5t30 -20.5t29.5 -23.5t13 -33.5 l-12 -21q-14 -6 -36.5 -8t-47.5 -3t-48.5 0t-39.5 1q-23 0 -42.5 -1t-37.5 1t-34.5 9t-33.5 24q0 20 8.5 31.5t21.5 17.5t28.5 10t27.5 10q12 16 13 33q0 10 -16.5 66.5t-41 134.5t-53 165t-54.5 162.5t-44.5 126t-22.5 52.5q-10 10 -25.5 13t-29.5 6t-23.5 11.5t-9.5 30.5z " />
<glyph unicode="x" horiz-adv-x="929" d="M18 47q0 20 14.5 31.5t35 19.5t40 17.5t29.5 23.5q31 45 48.5 97.5t45.5 97.5q31 49 68 88t72 84q14 16 14 35q0 10 -26.5 58t-60.5 102.5t-64.5 100.5t-40.5 54q-12 8 -32 12t-39.5 10.5t-32.5 16.5t-13 31q0 20 12 30.5t30 13.5q15 3 31 4h7q20 -1 34 -1t53.5 -1 t80.5 -5t72.5 -15.5t31.5 -31.5q-8 -16 -17.5 -24.5t-19.5 -13.5t-21.5 -10.5t-21.5 -15.5l-2 -12l96 -191l25 -12q20 0 42.5 22.5t41 53.5t30 62.5t11.5 49.5q0 27 -10.5 33t-21.5 10.5t-21.5 16.5t-10.5 49q0 12 11.5 17.5t26 8.5t28.5 3h22q18 0 56 1h11q33 0 63 -4 q36 -6 65 -17t29 -36q0 -16 -12.5 -25t-30 -17.5t-35 -14.5t-25.5 -14q-14 -10 -27.5 -38t-27.5 -61.5t-29.5 -65.5t-31.5 -52q-8 -10 -20.5 -22.5t-25 -28t-21.5 -31t-9 -27.5q0 -4 17.5 -36t45 -77t62.5 -98t68.5 -99t62 -79t45.5 -39q23 -8 44 -16t21 -37 q0 -14 -13 -27.5t-28 -13.5q-22 0 -72 -2q-20 -1 -40 -1q-30 0 -60 2q-50 3 -89.5 14t-39.5 38q0 10 4 18q6 8 17.5 14.5t24 13.5t21.5 14.5t9 15.5t-13.5 33.5t-33.5 58.5t-45 68.5t-46.5 66.5t-38.5 50.5t-22 19.5q-4 0 -12 -4q-16 -16 -44 -56.5t-55.5 -86.5t-47 -88 t-19.5 -62l2 -19q8 -6 21.5 -10t26 -10t20.5 -15.5t8 -23.5q0 -18 -12 -29.5t-29.5 -17.5t-37 -7t-34.5 -1q-45 0 -90 3t-90 3q-14 10 -24.5 24.5t-10.5 30.5z" />
<glyph unicode="y" horiz-adv-x="901" d="M18 -344q0 14 8.5 31.5t26.5 17.5q25 0 38 -19.5t29.5 -43t43 -43t76.5 -19.5q63 0 92 53q14 25 31.5 72t34 98.5t27.5 99.5t11 77q0 18 -10 35.5t-23.5 32.5t-29 30.5t-25.5 30.5q-63 88 -116.5 189t-77.5 208q-6 29 -10.5 75t-8.5 93t-10 89t-19 62q-6 8 -20 19.5 t-29.5 24t-27 22.5t-11.5 20q0 25 38 35t86 11h24q36 0 70 -2q47 -3 63 -3q25 0 47.5 -13t22.5 -42t-18.5 -33t-40 -10t-40 -24.5t-18.5 -71.5q0 -76 12 -160t39 -166t67 -155.5t95 -129.5q6 4 21.5 51.5t35 117t41 151.5t38.5 154.5t28.5 126t11.5 67.5q0 23 -13.5 32 t-29.5 15t-29.5 16.5t-13.5 32.5q0 18 16.5 28.5t32.5 10.5h211q18 0 42 -12t24 -35q0 -25 -14.5 -34t-33 -15t-38 -17.5t-27.5 -41.5q-66 -238 -127 -474.5t-121 -476.5q-16 -66 -29.5 -131t-41.5 -125q-33 -72 -83.5 -98.5t-125.5 -26.5q-20 0 -39 6.5t-37 6.5 q-14 0 -28.5 -5.5t-29.5 -5.5q-16 0 -31.5 25t-27.5 56.5t-20.5 63.5t-8.5 46z" />
<glyph unicode="z" horiz-adv-x="665" d="M20 39q0 78 32 155.5t78 152.5t101.5 144.5t101.5 131t77.5 112.5t31.5 88q0 12 -9 18.5t-21.5 9.5t-25.5 4t-21 1q-76 0 -123 -15.5t-77 -35t-45.5 -34.5t-27.5 -15q-35 0 -35 35q0 86 36 133t122 47t172 -3t172 -3q16 0 31.5 -9.5t15.5 -31.5q0 -61 -32.5 -136 t-81 -155t-104.5 -158t-104 -144.5t-81 -114.5t-33 -69q0 -20 18.5 -26t34.5 -6h127q80 0 118 18.5t57.5 41t33.5 40.5t45 18q20 0 31.5 -17t11.5 -36q0 -16 -8 -46t-21.5 -59.5t-31 -52t-35.5 -22.5h-483q-16 0 -32 11.5t-16 27.5z" />
<glyph unicode="{" horiz-adv-x="0" d="M20 655q0 37 25 50.5t55.5 30t55 50t24.5 113.5q0 47 -8 94t-17.5 93.5t-16.5 92.5t-7 93q0 63 21.5 109t60.5 77t90.5 46.5t110.5 15.5q25 0 45 -17.5t20 -44.5q0 -31 -17.5 -42t-42 -16t-55 -9.5t-55 -17.5t-42 -43t-17.5 -85q0 -45 7 -90t16.5 -90t17.5 -91t8 -93 q0 -68 -24.5 -124.5t-79.5 -101.5q57 -41 80.5 -98t23.5 -127q0 -47 -8 -92t-17.5 -90t-16.5 -90t-7 -90q0 -57 17.5 -86t42 -42.5t55 -16.5t55 -8t42 -17.5t17.5 -42.5q0 -25 -20.5 -43.5t-44.5 -18.5q-59 0 -110.5 15.5t-90.5 46t-60.5 76.5t-21.5 110q0 47 7 94t16.5 93 t17.5 92.5t8 93.5q0 80 -24.5 114.5t-55 51t-55.5 29t-25 46.5z" />
<glyph unicode="|" horiz-adv-x="0" d="M154 -18q0 367 3 728t3 726q0 27 15 47t44 20q23 0 42.5 -17.5t19.5 -39.5q0 -252 -1 -500t-4 -500q0 -53 2.5 -114.5t4.5 -124t1 -122.5t-10 -112q-4 -25 -19 -42t-42 -17q-29 0 -44 20.5t-15 47.5z" />
<glyph unicode="}" horiz-adv-x="0" d="M18 -145q0 31 17.5 43t43 17t55.5 8t55.5 16.5t43 43t17.5 85.5q0 45 -8.5 90t-17.5 90t-17 90t-8 92q0 70 23.5 127t80.5 98q-55 45 -79.5 101.5t-24.5 124.5q0 47 8 93t17 91t17.5 90t8.5 90q0 55 -17.5 85t-43 43t-55.5 17.5t-55.5 9.5t-43 16t-17.5 42 q0 27 20.5 44.5t45.5 17.5q59 0 111.5 -15.5t90.5 -46.5t60.5 -77t22.5 -109q0 -47 -8.5 -93t-17.5 -92.5t-17.5 -93.5t-8.5 -94q0 -80 25 -113.5t55.5 -50t55 -30t24.5 -50.5q0 -35 -24.5 -47t-55 -28.5t-55.5 -51t-25 -114.5q0 -47 8.5 -93.5t17.5 -92.5t17.5 -93t8.5 -94 q0 -63 -22.5 -109.5t-60.5 -77t-90.5 -46t-111.5 -15.5q-25 0 -45.5 18.5t-20.5 43.5z" />
<glyph unicode="~" horiz-adv-x="0" d="M20 557q0 31 25 70t59.5 73.5t74.5 59t71 24.5q51 0 93 -34.5t78 -76.5t70.5 -77t71.5 -35q31 12 57.5 40t50 57.5t45 51t44.5 21.5q25 0 41 -16t16 -41q0 -35 -28.5 -76t-70.5 -76t-89 -58.5t-82 -23.5q-55 0 -99.5 34t-80 76t-64.5 75.5t-51 33.5h-8 q-27 -14 -48.5 -40.5t-40 -53t-38 -47t-39.5 -20.5q-23 0 -40.5 17t-17.5 42z" />
<glyph unicode="&#xa1;" horiz-adv-x="315" d="M68 905q0 29 25.5 53.5t53.5 24.5q37 0 59.5 -25.5t22.5 -60.5q0 -29 -21 -54.5t-52 -25.5q-37 0 -62.5 25.5t-25.5 62.5zM76 352q0 23 18.5 40.5t40.5 17.5q29 0 45.5 -20.5t16.5 -47.5v-766q0 -27 -16.5 -47.5t-45.5 -20.5q-23 0 -41 17.5t-18 40.5v786z" />
<glyph unicode="&#xa7;" horiz-adv-x="673" d="M25 705q0 80 48 147.5t120 99.5q-59 43 -94.5 99.5t-35.5 132.5q0 41 20.5 73.5t52.5 55t72 34t77 11.5q35 0 68.5 -13.5t68.5 -13.5q16 0 28.5 5t28.5 5q18 0 33.5 -22.5t26 -52t16.5 -59t6 -44.5q0 -10 -4 -22l-16 -17q-31 6 -52.5 29t-46 45.5t-61.5 40.5t-98 18 q-41 0 -71 -24.5t-30 -67.5q0 -47 34 -79.5t85 -62.5t109.5 -60.5t109.5 -71.5t85 -98.5t34 -139.5q0 -80 -48 -148.5t-120 -101.5q59 -43 94 -98t35 -131q0 -41 -20.5 -73.5t-52 -55t-71.5 -34t-77 -11.5t-70 13.5t-67 13.5q-16 0 -28.5 -5.5t-29.5 -5.5q-18 0 -33.5 22.5 t-25.5 52.5t-16.5 59.5t-6.5 44.5q0 10 4 22l17 16q31 -6 52.5 -28.5t46 -45t61 -41t98.5 -18.5q41 0 70.5 25t29.5 68q0 47 -33.5 79.5t-85 62.5t-109.5 60.5t-109.5 71.5t-85 98.5t-33.5 139.5zM156 702q0 -37 14 -66.5t36.5 -54t51.5 -44t57 -37.5q37 0 71 9t61.5 27.5 t44 48t16.5 70.5q0 37 -14.5 67t-38 54.5t-52 44t-55.5 37.5q-37 0 -70.5 -9t-61.5 -27.5t-44 -48.5t-16 -71z" />
<glyph unicode="&#xa8;" horiz-adv-x="587" d="M98 1290q0 39 16.5 67.5t59.5 28.5q45 0 60.5 -32.5t15.5 -69.5q0 -35 -17.5 -64.5t-58.5 -29.5q-45 0 -60.5 30.5t-15.5 69.5zM356 1290q0 39 15.5 67.5t60.5 28.5q43 0 58.5 -32.5t15.5 -69.5q0 -35 -16.5 -64.5t-57.5 -29.5q-47 0 -61.5 30.5t-14.5 69.5z" />
<glyph unicode="&#xaa;" horiz-adv-x="589" d="M51 1024q0 37 17.5 70.5t46.5 58.5v-2q43 37 93 59.5t99 49.5h-2l25 6v-2v14q0 16 -5.5 34.5t-27.5 18.5q-31 0 -38 -15.5t-12 -34.5t-16.5 -34.5t-48.5 -15.5q-14 0 -31.5 15.5t-32 37t-23.5 44t-9 34.5q0 49 21.5 55t62.5 8l20 11l-2 -2q25 10 50.5 18t54.5 8 q90 0 131 -49t54.5 -120.5t9 -151.5t-4.5 -140l2 -49v6q59 -12 60 -65q0 -31 -18.5 -44t-47.5 -13t-73 4t-60 30q-25 -18 -52.5 -29.5t-57.5 -11.5q-84 0 -134.5 56.5t-50.5 140.5zM207 1018q0 -16 7 -31.5t28 -15.5q47 0 70.5 33.5t23.5 76.5v24.5t-2 24.5q-14 -10 -36 -21 t-42 -25.5t-34.5 -30t-14.5 -35.5z" />
<glyph unicode="&#xab;" horiz-adv-x="811" d="M96 367q0 8 18.5 37.5t46 68.5t61.5 81t65.5 78t56.5 59.5t35 23.5q23 0 40 -18.5t17 -41.5q0 -12 -28.5 -53t-64.5 -89t-69.5 -91t-46.5 -60q8 -10 26.5 -33.5t41 -54t48.5 -64.5t46.5 -63.5t33.5 -53t13 -32.5q0 -23 -17.5 -40t-39.5 -17q-12 0 -37 23.5t-56.5 59.5 t-65.5 80t-61.5 84t-45 72t-17.5 44zM375 369q0 8 18.5 37.5t46 68.5t61.5 82t65.5 79t56 59.5t34.5 23.5q23 0 40.5 -18.5t17.5 -41.5q0 -12 -29 -53t-64.5 -89t-69.5 -91t-46 -59q12 -16 46 -60.5t69.5 -93.5t64.5 -92t29 -55q0 -23 -17.5 -40.5t-40.5 -17.5 q-12 0 -36.5 23.5t-56.5 59.5t-65.5 80t-61 84t-45 71t-17.5 43z" />
<glyph unicode="&#xad;" horiz-adv-x="718" d="M96 582q0 23 15.5 39t38.5 20q45 8 96 10t105.5 0t106.5 -4t99 -2q25 0 43 -17.5t18 -41.5q0 -27 -18 -42.5t-43 -19.5q-98 -8 -202.5 -5t-204.5 3q-20 0 -37 20.5t-17 39.5z" />
<glyph unicode="&#xb2;" horiz-adv-x="653" d="M53 606q0 63 28 119.5t68.5 106t88 94.5t88.5 87t68.5 83t27.5 84q0 47 -20.5 89t-75.5 42q-49 0 -77 -22.5t-46.5 -50.5t-34.5 -50.5t-45 -22.5l-21 2q-14 10 -24 25.5t-10 34.5q0 45 22.5 86t58 72.5t78.5 50t86 18.5q121 0 195 -74.5t74 -193.5q0 -55 -18.5 -102.5 t-49.5 -87.5t-68.5 -74.5t-76.5 -67.5q-12 -10 -36 -36.5t-48 -55.5q-29 -35 -62 -74h108.5t108.5 4q23 2 36 14.5t24.5 27t26 25.5t38.5 11q25 0 42.5 -17.5t17.5 -39.5q0 -12 -9.5 -37t-21.5 -50.5t-25.5 -46t-23.5 -26.5v2q-10 -6 -53 -9t-93.5 -4t-96.5 -1h-62h-111 q-35 0 -55.5 13t-20.5 52z" />
<glyph unicode="&#xb3;" horiz-adv-x="665" d="M41 795q0 25 18.5 44t42.5 19q39 0 51.5 -27.5t27 -61.5t42 -61.5t96.5 -27.5q43 0 71 16.5t45.5 43t23.5 62.5t6 72q0 57 -35 95.5t-94 38.5q-29 0 -55.5 -12.5t-55.5 -12.5q-51 0 -51 51q0 25 29.5 68t66.5 86t67 77.5t30 43.5h-39q-35 0 -55.5 -10.5t-34 -23.5 t-26.5 -23.5t-34 -10.5q-25 0 -42 18.5t-17 43.5q0 16 11 41.5t27.5 50t36 42t37.5 17.5l283 -2q29 0 47.5 -9t18.5 -44q0 -14 -27 -54t-60.5 -84t-62.5 -81t-35 -45q55 -6 97.5 -30t72 -60.5t45 -84t15.5 -98.5q0 -147 -75 -237t-228 -90q-57 0 -108.5 17t-89.5 51 t-60.5 82t-22.5 110z" />
<glyph unicode="&#xb4;" horiz-adv-x="587" d="M252 1219q0 16 40 57t92 84t99 75.5t64 32.5q23 0 39 -16t16 -41q0 -20 -35 -56t-79 -73t-87 -67.5t-57 -43.5q4 4 10 7.5t11 7.5q-14 -8 -27 -16.5t-29 -8.5q-23 0 -40 16.5t-17 41.5z" />
<glyph unicode="&#xb6;" horiz-adv-x="925" d="M51 1059q0 59 5 131t31 133t81 102t158 41q25 0 66.5 1t87.5 1t90 1t73 1q14 0 53 -1t79 -5t71 -14t31 -31q0 -20 -15.5 -29.5t-35 -16.5t-35 -17t-15.5 -33q0 -281 3 -558.5t3 -557.5q0 -57 15.5 -77.5t33 -28t33 -12.5t15.5 -32q0 -23 -19.5 -34t-46.5 -16t-52.5 -6 t-39.5 -1q-16 0 -44 -1t-54.5 4t-45 17.5t-18.5 36.5q0 25 15.5 34t35 17.5t34.5 23.5t15 54q0 276 -4 549t-4 549q0 55 -38 77.5t-84 21.5t-83.5 -18t-37.5 -42q0 -281 3 -558.5t3 -557.5q0 -57 15 -77.5t33.5 -28t34 -12.5t15.5 -32q0 -23 -19.5 -34t-46 -16t-52 -6 t-40.5 -1q-18 0 -45.5 -1t-53.5 4t-45.5 17.5t-19.5 36.5q0 25 15.5 34t35 17.5t35 23.5t15.5 54v308q-80 27 -127 89t-72.5 142t-33 168t-7.5 166z" />
<glyph unicode="&#xb7;" horiz-adv-x="200" d="M18 483q0 29 22.5 54.5t53.5 25.5q35 0 60.5 -25.5t25.5 -62.5q0 -29 -25.5 -53.5t-54.5 -24.5q-35 0 -58.5 26t-23.5 60z" />
<glyph unicode="&#xb8;" horiz-adv-x="587" d="M139 -166q0 25 12.5 68t33 85t46 71.5t54.5 29.5q27 0 36 -17.5t9 -39.5q0 -35 -19.5 -69t-29.5 -68q39 -2 77.5 -18.5t70.5 -42.5t52.5 -61.5t20.5 -78.5q0 -49 -31 -90t-75 -71t-96 -45t-95 -15q-23 0 -42.5 18t-19.5 41q0 25 27 40t63.5 28.5t73.5 24.5t58 28 q4 10 10 20.5t6 22.5l-6 20l-15 23q-23 14 -59.5 20t-72 13.5t-62.5 19.5t-27 43z" />
<glyph unicode="&#xb9;" horiz-adv-x="276" d="M-23 743l17 31l31 23h-2q14 8 34.5 27.5l41 39t39 33.5t28.5 14q20 0 32.5 -26.5t18.5 -67.5t7 -91t-1 -97t-4 -85t-2 -55q0 -41 -2 -86t-3 -92t1 -92t10 -84q25 -4 46.5 -21.5t21.5 -45.5q0 -27 -8.5 -37.5t-20.5 -14.5t-25.5 -5t-25.5 -9l-141 2q-23 10 -37.5 23.5 t-14.5 42.5q0 33 15.5 44t40.5 23l4 -2v551q-16 -6 -33 -6q-29 0 -48.5 17.5t-19.5 45.5z" />
<glyph unicode="&#xba;" horiz-adv-x="563" d="M57 1182q0 49 13.5 97t40 86t67.5 61.5t96 23.5q63 0 107.5 -25.5t72 -66.5t39 -95.5t11.5 -109.5q0 -53 -9.5 -111.5t-34 -109.5t-66.5 -84t-107 -33q-78 0 -123 35t-68.5 88t-31 118.5t-7.5 125.5zM207 1169q0 -20 1 -56t8 -70.5t23.5 -60.5t47.5 -26q16 0 27.5 15.5 t18.5 36t10 42t3 33.5v101q0 18 -3 40.5t-11 41t-23.5 31t-40.5 12.5q-14 0 -26.5 -18.5t-18.5 -28.5h2q-12 -23 -15 -45.5t-3 -47.5z" />
<glyph unicode="&#xbb;" horiz-adv-x="811" d="M96 66q0 12 29 55t64.5 92t69.5 93t46 61q-12 16 -46 59t-69.5 91t-64.5 89t-29 53q0 23 17.5 41.5t40.5 18.5q10 0 34.5 -23.5t56 -59.5t65.5 -79t61.5 -82t46 -68.5t18.5 -37.5q0 -12 -17.5 -43t-45 -71t-61 -84t-65.5 -80t-57.5 -59.5t-35.5 -23.5q-23 0 -40.5 17.5 t-17.5 40.5zM375 61q0 8 13 32t33.5 53.5t46.5 63.5t48.5 64.5t40.5 54t27 33.5q-12 16 -46 59.5t-70 91.5t-64.5 89t-28.5 53q0 23 17.5 41.5t39.5 18.5q10 0 35 -23.5t56.5 -59.5t65.5 -78t61.5 -81t46 -68.5t18.5 -37.5q0 -12 -17.5 -44t-45 -72t-61.5 -84t-65.5 -80 t-57.5 -59.5t-36 -23.5q-23 0 -40 17.5t-17 39.5z" />
<glyph unicode="&#xbc;" horiz-adv-x="1204" d="M33 1294l18 31q10 6 37 28.5t55.5 46t51 42t26.5 18.5q23 0 35 -26.5t18.5 -67.5t7.5 -90t-1 -96t-4.5 -85t-2.5 -55v-72.5v-110.5t2.5 -108.5t6.5 -64.5q27 -6 45 -21.5t18 -44.5q0 -27 -8 -37t-20.5 -14t-25.5 -5t-26 -9q-35 2 -69.5 2h-69.5q-23 10 -37 23.5t-14 42.5 q0 33 14 44t41 23l4 -8v557q-16 -6 -35 -6q-29 0 -48 17.5t-19 45.5zM254 86q0 6 19.5 64.5t50 149.5t70.5 207t83 235.5t84 235.5t74 208t55.5 150.5t26.5 66.5q10 23 25.5 40t45.5 17q23 0 44.5 -17.5t21.5 -41.5q0 -16 -29.5 -108.5t-76 -225.5t-100.5 -288.5t-105 -300 t-92 -259.5t-58 -166q-8 -23 -27 -37t-42 -14q-35 0 -52.5 26.5t-17.5 57.5zM555 291q0 16 18.5 56t46 91t62.5 107.5t65.5 105.5t54 87t32.5 50q-31 14 -31 50q0 31 16.5 45t40 19t50 4t44.5 -1q20 0 43 -1t42.5 -7t32.5 -20.5t13 -40.5q0 -29 -17 -42.5t-40 -21.5h2l-4 -2 q2 -27 4 -89.5t4 -130t1 -124.5t-7 -72l12 15h-2q10 20 24.5 32.5t39.5 12.5q29 0 42 -20.5t16 -49.5t1 -59.5t-2 -51.5q0 -33 -10 -54t-47 -21q-27 0 -38 11t-22 34v-2l-9 9l-9 9q2 -4 4 -10t2 -10v-47.5t2 -47.5l8 7h-2q23 -6 39.5 -15.5t16.5 -38.5q0 -27 -11.5 -40 t-30 -19t-40 -7t-39.5 -1h-42t-50.5 5t-42 18.5t-17.5 37.5q0 29 12.5 41t38.5 23l-2 -2l13 4l2 69l-2 31q-61 8 -125 3t-125 -5q-31 0 -64 16q-14 27 -14 60zM725 352q12 -2 24.5 -2h22.5q27 0 52.5 2t52.5 2q2 2 3 25.5t1 28.5v206q-39 -66 -78 -131t-78 -131zM877 350v4 q4 0 10 -1t6 -5q0 -8 -10 -8q-6 0 -6 10z" />
<glyph unicode="&#xbd;" horiz-adv-x="1282" d="M39 1282l18 31l31 22h-2q14 8 34.5 27.5l41 39t38 34t27.5 14.5q33 0 45.5 -56.5t14.5 -129t-2 -141t-4 -93.5q0 -41 -2.5 -87t-4.5 -93t0 -92t13 -84q25 -4 45 -21.5t20 -46.5q0 -27 -8 -37t-20.5 -13t-25.5 -5t-26 -10l-139 2q-25 12 -39 24.5t-14 40.5q0 33 15.5 44.5 t39.5 25.5l4 -10v557q-16 -4 -33 -4q-29 0 -48 16t-19 45zM258 86q0 4 11.5 40t28.5 87t37.5 111.5t39 116t33 96.5t20.5 55q16 45 35.5 114.5t42 149.5t45 163t45 157.5t43 134t37.5 90.5q10 23 25.5 40t46.5 17q23 0 44 -17.5t21 -41.5q0 -31 -25.5 -127t-65.5 -227.5 t-89 -282t-95 -289.5t-84 -251.5t-57 -168.5q-8 -23 -27 -37t-42 -14q-35 0 -52.5 26.5t-17.5 57.5zM688 68q0 63 27.5 118.5t68.5 104.5t89.5 93t89.5 86t68.5 84t27.5 87q0 49 -20.5 90t-80.5 41q-49 0 -74.5 -22.5t-43 -50t-33.5 -50t-47 -22.5l-19 2q-35 20 -34 59 q0 45 22.5 86t57 72t78.5 49t87 18q119 0 194 -73.5t75 -194.5q0 -92 -41 -152.5t-96.5 -107.5t-113 -92t-87.5 -107q-4 -8 -9.5 -20t-11.5 -16h107.5t107.5 4q23 2 35 14t24.5 26.5t27 25.5t38.5 11q23 0 41.5 -17t18.5 -40q0 -12 -9.5 -36.5t-21.5 -50.5t-25.5 -46.5 t-23.5 -26.5t-51 -8t-89.5 -3t-91.5 -1h-57h-127q-35 0 -56.5 13.5t-21.5 52.5z" />
<glyph unicode="&#xbe;" horiz-adv-x="1413" d="M47 795q0 25 18.5 44t43.5 19q27 0 40 -13.5t21 -32.5t15.5 -43t22.5 -43t43 -32.5t75 -13.5q43 0 70.5 16.5t45 43t23.5 62.5t6 72q0 57 -35 95.5t-94 38.5q-29 0 -55.5 -12.5t-55.5 -12.5q-51 0 -51 51q0 25 30 68t65.5 86t65.5 77.5t30 43.5h-39q-35 0 -54.5 -10.5 t-34 -23.5t-26.5 -23.5t-33 -10.5q-25 0 -42 18.5t-17 43.5q0 16 11 41.5t27.5 50t36.5 42t38 17.5l282 -2q29 0 47.5 -9t18.5 -44q0 -14 -27 -54t-60.5 -84t-62 -81t-35.5 -45q55 -6 97.5 -30t72 -60.5t45 -84t15.5 -98.5q0 -147 -75 -237t-228 -90q-57 0 -108.5 17 t-89.5 51t-60.5 82t-22.5 110zM463 86q0 6 19.5 64.5t50 149.5t70.5 207t82 235.5t83 235.5t75 208t55.5 150.5t25.5 66.5q12 23 26.5 40t44.5 17q23 0 45.5 -17.5t22.5 -41.5q0 -16 -29.5 -108.5t-76 -225.5t-100.5 -288.5t-105.5 -300t-92.5 -259.5t-57 -166 q-8 -23 -27.5 -37t-44.5 -14q-35 0 -51 26.5t-16 57.5zM762 291q0 16 18.5 56t47 91t62.5 107.5t64.5 105.5t54 87t31.5 50q-29 16 -28 50q0 31 16 45t40 19t49.5 4t45.5 -1t43 -1t42.5 -7t32.5 -20.5t13 -40.5q0 -29 -18.5 -42.5t-40.5 -21.5h2l-4 -2q2 -27 5 -89.5t5 -130 t0 -124.5t-8 -72l14 15h-2q20 45 62 45q29 0 42 -20.5t17 -49.5t2 -59.5t-2 -51.5q0 -33 -10 -54t-49 -21q-27 0 -37 11t-21 34v-2l-9 9t-11 9q2 -4 4 -10t4 -10q0 -23 -1 -47.5t3 -47.5l8 7h-2q23 -6 39.5 -15.5t16.5 -38.5q0 -27 -12.5 -40t-30 -19t-39 -7t-39.5 -1h-42 t-50.5 5t-42 18.5t-17.5 37.5q0 29 12.5 41t36.5 23l-2 -2l15 4l2 69l-2 31q-61 8 -126 3t-126 -5q-33 0 -62 16q-16 25 -16 60zM934 352q12 -2 23.5 -2h23.5q27 0 52.5 2t51.5 2q2 2 3.5 25.5t1.5 28.5v206q-41 -66 -79 -131t-77 -131zM1085 350v4q4 0 10.5 -1t6.5 -5 q0 -8 -10 -8q-6 0 -7 10z" />
<glyph unicode="&#xbf;" horiz-adv-x="929" d="M96 -135q0 -78 28 -142.5t77 -111.5t114.5 -72.5t143.5 -25.5q74 0 140.5 25.5t116.5 71.5t80.5 110.5t30.5 140.5q0 25 -9 62.5t-26.5 71.5t-43 58.5t-56.5 24.5q-23 0 -39 -17.5t-16 -42.5q0 -18 10 -33.5t23.5 -34t24 -43t10.5 -59.5q0 -49 -23 -90t-59.5 -69.5 t-82.5 -44t-91 -15.5q-47 0 -90.5 17.5t-75 48.5t-50 73t-18.5 91q0 55 29.5 98t75 80t98.5 71.5t98 74.5t75 90.5t30 115.5q0 76 -50.5 128t-126.5 52q-37 0 -71.5 -14t-61 -40t-43 -58.5t-16.5 -69.5q0 -23 17.5 -42t41.5 -19q35 0 45.5 18t16.5 42t19.5 42t53.5 18h11.5 t13.5 -2q12 -10 22.5 -23t10.5 -30q0 -41 -30 -76.5t-76 -71.5t-98 -75t-98 -83t-76 -98.5t-30 -121.5zM391 874q0 29 25.5 53.5t54.5 24.5q35 0 58.5 -24.5t23.5 -59.5q0 -29 -21.5 -54.5t-52.5 -25.5q-37 0 -62.5 26t-25.5 60z" />
<glyph unicode="&#xc0;" horiz-adv-x="1226" d="M18 55q0 20 16.5 27.5t39 13.5t44 18.5t34.5 41.5l8 50t22.5 131t30.5 184.5t34.5 212t35 214t30 188.5t21.5 136t8 59q0 27 -16.5 36t-35 15.5t-34.5 14.5t-16 30q0 18 12 28.5t28.5 16t35 7.5t30.5 2q154 0 307.5 -4t307.5 -4q23 0 41 -6.5t18 -34.5q0 -31 -18.5 -40.5 t-42 -15.5t-42 -16t-18.5 -41q0 -16 7 -75.5t19.5 -146.5t28 -191.5t31.5 -212t31.5 -209t29 -180.5t21.5 -128t10 -51q12 -16 34 -20.5t43.5 -8.5t37.5 -13t16 -32q0 -33 -26.5 -38t-48.5 -5h-220q-18 0 -45.5 5t-27.5 32q0 23 20 33q12 16 32.5 23.5t37.5 23.5l2 16 q0 20 -7 39t-12 37q-4 18 -10 71.5t-14 123t-18.5 144.5t-18.5 138.5t-16.5 106.5t-14.5 47q-4 2 -55 6t-116.5 6t-126 4t-83.5 2h-20t-19 -2q-8 -2 -20 -50t-27.5 -120.5t-31 -158.5t-27.5 -165t-20.5 -140.5t-8.5 -82.5q0 -27 17.5 -39t38 -19t38 -16.5t17.5 -29.5 q0 -16 -10.5 -24.5t-25.5 -11.5t-30.5 -4t-25.5 -1q-23 0 -67 -2t-88 1t-78 14.5t-34 39.5zM412 1016q0 -14 4 -35q35 -14 73 -14q72 0 142.5 3t142.5 3q14 0 22.5 13t8.5 26q0 72 -16.5 158.5t-30.5 160.5q-2 14 -18.5 21.5t-38 10.5t-42 3h-30.5q-29 0 -64 1t-63 -5 q-18 -4 -34.5 -52t-29 -106.5t-19.5 -114t-7 -73.5zM434 1800q0 25 16.5 41.5t38.5 16.5q10 0 36 -15.5t58.5 -39t68.5 -53.5t64.5 -57.5t48 -51t19.5 -33.5q0 -25 -17 -41.5t-40 -16.5q-16 0 -28.5 8.5t-24.5 16.5q6 -6 18 -14q-16 12 -58 42.5t-86 67.5t-79 73t-35 56z " />
<glyph unicode="&#xc1;" horiz-adv-x="1226" d="M18 55q0 20 16.5 27.5t39 13.5t44 18.5t34.5 41.5l8 50t22.5 131t30.5 184.5t34.5 212t35 214t30 188.5t21.5 136t8 59q0 27 -16.5 36t-35 15.5t-34.5 14.5t-16 30q0 18 12 28.5t28.5 16t35 7.5t30.5 2q154 0 307.5 -4t307.5 -4q23 0 41 -6.5t18 -34.5q0 -31 -18.5 -40.5 t-42 -15.5t-42 -16t-18.5 -41q0 -16 7 -75.5t19.5 -146.5t28 -191.5t31.5 -212t31.5 -209t29 -180.5t21.5 -128t10 -51q12 -16 34 -20.5t43.5 -8.5t37.5 -13t16 -32q0 -33 -26.5 -38t-48.5 -5h-220q-18 0 -45.5 5t-27.5 32q0 23 20 33q12 16 32.5 23.5t37.5 23.5l2 16 q0 20 -7 39t-12 37q-4 18 -10 71.5t-14 123t-18.5 144.5t-18.5 138.5t-16.5 106.5t-14.5 47q-4 2 -55 6t-116.5 6t-126 4t-83.5 2h-20t-19 -2q-8 -2 -20 -50t-27.5 -120.5t-31 -158.5t-27.5 -165t-20.5 -140.5t-8.5 -82.5q0 -27 17.5 -39t38 -19t38 -16.5t17.5 -29.5 q0 -16 -10.5 -24.5t-25.5 -11.5t-30.5 -4t-25.5 -1q-23 0 -67 -2t-88 1t-78 14.5t-34 39.5zM412 1016q0 -14 4 -35q35 -14 73 -14q72 0 142.5 3t142.5 3q14 0 22.5 13t8.5 26q0 72 -16.5 158.5t-30.5 160.5q-2 14 -18.5 21.5t-38 10.5t-42 3h-30.5q-29 0 -64 1t-63 -5 q-18 -4 -34.5 -52t-29 -106.5t-19.5 -114t-7 -73.5zM444 1608q0 16 40 57t91.5 84t98.5 76t63 33q23 0 40.5 -16.5t17.5 -41.5q0 -20 -35 -56t-80 -73t-88 -67.5t-57 -42.5q4 4 10 7t10 7q-14 -8 -25.5 -16.5t-29.5 -8.5q-23 0 -39.5 16.5t-16.5 41.5z" />
<glyph unicode="&#xc2;" horiz-adv-x="1226" d="M18 55q0 20 16.5 27.5t39 13.5t44 18.5t34.5 41.5l8 50t22.5 131t30.5 184.5t34.5 212t35 214t30 188.5t21.5 136t8 59q0 27 -16.5 36t-35 15.5t-34.5 14.5t-16 30q0 18 12 28.5t28.5 16t35 7.5t30.5 2q154 0 307.5 -4t307.5 -4q23 0 41 -6.5t18 -34.5q0 -31 -18.5 -40.5 t-42 -15.5t-42 -16t-18.5 -41q0 -16 7 -75.5t19.5 -146.5t28 -191.5t31.5 -212t31.5 -209t29 -180.5t21.5 -128t10 -51q12 -16 34 -20.5t43.5 -8.5t37.5 -13t16 -32q0 -33 -26.5 -38t-48.5 -5h-220q-18 0 -45.5 5t-27.5 32q0 23 20 33q12 16 32.5 23.5t37.5 23.5l2 16 q0 20 -7 39t-12 37q-4 18 -10 71.5t-14 123t-18.5 144.5t-18.5 138.5t-16.5 106.5t-14.5 47q-4 2 -55 6t-116.5 6t-126 4t-83.5 2h-20t-19 -2q-8 -2 -20 -50t-27.5 -120.5t-31 -158.5t-27.5 -165t-20.5 -140.5t-8.5 -82.5q0 -27 17.5 -39t38 -19t38 -16.5t17.5 -29.5 q0 -16 -10.5 -24.5t-25.5 -11.5t-30.5 -4t-25.5 -1q-23 0 -67 -2t-88 1t-78 14.5t-34 39.5zM340 1614q0 16 38 53t88 75t97.5 66.5t65.5 28.5q12 0 54 -27.5t87 -63.5t80 -71t35 -49q0 -23 -17.5 -39t-40.5 -16q-12 0 -40.5 18.5t-60.5 41t-61.5 45t-41.5 30.5 q-12 -10 -45 -33.5t-69 -49.5t-67.5 -45t-42.5 -19q-23 0 -41 15t-18 40zM412 1016q0 -14 4 -35q35 -14 73 -14q72 0 142.5 3t142.5 3q14 0 22.5 13t8.5 26q0 72 -16.5 158.5t-30.5 160.5q-2 14 -18.5 21.5t-38 10.5t-42 3h-30.5q-29 0 -64 1t-63 -5q-18 -4 -34.5 -52 t-29 -106.5t-19.5 -114t-7 -73.5z" />
<glyph unicode="&#xc3;" horiz-adv-x="1226" d="M18 55q0 20 16.5 27.5t39 13.5t44 18.5t34.5 41.5l8 50t22.5 131t30.5 184.5t34.5 212t35 214t30 188.5t21.5 136t8 59q0 27 -16.5 36t-35 15.5t-34.5 14.5t-16 30q0 18 12 28.5t28.5 16t35 7.5t30.5 2q154 0 307.5 -4t307.5 -4q23 0 41 -6.5t18 -34.5q0 -31 -18.5 -40.5 t-42 -15.5t-42 -16t-18.5 -41q0 -16 7 -75.5t19.5 -146.5t28 -191.5t31.5 -212t31.5 -209t29 -180.5t21.5 -128t10 -51q12 -16 34 -20.5t43.5 -8.5t37.5 -13t16 -32q0 -33 -26.5 -38t-48.5 -5h-220q-18 0 -45.5 5t-27.5 32q0 23 20 33q12 16 32.5 23.5t37.5 23.5l2 16 q0 20 -7 39t-12 37q-4 18 -10 71.5t-14 123t-18.5 144.5t-18.5 138.5t-16.5 106.5t-14.5 47q-4 2 -55 6t-116.5 6t-126 4t-83.5 2h-20t-19 -2q-8 -2 -20 -50t-27.5 -120.5t-31 -158.5t-27.5 -165t-20.5 -140.5t-8.5 -82.5q0 -27 17.5 -39t38 -19t38 -16.5t17.5 -29.5 q0 -16 -10.5 -24.5t-25.5 -11.5t-30.5 -4t-25.5 -1q-23 0 -67 -2t-88 1t-78 14.5t-34 39.5zM293 1618q0 6 2 14t4 15q20 25 43 51t49.5 47.5t57 35t65.5 13.5q41 0 75 -17.5t64.5 -37t57 -36.5t51.5 -17h6q18 12 29.5 31.5t21.5 38t24.5 32.5t39.5 14q23 0 40 -17.5 t17 -39.5q0 -29 -16.5 -60.5t-42 -58.5t-56 -44t-59.5 -17q-37 0 -69.5 16t-63.5 35.5t-60.5 36t-60.5 16.5t-50.5 -17.5t-35.5 -37t-32.5 -36.5t-43.5 -17q-23 0 -40 16t-17 41zM412 1016q0 -14 4 -35q35 -14 73 -14q72 0 142.5 3t142.5 3q14 0 22.5 13t8.5 26 q0 72 -16.5 158.5t-30.5 160.5q-2 14 -18.5 21.5t-38 10.5t-42 3h-30.5q-29 0 -64 1t-63 -5q-18 -4 -34.5 -52t-29 -106.5t-19.5 -114t-7 -73.5z" />
<glyph unicode="&#xc4;" horiz-adv-x="1226" d="M18 55q0 20 16.5 27.5t39 13.5t44 18.5t34.5 41.5l8 50t22.5 131t30.5 184.5t34.5 212t35 214t30 188.5t21.5 136t8 59q0 27 -16.5 36t-35 15.5t-34.5 14.5t-16 30q0 18 12 28.5t28.5 16t35 7.5t30.5 2q154 0 307.5 -4t307.5 -4q23 0 41 -6.5t18 -34.5q0 -31 -18.5 -40.5 t-42 -15.5t-42 -16t-18.5 -41q0 -16 7 -75.5t19.5 -146.5t28 -191.5t31.5 -212t31.5 -209t29 -180.5t21.5 -128t10 -51q12 -16 34 -20.5t43.5 -8.5t37.5 -13t16 -32q0 -33 -26.5 -38t-48.5 -5h-220q-18 0 -45.5 5t-27.5 32q0 23 20 33q12 16 32.5 23.5t37.5 23.5l2 16 q0 20 -7 39t-12 37q-4 18 -10 71.5t-14 123t-18.5 144.5t-18.5 138.5t-16.5 106.5t-14.5 47q-4 2 -55 6t-116.5 6t-126 4t-83.5 2h-20t-19 -2q-8 -2 -20 -50t-27.5 -120.5t-31 -158.5t-27.5 -165t-20.5 -140.5t-8.5 -82.5q0 -27 17.5 -39t38 -19t38 -16.5t17.5 -29.5 q0 -16 -10.5 -24.5t-25.5 -11.5t-30.5 -4t-25.5 -1q-23 0 -67 -2t-88 1t-78 14.5t-34 39.5zM410 1679q0 39 16 68t59 29q45 0 60.5 -33t15.5 -70q0 -35 -17.5 -64.5t-58.5 -29.5q-45 0 -60 30.5t-15 69.5zM412 1016q0 -14 4 -35q35 -14 73 -14q72 0 142.5 3t142.5 3 q14 0 22.5 13t8.5 26q0 72 -16.5 158.5t-30.5 160.5q-2 14 -18.5 21.5t-38 10.5t-42 3h-30.5q-29 0 -64 1t-63 -5q-18 -4 -34.5 -52t-29 -106.5t-19.5 -114t-7 -73.5zM668 1679q0 39 15 68t60 29q43 0 58.5 -33t15.5 -70q0 -35 -16.5 -64.5t-57.5 -29.5q-47 0 -61 30.5 t-14 69.5z" />
<glyph unicode="&#xc5;" horiz-adv-x="1226" d="M18 55q0 20 16.5 27.5t39 13.5t44 18.5t34.5 41.5l8 50t22.5 131t30.5 184.5t34.5 212t35 214t30 188.5t21.5 136t8 59q0 27 -16.5 36t-35 15.5t-34.5 14.5t-16 30q0 18 12 28.5t28.5 16t35 7.5t30.5 2q154 0 307.5 -4t307.5 -4q23 0 41 -6.5t18 -34.5q0 -31 -18.5 -40.5 t-42 -15.5t-42 -16t-18.5 -41q0 -16 7 -75.5t19.5 -146.5t28 -191.5t31.5 -212t31.5 -209t29 -180.5t21.5 -128t10 -51q12 -16 34 -20.5t43.5 -8.5t37.5 -13t16 -32q0 -33 -26.5 -38t-48.5 -5h-220q-18 0 -45.5 5t-27.5 32q0 23 20 33q12 16 32.5 23.5t37.5 23.5l2 16 q0 20 -7 39t-12 37q-4 18 -10 71.5t-14 123t-18.5 144.5t-18.5 138.5t-16.5 106.5t-14.5 47q-4 2 -55 6t-116.5 6t-126 4t-83.5 2h-20t-19 -2q-8 -2 -20 -50t-27.5 -120.5t-31 -158.5t-27.5 -165t-20.5 -140.5t-8.5 -82.5q0 -27 17.5 -39t38 -19t38 -16.5t17.5 -29.5 q0 -16 -10.5 -24.5t-25.5 -11.5t-30.5 -4t-25.5 -1q-23 0 -67 -2t-88 1t-78 14.5t-34 39.5zM412 1016q0 -14 4 -35q35 -14 73 -14q72 0 142.5 3t142.5 3q14 0 22.5 13t8.5 26q0 72 -16.5 158.5t-30.5 160.5q-2 14 -18.5 21.5t-38 10.5t-42 3h-30.5q-29 0 -64 1t-63 -5 q-18 -4 -34.5 -52t-29 -106.5t-19.5 -114t-7 -73.5zM449 1698q0 33 12 66.5t33.5 60t50 44t63.5 17.5q37 0 69 -18.5t54.5 -46t34.5 -63.5t12 -68q0 -37 -11 -72t-31.5 -61.5t-51.5 -43t-70 -16.5q-41 0 -71.5 17.5t-52 46t-31.5 64.5t-10 73zM569 1690q0 -18 9.5 -46 t31.5 -28h13q37 23 36 67q0 20 -13 51t-38 31q-10 0 -18 -9t-12.5 -21.5t-6.5 -25.5t-2 -19z" />
<glyph unicode="&#xc6;" horiz-adv-x="1644" d="M18 55q0 20 16.5 28.5t39 14.5t45 17.5t33.5 40.5q2 2 10 53t21.5 132t30.5 183.5t34.5 211t35 212t30 186.5t20.5 137t8 60q0 27 -16.5 36t-35 15.5t-34.5 14.5t-16 30q0 18 12 28.5t28.5 16t35 7.5t30.5 2h1096q20 0 37.5 -25.5t30 -59.5t19.5 -68t7 -50t-11.5 -28.5 t-27.5 -12.5q-27 0 -40 20.5t-32.5 45t-55.5 45t-107 20.5q-16 0 -68.5 1t-108 -1t-99.5 -9t-44 -22q-6 -16 -9 -58t-5 -91t-2 -95v-67q0 -31 28.5 -44t66.5 -15t78 1t64 3q23 0 73 -1t102.5 0t96.5 7t54 20q12 20 21.5 41t25.5 37l14 2q25 0 38.5 -24.5t17.5 -57t4 -65.5 v-51q0 -14 -1 -37t-6.5 -44.5t-17.5 -38t-33 -16.5q-6 0 -12 2.5t-12 4.5q-18 18 -27.5 41.5t-27.5 44.5q-16 16 -61.5 21t-97.5 5t-101.5 -3t-73.5 -3q-31 0 -59.5 7t-59.5 7q-35 0 -54.5 -7t-29.5 -20.5t-12 -36t-2 -52.5q0 -123 6 -246t6 -246q0 -29 -5 -56.5t-5 -55.5 l2 -27q16 -2 28.5 -2h28.5q37 0 98.5 -1t125 0t119.5 7t85 23q12 6 30.5 24.5t38 37.5t36 34.5t26.5 15.5q18 0 34.5 -12t16.5 -33q0 -12 -15 -47t-36.5 -73t-43 -66.5t-34.5 -28.5h-186q-20 0 -27.5 6t-27.5 6q-37 0 -75 -4t-75 -4h-313q-10 0 -24.5 1t-29 6t-23.5 13.5 t-9 22.5q16 39 34.5 50.5t35 18.5t26.5 23.5t10 69.5l-2 643q-86 0 -169 6t-169 6q-10 0 -20 1t-19 -3q-12 -4 -16 -12t-8 -18q-6 -18 -15.5 -71.5t-21.5 -123.5t-25.5 -147.5t-23.5 -148.5t-17.5 -124t-7.5 -72q0 -27 17.5 -39t38 -19t38 -16.5t17.5 -29.5 q0 -16 -10.5 -24.5t-25.5 -11.5t-30.5 -4t-25.5 -1q-23 0 -67 -2t-88 1t-78 14.5t-34 39.5zM412 1016q0 -14 4 -35q35 -14 73 -14h146t145 2q2 57 4 113.5t2 113.5q0 41 -2 82t-14 82l-4 4q-29 2 -57.5 2h-57.5q-35 0 -74.5 2t-74.5 -6q-18 -4 -34.5 -51t-29 -106.5 t-19.5 -115t-7 -73.5z" />
<glyph unicode="&#xc7;" horiz-adv-x="1038" d="M18 817q0 125 39 247t114 216t182.5 152.5t244.5 58.5q31 0 59.5 -8t57 -17.5t57.5 -17.5t57 -8q23 0 39.5 15t38.5 15q16 0 36 -38.5t37 -88t28.5 -95.5t11.5 -58q0 -20 -15.5 -31.5t-33.5 -11.5q-31 0 -53.5 35t-57.5 78t-94 77.5t-164 34.5q-109 0 -187.5 -52 t-131 -133t-78 -179.5t-25.5 -190.5q0 -106 10.5 -228t51.5 -226.5t121.5 -173t222.5 -68.5q98 0 162.5 39t106.5 85t67.5 86t46.5 40q39 -6 39 -45q0 -72 -45 -133.5t-112 -106.5t-143.5 -70.5t-140.5 -25.5q-115 0 -199.5 35.5t-146 98t-100.5 144.5t-61.5 173t-32 188.5 t-9.5 187.5zM330 -166q0 25 12 68t31.5 85t45 71.5t54.5 29.5q27 0 37 -17.5t10 -39.5q0 -35 -20.5 -69t-30.5 -68q39 -2 78 -18.5t70.5 -42.5t52 -61.5t20.5 -78.5q0 -49 -30.5 -90t-74.5 -71t-96.5 -45t-95.5 -15q-23 0 -42 18t-19 41q0 25 26.5 40t63.5 28.5t73.5 24.5 t57.5 28q6 10 11 20.5t5 22.5l-6 20l-14 23q-23 14 -59.5 20t-72.5 13.5t-61.5 19.5t-25.5 43z" />
<glyph unicode="&#xc8;" horiz-adv-x="1089" d="M18 35q12 31 26.5 44t28 18t25 9.5t19.5 18.5q4 6 7 71.5t5 164t2 217t1 234.5t1 215v157q0 12 -1 35.5t-2 48t-4 46t-9 32.5q-6 10 -20.5 16t-30 12t-26.5 13.5t-11 21.5q0 31 45 42t103.5 13t115.5 -2t80 -4q135 0 265 6t265 6q20 0 36.5 -25.5t29 -59t19.5 -67.5 t7 -50t-11 -28.5t-28 -12.5q-18 0 -32.5 15t-27.5 34.5t-28.5 38t-33.5 24.5q-39 12 -81 14.5t-81 2.5q-90 0 -177 -4t-178 -4q-29 0 -28 -25q-6 -16 -9.5 -58t-5.5 -91.5t-2 -95.5v-66q0 -31 12.5 -43.5t43.5 -12.5q20 0 72.5 -1t118 0t139 2t135 4.5t105.5 10.5t52 17 q12 18 20.5 40t24.5 38l17 2q25 0 37 -24.5t17 -57.5t4 -66.5t-1 -50.5q0 -14 -1 -36.5t-6 -45t-16.5 -39t-31.5 -16.5q-6 0 -13.5 2t-11.5 4q-18 18 -27.5 42t-27.5 44q-8 8 -47 13.5t-95.5 8.5t-123 5t-127 3t-107.5 1h-67q-35 0 -54.5 -7t-30 -20.5t-12.5 -36t-2 -53.5 q0 -123 6.5 -244.5t6.5 -244.5q0 -29 -5.5 -57.5t-5.5 -57.5l2 -26q14 -2 27.5 -2.5t30.5 -0.5h117.5t164.5 2.5t160 9.5t100 21q12 6 31 24.5t38.5 38t35.5 35t27 15.5q18 0 34.5 -12.5t16.5 -30.5q0 -12 -16.5 -48t-38 -74t-43 -66.5t-31.5 -28.5h-820q-10 0 -25 1 t-28.5 6t-24 13t-10.5 23zM365 1800q0 25 16 41.5t39 16.5q10 0 35.5 -15.5t58.5 -39t68.5 -53.5t64.5 -57.5t48.5 -51t19.5 -33.5q0 -25 -17.5 -41.5t-40.5 -16.5q-16 0 -28.5 8.5t-26.5 16.5q4 -4 10 -7t11 -7q-16 12 -58.5 42.5t-86.5 67.5t-78.5 73t-34.5 56z" />
<glyph unicode="&#xc9;" horiz-adv-x="1089" d="M18 35q12 31 26.5 44t28 18t25 9.5t19.5 18.5q4 6 7 71.5t5 164t2 217t1 234.5t1 215v157q0 12 -1 35.5t-2 48t-4 46t-9 32.5q-6 10 -20.5 16t-30 12t-26.5 13.5t-11 21.5q0 31 45 42t103.5 13t115.5 -2t80 -4q135 0 265 6t265 6q20 0 36.5 -25.5t29 -59t19.5 -67.5 t7 -50t-11 -28.5t-28 -12.5q-18 0 -32.5 15t-27.5 34.5t-28.5 38t-33.5 24.5q-39 12 -81 14.5t-81 2.5q-90 0 -177 -4t-178 -4q-29 0 -28 -25q-6 -16 -9.5 -58t-5.5 -91.5t-2 -95.5v-66q0 -31 12.5 -43.5t43.5 -12.5q20 0 72.5 -1t118 0t139 2t135 4.5t105.5 10.5t52 17 q12 18 20.5 40t24.5 38l17 2q25 0 37 -24.5t17 -57.5t4 -66.5t-1 -50.5q0 -14 -1 -36.5t-6 -45t-16.5 -39t-31.5 -16.5q-6 0 -13.5 2t-11.5 4q-18 18 -27.5 42t-27.5 44q-8 8 -47 13.5t-95.5 8.5t-123 5t-127 3t-107.5 1h-67q-35 0 -54.5 -7t-30 -20.5t-12.5 -36t-2 -53.5 q0 -123 6.5 -244.5t6.5 -244.5q0 -29 -5.5 -57.5t-5.5 -57.5l2 -26q14 -2 27.5 -2.5t30.5 -0.5h117.5t164.5 2.5t160 9.5t100 21q12 6 31 24.5t38.5 38t35.5 35t27 15.5q18 0 34.5 -12.5t16.5 -30.5q0 -12 -16.5 -48t-38 -74t-43 -66.5t-31.5 -28.5h-820q-10 0 -25 1 t-28.5 6t-24 13t-10.5 23zM373 1608q0 16 40 57t92 84t99 76t64 33q23 0 39 -16.5t16 -41.5q0 -20 -35 -56t-79 -73t-87 -67.5t-57 -42.5q4 4 10 7t10 7q-14 -8 -26.5 -16.5t-28.5 -8.5q-23 0 -40 16.5t-17 41.5z" />
<glyph unicode="&#xca;" horiz-adv-x="1089" d="M18 35q12 31 26.5 44t28 18t25 9.5t19.5 18.5q4 6 7 71.5t5 164t2 217t1 234.5t1 215v157q0 12 -1 35.5t-2 48t-4 46t-9 32.5q-6 10 -20.5 16t-30 12t-26.5 13.5t-11 21.5q0 31 45 42t103.5 13t115.5 -2t80 -4q135 0 265 6t265 6q20 0 36.5 -25.5t29 -59t19.5 -67.5 t7 -50t-11 -28.5t-28 -12.5q-18 0 -32.5 15t-27.5 34.5t-28.5 38t-33.5 24.5q-39 12 -81 14.5t-81 2.5q-90 0 -177 -4t-178 -4q-29 0 -28 -25q-6 -16 -9.5 -58t-5.5 -91.5t-2 -95.5v-66q0 -31 12.5 -43.5t43.5 -12.5q20 0 72.5 -1t118 0t139 2t135 4.5t105.5 10.5t52 17 q12 18 20.5 40t24.5 38l17 2q25 0 37 -24.5t17 -57.5t4 -66.5t-1 -50.5q0 -14 -1 -36.5t-6 -45t-16.5 -39t-31.5 -16.5q-6 0 -13.5 2t-11.5 4q-18 18 -27.5 42t-27.5 44q-8 8 -47 13.5t-95.5 8.5t-123 5t-127 3t-107.5 1h-67q-35 0 -54.5 -7t-30 -20.5t-12.5 -36t-2 -53.5 q0 -123 6.5 -244.5t6.5 -244.5q0 -29 -5.5 -57.5t-5.5 -57.5l2 -26q14 -2 27.5 -2.5t30.5 -0.5h117.5t164.5 2.5t160 9.5t100 21q12 6 31 24.5t38.5 38t35.5 35t27 15.5q18 0 34.5 -12.5t16.5 -30.5q0 -12 -16.5 -48t-38 -74t-43 -66.5t-31.5 -28.5h-820q-10 0 -25 1 t-28.5 6t-24 13t-10.5 23zM272 1614q0 16 38 53t88.5 75t97.5 66.5t65 28.5q12 0 54 -27.5t87.5 -63.5t80 -71t34.5 -49q0 -23 -17.5 -39t-41.5 -16q-12 0 -40 18.5t-59.5 41t-61.5 45t-42 30.5q-12 -10 -45 -33.5t-68.5 -49.5t-67.5 -45t-44 -19q-23 0 -40.5 15t-17.5 40z " />
<glyph unicode="&#xcb;" horiz-adv-x="1089" d="M18 35q12 31 26.5 44t28 18t25 9.5t19.5 18.5q4 6 7 71.5t5 164t2 217t1 234.5t1 215v157q0 12 -1 35.5t-2 48t-4 46t-9 32.5q-6 10 -20.5 16t-30 12t-26.5 13.5t-11 21.5q0 31 45 42t103.5 13t115.5 -2t80 -4q135 0 265 6t265 6q20 0 36.5 -25.5t29 -59t19.5 -67.5 t7 -50t-11 -28.5t-28 -12.5q-18 0 -32.5 15t-27.5 34.5t-28.5 38t-33.5 24.5q-39 12 -81 14.5t-81 2.5q-90 0 -177 -4t-178 -4q-29 0 -28 -25q-6 -16 -9.5 -58t-5.5 -91.5t-2 -95.5v-66q0 -31 12.5 -43.5t43.5 -12.5q20 0 72.5 -1t118 0t139 2t135 4.5t105.5 10.5t52 17 q12 18 20.5 40t24.5 38l17 2q25 0 37 -24.5t17 -57.5t4 -66.5t-1 -50.5q0 -14 -1 -36.5t-6 -45t-16.5 -39t-31.5 -16.5q-6 0 -13.5 2t-11.5 4q-18 18 -27.5 42t-27.5 44q-8 8 -47 13.5t-95.5 8.5t-123 5t-127 3t-107.5 1h-67q-35 0 -54.5 -7t-30 -20.5t-12.5 -36t-2 -53.5 q0 -123 6.5 -244.5t6.5 -244.5q0 -29 -5.5 -57.5t-5.5 -57.5l2 -26q14 -2 27.5 -2.5t30.5 -0.5h117.5t164.5 2.5t160 9.5t100 21q12 6 31 24.5t38.5 38t35.5 35t27 15.5q18 0 34.5 -12.5t16.5 -30.5q0 -12 -16.5 -48t-38 -74t-43 -66.5t-31.5 -28.5h-820q-10 0 -25 1 t-28.5 6t-24 13t-10.5 23zM340 1679q0 39 16.5 68t59.5 29q45 0 59 -33t14 -70q0 -35 -16 -64.5t-57 -29.5q-45 0 -60.5 30.5t-15.5 69.5zM598 1679q0 39 15.5 68t60.5 29q43 0 58.5 -33t15.5 -70q0 -35 -17.5 -64.5t-56.5 -29.5q-47 0 -61.5 30.5t-14.5 69.5z" />
<glyph unicode="&#xcc;" horiz-adv-x="417" d="M18 53q0 25 18.5 36t40 21.5t40 27t18.5 52.5v996v36.5t-1 52.5t-3 50.5t-6 30.5q-10 14 -26.5 17t-34 7t-29.5 15.5t-12 46.5q0 16 32.5 24.5t74.5 11.5t81 2t49 -1q14 0 38 -1t46.5 -6.5t38.5 -17.5t16 -33q0 -18 -18.5 -28.5t-41 -19.5t-40.5 -20.5t-18 -35.5 q0 -293 -4.5 -582t-4.5 -581q0 -31 17.5 -42.5t39 -17.5t39 -15t17.5 -34q0 -18 -13.5 -31.5t-31.5 -13.5h-63.5t-97.5 3t-92 7t-48 15q-6 4 -13.5 12t-7.5 16zM29 1800q0 25 17 41.5t40 16.5q10 0 35.5 -15.5t58.5 -39t68 -53.5t64.5 -57.5t48 -51t18.5 -33.5 q0 -25 -16 -41.5t-39 -16.5q-18 0 -29.5 8.5t-26.5 16.5q4 -4 10.5 -7t10.5 -7q-16 12 -58.5 42.5t-87.5 67.5t-79.5 73t-34.5 56z" />
<glyph unicode="&#xcd;" horiz-adv-x="417" d="M18 53q0 25 18.5 36t40 21.5t40 27t18.5 52.5v996v36.5t-1 52.5t-3 50.5t-6 30.5q-10 14 -26.5 17t-34 7t-29.5 15.5t-12 46.5q0 16 32.5 24.5t74.5 11.5t81 2t49 -1q14 0 38 -1t46.5 -6.5t38.5 -17.5t16 -33q0 -18 -18.5 -28.5t-41 -19.5t-40.5 -20.5t-18 -35.5 q0 -293 -4.5 -582t-4.5 -581q0 -31 17.5 -42.5t39 -17.5t39 -15t17.5 -34q0 -18 -13.5 -31.5t-31.5 -13.5h-63.5t-97.5 3t-92 7t-48 15q-6 4 -13.5 12t-7.5 16zM39 1608q0 16 40 57t91 84t98 76t64 33q25 0 41 -16.5t16 -41.5q0 -20 -35 -56t-79 -73t-87 -67.5t-57 -42.5 q4 4 9 7t10 7q-12 -8 -25 -16.5t-29 -8.5q-25 0 -41 16.5t-16 41.5z" />
<glyph unicode="&#xce;" horiz-adv-x="417" d="M-61 1614q0 16 37.5 53t87 75t96.5 66.5t65 28.5q8 0 31 -13.5t51.5 -34t60 -45t57.5 -48t42 -43t16 -27.5q0 -23 -18.5 -39t-40.5 -16q-12 0 -41 18.5t-60.5 41t-61.5 45t-42 30.5q-12 -10 -45 -33.5t-68.5 -49.5t-67.5 -45t-42 -19q-23 0 -40 15t-17 40zM18 53 q0 25 18.5 36t40 21.5t40 27t18.5 52.5v996v36.5t-1 52.5t-3 50.5t-6 30.5q-10 14 -26.5 17t-34 7t-29.5 15.5t-12 46.5q0 16 32.5 24.5t74.5 11.5t81 2t49 -1q14 0 38 -1t46.5 -6.5t38.5 -17.5t16 -33q0 -18 -18.5 -28.5t-41 -19.5t-40.5 -20.5t-18 -35.5q0 -293 -4.5 -582 t-4.5 -581q0 -31 17.5 -42.5t39 -17.5t39 -15t17.5 -34q0 -18 -13.5 -31.5t-31.5 -13.5h-63.5t-97.5 3t-92 7t-48 15q-6 4 -13.5 12t-7.5 16z" />
<glyph unicode="&#xcf;" horiz-adv-x="417" d="M6 1679q0 39 15.5 68t60.5 29q43 0 58.5 -33t15.5 -70q0 -35 -16.5 -64.5t-57.5 -29.5q-47 0 -61.5 30.5t-14.5 69.5zM18 53q0 25 18.5 36t40 21.5t40 27t18.5 52.5v996v36.5t-1 52.5t-3 50.5t-6 30.5q-10 14 -26.5 17t-34 7t-29.5 15.5t-12 46.5q0 16 32.5 24.5 t74.5 11.5t81 2t49 -1q14 0 38 -1t46.5 -6.5t38.5 -17.5t16 -33q0 -18 -18.5 -28.5t-41 -19.5t-40.5 -20.5t-18 -35.5q0 -293 -4.5 -582t-4.5 -581q0 -31 17.5 -42.5t39 -17.5t39 -15t17.5 -34q0 -18 -13.5 -31.5t-31.5 -13.5h-63.5t-97.5 3t-92 7t-48 15q-6 4 -13.5 12 t-7.5 16zM262 1679q0 39 16.5 68t59.5 29q45 0 59.5 -33t14.5 -70q0 -35 -16.5 -64.5t-57.5 -29.5q-45 0 -60.5 30.5t-15.5 69.5z" />
<glyph unicode="&#xd0;" horiz-adv-x="1110" d="M18 49q0 23 13.5 32t31 16t34 15.5t22.5 26.5q10 43 12 91.5t2 91.5q0 139 -6 275t-2 277q-31 -4 -61.5 8.5t-30.5 51.5t31.5 51t62.5 8q2 76 3 151t1 150q0 41 -15.5 58.5t-34 27t-33.5 17.5t-15 33t40 34t92 12t101 1t66 -2q162 0 301 -35t240.5 -113t160 -202 t58.5 -300v-194q0 -86 -29 -184.5t-81 -186.5t-126 -154.5t-162 -89.5q-70 -18 -140.5 -23t-141.5 -5q-25 0 -89.5 -2t-132 2t-120 17t-52.5 44zM266 195q0 -20 3 -41t14 -37q25 -10 59.5 -11.5t60.5 -1.5h71t73 5q111 8 184.5 74.5t117.5 160.5t62.5 201.5t18.5 199.5 q0 94 -22.5 203t-74 201t-133.5 152.5t-200 60.5h-140q-16 0 -31.5 -1t-31.5 -7q-14 -16 -16 -51t-2 -56q0 -63 2 -125.5t2 -126.5l209 2q25 0 44 -17t19 -42q0 -33 -34 -47t-80 -17.5t-92 -1.5t-68 2q-4 -127 -9.5 -253.5t-5.5 -253.5v-172z" />
<glyph unicode="&#xd1;" horiz-adv-x="1198" d="M18 1430q0 25 19.5 36t47.5 14t55.5 2t43.5 -1q14 0 43 -1t57.5 -5.5t51 -16.5t22.5 -33q0 -23 -16 -33t-34.5 -18t-35 -18t-16.5 -31q0 -33 42 -90t107.5 -127t145.5 -146.5t153.5 -148.5t134 -134.5t87.5 -100.5h30q0 172 -3 342t-3 344q0 33 -1 52t-9 31.5t-25.5 20.5 t-50.5 18q-10 10 -18 22.5t-8 27.5q0 23 34.5 33t80.5 13t90.5 2t64.5 -1q25 0 48.5 -9.5t23.5 -39.5q0 -29 -18.5 -39.5t-40 -18.5t-39 -21.5t-17.5 -47.5q0 -59 5 -120t5 -120q0 -145 -3 -286.5t-3 -284.5v-74.5t1 -114t4 -110t7 -62.5q6 -16 22.5 -24.5t33 -16.5t29 -17 t12.5 -26q0 -20 -9.5 -31.5t-24 -17.5t-31.5 -7t-32 -1q-18 0 -57 -1t-80 2t-71.5 13t-30.5 33q0 18 11 29.5t26.5 20.5t31 18.5t23.5 25.5q12 25 14 52.5t2 56.5q0 57 -47 136t-112.5 156.5t-134 144.5t-111.5 99q-76 57 -137.5 127t-126.5 137l-17 7l-22 -21q0 -86 2 -170 t2 -168q0 -59 -3 -134t-4 -151.5t2 -150.5t15 -129q16 -16 38.5 -23.5t39.5 -23.5q14 -4 20 -17.5t6 -27.5l-2 -17q-12 -18 -31.5 -21t-37.5 -3q-20 0 -64.5 -1t-88.5 3t-77.5 16.5t-33.5 38.5q0 4 2 10.5t4 10.5q27 37 46 40t31.5 10t18.5 35.5t6 116.5v562v60v100.5 t-2 117t-4 112.5t-7 88t-11 42q-10 8 -24.5 15t-30 14.5t-26 17.5t-10.5 27zM281 1618q0 6 2 14t4 15q18 25 41.5 51t49 47.5t56.5 35t66 13.5q41 0 74.5 -17.5t64.5 -37t57.5 -36.5t53.5 -17h6q18 12 28.5 31.5t20.5 38t25.5 32.5t39.5 14q23 0 39.5 -17.5t16.5 -39.5 q0 -29 -16.5 -60.5t-41 -58.5t-55.5 -44t-59 -17q-37 0 -71 16t-64.5 35.5t-60.5 36t-60 16.5q-31 0 -50.5 -17.5t-35 -37t-32.5 -36.5t-44 -17q-23 0 -39 16t-16 41z" />
<glyph unicode="&#xd2;" horiz-adv-x="1126" d="M18 752q0 119 27 248.5t88.5 239.5t161 180.5t244.5 70.5q172 0 282.5 -62.5t174 -167t88 -240.5t24.5 -282q0 -141 -24.5 -274t-88 -236.5t-171 -166t-273.5 -62.5q-158 0 -260.5 68.5t-162.5 177t-85 243t-25 263.5zM174 666q0 -94 20.5 -191.5t68.5 -177.5t124 -131 t186 -51q76 0 133.5 31.5t99.5 83t68.5 119t43 139t23.5 142t7 128.5q0 96 -14 203.5t-55 198.5t-117 150.5t-199 59.5q-86 0 -148.5 -35t-105.5 -92t-69.5 -131t-41 -152.5t-19.5 -155.5t-5 -138zM383 1800q0 25 16.5 41.5t40.5 16.5q10 0 36 -15.5t58.5 -39t67.5 -53.5 t64.5 -57.5t48 -51t18.5 -33.5q0 -25 -16 -41.5t-39 -16.5q-18 0 -29.5 8.5t-25.5 16.5q4 -4 9 -7t9 -7q-14 12 -56 42.5t-87 67.5t-80 73t-35 56z" />
<glyph unicode="&#xd3;" horiz-adv-x="1126" d="M18 752q0 119 27 248.5t88.5 239.5t161 180.5t244.5 70.5q172 0 282.5 -62.5t174 -167t88 -240.5t24.5 -282q0 -141 -24.5 -274t-88 -236.5t-171 -166t-273.5 -62.5q-158 0 -260.5 68.5t-162.5 177t-85 243t-25 263.5zM174 666q0 -94 20.5 -191.5t68.5 -177.5t124 -131 t186 -51q76 0 133.5 31.5t99.5 83t68.5 119t43 139t23.5 142t7 128.5q0 96 -14 203.5t-55 198.5t-117 150.5t-199 59.5q-86 0 -148.5 -35t-105.5 -92t-69.5 -131t-41 -152.5t-19.5 -155.5t-5 -138zM393 1608q0 16 40 57t91 84t98.5 76t63.5 33q25 0 41 -16.5t16 -41.5 q0 -20 -34.5 -56t-79.5 -73t-87 -67.5t-57 -42.5q4 4 9.5 7t9.5 7q-14 -8 -25.5 -16.5t-29.5 -8.5q-23 0 -39.5 16.5t-16.5 41.5z" />
<glyph unicode="&#xd4;" horiz-adv-x="1126" d="M18 752q0 119 27 248.5t88.5 239.5t161 180.5t244.5 70.5q172 0 282.5 -62.5t174 -167t88 -240.5t24.5 -282q0 -141 -24.5 -274t-88 -236.5t-171 -166t-273.5 -62.5q-158 0 -260.5 68.5t-162.5 177t-85 243t-25 263.5zM174 666q0 -94 20.5 -191.5t68.5 -177.5t124 -131 t186 -51q76 0 133.5 31.5t99.5 83t68.5 119t43 139t23.5 142t7 128.5q0 96 -14 203.5t-55 198.5t-117 150.5t-199 59.5q-86 0 -148.5 -35t-105.5 -92t-69.5 -131t-41 -152.5t-19.5 -155.5t-5 -138zM291 1614q0 16 38 53t87 75t96.5 66.5t65.5 28.5q8 0 30.5 -13.5t51 -34 t60.5 -45t57.5 -48t42 -43t16.5 -27.5q0 -23 -18.5 -39t-41.5 -16q-12 0 -40.5 18.5t-60.5 41t-61.5 45t-42.5 30.5q-12 -10 -44.5 -33.5t-68.5 -49.5t-68 -45t-42 -19q-23 0 -40 15t-17 40z" />
<glyph unicode="&#xd5;" horiz-adv-x="1126" d="M18 752q0 119 27 248.5t88.5 239.5t161 180.5t244.5 70.5q172 0 282.5 -62.5t174 -167t88 -240.5t24.5 -282q0 -141 -24.5 -274t-88 -236.5t-171 -166t-273.5 -62.5q-158 0 -260.5 68.5t-162.5 177t-85 243t-25 263.5zM174 666q0 -94 20.5 -191.5t68.5 -177.5t124 -131 t186 -51q76 0 133.5 31.5t99.5 83t68.5 119t43 139t23.5 142t7 128.5q0 96 -14 203.5t-55 198.5t-117 150.5t-199 59.5q-86 0 -148.5 -35t-105.5 -92t-69.5 -131t-41 -152.5t-19.5 -155.5t-5 -138zM244 1618q0 6 2 14t4 15q18 25 40.5 51t49.5 47.5t57.5 35t65.5 13.5 q41 0 74.5 -17.5t64.5 -37t57.5 -36.5t53.5 -17h6q18 12 28.5 31.5t20.5 38t25.5 32.5t40.5 14q23 0 39 -17.5t16 -39.5q0 -29 -16.5 -60.5t-41 -58.5t-55.5 -44t-59 -17q-37 0 -71 16t-64.5 35.5t-60 36t-60.5 16.5t-50.5 -17.5t-36 -37t-32.5 -36.5t-43 -17q-23 0 -39 16 t-16 41z" />
<glyph unicode="&#xd6;" horiz-adv-x="1126" d="M18 752q0 119 27 248.5t88.5 239.5t161 180.5t244.5 70.5q172 0 282.5 -62.5t174 -167t88 -240.5t24.5 -282q0 -141 -24.5 -274t-88 -236.5t-171 -166t-273.5 -62.5q-158 0 -260.5 68.5t-162.5 177t-85 243t-25 263.5zM174 666q0 -94 20.5 -191.5t68.5 -177.5t124 -131 t186 -51q76 0 133.5 31.5t99.5 83t68.5 119t43 139t23.5 142t7 128.5q0 96 -14 203.5t-55 198.5t-117 150.5t-199 59.5q-86 0 -148.5 -35t-105.5 -92t-69.5 -131t-41 -152.5t-19.5 -155.5t-5 -138zM360 1679q0 39 15.5 68t60.5 29q43 0 58.5 -33t15.5 -70q0 -35 -17.5 -64.5 t-56.5 -29.5q-47 0 -61.5 30.5t-14.5 69.5zM616 1679q0 39 16.5 68t59.5 29q45 0 59.5 -33t14.5 -70q0 -35 -16.5 -64.5t-57.5 -29.5q-45 0 -60.5 30.5t-15.5 69.5z" />
<glyph unicode="&#xd7;" horiz-adv-x="651" d="M90 381q0 20 21.5 48t50 57.5t57.5 55t43 40.5q-14 14 -43 39.5t-57.5 55.5t-50 58.5t-21.5 46.5q0 23 17.5 40.5t39.5 17.5q16 0 45 -21.5t59 -51.5t56.5 -58.5t38.5 -40.5q14 14 39 42.5t53.5 57.5t57 50.5t51.5 21.5t39 -17.5t16 -40.5t-21.5 -51.5t-49 -57t-55 -53 t-42.5 -38.5q12 -12 41 -39t58.5 -56.5t51 -58.5t21.5 -45q0 -23 -17.5 -39t-39.5 -16q-18 0 -47 21.5t-58.5 49t-56.5 56t-39 41.5q-16 -16 -40.5 -45t-53.5 -56.5t-57.5 -49t-49.5 -21.5q-23 0 -40 17t-17 40z" />
<glyph unicode="&#xd8;" horiz-adv-x="1126" d="M4 729q0 119 26.5 250t88 239.5t161 179t244.5 70.5q104 0 202.5 -29.5t176.5 -101.5q8 14 21.5 37t29 44.5t34 36.5t38.5 15q23 0 40 -17t17 -40q0 -14 -13 -38.5t-29.5 -51.5t-34 -50.5t-25.5 -35.5q68 -115 89.5 -251t21.5 -267q0 -141 -25 -275.5t-87 -237 t-171 -164.5t-274 -62q-41 0 -89.5 7t-94.5 22.5t-87 39t-69 53.5q-8 -14 -18.5 -33.5t-24 -37t-28.5 -29.5t-36 -12q-25 0 -41 18.5t-16 42.5l2 19q23 37 46 72.5t46 70.5q-39 68 -62.5 128t-37 121.5t-17.5 126t-4 140.5zM160 643q0 -76 12 -150.5t41 -146.5 q147 221 301 434t305 434q-49 66 -118.5 100t-153.5 34q-86 0 -147.5 -35t-104.5 -92.5t-69.5 -131t-41 -151.5t-19.5 -155t-5 -140zM279 229q51 -68 122.5 -101.5t157.5 -33.5q113 0 185.5 67.5t114.5 166t57.5 210t15.5 197.5q0 92 -11.5 181.5t-39.5 175.5 q-152 -217 -303.5 -429.5t-298.5 -433.5z" />
<glyph unicode="&#xd9;" horiz-adv-x="1212" d="M18 1430q0 18 11.5 26t28 12.5t34 4.5h29.5h55h72t70.5 -3.5t50.5 -9.5q8 -6 14 -17t6 -24q0 -4 -4 -12q-14 -18 -32.5 -24.5t-36 -12.5t-29 -20.5t-11.5 -51.5v-841q0 -180 80 -262t260 -82q106 0 173 40t104 105.5t52.5 150.5t17.5 175t-2.5 177t-4.5 159v80.5t-1 132 t-3 128t-6 68.5q-10 20 -30.5 31.5t-41 20t-35 20.5t-14.5 37q0 20 38 30.5t88 12.5t97.5 1t65.5 -1q25 0 50.5 -13.5t25.5 -42.5q0 -27 -18.5 -34t-40 -12t-39 -14t-17.5 -40q0 -166 5 -332t5 -331q0 -74 -2 -149t-6 -148q-4 -78 -47 -144.5t-107.5 -116t-141 -78 t-146.5 -28.5q-115 0 -207 24.5t-157.5 79t-100.5 139.5t-35 208q0 211 -2 419.5t-2 419.5q0 51 -17.5 71.5t-39 28t-39 12.5t-17.5 30zM426 1800q0 25 16.5 41.5t40.5 16.5q10 0 36 -15.5t58.5 -39t67.5 -53.5t64.5 -57.5t48 -51t18.5 -33.5q0 -25 -16 -41.5t-41 -16.5 q-16 0 -28.5 8.5t-24.5 16.5q4 -4 9 -7t9 -7q-16 12 -58 42.5t-86 67.5t-79 73t-35 56z" />
<glyph unicode="&#xda;" horiz-adv-x="1212" d="M18 1430q0 18 11.5 26t28 12.5t34 4.5h29.5h55h72t70.5 -3.5t50.5 -9.5q8 -6 14 -17t6 -24q0 -4 -4 -12q-14 -18 -32.5 -24.5t-36 -12.5t-29 -20.5t-11.5 -51.5v-841q0 -180 80 -262t260 -82q106 0 173 40t104 105.5t52.5 150.5t17.5 175t-2.5 177t-4.5 159v80.5t-1 132 t-3 128t-6 68.5q-10 20 -30.5 31.5t-41 20t-35 20.5t-14.5 37q0 20 38 30.5t88 12.5t97.5 1t65.5 -1q25 0 50.5 -13.5t25.5 -42.5q0 -27 -18.5 -34t-40 -12t-39 -14t-17.5 -40q0 -166 5 -332t5 -331q0 -74 -2 -149t-6 -148q-4 -78 -47 -144.5t-107.5 -116t-141 -78 t-146.5 -28.5q-115 0 -207 24.5t-157.5 79t-100.5 139.5t-35 208q0 211 -2 419.5t-2 419.5q0 51 -17.5 71.5t-39 28t-39 12.5t-17.5 30zM436 1608q0 16 40 57t91 84t98.5 76t63.5 33q23 0 40 -16.5t17 -41.5q0 -20 -34.5 -56t-79.5 -73t-88 -67.5t-58 -42.5q4 4 10.5 7 t10.5 7q-14 -8 -25.5 -16.5t-29.5 -8.5q-23 0 -39.5 16.5t-16.5 41.5z" />
<glyph unicode="&#xdb;" horiz-adv-x="1212" d="M18 1430q0 18 11.5 26t28 12.5t34 4.5h29.5h55h72t70.5 -3.5t50.5 -9.5q8 -6 14 -17t6 -24q0 -4 -4 -12q-14 -18 -32.5 -24.5t-36 -12.5t-29 -20.5t-11.5 -51.5v-841q0 -180 80 -262t260 -82q106 0 173 40t104 105.5t52.5 150.5t17.5 175t-2.5 177t-4.5 159v80.5t-1 132 t-3 128t-6 68.5q-10 20 -30.5 31.5t-41 20t-35 20.5t-14.5 37q0 20 38 30.5t88 12.5t97.5 1t65.5 -1q25 0 50.5 -13.5t25.5 -42.5q0 -27 -18.5 -34t-40 -12t-39 -14t-17.5 -40q0 -166 5 -332t5 -331q0 -74 -2 -149t-6 -148q-4 -78 -47 -144.5t-107.5 -116t-141 -78 t-146.5 -28.5q-115 0 -207 24.5t-157.5 79t-100.5 139.5t-35 208q0 211 -2 419.5t-2 419.5q0 51 -17.5 71.5t-39 28t-39 12.5t-17.5 30zM332 1614q0 16 38 53t88 75t97.5 66.5t65.5 28.5q12 0 54 -27.5t87 -63.5t80 -71t35 -49q0 -23 -17.5 -39t-40.5 -16q-12 0 -40.5 18.5 t-60.5 41t-61.5 45t-42.5 30.5q-12 -10 -44.5 -33.5t-68.5 -49.5t-68 -45t-42 -19q-23 0 -41 15t-18 40z" />
<glyph unicode="&#xdc;" horiz-adv-x="1212" d="M18 1430q0 18 11.5 26t28 12.5t34 4.5h29.5h55h72t70.5 -3.5t50.5 -9.5q8 -6 14 -17t6 -24q0 -4 -4 -12q-14 -18 -32.5 -24.5t-36 -12.5t-29 -20.5t-11.5 -51.5v-841q0 -180 80 -262t260 -82q106 0 173 40t104 105.5t52.5 150.5t17.5 175t-2.5 177t-4.5 159v80.5t-1 132 t-3 128t-6 68.5q-10 20 -30.5 31.5t-41 20t-35 20.5t-14.5 37q0 20 38 30.5t88 12.5t97.5 1t65.5 -1q25 0 50.5 -13.5t25.5 -42.5q0 -27 -18.5 -34t-40 -12t-39 -14t-17.5 -40q0 -166 5 -332t5 -331q0 -74 -2 -149t-6 -148q-4 -78 -47 -144.5t-107.5 -116t-141 -78 t-146.5 -28.5q-115 0 -207 24.5t-157.5 79t-100.5 139.5t-35 208q0 211 -2 419.5t-2 419.5q0 51 -17.5 71.5t-39 28t-39 12.5t-17.5 30zM403 1679q0 39 15.5 68t60.5 29q43 0 58.5 -33t15.5 -70q0 -35 -17.5 -64.5t-56.5 -29.5q-47 0 -61.5 30.5t-14.5 69.5zM659 1679 q0 39 16.5 68t59.5 29q45 0 59.5 -33t14.5 -70q0 -35 -16.5 -64.5t-57.5 -29.5q-45 0 -60.5 30.5t-15.5 69.5z" />
<glyph unicode="&#xdd;" horiz-adv-x="1253" d="M20 1452q0 25 23 35t53.5 13t62.5 2t48 -1t49 -1t64.5 -7t56 -19.5t24.5 -39.5q0 -27 -20 -33q-8 -6 -25.5 -15.5t-17.5 -19.5q0 -6 18.5 -36t47 -70.5t63.5 -88t65.5 -91.5t55 -77.5t35.5 -46.5l22 -10q8 0 30.5 24.5t50.5 60.5t58.5 78t56 78t43 61.5t19.5 27.5 q4 6 14.5 17.5t21.5 22.5t19.5 21.5t8.5 16.5q0 18 -12.5 25t-27 13.5t-26.5 16.5t-12 33q8 25 23.5 37t34 15t40 2t43.5 -1q16 0 51 -1t69 -7t59.5 -20.5t25.5 -41.5q0 -16 -10.5 -27.5t-25.5 -17.5t-32.5 -10t-29.5 -8q-16 -14 -55.5 -58t-86.5 -103.5t-98 -126t-93 -127 t-68.5 -106.5t-26.5 -63q0 -72 4 -140.5t4 -139.5q0 -66 -7.5 -128.5t-7.5 -127.5q0 -23 1.5 -44.5t5.5 -41.5q4 -25 21.5 -33t35.5 -14.5t33.5 -15.5t15.5 -34q0 -20 -25.5 -30.5t-59.5 -15.5t-66.5 -6t-49.5 -1q-14 0 -41.5 1t-55.5 7t-49.5 18.5t-21.5 33.5q0 33 18.5 40 t41 14t41 29.5t18.5 88.5v86v115.5t-1 128t-4 121.5t-9 97t-14 54q-12 16 -43 62t-71 104.5t-85 122t-85 117.5t-68.5 91t-37.5 41q-14 6 -35.5 10.5t-42 11.5t-35 18.5t-14.5 33.5zM455 1608q0 16 40 57t92 84t99 76t64 33q23 0 39 -16.5t16 -41.5q0 -20 -35 -56t-79 -73 t-87 -67.5t-57 -42.5q4 4 10 7t8 7q-12 -8 -24.5 -16.5t-28.5 -8.5q-23 0 -40 16.5t-17 41.5z" />
<glyph unicode="&#xde;" horiz-adv-x="0" d="M27 49q0 23 14 32t33.5 14t38 13.5t24.5 26.5q6 12 8 33.5t3.5 44.5t1.5 44.5v35.5v120t1 204.5t0 242.5t-2.5 234.5t-4.5 181.5t-9 84q-10 14 -26.5 17t-34 7.5t-29.5 15.5t-12 46q0 16 31.5 24.5t73.5 11.5t81 2t51 -1q14 0 38 -1t45.5 -6.5t38 -17.5t16.5 -33 q0 -25 -18.5 -30.5t-40 -13t-40 -28t-18.5 -71.5q0 -27 28.5 -36t66.5 -10t76 3t58 4q88 0 186.5 -5t181.5 -36t137 -95.5t54 -182.5q0 -98 -36.5 -158.5t-97 -93.5t-138.5 -45.5t-160 -13.5t-161.5 4.5t-143.5 5.5q-29 0 -39 -8.5t-10 -34.5q0 -82 -1 -163t-1 -165 q0 -29 -1 -58.5t3 -58.5q4 -23 22.5 -33t39 -17t37 -17.5t16.5 -30.5q0 -14 -10.5 -23.5t-25 -15.5t-29.5 -8t-26 -2q-23 0 -70.5 -2t-97 2t-86 17t-36.5 44zM287 782q2 -16 5 -30.5t17 -22.5q10 -2 18.5 -3t18.5 -1q45 0 103.5 -3t122 -3t124 8t107.5 30.5t76.5 62.5 t29.5 104q0 61 -28.5 101t-75.5 63.5t-107.5 34t-122 13.5t-120 1t-101.5 -2q-6 0 -20.5 -2.5t-20.5 -6.5q-12 -6 -18 -53t-7 -105.5t0 -112t1 -73.5h-2z" />
<glyph unicode="&#xdf;" horiz-adv-x="741" d="M12 1307q0 59 30 97t75 58.5t97 27.5t99 7q55 0 112.5 -10t103.5 -36t75 -71t29 -114q0 -61 -23.5 -105.5t-51.5 -81.5t-51.5 -69.5t-23.5 -73.5q0 -27 16.5 -45.5t42 -39t54.5 -46t54.5 -66.5t42 -101t16.5 -149q0 -88 -8.5 -173t-33 -163.5t-67.5 -150.5t-113 -133 q-23 -18 -45 -19q-25 0 -41 16.5t-16 39.5q0 29 16 45q61 74 97.5 133t56.5 118.5t26.5 130t6.5 167.5q0 74 -16.5 122t-42 81.5t-55.5 56t-55.5 45t-42 49.5t-16.5 68q0 53 26 93t56.5 76.5t56 73.5t25.5 86q0 41 -23.5 65.5t-57 37t-72.5 16.5t-72 4q-16 0 -44 -2 t-54.5 -9t-47 -21t-20.5 -37q0 -47 24.5 -79t53.5 -67q25 -27 37 -84t17 -121.5t6 -126t1 -98.5q0 -111 -5 -222.5t-5 -223.5q0 -43 -1 -75t7 -54.5t31 -36t70 -19.5l14 -6q4 -12 4 -22q0 -31 -20.5 -45.5t-49 -19.5t-58.5 -4t-48 1t-47 -2t-54.5 1t-45 14.5t-19.5 37.5 q0 20 8 30.5t20.5 15.5t27 9.5t26.5 14.5q4 4 8 38t6 83t3 106.5t1 109.5v93v57v55.5t-2 65.5t-6 63.5t-10 51.5q-6 18 -21.5 26.5t-31 14.5t-27.5 14t-12 27q0 27 16.5 32t34.5 8t34.5 14t16.5 48q0 49 -19.5 78t-43 55.5t-43 58t-19.5 85.5z" />
<glyph unicode="&#xe0;" horiz-adv-x="794" d="M27 254q0 70 36.5 120t92 88t119 67.5t119 57t92 56.5t36.5 66q0 63 -25.5 108t-97.5 45q-14 0 -34.5 -4t-40 -11t-35 -19.5t-21.5 -28.5q-12 -12 -14 -31.5t-5 -36t-13.5 -29t-36.5 -12.5q-18 0 -37 19.5t-35 46t-26.5 53.5t-10.5 43q0 25 7 35t18.5 13t27 2t31.5 -1 q14 0 38 9.5t52.5 21.5t61 21.5t67.5 9.5t88.5 -9.5t81.5 -29.5q33 -23 52.5 -80.5t28.5 -132t11 -159.5t3 -167t1 -151.5t7 -110.5q2 -25 18 -33t34.5 -14t33 -15.5t14.5 -35.5q0 -23 -13.5 -30t-33.5 -7q-47 0 -78 -1t-51.5 6t-35.5 27.5t-30 63.5q-14 0 -36.5 -16.5 t-51 -37t-65.5 -37t-82 -16.5q-59 0 -108.5 21.5t-83.5 58.5t-52 87.5t-18 109.5zM172 246q0 -57 33 -102.5t94 -45.5q63 0 107.5 26t72 66.5t39.5 94t12 106.5q0 33 -1 67t-11 62h-39q-39 -18 -92 -44.5t-100 -62.5t-81 -78t-34 -89zM215 1411q0 25 17.5 41t39.5 16 q10 0 36 -15t58.5 -38.5t67.5 -53.5t64.5 -57.5t48 -51t18.5 -33.5q0 -25 -16 -41.5t-39 -16.5q-18 0 -29.5 8.5t-25.5 16.5q4 -4 10 -7t10 -8q-16 12 -58 43t-87 68t-80 73t-35 56z" />
<glyph unicode="&#xe1;" horiz-adv-x="794" d="M27 254q0 70 36.5 120t92 88t119 67.5t119 57t92 56.5t36.5 66q0 63 -25.5 108t-97.5 45q-14 0 -34.5 -4t-40 -11t-35 -19.5t-21.5 -28.5q-12 -12 -14 -31.5t-5 -36t-13.5 -29t-36.5 -12.5q-18 0 -37 19.5t-35 46t-26.5 53.5t-10.5 43q0 25 7 35t18.5 13t27 2t31.5 -1 q14 0 38 9.5t52.5 21.5t61 21.5t67.5 9.5t88.5 -9.5t81.5 -29.5q33 -23 52.5 -80.5t28.5 -132t11 -159.5t3 -167t1 -151.5t7 -110.5q2 -25 18 -33t34.5 -14t33 -15.5t14.5 -35.5q0 -23 -13.5 -30t-33.5 -7q-47 0 -78 -1t-51.5 6t-35.5 27.5t-30 63.5q-14 0 -36.5 -16.5 t-51 -37t-65.5 -37t-82 -16.5q-59 0 -108.5 21.5t-83.5 58.5t-52 87.5t-18 109.5zM172 246q0 -57 33 -102.5t94 -45.5q63 0 107.5 26t72 66.5t39.5 94t12 106.5q0 33 -1 67t-11 62h-39q-39 -18 -92 -44.5t-100 -62.5t-81 -78t-34 -89zM227 1219q0 16 40 57t92.5 84 t99.5 75.5t63 32.5q23 0 39.5 -16t16.5 -41q0 -20 -35 -56t-79 -73t-87 -67.5t-58 -43.5q12 8 19 15q-12 -8 -24.5 -16.5t-28.5 -8.5q-25 0 -41.5 16.5t-16.5 41.5z" />
<glyph unicode="&#xe2;" horiz-adv-x="794" d="M27 254q0 70 36.5 120t92 88t119 67.5t119 57t92 56.5t36.5 66q0 63 -25.5 108t-97.5 45q-14 0 -34.5 -4t-40 -11t-35 -19.5t-21.5 -28.5q-12 -12 -14 -31.5t-5 -36t-13.5 -29t-36.5 -12.5q-18 0 -37 19.5t-35 46t-26.5 53.5t-10.5 43q0 25 7 35t18.5 13t27 2t31.5 -1 q14 0 38 9.5t52.5 21.5t61 21.5t67.5 9.5t88.5 -9.5t81.5 -29.5q33 -23 52.5 -80.5t28.5 -132t11 -159.5t3 -167t1 -151.5t7 -110.5q2 -25 18 -33t34.5 -14t33 -15.5t14.5 -35.5q0 -23 -13.5 -30t-33.5 -7q-47 0 -78 -1t-51.5 6t-35.5 27.5t-30 63.5q-14 0 -36.5 -16.5 t-51 -37t-65.5 -37t-82 -16.5q-59 0 -108.5 21.5t-83.5 58.5t-52 87.5t-18 109.5zM125 1225q0 10 18.5 31.5t46 46t61.5 50t65.5 47t57.5 35t38 13.5q8 0 30.5 -13.5t51 -34t60.5 -45t57.5 -48t42 -43t16.5 -27.5q0 -23 -18.5 -39t-41.5 -16q-12 0 -39.5 18.5t-59.5 41 t-61.5 45t-41.5 30.5q-12 -10 -45 -33.5t-69 -49.5t-67.5 -45.5t-44.5 -19.5q-23 0 -40 15.5t-17 40.5zM172 246q0 -57 33 -102.5t94 -45.5q63 0 107.5 26t72 66.5t39.5 94t12 106.5q0 33 -1 67t-11 62h-39q-39 -18 -92 -44.5t-100 -62.5t-81 -78t-34 -89z" />
<glyph unicode="&#xe3;" horiz-adv-x="794" d="M27 254q0 70 36.5 120t92 88t119 67.5t119 57t92 56.5t36.5 66q0 63 -25.5 108t-97.5 45q-14 0 -34.5 -4t-40 -11t-35 -19.5t-21.5 -28.5q-12 -12 -14 -31.5t-5 -36t-13.5 -29t-36.5 -12.5q-18 0 -37 19.5t-35 46t-26.5 53.5t-10.5 43q0 25 7 35t18.5 13t27 2t31.5 -1 q14 0 38 9.5t52.5 21.5t61 21.5t67.5 9.5t88.5 -9.5t81.5 -29.5q33 -23 52.5 -80.5t28.5 -132t11 -159.5t3 -167t1 -151.5t7 -110.5q2 -25 18 -33t34.5 -14t33 -15.5t14.5 -35.5q0 -23 -13.5 -30t-33.5 -7q-47 0 -78 -1t-51.5 6t-35.5 27.5t-30 63.5q-14 0 -36.5 -16.5 t-51 -37t-65.5 -37t-82 -16.5q-59 0 -108.5 21.5t-83.5 58.5t-52 87.5t-18 109.5zM78 1229q0 6 2 14t4 14q18 25 42 51.5t49.5 48t56 35t65.5 13.5q41 0 76 -17.5t65.5 -37t57 -37t51.5 -17.5h6q18 12 29.5 32t21.5 38t24.5 32.5t39.5 14.5q23 0 39 -17.5t16 -39.5 q0 -29 -16.5 -60.5t-41 -58.5t-55 -44t-59.5 -17q-37 0 -71 16t-64.5 35.5t-60 36t-60.5 16.5t-50.5 -17.5t-34.5 -37t-31.5 -37t-43.5 -17.5q-25 0 -41 16.5t-16 41.5zM172 246q0 -57 33 -102.5t94 -45.5q63 0 107.5 26t72 66.5t39.5 94t12 106.5q0 33 -1 67t-11 62h-39 q-39 -18 -92 -44.5t-100 -62.5t-81 -78t-34 -89z" />
<glyph unicode="&#xe4;" horiz-adv-x="794" d="M27 254q0 70 36.5 120t92 88t119 67.5t119 57t92 56.5t36.5 66q0 63 -25.5 108t-97.5 45q-14 0 -34.5 -4t-40 -11t-35 -19.5t-21.5 -28.5q-12 -12 -14 -31.5t-5 -36t-13.5 -29t-36.5 -12.5q-18 0 -37 19.5t-35 46t-26.5 53.5t-10.5 43q0 25 7 35t18.5 13t27 2t31.5 -1 q14 0 38 9.5t52.5 21.5t61 21.5t67.5 9.5t88.5 -9.5t81.5 -29.5q33 -23 52.5 -80.5t28.5 -132t11 -159.5t3 -167t1 -151.5t7 -110.5q2 -25 18 -33t34.5 -14t33 -15.5t14.5 -35.5q0 -23 -13.5 -30t-33.5 -7q-47 0 -78 -1t-51.5 6t-35.5 27.5t-30 63.5q-14 0 -36.5 -16.5 t-51 -37t-65.5 -37t-82 -16.5q-59 0 -108.5 21.5t-83.5 58.5t-52 87.5t-18 109.5zM172 246q0 -57 33 -102.5t94 -45.5q63 0 107.5 26t72 66.5t39.5 94t12 106.5q0 33 -1 67t-11 62h-39q-39 -18 -92 -44.5t-100 -62.5t-81 -78t-34 -89zM193 1290q0 39 16 67.5t59 28.5 q45 0 59.5 -32.5t14.5 -69.5q0 -35 -16.5 -64.5t-57.5 -29.5q-45 0 -60 30.5t-15 69.5zM449 1290q0 39 16 67.5t59 28.5q45 0 60.5 -32.5t15.5 -69.5q0 -35 -17.5 -64.5t-58.5 -29.5q-45 0 -60 30.5t-15 69.5z" />
<glyph unicode="&#xe5;" horiz-adv-x="778" d="M12 254q0 70 37 120t91.5 88t119 67.5t118.5 57t91 56.5t37 66q0 63 -25.5 108t-97.5 45q-14 0 -34.5 -4t-40 -11t-35 -19.5t-21.5 -28.5q-12 -12 -14 -31.5t-5.5 -36t-13.5 -29t-37 -12.5q-18 0 -36.5 19.5t-35 46t-26.5 53.5t-10 43q0 25 7 35t19.5 13t27.5 2t32 -1 q14 0 37.5 9.5t52.5 21.5t61.5 21.5t65.5 9.5q18 0 41.5 -2.5t47 -7.5t46.5 -12t37 -17q33 -23 51 -80.5t28.5 -132t12.5 -159.5t2 -167t1 -151.5t5 -110.5q2 -25 18.5 -33t35 -14t34 -15.5t15.5 -35.5q0 -23 -14.5 -30t-32.5 -7q-47 0 -78 -1t-51.5 6t-36 27.5t-29.5 63.5 q-14 0 -36.5 -16.5t-51.5 -37t-67 -37t-83 -16.5q-59 0 -107 21.5t-82 58.5t-52.5 87.5t-18.5 109.5zM156 246q0 -57 33.5 -102.5t95.5 -45.5q63 0 107 26t72 66.5t40 94t12 106.5q0 33 -1 67t-13 62h-39q-39 -18 -91.5 -44.5t-100.5 -62.5t-81.5 -78t-33.5 -89zM223 1309 q0 33 12.5 66.5t34 60t50 44t63.5 17.5q37 0 68.5 -18.5t54 -46t35 -63.5t12.5 -69q0 -37 -11.5 -71.5t-32 -61t-51 -43t-69.5 -16.5q-41 0 -71.5 17.5t-52 46t-32 64.5t-10.5 73zM344 1300q0 -18 9 -45.5t32 -27.5h12q37 23 37 67q0 20 -13 51t-38 31q-10 0 -18.5 -9 t-12.5 -21.5t-6 -26t-2 -19.5z" />
<glyph unicode="&#xe6;" horiz-adv-x="1185" d="M39 233q0 82 35 132.5t87 80t113.5 45t114.5 28.5t90 30.5t39 50.5q2 27 3 54.5t1 54.5q0 63 -25.5 108t-97.5 45q-14 0 -34.5 -4t-40 -11t-35 -19.5t-21.5 -28.5q-12 -12 -14 -31.5t-5 -36t-13.5 -29t-36.5 -12.5q-18 0 -37 19.5t-35 46t-26.5 53.5t-10.5 43q0 25 7 35 t18.5 13t27 2t31.5 -1q14 0 38 9.5t52.5 21.5t61 21.5t67.5 9.5q66 0 127.5 -18.5t93.5 -82.5q80 115 215 115q76 0 128.5 -15.5t88 -48t57 -85t38.5 -123.5l2 -15q0 -27 -32 -49.5t-80 -42.5t-104.5 -38.5t-108.5 -36t-90 -36t-48 -38.5l-2 -17q0 -47 14.5 -101.5 t43 -100.5t70.5 -77.5t95 -31.5q55 0 88 27.5t55.5 61.5t40 62.5t41.5 28.5q23 0 30 -13.5t7 -33.5q0 -49 -28.5 -95t-72.5 -82t-96.5 -56.5t-99.5 -20.5q-37 0 -79 11.5t-80.5 33t-70.5 50t-50 63.5q-16 -16 -32.5 -35t-29.5 -39q-14 0 -36.5 -16.5t-51 -37t-65.5 -37 t-82 -16.5q-115 0 -182.5 73t-67.5 183zM172 246q0 -57 33 -102.5t94 -45.5q66 0 109 27t69.5 70t36.5 96t10 108q0 35 -30 35q-18 0 -36 -6l-36 -12q-35 -12 -78 -21.5t-82 -26t-64.5 -45t-25.5 -77.5zM670 635l2 -31q4 -2 11 -4t11 -2q23 0 70 11.5t95 29.5t84 43t36 51 q0 70 -47 102.5t-111 32.5q-37 0 -64.5 -25.5t-47 -62.5t-29.5 -76.5t-10 -68.5z" />
<glyph unicode="&#xe7;" horiz-adv-x="679" d="M20 522q0 80 16.5 164t55.5 153.5t105.5 113.5t164.5 44q72 0 132 -26q14 -16 27.5 -20.5t25.5 -2.5t25.5 5t29.5 3q18 0 33.5 -15t15.5 -34q0 -16 -15 -50t-36.5 -66.5t-45.5 -57t-42 -24.5q-29 0 -33 26.5t-7 57t-16.5 57.5t-62.5 27q-70 0 -117 -35t-74.5 -88.5 t-39.5 -116t-12 -119.5q0 -55 10 -122.5t35.5 -127t70.5 -99.5t117 -40q74 0 105.5 21.5t50 52t37 62.5t65.5 52q20 -20 21 -51q0 -49 -22 -97t-57.5 -86t-82.5 -61.5t-99 -23.5q-113 0 -186.5 48t-116.5 124t-60.5 169t-17.5 183zM147 -166q0 25 12.5 68t32 85t45 71.5 t54.5 29.5t38 -17.5t9 -39.5q0 -35 -19.5 -69t-29.5 -68q39 -2 78 -18.5t70.5 -42.5t52 -61.5t20.5 -78.5q0 -49 -30.5 -90t-75 -71t-96.5 -45t-95 -15q-23 0 -42 18t-19 41q0 25 26.5 40t62 28.5t72.5 24.5t58 28q6 10 12 20.5t6 22.5l-6 20l-14 23q-23 14 -60 20 t-72.5 13.5t-62.5 19.5t-27 43z" />
<glyph unicode="&#xe8;" horiz-adv-x="653" d="M4 500q0 72 12.5 155.5t45 155.5t91 119t150.5 47q76 0 128 -15.5t88 -48t57.5 -85t37.5 -123.5l2 -15q0 -23 -30.5 -44t-77.5 -44.5t-103.5 -46.5t-108.5 -47.5t-93 -49t-56 -50.5l-2 -17q0 -49 16.5 -97t46.5 -86t72 -62.5t95 -24.5q55 0 88 27.5t55.5 61.5t39.5 62.5 t44 28.5q23 0 30 -14.5t7 -32.5q0 -49 -28.5 -95t-73.5 -82t-97.5 -56.5t-99.5 -20.5q-104 0 -170 47t-102.5 121t-50 162t-13.5 170zM137 594l2 -31q4 0 12.5 -3t12.5 -3q12 0 57 20.5t96.5 47t91.5 52t42 36.5l2 20q0 70 -47.5 102.5t-110.5 32.5q-35 0 -64.5 -31.5 t-50 -75.5t-32 -91t-11.5 -76zM145 1411q0 25 17.5 41t40.5 16q10 0 35.5 -15t58.5 -38.5t67.5 -53.5t64.5 -57.5t48.5 -51t18.5 -33.5q0 -25 -16.5 -41.5t-39.5 -16.5q-18 0 -29.5 8.5t-25.5 16.5q4 -4 10 -7t11 -8q-16 12 -58.5 43t-87.5 68t-80 73t-35 56z" />
<glyph unicode="&#xe9;" horiz-adv-x="653" d="M4 500q0 72 12.5 155.5t45 155.5t91 119t150.5 47q76 0 128 -15.5t88 -48t57.5 -85t37.5 -123.5l2 -15q0 -23 -30.5 -44t-77.5 -44.5t-103.5 -46.5t-108.5 -47.5t-93 -49t-56 -50.5l-2 -17q0 -49 16.5 -97t46.5 -86t72 -62.5t95 -24.5q55 0 88 27.5t55.5 61.5t39.5 62.5 t44 28.5q23 0 30 -14.5t7 -32.5q0 -49 -28.5 -95t-73.5 -82t-97.5 -56.5t-99.5 -20.5q-104 0 -170 47t-102.5 121t-50 162t-13.5 170zM137 594l2 -31q4 0 12.5 -3t12.5 -3q12 0 57 20.5t96.5 47t91.5 52t42 36.5l2 20q0 70 -47.5 102.5t-110.5 32.5q-35 0 -64.5 -31.5 t-50 -75.5t-32 -91t-11.5 -76zM158 1219q0 16 40 57t91 84t98 75.5t64 32.5q25 0 41 -16t16 -41q0 -20 -35 -56t-79 -73t-87 -67.5t-57 -43.5q4 4 9 7.5t9 7.5q-12 -8 -24.5 -16.5t-30.5 -8.5q-23 0 -39 16.5t-16 41.5z" />
<glyph unicode="&#xea;" horiz-adv-x="653" d="M4 500q0 72 12.5 155.5t45 155.5t91 119t150.5 47q76 0 128 -15.5t88 -48t57.5 -85t37.5 -123.5l2 -15q0 -23 -30.5 -44t-77.5 -44.5t-103.5 -46.5t-108.5 -47.5t-93 -49t-56 -50.5l-2 -17q0 -49 16.5 -97t46.5 -86t72 -62.5t95 -24.5q55 0 88 27.5t55.5 61.5t39.5 62.5 t44 28.5q23 0 30 -14.5t7 -32.5q0 -49 -28.5 -95t-73.5 -82t-97.5 -56.5t-99.5 -20.5q-104 0 -170 47t-102.5 121t-50 162t-13.5 170zM55 1225q0 16 38 53t87 75t96.5 66.5t65.5 28.5q8 0 30.5 -13.5t51.5 -34t60.5 -45t57 -48t42 -43t16.5 -27.5q0 -23 -18.5 -39t-40.5 -16 q-12 0 -41 18.5t-60.5 41t-61.5 45t-42 30.5q-12 -10 -45 -33.5t-69 -49.5t-67.5 -45.5t-41.5 -19.5q-23 0 -40.5 15.5t-17.5 40.5zM137 594l2 -31q4 0 12.5 -3t12.5 -3q12 0 57 20.5t96.5 47t91.5 52t42 36.5l2 20q0 70 -47.5 102.5t-110.5 32.5q-35 0 -64.5 -31.5 t-50 -75.5t-32 -91t-11.5 -76z" />
<glyph unicode="&#xeb;" horiz-adv-x="653" d="M4 500q0 72 12.5 155.5t45 155.5t91 119t150.5 47q76 0 128 -15.5t88 -48t57.5 -85t37.5 -123.5l2 -15q0 -23 -30.5 -44t-77.5 -44.5t-103.5 -46.5t-108.5 -47.5t-93 -49t-56 -50.5l-2 -17q0 -49 16.5 -97t46.5 -86t72 -62.5t95 -24.5q55 0 88 27.5t55.5 61.5t39.5 62.5 t44 28.5q23 0 30 -14.5t7 -32.5q0 -49 -28.5 -95t-73.5 -82t-97.5 -56.5t-99.5 -20.5q-104 0 -170 47t-102.5 121t-50 162t-13.5 170zM123 1290q0 39 15.5 67.5t60.5 28.5q43 0 58 -32.5t15 -69.5q0 -35 -16 -64.5t-57 -29.5q-47 0 -61.5 30.5t-14.5 69.5zM137 594l2 -31 q4 0 12.5 -3t12.5 -3q12 0 57 20.5t96.5 47t91.5 52t42 36.5l2 20q0 70 -47.5 102.5t-110.5 32.5q-35 0 -64.5 -31.5t-50 -75.5t-32 -91t-11.5 -76zM379 1290q0 39 16.5 67.5t59.5 28.5q45 0 59 -32.5t14 -69.5q0 -35 -16 -64.5t-57 -29.5q-45 0 -60.5 30.5t-15.5 69.5z" />
<glyph unicode="&#xec;" horiz-adv-x="358" d="M0 1411q0 25 16.5 41t40.5 16q14 0 62.5 -32.5t99.5 -75.5t91 -84t40 -57q0 -25 -16 -41.5t-41 -16.5q-16 0 -28.5 8.5t-24.5 16.5q6 -6 18 -15q-16 12 -58 43t-86 68t-79 73t-35 56zM18 905q0 25 18.5 41.5t43.5 16.5h139h10q12 0 31 -2.5t35 -7.5t28.5 -15t12.5 -27 q0 -14 -12.5 -22t-28.5 -16.5t-30.5 -17.5t-20.5 -28q-8 -23 -8 -44v-42v-58t-1.5 -110.5t0 -139.5t4.5 -141.5t7 -115.5t12 -65q20 -10 47 -18.5t27 -39.5q0 -25 -10.5 -36t-26.5 -15t-34.5 -4h-35.5q-14 0 -46 1t-64.5 6t-58 16.5t-25.5 33.5q0 18 11 28.5t25.5 18 t26.5 15.5t17 24q8 41 9 86t1 88q0 121 -6 241t4 241q-14 43 -26.5 57t-24 17t-23.5 7.5t-27 26.5z" />
<glyph unicode="&#xed;" horiz-adv-x="358" d="M10 1219q0 16 40 57t91.5 84t98.5 75.5t63 32.5q23 0 40 -16t17 -41q0 -20 -34.5 -56t-79.5 -73t-88 -67.5t-58 -43.5q4 4 10.5 7.5t10.5 7.5q-14 -8 -25.5 -16.5t-29.5 -8.5q-23 0 -39.5 16.5t-16.5 41.5zM18 905q0 25 18.5 41.5t43.5 16.5h139h10q12 0 31 -2.5t35 -7.5 t28.5 -15t12.5 -27q0 -14 -12.5 -22t-28.5 -16.5t-30.5 -17.5t-20.5 -28q-8 -23 -8 -44v-42v-58t-1.5 -110.5t0 -139.5t4.5 -141.5t7 -115.5t12 -65q20 -10 47 -18.5t27 -39.5q0 -25 -10.5 -36t-26.5 -15t-34.5 -4h-35.5q-14 0 -46 1t-64.5 6t-58 16.5t-25.5 33.5 q0 18 11 28.5t25.5 18t26.5 15.5t17 24q8 41 9 86t1 88q0 121 -6 241t4 241q-14 43 -26.5 57t-24 17t-23.5 7.5t-27 26.5z" />
<glyph unicode="&#xee;" horiz-adv-x="358" d="M-94 1225q0 16 38 53t88 75t97.5 66.5t65.5 28.5q12 0 54 -27.5t87 -63.5t80 -71t35 -49q0 -23 -17.5 -39t-40.5 -16q-12 0 -40.5 18.5t-60.5 41t-61.5 45t-42.5 30.5q-12 -10 -44.5 -33.5t-68.5 -49.5t-68 -45.5t-42 -19.5q-23 0 -41 15.5t-18 40.5zM18 905 q0 25 18.5 41.5t43.5 16.5h139h10q12 0 31 -2.5t35 -7.5t28.5 -15t12.5 -27q0 -14 -12.5 -22t-28.5 -16.5t-30.5 -17.5t-20.5 -28q-8 -23 -8 -44v-42v-58t-1.5 -110.5t0 -139.5t4.5 -141.5t7 -115.5t12 -65q20 -10 47 -18.5t27 -39.5q0 -25 -10.5 -36t-26.5 -15t-34.5 -4 h-35.5q-14 0 -46 1t-64.5 6t-58 16.5t-25.5 33.5q0 18 11 28.5t25.5 18t26.5 15.5t17 24q8 41 9 86t1 88q0 121 -6 241t4 241q-14 43 -26.5 57t-24 17t-23.5 7.5t-27 26.5z" />
<glyph unicode="&#xef;" horiz-adv-x="358" d="M-23 1290q0 39 15.5 67.5t60.5 28.5q43 0 58.5 -32.5t15.5 -69.5q0 -35 -17.5 -64.5t-56.5 -29.5q-47 0 -61.5 30.5t-14.5 69.5zM18 905q0 25 18.5 41.5t43.5 16.5h139h10q12 0 31 -2.5t35 -7.5t28.5 -15t12.5 -27q0 -14 -12.5 -22t-28.5 -16.5t-30.5 -17.5t-20.5 -28 q-8 -23 -8 -44v-42v-58t-1.5 -110.5t0 -139.5t4.5 -141.5t7 -115.5t12 -65q20 -10 47 -18.5t27 -39.5q0 -25 -10.5 -36t-26.5 -15t-34.5 -4h-35.5q-14 0 -46 1t-64.5 6t-58 16.5t-25.5 33.5q0 18 11 28.5t25.5 18t26.5 15.5t17 24q8 41 9 86t1 88q0 121 -6 241t4 241 q-14 43 -26.5 57t-24 17t-23.5 7.5t-27 26.5zM233 1290q0 39 16.5 67.5t59.5 28.5q45 0 59.5 -32.5t14.5 -69.5q0 -35 -16.5 -64.5t-57.5 -29.5q-45 0 -60.5 30.5t-15.5 69.5z" />
<glyph unicode="&#xf0;" d="M16 580q0 74 18.5 146.5t58.5 130.5t100.5 95t144.5 37q29 0 55.5 -4t52.5 -14q-29 59 -66.5 111.5t-88.5 95.5q-14 -10 -38 -30t-50.5 -39t-51 -33.5t-40.5 -14.5q-23 0 -40.5 16.5t-17.5 38.5q0 20 14.5 39t34 35t41 29.5t35.5 23.5q-18 6 -46 7t-52.5 5.5t-43 16.5 t-18.5 43t21.5 45t50.5 14q14 0 45 -3t63.5 -9t59.5 -16.5t35 -22.5q12 8 30.5 21.5t40 26.5t41 23.5t31.5 10.5q25 0 42.5 -16.5t17.5 -40.5q0 -18 -11.5 -34t-28 -28t-35 -22.5t-32.5 -18.5q137 -141 211 -327.5t74 -385.5q0 -78 -12.5 -170t-46 -172.5t-96 -135 t-163.5 -54.5q-115 0 -182.5 57.5t-102 144.5t-45 188.5t-10.5 189.5zM152 557q0 -53 4 -129t23.5 -144.5t61.5 -116.5t117 -48q45 0 77 31.5t52.5 77.5t30.5 95.5t10 84.5v176q0 51 -8 102t-30.5 93t-61.5 68.5t-100 26.5q-49 0 -83 -35.5t-54.5 -87t-29.5 -104.5t-9 -90z " />
<glyph unicode="&#xf1;" horiz-adv-x="778" d="M18 944q27 27 45.5 29t55.5 2h28.5t35 -1t34.5 -5t27 -11q14 -33 14 -61h25q14 14 35.5 30.5t46 31t49.5 24.5t43 10q12 0 22 -3t21 -7q92 -35 143 -79t76.5 -100t32 -129t6.5 -163q0 -53 -13.5 -103.5t-30 -99.5t-29.5 -98t-13 -100q12 -6 26.5 -9.5t26.5 -9.5t21.5 -16 t9.5 -27q0 -20 -12.5 -29.5t-30 -13.5t-37 -4h-33.5q-16 0 -42 1t-50.5 7t-41.5 18.5t-17 34.5q0 25 16 48q33 51 50 105t36 114q20 72 25.5 145.5t5.5 149.5q0 33 -6.5 73.5t-22.5 76.5t-43 60.5t-70 24.5q-59 0 -101 -20.5t-70.5 -55t-42 -82t-13.5 -100.5 q0 -117 3 -233.5t7 -233.5q8 -10 23.5 -19.5t32 -18.5t28.5 -19t12 -23q0 -23 -24.5 -33t-57 -14t-64.5 -4h-46q-16 0 -37.5 1t-41 7t-34 17.5t-14.5 31.5q0 23 12.5 33t26.5 17.5t27.5 18.5t17.5 36q4 29 5 58.5t1 58.5q0 123 -3 244.5t-3 244.5q0 55 -11.5 73.5t-27.5 27 t-34.5 19.5t-35.5 52zM70 1229q0 6 2 14t4 14q20 25 42.5 51.5t49.5 48t57.5 35t65.5 13.5q41 0 74.5 -17.5t64.5 -37t57.5 -37t51.5 -17.5h6q18 12 29.5 32t21.5 38t24.5 32.5t38.5 14.5q23 0 40.5 -17.5t17.5 -39.5q0 -29 -16.5 -60.5t-42 -58.5t-56.5 -44t-59 -17 q-37 0 -70 16t-63.5 35.5t-60.5 36t-60 16.5q-31 0 -50.5 -17.5t-36 -37t-32.5 -37t-43 -17.5q-23 0 -40 16.5t-17 41.5z" />
<glyph unicode="&#xf2;" d="M16 580q0 74 18.5 146.5t58.5 130.5t100.5 95t144.5 37q98 0 162.5 -41t102.5 -105.5t54.5 -146.5t16.5 -164q0 -78 -12.5 -170t-46 -172.5t-96 -135t-163.5 -54.5q-115 0 -182.5 57.5t-102 144.5t-45 188.5t-10.5 189.5zM152 557q0 -53 4 -129t23.5 -144.5t61.5 -116.5 t117 -48q45 0 77 31.5t52.5 77.5t30.5 95.5t10 84.5v176q0 51 -8 102t-30.5 93t-61.5 68.5t-100 26.5q-49 0 -83 -35.5t-54.5 -87t-29.5 -104.5t-9 -90zM168 1411q0 25 16.5 41t38.5 16q10 0 36 -15t58.5 -38.5t68.5 -53.5t64.5 -57.5t48 -51t19.5 -33.5q0 -25 -17 -41.5 t-40 -16.5q-16 0 -28.5 8.5t-24.5 16.5q2 -4 8 -7t10 -8q-16 12 -58 43t-86 68t-79 73t-35 56z" />
<glyph unicode="&#xf3;" d="M16 580q0 74 18.5 146.5t58.5 130.5t100.5 95t144.5 37q98 0 162.5 -41t102.5 -105.5t54.5 -146.5t16.5 -164q0 -78 -12.5 -170t-46 -172.5t-96 -135t-163.5 -54.5q-115 0 -182.5 57.5t-102 144.5t-45 188.5t-10.5 189.5zM152 557q0 -53 4 -129t23.5 -144.5t61.5 -116.5 t117 -48q45 0 77 31.5t52.5 77.5t30.5 95.5t10 84.5v176q0 51 -8 102t-30.5 93t-61.5 68.5t-100 26.5q-49 0 -83 -35.5t-54.5 -87t-29.5 -104.5t-9 -90zM178 1219q0 16 40 57t92 84t99.5 75.5t63.5 32.5q23 0 39 -16t16 -41q0 -20 -34.5 -56t-78.5 -73t-87 -67.5t-58 -43.5 q4 4 10.5 7.5t10.5 7.5q-14 -8 -26.5 -16.5t-28.5 -8.5q-23 0 -40.5 16.5t-17.5 41.5z" />
<glyph unicode="&#xf4;" d="M16 580q0 74 18.5 146.5t58.5 130.5t100.5 95t144.5 37q98 0 162.5 -41t102.5 -105.5t54.5 -146.5t16.5 -164q0 -78 -12.5 -170t-46 -172.5t-96 -135t-163.5 -54.5q-115 0 -182.5 57.5t-102 144.5t-45 188.5t-10.5 189.5zM76 1225q0 16 38 53t88 75t97.5 66.5t65.5 28.5 q12 0 54 -27.5t87 -63.5t80 -71t35 -49q0 -23 -17.5 -39t-40.5 -16q-12 0 -40.5 18.5t-60.5 41t-61.5 45t-42.5 30.5q-12 -10 -44.5 -33.5t-68.5 -49.5t-68 -45.5t-42 -19.5q-25 0 -42 15.5t-17 40.5zM152 557q0 -53 4 -129t23.5 -144.5t61.5 -116.5t117 -48q45 0 77 31.5 t52.5 77.5t30.5 95.5t10 84.5v176q0 51 -8 102t-30.5 93t-61.5 68.5t-100 26.5q-49 0 -83 -35.5t-54.5 -87t-29.5 -104.5t-9 -90z" />
<glyph unicode="&#xf5;" d="M16 580q0 74 18.5 146.5t58.5 130.5t100.5 95t144.5 37q98 0 162.5 -41t102.5 -105.5t54.5 -146.5t16.5 -164q0 -78 -12.5 -170t-46 -172.5t-96 -135t-163.5 -54.5q-115 0 -182.5 57.5t-102 144.5t-45 188.5t-10.5 189.5zM29 1229q0 6 2 14t4 14q20 25 42.5 51.5t49.5 48 t57.5 35t65.5 13.5q41 0 74.5 -17.5t64.5 -37t57.5 -37t51.5 -17.5h6q18 12 29.5 32t21.5 38t24.5 32.5t38.5 14.5q23 0 40.5 -17.5t17.5 -39.5q0 -29 -16.5 -60.5t-42 -58.5t-56.5 -44t-59 -17q-37 0 -70 16t-63.5 35.5t-60 36t-60.5 16.5t-50.5 -17.5t-36 -37t-32.5 -37 t-43 -17.5q-23 0 -40 16.5t-17 41.5zM152 557q0 -53 4 -129t23.5 -144.5t61.5 -116.5t117 -48q45 0 77 31.5t52.5 77.5t30.5 95.5t10 84.5v176q0 51 -8 102t-30.5 93t-61.5 68.5t-100 26.5q-49 0 -83 -35.5t-54.5 -87t-29.5 -104.5t-9 -90z" />
<glyph unicode="&#xf6;" d="M16 580q0 74 18.5 146.5t58.5 130.5t100.5 95t144.5 37q98 0 162.5 -41t102.5 -105.5t54.5 -146.5t16.5 -164q0 -78 -12.5 -170t-46 -172.5t-96 -135t-163.5 -54.5q-115 0 -182.5 57.5t-102 144.5t-45 188.5t-10.5 189.5zM143 1290q0 39 16.5 67.5t59.5 28.5 q45 0 59.5 -32.5t14.5 -69.5q0 -35 -16.5 -64.5t-57.5 -29.5q-45 0 -60.5 30.5t-15.5 69.5zM152 557q0 -53 4 -129t23.5 -144.5t61.5 -116.5t117 -48q45 0 77 31.5t52.5 77.5t30.5 95.5t10 84.5v176q0 51 -8 102t-30.5 93t-61.5 68.5t-100 26.5q-49 0 -83 -35.5t-54.5 -87 t-29.5 -104.5t-9 -90zM401 1290q0 39 15.5 67.5t60.5 28.5q43 0 58.5 -32.5t15.5 -69.5q0 -35 -17.5 -64.5t-56.5 -29.5q-47 0 -61.5 30.5t-14.5 69.5z" />
<glyph unicode="&#xf7;" horiz-adv-x="718" d="M96 582q0 23 15.5 39t38.5 20q45 8 96 10t105.5 0t106.5 -4t99 -2q25 0 43 -17.5t18 -41.5q0 -27 -18 -42.5t-43 -19.5q-98 -8 -202.5 -5t-204.5 3q-20 0 -37 20.5t-17 39.5zM268 381q0 29 21.5 54.5t52.5 25.5q37 0 62.5 -25.5t25.5 -62.5q0 -29 -25.5 -53.5 t-54.5 -24.5q-37 0 -59.5 25.5t-22.5 60.5zM268 786q0 29 21.5 54.5t52.5 25.5q37 0 62.5 -25.5t25.5 -62.5q0 -29 -25.5 -53.5t-54.5 -24.5q-37 0 -59.5 26t-22.5 60z" />
<glyph unicode="&#xf8;" d="M16 580q0 74 18.5 146.5t58.5 130.5t100.5 95t144.5 37q53 0 100 -14t88 -47q10 27 24.5 53.5t49.5 26.5q20 0 37.5 -16.5t17.5 -39.5q0 -29 -14 -65.5t-27 -65.5q35 -66 47.5 -140.5t12.5 -148.5q0 -78 -12.5 -170t-46 -172.5t-96 -135t-163.5 -54.5q-47 0 -93 12.5 t-85 40.5q-4 -18 -22.5 -30.5t-36.5 -12.5q-29 0 -44.5 21.5t-15.5 46.5q0 2 4.5 13t9.5 25.5t10 27t7 16.5q-51 94 -62.5 204.5t-11.5 215.5zM152 557q0 -55 3 -111.5t13 -109.5q31 63 71 120.5t81.5 114t81.5 113.5t71 119q-27 35 -64.5 53t-80.5 18q-49 0 -83 -35.5 t-54.5 -87t-29.5 -104.5t-9 -90zM225 182q51 -63 133 -63q45 0 77 31.5t52.5 77.5t30.5 95.5t10 84.5v176q0 16 -1 32.5t-3 32.5q-37 -59 -77.5 -114.5t-80.5 -111.5t-76 -114.5t-65 -126.5z" />
<glyph unicode="&#xf9;" horiz-adv-x="796" d="M4 479q0 49 12.5 100.5t27.5 98.5t27.5 88t12.5 70q0 25 -11.5 27.5t-24.5 4.5t-23.5 12.5t-10.5 49.5q8 12 27.5 17t42 6t44.5 1h34q29 0 58.5 -5t49.5 -27l2 -11q0 -16 -22.5 -54t-48 -95t-48 -129t-22.5 -154q0 -49 4 -113.5t23.5 -124t57.5 -100.5t106 -41 q35 0 70.5 22.5t64 55.5t46 72t17.5 74v106.5t-2 161.5t-5 155.5t-9 88.5q-6 14 -20.5 24t-31 19.5t-28.5 19.5t-12 25l14 28q18 8 43 9q29 0 65.5 1t73.5 0t71 -8.5t58 -23.5v-39q-39 -18 -67.5 -39t-28.5 -70q0 -25 -1 -80t-1 -125.5t1 -147.5t4 -143.5t8 -113.5t16 -59 q29 -10 60.5 -26.5t31.5 -51.5q-18 -20 -45 -25.5t-53 -5.5h-78q-25 0 -38.5 6t-18.5 17.5t-5 27t2 35.5q-41 -39 -92 -67.5t-110 -28.5q-96 0 -158 47t-96.5 119.5t-49 157.5t-14.5 161zM217 1411q0 25 17.5 41t39.5 16q10 0 36 -15t58.5 -38.5t67.5 -53.5t64.5 -57.5 t48 -51t18.5 -33.5q0 -25 -16 -41.5t-39 -16.5q-18 0 -29.5 8.5t-25.5 16.5q4 -4 10 -7t10 -8q-16 12 -58 43t-87 68t-80 73t-35 56z" />
<glyph unicode="&#xfa;" horiz-adv-x="796" d="M4 479q0 49 12.5 100.5t27.5 98.5t27.5 88t12.5 70q0 25 -11.5 27.5t-24.5 4.5t-23.5 12.5t-10.5 49.5q8 12 27.5 17t42 6t44.5 1h34q29 0 58.5 -5t49.5 -27l2 -11q0 -16 -22.5 -54t-48 -95t-48 -129t-22.5 -154q0 -49 4 -113.5t23.5 -124t57.5 -100.5t106 -41 q35 0 70.5 22.5t64 55.5t46 72t17.5 74v106.5t-2 161.5t-5 155.5t-9 88.5q-6 14 -20.5 24t-31 19.5t-28.5 19.5t-12 25l14 28q18 8 43 9q29 0 65.5 1t73.5 0t71 -8.5t58 -23.5v-39q-39 -18 -67.5 -39t-28.5 -70q0 -25 -1 -80t-1 -125.5t1 -147.5t4 -143.5t8 -113.5t16 -59 q29 -10 60.5 -26.5t31.5 -51.5q-18 -20 -45 -25.5t-53 -5.5h-78q-25 0 -38.5 6t-18.5 17.5t-5 27t2 35.5q-41 -39 -92 -67.5t-110 -28.5q-96 0 -158 47t-96.5 119.5t-49 157.5t-14.5 161zM227 1219q0 16 40 57t92.5 84t99.5 75.5t63 32.5q23 0 39.5 -16t16.5 -41 q0 -20 -35 -56t-79 -73t-87 -67.5t-58 -43.5q12 8 19 15q-12 -8 -24.5 -16.5t-28.5 -8.5q-25 0 -41.5 16.5t-16.5 41.5z" />
<glyph unicode="&#xfb;" horiz-adv-x="796" d="M4 479q0 49 12.5 100.5t27.5 98.5t27.5 88t12.5 70q0 25 -11.5 27.5t-24.5 4.5t-23.5 12.5t-10.5 49.5q8 12 27.5 17t42 6t44.5 1h34q29 0 58.5 -5t49.5 -27l2 -11q0 -16 -22.5 -54t-48 -95t-48 -129t-22.5 -154q0 -49 4 -113.5t23.5 -124t57.5 -100.5t106 -41 q35 0 70.5 22.5t64 55.5t46 72t17.5 74v106.5t-2 161.5t-5 155.5t-9 88.5q-6 14 -20.5 24t-31 19.5t-28.5 19.5t-12 25l14 28q18 8 43 9q29 0 65.5 1t73.5 0t71 -8.5t58 -23.5v-39q-39 -18 -67.5 -39t-28.5 -70q0 -25 -1 -80t-1 -125.5t1 -147.5t4 -143.5t8 -113.5t16 -59 q29 -10 60.5 -26.5t31.5 -51.5q-18 -20 -45 -25.5t-53 -5.5h-78q-25 0 -38.5 6t-18.5 17.5t-5 27t2 35.5q-41 -39 -92 -67.5t-110 -28.5q-96 0 -158 47t-96.5 119.5t-49 157.5t-14.5 161zM125 1225q0 10 18.5 31.5t46 46t61.5 50t65.5 47t57.5 35t38 13.5q8 0 30.5 -13.5 t51 -34t60.5 -45t57.5 -48t42 -43t16.5 -27.5q0 -23 -18.5 -39t-41.5 -16q-12 0 -39.5 18.5t-59.5 41t-61.5 45t-41.5 30.5q-12 -10 -45 -33.5t-69 -49.5t-67.5 -45.5t-44.5 -19.5q-23 0 -40 15.5t-17 40.5z" />
<glyph unicode="&#xfc;" horiz-adv-x="796" d="M4 479q0 49 12.5 100.5t27.5 98.5t27.5 88t12.5 70q0 25 -11.5 27.5t-24.5 4.5t-23.5 12.5t-10.5 49.5q8 12 27.5 17t42 6t44.5 1h34q29 0 58.5 -5t49.5 -27l2 -11q0 -16 -22.5 -54t-48 -95t-48 -129t-22.5 -154q0 -49 4 -113.5t23.5 -124t57.5 -100.5t106 -41 q35 0 70.5 22.5t64 55.5t46 72t17.5 74v106.5t-2 161.5t-5 155.5t-9 88.5q-6 14 -20.5 24t-31 19.5t-28.5 19.5t-12 25l14 28q18 8 43 9q29 0 65.5 1t73.5 0t71 -8.5t58 -23.5v-39q-39 -18 -67.5 -39t-28.5 -70q0 -25 -1 -80t-1 -125.5t1 -147.5t4 -143.5t8 -113.5t16 -59 q29 -10 60.5 -26.5t31.5 -51.5q-18 -20 -45 -25.5t-53 -5.5h-78q-25 0 -38.5 6t-18.5 17.5t-5 27t2 35.5q-41 -39 -92 -67.5t-110 -28.5q-96 0 -158 47t-96.5 119.5t-49 157.5t-14.5 161zM195 1290q0 39 16 67.5t59 28.5q45 0 59.5 -32.5t14.5 -69.5q0 -35 -16.5 -64.5 t-57.5 -29.5q-45 0 -60 30.5t-15 69.5zM451 1290q0 39 16 67.5t59 28.5q45 0 60.5 -32.5t15.5 -69.5q0 -35 -17.5 -64.5t-58.5 -29.5q-45 0 -60 30.5t-15 69.5z" />
<glyph unicode="&#xfd;" horiz-adv-x="901" d="M18 -344q0 14 8.5 31.5t26.5 17.5q25 0 38 -19.5t29.5 -43t43 -43t76.5 -19.5q63 0 92 53q14 25 31.5 72t34 98.5t27.5 99.5t11 77q0 18 -10 35.5t-23.5 32.5t-29 30.5t-25.5 30.5q-63 88 -116.5 189t-77.5 208q-6 29 -10.5 75t-8.5 93t-10 89t-19 62q-6 8 -20 19.5 t-29.5 24t-27 22.5t-11.5 20q0 25 38 35t86 11t94.5 -2t62.5 -3q25 0 47.5 -13t22.5 -42t-18.5 -33t-40 -10t-40 -24.5t-18.5 -71.5q0 -76 12 -160t39 -166t67 -155.5t95 -129.5q6 4 21.5 51.5t35 117t41 151.5t38.5 154.5t28.5 126t11.5 67.5q0 23 -13.5 32t-29.5 15 t-29.5 16.5t-13.5 32.5q0 18 16.5 28.5t32.5 10.5h211q18 0 42 -12t24 -35q0 -25 -14.5 -34t-33 -15t-38 -17.5t-27.5 -41.5q-66 -238 -127 -474.5t-121 -476.5q-16 -66 -29.5 -131t-41.5 -125q-33 -72 -83.5 -98.5t-125.5 -26.5q-20 0 -39 6.5t-37 6.5q-14 0 -28.5 -5.5 t-29.5 -5.5q-16 0 -31.5 25t-27.5 56.5t-20.5 63.5t-8.5 46zM281 1219q0 16 39.5 57t91 84t98.5 75.5t63 32.5q23 0 40.5 -16t17.5 -41q0 -20 -35 -56t-80 -73t-88 -67.5t-57 -43.5q4 4 10 7.5t10 7.5q-14 -8 -25.5 -16.5t-29.5 -8.5q-23 0 -39 16.5t-16 41.5z" />
<glyph unicode="&#xfe;" horiz-adv-x="780" d="M16 1399q0 20 15.5 30.5t37 14.5t44 4h34.5q33 0 61 -9t44 -40q2 -10 2 -47v-89.5v-111.5t-1 -113.5t-1 -96.5v-58q25 27 46 44t44 27.5t51.5 14.5t67.5 4q96 0 154.5 -49.5t90 -123t42 -158.5t10.5 -157q0 -74 -9.5 -159.5t-40 -158.5t-88 -121t-153.5 -48 q-72 0 -117 28.5t-90 79.5l-2 -460q0 -31 32 -44.5t54 -17.5l25 -24l-9 -47q-16 -10 -33.5 -14.5t-35.5 -4.5h-54t-71 3t-68.5 8.5t-48.5 15.5l-12 35l4 20q10 14 24.5 20.5t26.5 11.5t23.5 13t15.5 27q6 37 6 74.5v76.5q0 377 -5 749t-5 750q0 25 -17.5 36.5t-38 19.5 t-38 17t-17.5 28zM252 412q0 -74 16.5 -141.5t56 -114.5t121.5 -47q57 0 93 31.5t56.5 78.5t27 100.5t6.5 98.5q0 49 -3 127t-21.5 151.5t-57.5 125.5t-111 52q-59 0 -96 -35.5t-56.5 -88t-25.5 -109.5t-6 -100v-129z" />
<glyph unicode="&#xff;" horiz-adv-x="901" d="M18 -344q0 14 8.5 31.5t26.5 17.5q25 0 38 -19.5t29.5 -43t43 -43t76.5 -19.5q63 0 92 53q14 25 31.5 72t34 98.5t27.5 99.5t11 77q0 18 -10 35.5t-23.5 32.5t-29 30.5t-25.5 30.5q-63 88 -116.5 189t-77.5 208q-6 29 -10.5 75t-8.5 93t-10 89t-19 62q-6 8 -20 19.5 t-29.5 24t-27 22.5t-11.5 20q0 25 38 35t86 11t94.5 -2t62.5 -3q25 0 47.5 -13t22.5 -42t-18.5 -33t-40 -10t-40 -24.5t-18.5 -71.5q0 -76 12 -160t39 -166t67 -155.5t95 -129.5q6 4 21.5 51.5t35 117t41 151.5t38.5 154.5t28.5 126t11.5 67.5q0 23 -13.5 32t-29.5 15 t-29.5 16.5t-13.5 32.5q0 18 16.5 28.5t32.5 10.5h211q18 0 42 -12t24 -35q0 -25 -14.5 -34t-33 -15t-38 -17.5t-27.5 -41.5q-66 -238 -127 -474.5t-121 -476.5q-16 -66 -29.5 -131t-41.5 -125q-33 -72 -83.5 -98.5t-125.5 -26.5q-20 0 -39 6.5t-37 6.5q-14 0 -28.5 -5.5 t-29.5 -5.5q-16 0 -31.5 25t-27.5 56.5t-20.5 63.5t-8.5 46zM248 1290q0 39 15.5 67.5t60.5 28.5q43 0 58 -32.5t15 -69.5q0 -35 -17.5 -64.5t-55.5 -29.5q-47 0 -61.5 30.5t-14.5 69.5zM504 1290q0 39 16.5 67.5t59.5 28.5q45 0 59 -32.5t14 -69.5q0 -35 -16 -64.5 t-57 -29.5q-45 0 -60.5 30.5t-15.5 69.5z" />
<glyph unicode="&#x152;" horiz-adv-x="1634" d="M18 752q0 119 28 248.5t89.5 239.5t160.5 180.5t243 70.5q100 0 188 -27q70 8 161 11.5t187 3.5t189.5 -2t169.5 -2q20 0 37.5 -26t29.5 -59.5t19.5 -67.5t7.5 -50t-11.5 -28.5t-27.5 -12.5q-27 0 -39 20.5t-32.5 46t-59.5 46t-115 20.5q-16 0 -66.5 1t-103.5 -1t-95 -9 t-42 -22q-6 -16 -9 -58t-5 -91t-2 -95.5v-66.5q0 -31 12 -43t43 -12l250 -2q18 0 57 -1t80 0t74.5 7t44.5 20q12 20 21 41t26 37l14 2q27 0 39 -24.5t16.5 -56.5t4.5 -64.5v-51.5q0 -14 -1.5 -37.5t-6.5 -45t-17 -38t-33 -16.5q-6 0 -12 2l-12 4q-16 18 -25.5 42t-30.5 44 q-14 14 -75.5 21.5t-135 10.5t-143.5 4t-96 1q-37 0 -57.5 -8t-29.5 -24.5t-10.5 -41t-1.5 -57.5q0 -121 6.5 -238.5t6.5 -238.5q0 -29 -5 -56.5t-5 -56.5l2 -26q16 -2 28.5 -2h28.5q35 0 96.5 -1t126 0t121.5 7t82 20q12 6 30.5 24.5l38 38t37 35t27.5 15.5 q16 0 32.5 -12.5t16.5 -30.5q0 -12 -15.5 -48t-37 -74t-43 -66.5t-31.5 -28.5q-102 8 -167.5 10t-107.5 1t-67.5 -3t-46.5 -2h-307q-16 0 -35.5 2t-36.5 10q-66 -14 -139 -14q-158 0 -260.5 67.5t-162.5 176t-85 241.5t-25 267zM174 666q0 -94 20.5 -191.5t68.5 -177.5 t124 -131t186 -51q117 0 201 80q-2 250 2 498.5t4 498.5q0 29 -2 59.5t-6 59.5l-8 -4q-43 33 -95.5 48t-105.5 15q-86 0 -148.5 -35t-105.5 -92t-69.5 -131t-41 -152.5t-19.5 -155.5t-5 -138z" />
<glyph unicode="&#x153;" horiz-adv-x="1196" d="M16 580q0 74 18.5 146.5t58.5 130.5t100.5 95t144.5 37q90 0 159.5 -41t110.5 -119q37 68 96.5 108t137.5 40t130 -15.5t87 -48t56.5 -85t37.5 -123.5l2 -15q0 -23 -30.5 -44t-78 -44.5t-103.5 -46.5t-108.5 -47.5t-93.5 -49t-55 -50.5l-2 -17q0 -49 16.5 -97t46 -86 t71.5 -62.5t95 -24.5q57 0 90 27.5t54.5 61.5t39 62.5t44.5 28.5q23 0 30 -14.5t7 -32.5q0 -49 -29 -95t-74 -82t-97 -56.5t-99 -20.5q-39 0 -80 13.5t-78 36t-67.5 52t-51.5 62.5q-35 -76 -97.5 -120t-148.5 -44q-115 0 -182.5 57.5t-102 144.5t-45 188.5t-10.5 189.5z M152 557q0 -53 4 -129t23.5 -144.5t61.5 -116.5t117 -48q45 0 77 31.5t52.5 77.5t30.5 95.5t10 84.5v176q0 51 -8 102t-30.5 93t-61.5 68.5t-100 26.5q-49 0 -83 -35.5t-54.5 -87t-29.5 -104.5t-9 -90zM678 594l2 -31q4 0 11 -3t11 -3q12 0 57.5 20.5t96.5 47t92 52t43 36.5 v20q0 70 -47 102.5t-108 32.5q-37 0 -66 -31.5t-49.5 -75.5t-31.5 -91t-11 -76z" />
<glyph unicode="&#x178;" horiz-adv-x="1253" d="M20 1452q0 25 23 35t53.5 13t62.5 2t48 -1t49 -1t64.5 -7t56 -19.5t24.5 -39.5q0 -27 -20 -33q-8 -6 -25.5 -15.5t-17.5 -19.5q0 -6 18.5 -36t47 -70.5t63.5 -88t65.5 -91.5t55 -77.5t35.5 -46.5l22 -10q8 0 30.5 24.5t50.5 60.5t58.5 78t56 78t43 61.5t19.5 27.5 q4 6 14.5 17.5t21.5 22.5t19.5 21.5t8.5 16.5q0 18 -12.5 25t-27 13.5t-26.5 16.5t-12 33q8 25 23.5 37t34 15t40 2t43.5 -1q16 0 51 -1t69 -7t59.5 -20.5t25.5 -41.5q0 -16 -10.5 -27.5t-25.5 -17.5t-32.5 -10t-29.5 -8q-16 -14 -55.5 -58t-86.5 -103.5t-98 -126t-93 -127 t-68.5 -106.5t-26.5 -63q0 -72 4 -140.5t4 -139.5q0 -66 -7.5 -128.5t-7.5 -127.5q0 -23 1.5 -44.5t5.5 -41.5q4 -25 21.5 -33t35.5 -14.5t33.5 -15.5t15.5 -34q0 -20 -25.5 -30.5t-59.5 -15.5t-66.5 -6t-49.5 -1q-14 0 -41.5 1t-55.5 7t-49.5 18.5t-21.5 33.5q0 33 18.5 40 t41 14t41 29.5t18.5 88.5v86v115.5t-1 128t-4 121.5t-9 97t-14 54q-12 16 -43 62t-71 104.5t-85 122t-85 117.5t-68.5 91t-37.5 41q-14 6 -35.5 10.5t-42 11.5t-35 18.5t-14.5 33.5zM422 1679q0 39 16.5 68t59.5 29q45 0 59 -33t14 -70q0 -35 -16 -64.5t-57 -29.5 q-45 0 -60.5 30.5t-15.5 69.5zM680 1679q0 39 15.5 68t60.5 29q43 0 58 -33t15 -70q0 -35 -17 -64.5t-56 -29.5q-47 0 -61.5 30.5t-14.5 69.5z" />
<glyph unicode="&#x2c6;" horiz-adv-x="587" d="M31 1225q0 16 37.5 53t88 75t97.5 66.5t65 28.5q12 0 54.5 -27.5t87.5 -63.5t79.5 -71t34.5 -49q0 -23 -17 -39t-40 -16q-12 0 -40.5 18.5t-60.5 41t-61.5 45t-42.5 30.5q-12 -10 -44.5 -33.5t-68.5 -49.5t-68 -45.5t-42 -19.5q-25 0 -42 15.5t-17 40.5z" />
<glyph unicode="&#x2dc;" horiz-adv-x="587" d="M-25 1229q0 6 2.5 14t2.5 14q20 25 42.5 51.5t49 48t57.5 35t66 13.5q41 0 74.5 -17.5t64.5 -37t57.5 -37t52.5 -17.5h5q18 12 29 32t21.5 38t25 32.5t38.5 14.5q23 0 40.5 -17.5t17.5 -39.5q0 -29 -16.5 -60.5t-42 -58.5t-56.5 -44t-60 -17q-37 0 -69.5 16t-63 35.5 t-60.5 36t-60 16.5q-31 0 -50.5 -17.5t-36 -37t-32.5 -37t-43 -17.5q-23 0 -39.5 16.5t-16.5 41.5z" />
<glyph unicode="&#x2000;" horiz-adv-x="943" />
<glyph unicode="&#x2001;" horiz-adv-x="1886" />
<glyph unicode="&#x2002;" horiz-adv-x="943" />
<glyph unicode="&#x2003;" horiz-adv-x="1886" />
<glyph unicode="&#x2004;" horiz-adv-x="628" />
<glyph unicode="&#x2005;" horiz-adv-x="471" />
<glyph unicode="&#x2006;" horiz-adv-x="314" />
<glyph unicode="&#x2007;" horiz-adv-x="314" />
<glyph unicode="&#x2008;" horiz-adv-x="235" />
<glyph unicode="&#x2009;" horiz-adv-x="377" />
<glyph unicode="&#x200a;" horiz-adv-x="104" />
<glyph unicode="&#x2010;" horiz-adv-x="718" d="M96 582q0 23 15.5 39t38.5 20q45 8 96 10t105.5 0t106.5 -4t99 -2q25 0 43 -17.5t18 -41.5q0 -27 -18 -42.5t-43 -19.5q-98 -8 -202.5 -5t-204.5 3q-20 0 -37 20.5t-17 39.5z" />
<glyph unicode="&#x2011;" horiz-adv-x="718" d="M96 582q0 23 15.5 39t38.5 20q45 8 96 10t105.5 0t106.5 -4t99 -2q25 0 43 -17.5t18 -41.5q0 -27 -18 -42.5t-43 -19.5q-98 -8 -202.5 -5t-204.5 3q-20 0 -37 20.5t-17 39.5z" />
<glyph unicode="&#x2012;" horiz-adv-x="718" d="M96 582q0 23 15.5 39t38.5 20q45 8 96 10t105.5 0t106.5 -4t99 -2q25 0 43 -17.5t18 -41.5q0 -27 -18 -42.5t-43 -19.5q-98 -8 -202.5 -5t-204.5 3q-20 0 -37 20.5t-17 39.5z" />
<glyph unicode="&#x2013;" horiz-adv-x="870" d="M96 582q0 23 15.5 39t38.5 20q33 8 108.5 9t162.5 -1t169 -4t125 -2q25 0 43 -17.5t18 -41.5q0 -27 -18.5 -42.5t-42.5 -17.5q-133 -16 -281.5 -9t-283.5 7q-20 0 -37 20.5t-17 39.5z" />
<glyph unicode="&#x2014;" horiz-adv-x="1304" d="M96 582q0 25 16.5 39t37.5 20q4 2 69.5 3t162.5 1h213h220.5h184h106.5q25 0 43 -17.5t18 -41.5q0 -29 -18.5 -43.5t-42.5 -18.5q-59 -10 -133 -5t-133 5q-174 0 -345 -1t-345 -1q-20 0 -37 20.5t-17 39.5z" />
<glyph unicode="&#x2018;" horiz-adv-x="436" d="M98 1165q0 41 12.5 89.5t37 90t61.5 70.5t86 29q18 0 30.5 -12.5t12.5 -28.5q0 -27 -18.5 -43.5t-42 -33.5t-42 -41.5t-18.5 -67.5q0 -14 4 -31q37 -2 57.5 -26.5t20.5 -59.5t-25.5 -57.5t-60.5 -22.5q-61 0 -88 45t-27 100z" />
<glyph unicode="&#x2019;" horiz-adv-x="436" d="M96 1059q0 27 18.5 43t42 33.5t42 42t18.5 67.5q0 10 -4 31q-35 2 -56.5 26.5t-21.5 59.5t25.5 57.5t60.5 22.5q63 0 89 -45t26 -101q0 -41 -12.5 -90t-37 -91t-61.5 -69.5t-86 -27.5q-16 0 -29.5 11t-13.5 30z" />
<glyph unicode="&#x201a;" horiz-adv-x="436" d="M96 -225q0 27 18.5 43t42 33.5t42 42t18.5 67.5q0 10 -4 31q-35 2 -56.5 26.5t-21.5 59.5t25.5 57.5t60.5 22.5q63 0 89 -45t26 -101q0 -41 -12.5 -90t-37 -91t-61.5 -69.5t-86 -27.5q-16 0 -29.5 11t-13.5 30z" />
<glyph unicode="&#x201c;" horiz-adv-x="684" d="M98 1190q0 41 12.5 90t37 91t61.5 69.5t86 27.5q18 0 30.5 -11t12.5 -30q0 -27 -18.5 -43t-42 -33.5t-42 -42t-18.5 -67.5q0 -10 4 -31q37 -2 57.5 -26.5t20.5 -59.5t-25.5 -57.5t-60.5 -22.5q-61 0 -88 45.5t-27 100.5zM348 1190q0 41 12.5 90t37 91t61.5 69.5t86 27.5 q16 0 29.5 -11t13.5 -30q0 -27 -18.5 -43t-42 -33.5t-42 -42t-18.5 -67.5q0 -10 4 -31q37 -2 57.5 -26.5t20.5 -59.5t-25.5 -57.5t-60.5 -22.5q-63 0 -89 45.5t-26 100.5z" />
<glyph unicode="&#x201d;" horiz-adv-x="684" d="M96 1083q0 27 18.5 43.5t42 34t42 42t18.5 67.5q0 12 -4 33q-35 0 -56.5 24.5t-21.5 58.5q0 35 25.5 57.5t60.5 22.5q63 0 89 -45t26 -100q0 -41 -12.5 -89t-37 -90t-61.5 -71t-86 -29q-16 0 -29.5 12.5t-13.5 28.5zM346 1083q0 27 18.5 43.5t42 34t42 42t18.5 67.5 q0 12 -4 33q-37 0 -57.5 24.5t-20.5 58.5q0 35 25.5 57.5t60.5 22.5q63 0 89 -45t26 -100q0 -41 -12.5 -89t-37 -90t-61.5 -71t-86 -29q-16 0 -29.5 12.5t-13.5 28.5z" />
<glyph unicode="&#x201e;" horiz-adv-x="684" d="M96 -225q0 27 18.5 43t42 33.5t42 42t18.5 67.5q0 10 -4 31q-35 2 -56.5 26.5t-21.5 59.5t25.5 57.5t60.5 22.5q63 0 89 -45t26 -101q0 -41 -12.5 -90t-37 -91t-61.5 -69.5t-86 -27.5q-16 0 -29.5 11t-13.5 30zM346 -225q0 27 18.5 43t42 33.5t42 42t18.5 67.5 q0 10 -4 31q-37 2 -57.5 26.5t-20.5 59.5t25.5 57.5t60.5 22.5q63 0 89 -45t26 -101q0 -41 -12.5 -90t-37 -91t-61.5 -69.5t-86 -27.5q-16 0 -29.5 11t-13.5 30z" />
<glyph unicode="&#x2022;" horiz-adv-x="544" d="M47 602q0 45 17.5 85t47 69.5t69.5 47t85 17.5t85 -17.5t70 -47t47 -69.5t17 -85t-17 -85t-47 -70.5t-70 -48t-85 -17.5t-85 17.5t-69.5 48t-47 70.5t-17.5 85z" />
<glyph unicode="&#x2026;" horiz-adv-x="962" d="M96 78q0 29 22.5 54.5t53.5 25.5q35 0 60.5 -26t25.5 -62q0 -29 -25.5 -53.5t-54.5 -24.5q-35 0 -58.5 25.5t-23.5 60.5zM401 78q0 29 21.5 54.5t52.5 25.5q37 0 62.5 -26t25.5 -62q0 -29 -25.5 -53.5t-54.5 -24.5q-37 0 -59.5 25.5t-22.5 60.5zM705 78q0 29 21 54.5 t52 25.5q37 0 62.5 -26t25.5 -62q0 -29 -25.5 -53.5t-54.5 -24.5q-37 0 -59 25.5t-22 60.5z" />
<glyph unicode="&#x202f;" horiz-adv-x="377" />
<glyph unicode="&#x2039;" horiz-adv-x="532" d="M96 367q0 8 18.5 37.5t46 68.5t61.5 81t65.5 78t56.5 59.5t35 23.5q23 0 40 -18.5t17 -41.5q0 -12 -28.5 -53t-64.5 -89t-69.5 -91t-46.5 -60q8 -10 26.5 -33.5t41 -54t48.5 -64.5t46.5 -63.5t33.5 -53t13 -32.5q0 -23 -17.5 -40t-39.5 -17q-12 0 -37 23.5t-56.5 59.5 t-65.5 80t-61.5 84t-45 72t-17.5 44z" />
<glyph unicode="&#x203a;" horiz-adv-x="532" d="M96 61q0 8 13.5 32t34 53.5t46 63.5t48 64.5t41 54t26.5 33.5q-12 16 -46 59.5t-69.5 91.5t-64.5 89t-29 53q0 23 17.5 41.5t40.5 18.5q10 0 34.5 -23.5t56 -59.5t65.5 -78t61.5 -81t46 -68.5t18.5 -37.5q0 -12 -17.5 -44t-45 -72t-61 -84t-65.5 -80t-57.5 -59.5 t-35.5 -23.5q-23 0 -40.5 17.5t-17.5 39.5z" />
<glyph unicode="&#x205f;" horiz-adv-x="471" />
<glyph unicode="&#x20ac;" horiz-adv-x="1159" d="M43 682q0 41 31.5 53.5t64.5 7.5q-2 18 -1 37t1 37v33q-33 -4 -64.5 8t-31.5 53q0 23 11.5 36.5t27.5 18.5t36.5 6t37.5 -1q20 106 67 201.5t120 166t167 111.5t209 41q31 0 59.5 -8t57 -17.5t57.5 -17.5t57 -8q23 0 39.5 15t38.5 15q16 0 35.5 -38.5t37 -88t29 -95.5 t11.5 -58q0 -20 -15.5 -31.5t-33.5 -11.5q-31 0 -53.5 35t-57.5 78t-95.5 77.5t-164.5 34.5q-25 0 -61.5 -10t-75.5 -25.5t-73 -34t-52 -34.5q-25 -23 -46.5 -60t-39 -79t-29.5 -83.5t-20 -74.5q133 2 266 3t266 1q25 0 43.5 -17.5t18.5 -44.5t-18.5 -41t-43.5 -18 q-61 -8 -131 -9t-142.5 0t-144 3t-135.5 2q-4 -27 -3 -53.5t1 -53.5q98 2 196.5 3.5t196.5 1.5q25 0 44.5 -18.5t19.5 -43.5q0 -27 -19.5 -41t-44.5 -18q-92 -12 -192.5 -7t-194.5 3q8 -94 29.5 -184.5t67 -161t118 -113.5t185.5 -43q98 0 162.5 39t106.5 85t67.5 86 t46.5 40q39 -6 38 -45q0 -72 -45 -133.5t-111.5 -106.5t-143 -70.5t-140.5 -25.5q-133 0 -231.5 55t-165 144.5t-102 203t-44.5 230.5q-33 -4 -67.5 7t-34.5 52z" />
<glyph unicode="&#x2122;" horiz-adv-x="1626" d="M0 1264q0 20 6 36.5t12 32.5v-2q18 33 22.5 55.5t12.5 37t31 20.5t78 6h399q31 0 51.5 -18.5t33.5 -46t19.5 -58.5t6.5 -53q0 -61 -62 -62q-8 0 -18 3.5t-19 7.5q-23 20 -33 36.5t-22 27.5t-31.5 16.5t-56.5 5.5q-6 0 -14 -4v-17q0 -154 -4 -313.5t8 -312.5l14 -11h-2 q25 -4 40 -15t15 -40q0 -8 -7 -19.5t-16 -21.5t-19.5 -17.5t-18.5 -7.5q-25 0 -64.5 -3t-76.5 0t-64.5 18.5t-27.5 50.5q0 31 10 42t23.5 16t23.5 8.5t10 19.5l-4 623v-5q-59 0 -86 -14t-40 -31.5t-25.5 -32t-41.5 -14.5q-20 0 -41.5 17.5t-21.5 38.5zM616 598q0 31 16.5 43 t43.5 25h-2l12 4q2 10 13.5 60t25.5 121t29.5 149.5t30 146t22.5 114t8 50.5h-8q-25 10 -37 25t-12 44q0 37 26.5 50.5t57.5 13.5h114q29 0 54.5 -17.5t25.5 -50.5q0 -20 -9 -32.5t-26 -22.5q23 -43 47.5 -86t49.5 -84q23 41 44 83t42 83q-20 12 -31.5 23.5t-11.5 37.5 q0 47 27.5 56.5t64.5 9.5q20 0 53 1t63.5 -4t52 -18.5t21.5 -44.5q0 -29 -11 -42t-34 -23h-2q0 -61 13.5 -125t30 -128.5t32.5 -128t27 -124.5q0 -6 3 -30.5t8 -50.5t12 -46.5t16 -20.5q33 0 50 -20.5t17 -50.5q0 -25 -19.5 -44.5t-43.5 -19.5q-27 0 -65 -2t-73.5 4 t-61.5 22.5t-26 53.5q6 20 15.5 30.5t29.5 18.5h-2l11 2q-2 59 -12.5 123t-25 128.5t-30.5 128t-29 122.5l-50 -90t-48 -92v2q-8 -23 -22.5 -39t-42.5 -16q-18 0 -44 29.5t-51.5 69.5t-47 79t-29.5 57q-4 -14 -11.5 -55t-17.5 -94.5t-21.5 -111.5t-19.5 -109.5t-14.5 -87 t-6.5 -44.5q29 -10 46.5 -19t17.5 -46q0 -29 -22.5 -43.5t-47.5 -14.5q-20 0 -55 -1t-67.5 4.5t-57.5 19.5t-25 45zM1186 1327v2v2v-4z" />
<glyph unicode="&#x25fc;" horiz-adv-x="972" d="M0 0v973h973v-973h-973z" />
</font>
</defs>
</svg>
