<?xml version="1.0" standalone="no"?>
<!DOCTYPE svg PUBLIC "-//W3C//DTD SVG 1.1//EN" "http://www.w3.org/Graphics/SVG/1.1/DTD/svg11.dtd" >
<svg xmlns="http://www.w3.org/2000/svg">
<metadata></metadata>
<defs>
<font id="cat_childsregular" horiz-adv-x="1024" >
<font-face units-per-em="2048" ascent="1638" descent="-410" />
<missing-glyph horiz-adv-x="634" />
<glyph horiz-adv-x="0" />
<glyph horiz-adv-x="682" />
<glyph unicode=" "  horiz-adv-x="634" />
<glyph unicode="&#x09;" horiz-adv-x="634" />
<glyph unicode="&#xa0;" horiz-adv-x="634" />
<glyph unicode="!" horiz-adv-x="606" d="M172 1335q0 84 34 130t95 46q63 0 96 -45t33 -133q0 -35 -40 -279.5t-44 -465.5l-4 -193h-82l-4 193q-4 221 -44 466.5t-40 280.5zM174 96q0 51 38 89t89 38t88 -36.5t37 -90.5q0 -53 -36 -90t-89 -37q-51 0 -89 38t-38 89z" />
<glyph unicode="&#x22;" horiz-adv-x="686" d="M86 1360q0 47 23.5 74.5t66.5 27.5t66.5 -27.5t23.5 -78.5q0 -16 -1 -23.5t-1 -13.5l-69 -459h-35l-70 459q-2 16 -3 25.5t-1 15.5zM420 1356q0 51 22.5 78.5t65.5 27.5t66.5 -27.5t23.5 -74.5v-24.5t-2 -16.5l-70 -459h-34l-70 459q0 6 -1 14t-1 23z" />
<glyph unicode="#" horiz-adv-x="1574" d="M88 449l51 139h312l98 276h-336l51 140h334l162 454h155l-161 -454h276l162 454h156l-162 -454h301l-49 -140h-301l-97 -276h320l-49 -139h-320l-162 -453h-155l162 453h-279l-162 -453h-153l159 453h-313zM604 588h283l96 276h-281z" />
<glyph unicode="$" horiz-adv-x="1118" d="M86 307q0 80 41 129t109 49q51 0 86.5 -35.5t35.5 -89.5q0 -66 -56 -108.5t-56 -54.5q0 -43 77.5 -86t184.5 -43v589q-199 45 -292 142.5t-93 261.5q0 158 104.5 258t280.5 113v122h100v-120q164 -12 266.5 -93t102.5 -196q0 -68 -36 -107t-99 -39q-55 0 -88 34t-33 87 q0 55 45 87t45 44q0 31 -60.5 64t-142.5 35v-510q229 -59 327.5 -157.5t98.5 -266.5q0 -180 -114.5 -298t-311.5 -138v-263h-100v263h-14q-172 0 -290 96t-118 231zM254 1112q0 -92 63.5 -152.5t190.5 -87.5v478q-117 -8 -185.5 -73t-68.5 -165zM608 72q127 14 201 90 t74 192q0 113 -56.5 169.5t-218.5 101.5v-553z" />
<glyph unicode="%" horiz-adv-x="1685" d="M82 899q0 84 36 171t105 169q76 88 155 134t152 46q76 0 128.5 -23.5t84.5 -72.5q27 -23 66 -35t86 -12q90 0 183 47t143 121h90l-842 -1479h-100l745 1321q-55 -33 -111.5 -49t-109.5 -16q-39 0 -67.5 4t-49.5 12q4 -14 6 -31.5t2 -38.5q0 -90 -36.5 -189t-102.5 -181 q-66 -84 -142.5 -127t-160.5 -43q-119 0 -189.5 74.5t-70.5 197.5zM233 823q0 -59 39 -95t103 -36q63 0 123.5 39t113.5 115q57 82 88 169t31 165q0 16 -4 39t-12 43q-43 10 -77 33.5t-56 56.5q-47 -2 -93.5 -40t-105.5 -128q-72 -111 -111 -204t-39 -157zM889 236 q0 84 36 171t105 168q74 88 153.5 134.5t153.5 46.5q123 0 189.5 -64.5t66.5 -183.5q0 -90 -36.5 -188.5t-106.5 -186.5q-66 -84 -141.5 -126t-161.5 -42q-117 0 -187.5 75t-70.5 196zM1040 164q0 -59 40 -96t106 -37q61 0 120.5 39t112.5 116q57 80 87 164t30 162 q0 82 -41 133t-102 51q-49 0 -95.5 -37.5t-107.5 -134.5q-72 -111 -111 -206t-39 -154z" />
<glyph unicode="&#x26;" horiz-adv-x="1656" d="M102 375q0 152 87 265.5t272 201.5q-47 84 -70.5 168t-23.5 166q0 150 98 245t254 95q145 0 234 -79t89 -208q0 -121 -81.5 -208t-276.5 -169q12 -23 39 -66q188 -326 299 -450q70 88 109.5 171t39.5 138q0 51 -47 78t-135 27h-26v88h563v-88q-80 0 -126 -21.5t-81 -75.5 q-4 -6 -77 -145t-161 -246q66 -70 121 -101.5t107 -31.5q66 0 110.5 55t71.5 168l84 -20q-39 -190 -122 -276.5t-224 -86.5q-80 0 -155 37t-138 109q-96 -78 -193.5 -117t-201.5 -39q-190 0 -314.5 119t-124.5 297zM315 516q0 -162 102.5 -288t231.5 -126q63 0 117.5 21.5 t101.5 62.5q-100 113 -189 251t-181 327q-88 -43 -135.5 -106.5t-47.5 -141.5zM551 1239q0 -61 23.5 -138t72.5 -173q113 51 172.5 124.5t59.5 159.5q0 106 -41 156.5t-127 50.5q-76 0 -118 -47t-42 -133z" />
<glyph unicode="'" horiz-adv-x="352" d="M86 1356q0 51 23.5 78.5t66.5 27.5q41 0 65.5 -27.5t24.5 -74.5q0 -6 -1 -14.5t-3 -26.5l-67 -459h-35l-70 459q0 2 -2 8q-2 20 -2 29z" />
<glyph unicode="(" horiz-adv-x="729" d="M150 641q0 283 123.5 504t363.5 371v-56q-174 -127 -252 -315.5t-78 -487.5q0 -326 78 -523t252 -327v-53q-231 127 -359 359.5t-128 527.5z" />
<glyph unicode=")" horiz-adv-x="729" d="M98 -193q174 129 252 327t78 523q0 299 -78 487.5t-252 315.5v56q240 -150 364 -371t124 -504q0 -295 -128.5 -527.5t-359.5 -359.5v53z" />
<glyph unicode="*" d="M145 938q0 33 21.5 56.5t62.5 35.5q14 4 52 8q123 16 206 66q-72 45 -165 59.5t-95 14.5q-39 12 -60.5 35.5t-21.5 56.5q0 35 24 57.5t58 22.5q27 0 52.5 -15.5t52.5 -48.5q4 -6 16 -22q66 -91 152 -140v17q0 72 -35 163t-35 115q0 43 22.5 70t59.5 27q35 0 58.5 -26 t23.5 -65q0 -27 -35 -120t-35 -168v-13q78 39 150 138q14 18 22 28q25 29 50.5 43.5t56.5 14.5q33 0 54.5 -22.5t21.5 -57.5q0 -33 -21.5 -56.5t-62.5 -35.5q-14 -4 -52 -9q-123 -14 -206 -63q70 -43 163 -57.5t99 -16.5q35 -12 57.5 -38.5t22.5 -55.5q0 -33 -24 -55.5 t-58 -22.5q-27 0 -52.5 16.5t-52.5 47.5q-6 6 -14 20q-66 90 -154 139v-16q0 -72 35 -162t35 -115q0 -43 -22.5 -69.5t-59.5 -26.5q-35 0 -58.5 24.5t-23.5 63.5q0 29 35 121t35 168v12q-78 -39 -150 -137q-14 -20 -22 -29q-25 -29 -50.5 -42t-56.5 -13q-33 0 -54.5 21.5 t-21.5 56.5z" />
<glyph unicode="+" horiz-adv-x="1705" d="M254 541v139h528v541h142v-541h528v-139h-528v-541h-142v541h-528z" />
<glyph unicode="," horiz-adv-x="266" d="M33 80q0 45 32.5 82t79.5 37q6 0 13.5 -3t11.5 -3q31 -20 47 -54.5t16 -68.5q0 -45 -8 -97.5t-28.5 -100.5t-52 -87t-76.5 -59q-8 -4 -13 -5q-10 0 -13 7.5t-3 17.5q0 12 11 22.5t23.5 23.5t24 34.5t11.5 56.5q0 27 -12.5 50.5t-26 47t-25.5 47t-12 52.5z" />
<glyph unicode="-" horiz-adv-x="673" d="M90 399v174h492v-174h-492z" />
<glyph unicode="." horiz-adv-x="333" d="M41 137q0 49 42 82t87 33q53 0 88 -38t35 -91q0 -18 -9.5 -40t-23.5 -40t-33.5 -30.5t-40.5 -12.5q-27 0 -53.5 11.5t-46.5 29.5t-32.5 43t-12.5 53z" />
<glyph unicode="/" horiz-adv-x="569" d="M-20 -190l516 1706h92l-514 -1706h-94z" />
<glyph unicode="0" horiz-adv-x="1083" d="M41 692q0 106 34 225t99.5 219.5t162.5 167t224 66.5q92 0 163 -33.5t125 -91t91 -132.5t59.5 -155.5t32.5 -163.5t10 -155q0 -98 -34.5 -215t-99 -216t-157 -166t-204.5 -67q-129 0 -224.5 72t-158 179.5t-93 232.5t-30.5 233zM178 874q0 -61 14.5 -140t43 -160.5 t69.5 -159.5t94.5 -139.5t118 -98.5t139.5 -37q76 0 125 29t78 75t40 106.5t11 123.5q0 59 -14 138t-42 162t-67.5 164t-93 143.5t-118 101.5t-140.5 39t-125 -31t-78.5 -80t-42 -111t-12.5 -125z" />
<glyph unicode="1" horiz-adv-x="575" d="M41 1176q0 8 11 12t25.5 6t29 2h20.5q76 6 130 47t105 88h29q8 -6 9 -29.5t-1 -51t-5 -53.5t-3 -38v-130t1 -201.5t3 -234.5t7.5 -228.5t14.5 -184.5t21 -100q12 -23 43 -38t54 -30v-22q-33 -4 -65 0t-64 4l-263 -4q-10 -4 -21 -7t-24 -3q-23 0 -30 18q23 23 45 34 t40.5 24.5t30 37t11.5 68.5q0 113 -6.5 224.5t-6.5 225.5q0 84 -3 165t-3 165q0 45 -4 77t-17.5 55.5t-38 41t-65.5 33.5q-4 6 -7 11t-3 16z" />
<glyph unicode="2" horiz-adv-x="1093" d="M41 932q0 92 42 168t109.5 131t151.5 85t170 30q82 0 164 -21.5t146.5 -66t104.5 -114t40 -165.5q0 -90 -53.5 -166t-130 -140.5t-160.5 -119.5t-148 -102q-41 -33 -75.5 -63t-66.5 -61.5t-63.5 -66.5t-64.5 -74q-4 -10 3 -14t15 -4q29 0 64 8t73.5 19.5t77.5 19.5t76 8 q74 0 146.5 -15t148.5 -15t128 21.5t97 84.5l17 6v-20q0 -74 -29 -134.5t-77 -102.5t-110.5 -65.5t-131.5 -23.5q-53 0 -102.5 17.5t-98.5 37t-96.5 37t-94.5 17.5q-43 0 -95 -3.5t-87 -29.5q-12 -10 -26.5 -27.5t-30.5 -17.5h-11l-2 10q0 18 8.5 40.5t19.5 46.5t22.5 46.5 t19.5 38.5q33 68 89 128t119.5 118.5t129.5 115t119 117t86 127t33 144.5q0 70 -27 129t-73 101t-105.5 65.5t-126.5 23.5q-29 0 -64 -14.5t-64.5 -38t-49 -53t-19.5 -62.5q0 -45 26.5 -69.5t57.5 -45t57.5 -48t26.5 -79.5q0 -53 -39 -88.5t-88 -35.5q-45 0 -79 20.5 t-55.5 53t-32.5 72.5t-11 79z" />
<glyph unicode="3" horiz-adv-x="1097" d="M41 336q0 41 12.5 83t35 76.5t57 57t81.5 22.5q49 0 92 -31.5t43 -84.5q0 -55 -27.5 -83t-61 -48.5t-61.5 -42t-28 -62.5q0 -39 27 -70.5t65.5 -54t81.5 -35t76 -12.5q74 0 142.5 22.5t121 65.5t83 106.5t30.5 145.5q0 41 -12.5 94.5t-37 101.5t-61 84t-86.5 42 q-14 8 -30.5 11t-32.5 3t-33.5 2t-32.5 8q-4 4 -8 10.5t-4 10.5q0 8 17.5 15t41 13.5t45 11.5t29.5 7q70 29 92.5 88t22.5 127q0 55 -27.5 100t-70.5 79t-96.5 52.5t-102.5 18.5q-37 0 -76 -11.5t-70.5 -34t-53 -55t-21.5 -75.5q0 -37 15 -56.5t36.5 -32t48.5 -19.5 t48.5 -17.5t36.5 -27.5t15 -50q0 -45 -26.5 -77t-73.5 -32q-39 0 -73.5 18.5t-60.5 48.5t-41 67.5t-15 74.5q0 92 40 164t104.5 121t145 74.5t164.5 25.5q70 0 140.5 -19.5t127 -58t91.5 -98t35 -141.5q0 -59 -19.5 -99t-50.5 -69t-71 -52.5t-79 -50.5q4 -10 29 -19 t60.5 -25.5t74.5 -40t73 -60.5t56.5 -90t22.5 -125t-23.5 -133.5t-64.5 -112.5t-97.5 -89t-121.5 -58q-29 -10 -73 -27.5t-71 -17.5h-157q-59 0 -130 30.5t-132.5 80t-103.5 110.5t-42 125z" />
<glyph unicode="4" horiz-adv-x="1071" d="M41 317q8 33 51 104t103.5 159t129 183t127 176t96.5 138.5t38 69.5q0 23 -20.5 33t-35.5 20l15 14q33 0 76 9.5t86 26t79.5 36.5t59.5 43l39 6q0 -25 -4 -48t-4 -48l8 -784q6 -12 18 -16.5t25.5 -4.5t28 2t24.5 2q47 0 47 -47q0 -37 1 -57.5t-6 -31.5t-26.5 -13 t-58.5 -2q-16 0 -35.5 -6.5t-19.5 -28.5q0 -37 2 -73t12 -65.5t33.5 -51t66.5 -29.5l7 -31q-111 0 -217.5 -3t-217.5 -3l-16 14q4 14 17.5 20.5t25.5 10.5q29 8 46 27.5t26.5 45t12.5 54.5t3 53l-2 37q-18 23 -39 31q-53 0 -108.5 -4t-108.5 -4q-90 0 -182 1t-183 7z M193 455l20 -25q14 -2 26.5 -2h26.5l385 2q10 4 20.5 12.5t10.5 18.5q0 49 2 114.5t4 136t2 140.5t-5 124t-15.5 88t-30.5 34q-6 0 -30.5 -33t-52.5 -75t-52.5 -80t-34.5 -48q-25 -55 -59.5 -105t-73.5 -99.5t-76 -99.5t-67 -103z" />
<glyph unicode="5" horiz-adv-x="1040" d="M41 373q0 61 35 111.5t104 50.5q41 0 77 -32t36 -75q0 -47 -14.5 -73.5t-31 -45t-30.5 -36t-14 -48.5q0 -37 23.5 -67.5t57 -51t73.5 -32t73 -11.5q80 0 144.5 37t108.5 95.5t68.5 131t24.5 146.5q0 70 -22.5 134.5t-63.5 113.5t-101.5 78.5t-135.5 29.5 q-80 0 -135.5 -23.5t-92.5 -51t-58.5 -51t-33.5 -23.5l-24 12q-6 12 -7 19q0 10 3.5 20t3.5 21q49 121 74.5 263t47.5 271q2 6 2 23.5t3.5 34t8.5 29.5t15 13q14 0 16 -8q59 -37 141.5 -49t153.5 -12q63 0 122 9t118 28q23 8 41 24.5t41 20.5q2 -4 4 -10.5t2 -10.5 q0 -6 -2 -12l-4 -12q-31 -98 -97.5 -153.5t-150.5 -81t-177 -27.5t-177 6h-10q-10 0 -22.5 -34t-22 -78t-15.5 -84t-6 -52q27 0 64.5 15.5t83 34t97.5 33.5t109 15q66 0 140.5 -29.5t139 -80t107.5 -116t43 -136.5v-135q0 -104 -52 -187.5t-132 -142t-176 -89t-186 -30.5 q-61 0 -128 19.5t-123.5 54.5t-99.5 86t-59 117q4 23 1 46t-3 48z" />
<glyph unicode="6" horiz-adv-x="1054" d="M41 662q0 123 39 250.5t108.5 242.5t165 207t209.5 143q33 14 66.5 29.5t68.5 15.5q-12 -14 -33.5 -28.5t-45 -28.5t-47 -28.5t-40.5 -28.5q-61 -51 -102 -99.5t-69.5 -100.5t-48 -113.5t-36.5 -137.5q-4 -18 -13 -34.5t-9 -37.5q0 -14 4 -36.5t23 -22.5l12 4 q8 6 36.5 23.5t65.5 39t78 45t77 43t60.5 33t30.5 13.5q84 0 152.5 -47t118 -118t76 -154t26.5 -154q0 -102 -41 -192.5t-107.5 -164t-151.5 -131t-173 -90.5q-129 2 -223.5 64.5t-156 158t-91 211t-29.5 224.5zM240 707q0 -111 28.5 -213.5t89.5 -194.5q37 -23 65 -48.5 t57.5 -46t65.5 -33.5t89 -13q59 0 106 28.5t80 72.5t50.5 99.5t17.5 108.5q0 82 -24.5 154.5t-72 128t-114 87t-152.5 31.5q-37 0 -86 -8t-93 -27.5t-75.5 -50t-31.5 -75.5z" />
<glyph unicode="7" horiz-adv-x="1085" d="M41 1018q0 76 30.5 144.5t82 120.5t120 82t146.5 30q76 0 142.5 -18.5t122.5 -41t104.5 -41t84.5 -18.5q33 0 53.5 12t35 28.5t29 34t34.5 27.5q4 -8 11 -14t7 -16q0 -78 -32.5 -155t-81.5 -156t-106.5 -160.5t-106.5 -170t-82 -182.5t-33 -196q0 -78 15.5 -152 t15.5 -147q0 -35 -5 -75t-20.5 -74t-43 -56.5t-75.5 -22.5q-43 0 -72.5 26t-47 64.5t-24.5 81.5t-7 78q0 147 43 278.5t106.5 246t138 211t138 172t106.5 130t43 85.5q-31 0 -63.5 -10.5t-66 -22t-67.5 -21.5t-71 -10t-73.5 8t-73.5 18.5t-74 18.5t-74 8q-39 0 -79 -14 t-71.5 -39t-51 -60.5t-19.5 -78.5q0 -27 7 -54.5t22.5 -51t38 -38t53.5 -14.5q20 -10 41 -10q29 0 50 17.5t21 47.5q0 25 -7 48.5t-7 46.5q0 31 25.5 47t52.5 16q20 0 35.5 -11t27 -27.5t17.5 -36t6 -36.5q0 -39 -21.5 -71.5t-53 -56t-70.5 -37t-74 -13.5q-59 0 -106.5 22.5 t-79 61.5t-49 90.5t-17.5 106.5z" />
<glyph unicode="8" horiz-adv-x="1085" d="M41 393q0 37 6 74q39 76 64.5 111.5t51 56t60.5 41t94 67.5q0 12 -30.5 38t-67.5 65t-67.5 91t-30.5 116q0 74 38 134t97 105t130.5 69.5t139.5 24.5q63 0 138 -18t137.5 -56t104.5 -94.5t42 -130.5q0 -49 -19.5 -86.5t-52 -65.5t-72.5 -49.5t-79 -35.5q0 -23 13.5 -31 t31.5 -14q125 -41 199.5 -133t74.5 -228q0 -123 -41.5 -210t-113.5 -141t-170 -79.5t-209 -25.5q-82 0 -148.5 28.5t-140.5 57.5q-80 66 -130 137.5t-50 181.5zM199 481q0 -86 53 -151.5t130 -109.5t165 -66.5t160 -22.5q43 0 89 14.5t85 40t63.5 63.5t24.5 87 q0 76 -62.5 132t-148.5 98t-175 73t-143 53q-10 4 -21 7t-22 3q-31 0 -66.5 -23.5t-64 -57t-48 -71.5t-19.5 -69zM276 1135q0 -55 24 -96.5t62.5 -69t86 -46t94.5 -28.5q20 -4 37.5 -15.5t40.5 -11.5q35 0 63.5 27t48 64.5t30.5 77.5t11 67q0 53 -22.5 95t-59.5 71.5t-84 45 t-96 15.5q-43 0 -85 -13t-76 -38t-54.5 -61.5t-20.5 -83.5z" />
<glyph unicode="9" horiz-adv-x="1071" d="M41 776q0 98 40 203.5t108.5 191.5t162 142.5t199.5 56.5q115 0 204 -56.5t150.5 -143.5t93 -194.5t31.5 -207.5q0 -291 -109.5 -501t-349.5 -365q-20 -14 -53 -30.5t-68.5 -30t-69.5 -22.5t-58 -9v30q94 35 165.5 81t127 106.5t96.5 137.5t71 171q10 33 28.5 82t18.5 82 q0 10 -2 17t-6 15q-53 -12 -101 -45.5t-95 -69.5t-96.5 -63.5t-104.5 -27.5q-78 0 -147.5 44t-122 111.5t-83 146.5t-30.5 148zM160 897q0 -76 31.5 -144.5t84 -119.5t121 -82t142.5 -31q29 0 79 10.5t98 29t84 44t36 58.5q0 90 -26 188t-76 181t-128 137.5t-182 54.5 q-61 0 -110.5 -31t-83 -78t-52 -104.5t-18.5 -112.5z" />
<glyph unicode=":" horiz-adv-x="333" d="M41 137q0 49 42 82t87 33q53 0 88 -38t35 -91q0 -18 -9.5 -40t-23.5 -40t-33.5 -30.5t-40.5 -12.5q-27 0 -53.5 11.5t-46.5 29.5t-32.5 43t-12.5 53zM41 899q0 49 42 82t87 33q53 0 88 -38t35 -91q0 -18 -9.5 -40t-23.5 -40.5t-33.5 -30.5t-40.5 -12q-27 0 -53.5 11 t-46.5 29.5t-32.5 43t-12.5 53.5z" />
<glyph unicode=";" horiz-adv-x="331" d="M41 100q0 55 41 101.5t98 46.5q8 0 17.5 -3t15.5 -5q37 -25 57.5 -67t20.5 -85q0 -57 -10.5 -121.5t-35 -125t-64.5 -109.5t-97 -74q-6 -6 -16 -6q-12 0 -16.5 10t-4.5 21q0 14 13.5 27.5t31 30.5t30.5 44t13 70q0 35 -14.5 63.5t-32.5 57t-32.5 58t-14.5 66.5zM41 899 q0 49 42 82t87 33q53 0 88 -38t35 -91q0 -18 -9.5 -40t-23.5 -40.5t-33.5 -30.5t-40.5 -12q-27 0 -53.5 11t-46.5 29.5t-32.5 43t-12.5 53.5z" />
<glyph unicode="&#x3c;" horiz-adv-x="1705" d="M264 547v129l1178 483v-153l-969 -396l969 -393v-154z" />
<glyph unicode="=" horiz-adv-x="497" d="M41 360q8 12 17.5 33t19.5 41.5t21.5 35.5t25.5 17q27 6 60.5 8.5t68.5 1.5t69.5 -2t63.5 -1q18 0 36.5 -2.5t18.5 -24.5q0 -47 -18 -72.5t-48 -37t-66 -13.5t-70 -2q-12 0 -43 -1t-65 1t-61.5 5t-29.5 13zM41 541q14 37 39 59q4 16 8 37.5t23 32.5l301 6q23 0 45 -6 q-2 -10 -10.5 -35t-19.5 -49.5t-23.5 -43t-22.5 -18.5h-301q-10 0 -21.5 2t-17.5 15z" />
<glyph unicode="&#x3e;" horiz-adv-x="1705" d="M264 63v154l971 393l-971 396v153l1178 -483v-129z" />
<glyph unicode="?" horiz-adv-x="901" d="M43 1204q0 131 113.5 222.5t283.5 91.5q172 0 280.5 -97.5t108.5 -249.5q0 -188 -256 -415l-4 -4q-84 -74 -107.5 -127.5t-23.5 -137.5v-79h-82v141q0 137 119 289l2 2l8 12q135 176 136 317q0 129 -58.5 193.5t-177.5 64.5q-74 0 -129 -33.5t-55 -74.5q0 -10 46 -54 t46 -100q0 -53 -34 -85.5t-87 -32.5q-59 0 -94 43t-35 114zM268 100q0 53 37 90t88 37t89 -36.5t38 -90.5q0 -53 -37 -90t-90 -37q-51 0 -88 37t-37 90z" />
<glyph unicode="@" horiz-adv-x="2019" d="M141 537q0 203 86 381t252 313q133 111 294 167t343 56q346 0 555 -188.5t209 -499.5q0 -160 -58.5 -298t-166.5 -237q-59 -53 -126 -80.5t-134 -27.5q-96 0 -148.5 53.5t-60.5 155.5q-61 -104 -137 -155.5t-170 -51.5q-129 0 -206 92t-77 246q0 109 49 216t141 195 q68 63 146 98.5t155 35.5q90 0 145.5 -48.5t76.5 -142.5l51 174h158l-172 -612q0 -2 -5 -12q-14 -55 -14 -86q0 -51 23.5 -79t66.5 -28q33 0 80 19.5t90 52.5q119 90 179.5 228t60.5 319q0 133 -52.5 245.5t-156.5 200.5q-90 78 -214 119t-267 41q-180 0 -336 -61.5 t-275 -180.5q-127 -125 -190.5 -287.5t-63.5 -357.5q0 -182 56.5 -313t179.5 -234q109 -92 254 -141t307 -49q170 0 326.5 51t300.5 156l33 -41q-147 -111 -312.5 -166.5t-345.5 -55.5q-188 0 -345 45.5t-275 135.5q-152 113 -231 276.5t-79 360.5zM760 369q0 -86 40 -138.5 t101 -52.5q66 0 123 43t111 133q55 92 88.5 204t33.5 198q0 92 -41.5 148.5t-111.5 56.5q-53 0 -98 -31t-91 -99q-72 -106 -113.5 -233t-41.5 -229z" />
<glyph unicode="A" horiz-adv-x="1421" d="M41 33q0 6 1 7l5 5q33 33 64.5 66.5t42.5 76.5q27 109 78 250.5t101 293t87 303t37 278.5q0 29 -27 28q-53 0 -94 -23.5t-86 -43.5h-8q-2 0 -2 10q0 4 -2 10q0 12 4 25q31 43 64.5 82t71.5 69.5t84 49t105 18.5q80 0 162 -14.5t148 -67.5q29 -25 54 -90.5t49 -158.5 t46.5 -204.5t47 -227.5t52 -229.5t59.5 -208.5t68.5 -167t81.5 -102q14 -10 29.5 -21.5t15.5 -32.5q-29 -8 -67.5 -10t-80.5 -2t-82 1t-71 1q-47 0 -98 1t-98 9v23q37 23 69.5 51.5t32.5 75.5q0 23 -8 73t-21.5 113.5t-30 133t-32.5 132t-30.5 111.5t-24.5 72 q-10 25 -31 27.5t-43 2.5h-258q-23 0 -41.5 -3t-34.5 -21q-10 -10 -18.5 -45t-15.5 -82t-13 -100.5t-11 -103.5t-7.5 -90t-2.5 -58q0 -84 22 -149.5t71 -131.5v-10q0 -16 -38 -22.5t-87 -8.5q-33 -1 -64 -1h-32q-46 1 -60 1h-56.5t-56.5 2q-12 -4 -16 6.5t-4 20.5zM455 936 q0 -10 8 -18.5t12 -12.5q10 -4 19.5 -4h19.5q27 0 78 -3q31 -2 60 -2q20 0 40 1q49 2 86 11.5t37 33.5q0 33 -17.5 100.5t-50 135t-76.5 118t-100 50.5q-6 0 -17 -27t-24.5 -68t-27 -91t-23.5 -95t-17 -81t-7 -48z" />
<glyph unicode="B" horiz-adv-x="1277" d="M41 1393q0 14 35 29.5t87 30.5t116.5 28.5t123 25t105.5 17.5t65 6q72 0 160 -17.5t165 -56.5t129 -101.5t52 -150.5q0 -45 -16 -88t-45 -80t-66 -65.5t-75 -44.5q-25 -10 -53.5 -15.5t-51.5 -21.5v-15q29 -18 60.5 -24t60.5 -23q68 -37 130 -87t110.5 -111.5t76 -134 t27.5 -154.5q0 -158 -84 -296t-214 -242.5t-286.5 -165t-304.5 -60.5l-26 31q2 2 25.5 8t52 12t54 11.5t31.5 5.5q27 4 56.5 19t56.5 26q94 33 167 90t123 132t75.5 165t25.5 186q0 125 -40 231.5t-113.5 184.5t-178 122t-233.5 44l-29 -39q-2 -12 -3 -25.5t-1 -27.5v-78 t1 -114.5t3 -133.5t6.5 -131.5t9.5 -106.5t13 -61q16 -35 33.5 -49.5t35 -21.5t33 -13t27.5 -23q-12 -12 -34.5 -17t-48.5 -7t-50.5 -1t-42.5 1l-275 2q-12 0 -18 10t-6 21q20 12 42.5 21t33.5 32q18 14 25 52t11 81q2 30 2 60v25q-2 42 -2 67q0 74 -3 178t-6 214.5t-6 215 t-3 178.5v58.5t-4 40t-14.5 38t-30.5 49.5q-14 20 -41 25.5t-41 28.5zM375 1211.5q0 -50.5 2 -102.5t7 -96t15.5 -73t24.5 -29q61 0 133 9.5t131.5 37t99 76.5t39.5 129q0 51 -30.5 103.5t-78.5 94.5t-103.5 67.5t-104.5 25.5h-92q-16 0 -24.5 -11t-11.5 -27.5t-4 -33 t-1 -26.5q0 -16 -1 -55t-1 -89.5z" />
<glyph unicode="C" horiz-adv-x="1112" d="M41 831q0 117 34 243t101.5 230.5t168.5 172t237 67.5q47 0 90 -11t88 -11q29 0 51.5 13t46.5 24q18 -16 22.5 -38t8.5 -44q4 -20 21.5 -56.5t36 -73t33.5 -65.5t15 -31l-10 -22q-29 6 -47 27.5t-41 37.5q-8 14 -56 42t-107.5 55.5t-117 48t-81.5 20.5q-80 0 -137.5 -44 t-94.5 -109.5t-54.5 -142.5t-17.5 -142q0 -90 18.5 -190.5t54.5 -200t90.5 -188.5t126 -157.5t161.5 -109.5t197 -41q25 0 48 6t45.5 14.5t43 14.5t37.5 6l8 -2l10 -22q-12 -41 -58 -76t-102.5 -59.5t-115 -38t-97.5 -13.5q-168 0 -291.5 81t-204.5 207t-121 279.5 t-40 298.5z" />
<glyph unicode="D" horiz-adv-x="1347" d="M41 1253q0 33 25.5 66t66.5 62.5t92 55t101.5 44t94.5 29t73 10.5q190 0 340.5 -58.5t255 -166t161 -261t56.5 -344.5q0 -135 -39 -250.5t-113 -205t-178.5 -148.5t-235.5 -82q-35 -6 -84 -8t-101 -2t-103.5 1t-90.5 1q-29 0 -63.5 2t-62.5 6q-29 -4 -56.5 -2t-56.5 2v31 q49 23 72.5 42t34 43.5t13.5 58.5t9 83q-4 12 -4 41t1 61.5t3 63.5t2 47q0 104 -9 208.5t-9 209.5q0 63 -21.5 98t-49.5 54.5t-51.5 32t-27.5 34.5q33 25 62.5 29t68.5 15t90 41t125 103q18 -16 24 -84q5 -58 4 -128v-26q-1 -85 -4 -169t-3 -133q0 -129 5 -257t5 -257 q18 -41 32.5 -76t36 -61.5t55.5 -41t89 -14.5q115 0 196.5 43t135 115t78 165t24.5 195q0 137 -43 280.5t-125 260.5t-201.5 190.5t-275.5 73.5q-31 0 -69 -5t-77.5 -12t-77.5 -18.5t-65 -23.5q-10 -4 -26.5 -17.5t-34 -28t-32.5 -25.5t-20 -11q-6 0 -14 5t-8 13z" />
<glyph unicode="E" horiz-adv-x="1316" d="M41 1448v25q27 8 65 8q47 0 92.5 -7.5t92.5 -7.5h85h119.5h134t130 2t110 4.5t68.5 6.5q18 4 44 21.5t38 17.5q16 0 25.5 -13.5t13.5 -25.5q25 -72 47 -140.5t51 -140.5l2 -8q0 -12 -10 -24.5t-23 -12.5q-14 0 -23 10.5t-22 14.5q-31 39 -92 80.5t-133 75.5t-141.5 55.5 t-114.5 21.5q-31 0 -69.5 -3t-73.5 -15.5t-59.5 -37t-23.5 -65.5v-377q0 -14 17 -21t40.5 -9t47 -2h35.5q76 0 147.5 13t142 33.5t140.5 47t137 51.5q4 -10 7.5 -41t4.5 -67.5t1 -69.5v-47l2 -92l-15 -29q-90 33 -172 56.5t-163.5 39t-167.5 21.5t-183 6l-14 -2 q-6 -12 -7.5 -58.5t-2 -101.5t-0.5 -111.5v-91.5q0 -55 5 -108.5t5 -110.5q0 -41 19.5 -69.5t49 -46t65.5 -25.5t71 -8q27 0 73 7t94 18t91 26.5t63 32.5q63 23 117.5 54.5t110.5 63.5q8 6 23.5 20.5t32.5 30t31.5 26.5t24.5 11t19.5 -9t9.5 -19q0 -2 -21.5 -41t-48 -87 t-50 -93t-30.5 -58q-4 -10 -7 -28.5t-7 -37t-12 -31.5t-25 -13q-10 0 -16 8t-15 14q-16 12 -42.5 18.5t-56.5 10.5t-59.5 5t-47.5 1q-197 0 -390.5 1t-390.5 1q-4 4 -4 10q0 8 11.5 16.5t25.5 17.5t28.5 21.5t20.5 30.5q10 29 17.5 56.5t7.5 56.5v453q0 51 -5 133t-9.5 168 t-4.5 162.5t9 117.5q-5 39 -5 65v9q1 29 -5.5 49.5t-29 37.5t-73.5 42z" />
<glyph unicode="F" horiz-adv-x="1026" d="M41 1442q0 25 24.5 33t58.5 7t68.5 -6.5t53.5 -5.5q55 0 116.5 -1t125 -1t125 4.5t116.5 14.5q14 2 33.5 11t39 18.5t36 16.5t22.5 7l19 -10q10 -4 14 -30.5t8 -37.5l84 -278q0 -31 -31 -31q-37 43 -85 89t-103 85t-115.5 63.5t-120.5 24.5q-72 0 -103.5 -51t-41.5 -123 q-8 -55 -8 -113q0 -18 1 -36q3 -76 3 -127q0 -43 16.5 -55.5t57.5 -12.5q66 0 144.5 16.5t150 37t126 37t70.5 16.5q2 -6 5 -16.5t3 -14.5v-230q0 -10 -7 -19t-15 -15q-51 35 -114.5 58.5t-132.5 37.5t-136.5 20t-126.5 6q-31 0 -38 -18t-7 -45v-223q0 -43 -2 -109 q-1 -27 -1 -54q0 -40 2 -82q3 -69 14 -130t38 -92q18 -23 41 -29t47 -18l8 -21q-2 -2 -31.5 -2t-75.5 -1t-99.5 -1t-101.5 -1t-84 -1h-46q-14 0 -29 6v21q49 16 74 50t36 76t11 88v89v254v115.5v151.5t-3 165t-9 157.5t-16.5 130t-24.5 78.5q-14 23 -41 30t-43 26z" />
<glyph unicode="G" horiz-adv-x="1417" d="M41 748q0 147 50 286.5t140.5 249t218.5 175t285 65.5q35 0 69 -7.5t67.5 -14.5t67.5 -14t69 -7q31 0 55 7t42.5 16t31 17.5t16.5 8.5h8l45 -127q6 -18 23.5 -50t36 -65t33 -59.5t14.5 -36.5l-2 -8h-6q-31 0 -90.5 42t-140.5 91t-180 91t-210 42q-92 0 -168 -51 t-131 -130t-85 -172t-30 -175v-183q0 -66 23.5 -142.5t64.5 -154t96.5 -148.5t120 -126t135 -88t140.5 -33q100 0 148.5 10.5t63.5 40.5q12 26 12 71v19q-3 60 -3 158q0 45 3 93q1 12 1 23q0 35 -7 65q-9 40 -35.5 65.5t-84.5 25.5q-41 0 -82 -11t-83 -23.5t-83 -23.5 t-84 -11q-23 0 -52 7t-55 21.5t-44.5 35t-18.5 46.5q0 47 31 63.5t72 16.5q35 0 68.5 -11t65.5 -23.5t61.5 -23.5t56.5 -11q51 0 111.5 12t121 30.5t117.5 41t104.5 41t79 31t41.5 12.5q0 -16 -9 -36t-21.5 -41.5t-24.5 -43t-18 -39.5q-12 -35 -16.5 -77t-6.5 -87 q-1 -30 -1 -60v-29q1 -44 1 -81q0 -53 11.5 -107.5t23.5 -101.5t23.5 -79.5t11.5 -39.5q-35 0 -69 10.5t-69 10.5q-55 0 -106 -13.5t-102.5 -28.5t-104.5 -27.5t-108 -12.5q-170 0 -308.5 62.5t-237 171t-151.5 252t-53 307.5z" />
<glyph unicode="H" horiz-adv-x="1384" d="M8 20q0 4 9.5 9.5t20.5 10.5t21.5 9t14.5 8q31 23 48 56.5t28 70.5q14 59 26 148.5t22.5 192t19.5 214t14.5 216t8.5 196.5t3 158t-36 94.5t-89 46.5v25q18 0 37 6q40 -5 91 -5h17l124 2h61h58q56 -1 93 -14l8 -6q-25 -14 -59.5 -38.5t-46.5 -51.5q-12 -25 -22.5 -81 t-19.5 -120.5t-14.5 -124t-5.5 -90.5l2 -43q8 -14 37 -16t43 -2q98 0 202 8q38 3 76 3q65 0 126 -9q16 -2 30.5 3t14.5 28q0 45 -3 98t-9.5 106.5t-14.5 105.5t-18 97q-10 43 -46 73t-77 46v25h416q14 -6 29.5 -6.5t31.5 -4.5l-31 -28q-31 -10 -60.5 -44t-29.5 -69v-197 q0 -88 14.5 -177t14.5 -179q0 -47 8 -95t8 -97q0 -23 3 -66t8.5 -96.5t13.5 -109.5t19.5 -105t24.5 -85t30 -46q10 -16 29.5 -22.5t35.5 -14.5v-29q-20 -4 -37 -4l-385 2q-16 0 -37 10v21q39 12 61.5 32.5t34 48t14.5 61.5t3 71q0 59 -7 115.5t-7 115.5q0 61 -10.5 136 t-10.5 147l-2 37q-6 12 -31.5 16t-56.5 6t-58.5 1t-39.5 -1l-342 -2q-31 0 -33 -21.5t-2 -43.5q0 -68 -7 -136.5t-16.5 -136t-16.5 -135.5t-7 -137q0 -20 1 -46t8 -50.5t20.5 -43t37.5 -24.5q12 -10 26.5 -16.5t18.5 -22.5q-16 -4 -30 -4q-109 0 -214.5 2t-213.5 2 q-4 2 -12.5 7t-8.5 9z" />
<glyph unicode="I" horiz-adv-x="563" d="M41 1454q10 16 35 16h219t219 -10q-10 -23 -26.5 -32l-33 -18t-31.5 -24.5t-24 -46.5q-12 -47 -17 -123t-7 -168q-1 -61 -1 -126v-65q1 -99 3 -189t4 -164t2 -117q0 -27 1 -71t5 -91t10.5 -89t18.5 -62q14 -29 47 -37t57 -23l-16 -16q-59 0 -119.5 4t-120.5 4 q-47 0 -92 -5t-90 -5q-16 0 -37 10q6 14 17.5 22.5t24.5 15.5t26.5 15.5t21.5 22.5q18 35 26.5 81t11.5 94t3 95v88v187q0 154 -5 304t-5 304q0 51 -6 81t-21.5 51.5t-39 39.5t-60.5 47z" />
<glyph unicode="J" horiz-adv-x="1060" d="M41 305q0 37 13.5 72t37 62.5t55 44t68.5 16.5q35 0 57.5 -9.5t37 -25.5t23.5 -40t15 -54q-6 -39 -24.5 -67t-40 -50.5t-38 -40.5t-16.5 -37q0 -35 20.5 -64.5t51.5 -50t66.5 -32t66.5 -11.5q63 0 111.5 10.5t82.5 37t51 71.5t17 113v383q0 170 -8 338t-8 334 q0 47 -9 69.5t-24.5 34.5t-38 20.5t-49.5 26.5v21q20 14 47 14q25 0 48.5 -7t50.5 -7q66 2 134 7t136 5q10 0 22.5 -4t22.5 -8v-15q-61 -47 -81.5 -83t-24.5 -73q-1 -15 -1 -33q0 -22 3 -46q1 -10 1 -21q0 -36 -12 -82q3 -20 3 -39.5t-3 -38.5q-6 -40 -6 -81 q0 -184 5 -365.5t5 -363.5q0 -72 -41 -124.5t-102 -86t-132 -50t-130 -16.5q-82 0 -165 17.5t-148.5 58.5t-107.5 106.5t-42 163.5z" />
<glyph unicode="K" horiz-adv-x="1236" d="M41 1454q0 8 10 12t24.5 7.5t27 4.5t18.5 1h79.5t130 -1t124 -5.5t61.5 -10.5q-12 -10 -28.5 -18t-33 -17.5t-30.5 -19.5t-21 -27q-18 -43 -25 -118.5t-8 -159.5v-56q0 -55 1 -109q2 -81 2 -132q12 -23 39 -23q18 0 41.5 8.5t49 19.5t49 23.5t40.5 18.5q61 27 116.5 60.5 t98.5 77.5t68.5 101.5t25.5 131.5q0 35 -6 65.5t-6 65.5q0 76 36.5 131t114.5 55q72 0 99.5 -40t27.5 -103q0 -82 -27.5 -156t-74.5 -138.5t-107.5 -117.5t-123.5 -94q-23 -16 -46.5 -27.5t-46.5 -27.5v-37q23 -23 53.5 -38.5t53.5 -37.5q41 -43 78 -97.5t65 -105.5 q37 -63 64.5 -140t51 -159t48.5 -164t59.5 -151.5t81.5 -123.5t117 -83q-6 -18 -29 -18q-111 0 -194.5 46t-148 121.5t-111.5 173t-84 199t-67.5 198.5t-60.5 173t-63.5 122t-76.5 46q-10 0 -43 -8.5t-68 -20.5t-63.5 -24.5t-30.5 -20.5q6 -49 6 -107v-29q-2 -75 -3 -154 v-26q0 -66 4 -130q5 -76 30 -142q12 -35 45.5 -46t60.5 -29q-12 -11 -66 -13q-38 -2 -81 -1h-35q-62 1 -120 3t-83 2q-16 0 -32.5 -6t-35.5 -6q-8 0 -20 4v25q18 12 40.5 17t41.5 20q23 18 34 52t15 72.5t4 76.5v65v332q0 147 -4 292.5t-4 292.5q0 47 -6 76t-20.5 48.5 t-39 33.5t-61.5 37z" />
<glyph unicode="L" horiz-adv-x="1120" d="M41 1460v10q8 2 31 3h397l37 -3v-24q-23 -10 -47.5 -19.5t-40.5 -31.5q-14 -57 -29.5 -102.5t-15.5 -110.5v-141.5t1 -210t2 -239.5t4 -228.5t8 -177t13 -87.5q14 -29 45 -38t60 -9q59 0 121.5 23.5t120 63.5t108.5 93.5t89 112.5t60.5 121.5t22.5 122.5q0 57 -20.5 107 t-56.5 87t-85 58.5t-104 21.5q-94 0 -160.5 -58.5t-66.5 -156.5q0 -39 23.5 -75.5t68.5 -36.5q18 0 35.5 7t34 16t34 17.5t35.5 8.5q35 0 57.5 -22.5t22.5 -57.5q0 -25 -14.5 -43.5t-35 -32.5t-45 -21.5t-44.5 -7.5q-49 0 -91.5 20.5t-74 54.5t-49 78t-17.5 93 q0 51 21.5 98.5t58.5 84t84 58t98 21.5q86 0 146.5 -26.5t100.5 -72.5t62.5 -109.5t32.5 -139.5q-10 -39 -10 -77t-10 -74q-10 -33 -34 -104t-51.5 -146.5t-55 -142t-41.5 -91.5h-11q-16 0 -23 15.5t-18 23.5q-41 27 -85 32t-89 5q-141 0 -284.5 2t-284.5 2l-35 2v25 q20 10 50 24.5t40 34.5q14 27 21.5 84t9.5 121.5t2 126v96.5q0 182 3 370v59q0 157 -13 310q-4 39 -15.5 83t-46.5 69q-12 10 -34.5 19.5t-22.5 31.5z" />
<glyph unicode="M" horiz-adv-x="1570" d="M41 -123q0 66 10 153t27.5 187t39 205.5t43 208t42 193.5t37.5 163q14 63 34.5 146.5t20.5 148.5q0 31 -14.5 54.5t-35 43t-45 36t-44.5 30.5q-8 0 -9 10q0 18 20.5 21.5t33.5 3.5q37 1 71 -7q22 -5 47 -5q13 0 25 1q63 4 132 5.5t130 1.5q12 0 24.5 -3.5t22.5 -11.5 q0 -16 -16 -21t-35.5 -15.5t-36 -34t-16.5 -74.5q0 -23 11 -81t29.5 -135t41 -163t44 -163t40 -135t28.5 -81q16 0 24.5 12.5t12.5 24.5q8 29 23.5 84t34 121.5t39 139.5t37 135.5t26.5 108.5t10 60q0 53 -19.5 89t-43 59.5t-43 38t-19.5 22.5v8q2 2 29 4t68 3t90 3.5 t93 3.5t76.5 1h43.5q23 0 42 -1t42 -6q0 -16 -12.5 -24t-30 -17.5t-36 -23.5t-28.5 -41q-10 -25 -9 -48.5t1 -47.5q0 -80 14.5 -169t33 -179.5t37.5 -181.5t30 -173q8 -72 30.5 -147.5t22.5 -147.5q0 -16 9 -45.5t22.5 -61.5t30 -58.5t28.5 -36.5q18 -14 36.5 -22.5 t39.5 -22.5l2 -9q0 -10 -16.5 -12t-37 -2t-41 2t-26.5 2q-63 0 -127.5 -2t-130.5 -2q-16 0 -33.5 -3t-34.5 -3q-8 0 -16 2l-16 4q0 20 16 32.5t36.5 27t37 40t16.5 74.5q0 37 -7 109.5t-19.5 160.5t-29 184.5t-32.5 183.5t-32.5 155.5t-30.5 101.5h-21q-31 -59 -59.5 -143 t-53 -175.5t-46 -179.5t-40.5 -157q-4 -12 -11 -44t-16 -71t-20.5 -81t-22.5 -77t-21.5 -57.5t-18.5 -22.5h-8q-6 4 -26.5 73t-49.5 170.5t-62.5 224t-65.5 236.5t-58.5 206t-38.5 135h-23q-8 -18 -19.5 -73.5t-25.5 -129.5t-28.5 -156.5t-26 -157.5t-18.5 -132.5t-7 -77.5 q0 -160 12.5 -320.5t65.5 -314.5q27 -80 100 -121q4 -2 13.5 -9t9.5 -11q0 -16 -18 -23q-18 -6 -42 -9q-18 -2 -36 -2h-12q-24 1 -33 1q-68 0 -113 26.5t-72.5 70.5t-40 99.5t-12.5 110.5z" />
<glyph unicode="N" horiz-adv-x="1257" d="M41 1470q0 12 28.5 17.5t66.5 6.5t74 1h48q66 0 133.5 -1t130.5 -5l10 -16q-35 -23 -53 -42.5t-18 -64.5q0 -18 34.5 -87t89 -162t120 -198.5t127 -199.5t110.5 -164t70 -90l24 6q8 16 8 37v123.5t-2 133t-7 132.5t-13 123q-6 43 -19.5 91t-26.5 96t-23.5 95.5 t-10.5 90.5q0 41 19.5 76.5t50.5 64.5q27 6 55 6q78 0 114 -50t36 -124q0 -49 -17.5 -100.5t-39 -104.5t-39 -111.5t-17.5 -119.5q0 -160 7 -322t7 -323q0 -63 12.5 -126t12.5 -126q-25 -16 -60 -17q-10 0 -23 2t-24 9q-8 4 -53 70.5t-110.5 164.5t-142.5 216t-148.5 225.5 t-129 191.5t-81.5 117q-33 43 -55.5 94t-57.5 94h-20v-43q0 -225 17 -458.5t64 -452.5q10 -51 26.5 -97.5t49.5 -85.5q4 -4 9.5 -11t5.5 -17q0 -14 -15 -17q-72 -10 -150.5 -13t-150.5 -3q-6 4 -15 13.5t-9 15.5t9 26.5t21.5 47t23.5 53t15 43.5q20 109 26.5 229.5 t6.5 231.5v186q0 25 -2 99.5t-5 157.5t-8 151.5t-12 80.5l-22.5 30t-34.5 43.5t-32.5 38.5t-14.5 21z" />
<glyph unicode="O" horiz-adv-x="1400" d="M41 774q8 143 56 283.5t136.5 250t212 177t281.5 67.5q160 0 279.5 -66.5t197.5 -174t117 -246.5t39 -283q0 -74 -15.5 -157.5t-46 -168.5t-75.5 -165t-103.5 -143.5t-130 -105.5t-155.5 -52q-27 -4 -52.5 -6t-52.5 -11q-24 -2 -46 -2q-83 0 -157 23q-94 29 -173 84 t-139 134t-101 171q-41 93 -59 193q-14 76 -14 150q0 24 1 48zM164 909q0 -63 21.5 -141t60.5 -155.5t92 -151.5t114.5 -131.5t131 -92t139.5 -34.5q109 0 204 17.5t165.5 63.5t110.5 125.5t40 206.5q0 150 -50 283t-142.5 232.5t-219 157t-280.5 57.5q-86 0 -156.5 -39 t-122 -101.5t-80 -140.5t-28.5 -156z" />
<glyph unicode="P" horiz-adv-x="1103" d="M41 1372q0 10 19.5 19.5t44 16.5t48 11t31.5 8q41 12 91.5 31t103.5 35t104 28.5t92 12.5q86 0 178.5 -17.5t168 -59.5t124 -112.5t48.5 -177.5q0 -96 -39 -159.5t-97.5 -107.5t-126 -78t-126 -69.5t-97.5 -83.5t-39 -122q0 -47 28 -74t59.5 -48.5t59 -46t27.5 -67.5 q-10 -23 -30.5 -39t-44.5 -16q-49 0 -82 22.5t-53.5 58.5t-28.5 80t-8 87q0 76 24.5 135t61 109.5t81 95.5t81 94t61 106.5t24.5 129.5q0 66 -34.5 115.5t-87 83.5t-115 50.5t-119.5 16.5q-14 0 -31.5 -2t-33 -8.5t-25.5 -17.5t-10 -30q0 -205 7 -407.5t7 -407.5v-109.5 t6 -148.5t18.5 -141.5t37.5 -89.5q18 -18 39.5 -26.5t41.5 -18.5v-23q-23 -6 -82 -8t-126.5 -2t-132 1t-95.5 1q-20 0 -20 16q0 2 10 10.5t22.5 15.5t24.5 14.5t16 11.5q10 10 18.5 30.5t14.5 44t9.5 46t3.5 38.5q0 197 -7.5 391.5t-7.5 391.5q0 33 -6 67.5t-6 69.5 q0 55 -12 104q-6 33 -24.5 51.5t-38 31t-35 19.5t-15.5 17z" />
<glyph unicode="Q" horiz-adv-x="1427" d="M41 733q0 90 19.5 186.5t56.5 187.5t92 173t127 142.5t161 96t191 35.5q162 0 286 -59t207 -162.5t125 -240t42 -289.5q0 -90 -19.5 -189.5t-58.5 -194.5t-95.5 -179t-130.5 -142q-47 -37 -113.5 -63.5t-129 -44t-109.5 -29.5t-55 -20q-29 -29 -65.5 -52.5t-71.5 -46.5 l8 -14q41 -8 127 -18.5t181 -20.5t181 -17.5t127 -7.5q78 0 142.5 40t93.5 106l24 -6l2 -19q0 -74 -47 -139t-116.5 -115.5t-149.5 -79t-145 -28.5q-51 0 -96.5 12t-89.5 29.5t-86 38t-87 37.5q-90 33 -183 53t-187 28q-16 -4 -34 -9t-34 -5q-4 4 -8 7t-4 7q0 16 4 25 q10 14 35.5 15t40.5 6q31 8 86 31.5t111.5 54t102.5 64.5t56 63q-12 10 -28.5 13t-32.5 7q-104 33 -188.5 114t-143 183t-90 217t-31.5 219zM152 954q0 -123 28.5 -232.5t86 -202.5t144.5 -165.5t203 -117.5q8 -2 24.5 -7.5t35 -10.5t36 -9t23.5 -4t12.5 2t12.5 4 q16 31 16 68q0 45 -13 84.5t-29.5 75.5t-30 67t-13.5 59q0 23 5 50.5t16.5 51t30 40t46.5 16.5q37 0 60.5 -25.5t39 -62.5t21.5 -76t6 -65q0 -43 -12 -88.5t-25.5 -85t-25.5 -69.5t-12 -42q0 -6 4 -13.5t14 -7.5q92 0 165 42t122 109t74.5 149.5t25.5 166.5q0 131 -51 256 t-139 222.5t-207 157t-254 59.5q-84 0 -164 -28t-141.5 -78t-98 -124t-36.5 -166z" />
<glyph unicode="R" horiz-adv-x="1431" d="M41 1401q4 10 54 24.5t124 28.5t161 27.5t166 25t140 17.5t84 6q80 0 158 -27.5t139 -77t99 -119t38 -153.5q0 -61 -24.5 -107.5t-62.5 -84t-84 -69.5t-89 -63q-31 -23 -67.5 -33t-67.5 -36q27 -41 57.5 -77t61 -73t59.5 -76.5t53 -89.5q47 -96 77 -205.5t63.5 -217 t81 -205t129.5 -170.5q-2 -4 -9.5 -10.5t-11.5 -6.5q-53 0 -104.5 27t-94.5 49q-84 45 -143 138.5t-104 206t-79 232t-70 218t-78 161t-99 62.5q-14 0 -50 1h-14q-29 0 -60 -3q-38 -4 -66.5 -15.5t-28.5 -33.5v-258q0 -31 1 -69t5 -77t9 -74.5t16 -66.5q10 -31 25.5 -46 t31.5 -23.5t29.5 -13.5t17.5 -13q-2 -10 -10 -17.5t-19 -7.5q-94 -2 -190 -2h-191q-14 0 -28.5 3t-28.5 7v17q16 14 33.5 24.5t36.5 20.5q27 37 39 91q12 53 16 113q3 48 3 95v23q-1 58 -1 106q0 184 -7 366.5t-7 366.5q0 37 -16.5 74t-51.5 53q-10 12 -24.5 19.5 t-26.5 17.5zM371 1346q0 -127 4 -252t4 -250v-19.5t3 -22.5t9 -19.5t17 -8.5q8 0 10 2q27 -3 55 -3q55 1 119 11q96 16 180 55.5t141.5 106t57.5 164.5q0 88 -47 151.5t-118 105.5t-155 61.5t-157 19.5q-27 0 -55.5 -9.5t-51.5 -21.5q-10 -16 -13 -35.5t-3 -35.5z" />
<glyph unicode="S" horiz-adv-x="1333" d="M41 61q59 68 99 126.5t65 144.5l24 -6q43 -68 89.5 -121t101.5 -92t121.5 -59.5t152.5 -20.5q37 0 77 13t76 36.5t64.5 55.5t40.5 67q45 45 63.5 106.5t18.5 124.5q0 113 -40 188.5t-104.5 127t-146 85t-169 59.5t-169 51.5t-146 61t-104.5 87t-40 131.5q0 37 14 64.5 t33 58.5q37 63 83 100t101 56.5t116.5 24.5t129.5 5q66 0 127 -17.5t127 -17.5q47 0 95 9.5t87 37.5l16 -24q4 -35 6.5 -77t14.5 -75q10 -29 27.5 -53.5t17.5 -58.5l-29 8q-47 33 -104 65.5t-118.5 60t-124 45t-122.5 17.5q-98 0 -161.5 -62.5t-63.5 -162.5q0 -37 6 -58.5 t16.5 -38t23.5 -34t30 -43.5q68 -43 157 -74t181 -61.5t180 -67.5t157.5 -90t111.5 -130t42 -190q0 -111 -59 -198.5t-148.5 -148t-197 -92.5t-201.5 -32q-66 0 -131.5 13.5t-129 29t-125.5 28.5t-120 13q-35 0 -66.5 -8t-66.5 -18z" />
<glyph unicode="T" horiz-adv-x="1202" d="M41 1182q0 4 16.5 30.5t35 67.5t34.5 92t16 103q0 6 4.5 18t6.5 18q4 2 10 4.5t14 2.5q23 0 44.5 -14.5t43.5 -20.5q53 -10 116.5 -13.5t117.5 -3.5h129q53 0 105 4.5t106 4.5q51 0 100 18t96 18q16 -78 46 -163.5t75 -151.5q2 -4 3 -4t1 -4q0 -10 -9 -17.5t-19 -7.5 l-7 2q-29 33 -55.5 59.5t-55 50t-58 46t-64.5 49.5q-29 10 -43 17.5t-49 7.5q-29 0 -45.5 -13.5t-24.5 -33t-10 -44t-2 -47.5q0 -248 -1 -402.5t-2 -249.5t-2 -148.5t-2 -96.5v-64.5t3.5 -81.5t9.5 -79t18 -55q8 -12 24.5 -20.5t34 -15.5t31 -13t13.5 -17l-21 -24 q-25 4 -82 7t-119.5 3t-118.5 -2t-81 -8q-14 8 -37 8q0 10 2 20.5t14 10.5q29 10 47.5 72.5t27.5 155.5q8 93 12 210q2 68 3 138q1 49 -1 99q-2 120 -6.5 237.5t-8.5 210.5q-4 92 -6 154q-1 31 -1 49t1 23q2 14 -17.5 16.5t-33.5 2.5q-16 0 -52 -16.5t-74 -39t-68.5 -44 t-35.5 -31.5l-118 -115q-10 4 -20.5 12t-10.5 19z" />
<glyph unicode="U" horiz-adv-x="1296" d="M41 1454l31 22q51 -12 107 -13l5 1q58 0 116 5.5t114 7.5h16q49 0 94 -11q0 -8 -15 -22t-35.5 -30.5t-41 -34t-29.5 -31.5q-31 -55 -52 -124t-35.5 -141.5t-20.5 -144.5t-6 -135q0 -92 20.5 -209t68.5 -221.5t128 -176t199 -71.5q123 0 211 48t144 128t81.5 183.5 t25.5 211.5q0 123 -45 224.5t-100 189.5t-100 166t-45 156q0 53 31.5 81.5t84.5 28.5q66 0 114 -64.5t79 -151.5t45 -176t14 -138q0 -43 5 -88t5 -90q0 -90 -13 -188.5t-43 -195t-76 -184.5t-111.5 -153.5t-150.5 -105.5t-193 -40q-178 0 -291 80t-177.5 204t-88 274.5 t-23.5 293.5q0 39 6 77t6 75q0 51 9.5 111.5t23.5 107.5q-4 29 0 60.5t4 62.5q0 39 -7 57.5t-20.5 29.5t-31 21.5t-37.5 32.5z" />
<glyph unicode="V" horiz-adv-x="1243" d="M41 1448q0 23 18.5 27t34.5 4q41 0 85 -7.5t87 -7.5q53 0 106.5 7.5t106.5 7.5q8 0 24.5 -3t12.5 -18q-25 -25 -41 -38t-27.5 -27.5t-15.5 -37t-4 -63.5q0 -25 20.5 -101.5t51 -182t68.5 -225t74 -227t65.5 -188.5t42.5 -110h12q18 0 26.5 19.5t12.5 33.5q20 68 50 138.5 t57.5 144.5t49 146.5t25.5 142.5q2 33 4 65.5t2 63.5q0 45 -11 86t-23.5 81t-23.5 79.5t-11 82.5q0 35 8 70t25.5 62.5t45 44t68.5 16.5t66.5 -22.5t41 -55.5t21.5 -70.5t6 -68.5q0 -74 -28.5 -177.5t-71.5 -221t-93.5 -239.5t-93.5 -229.5t-71.5 -191.5t-28.5 -127l2 -8 q14 -23 31.5 -37t36 -24.5t37 -20.5t39.5 -25l-9 -20h-512q-10 0 -19 1t-18 5v10q0 10 18.5 20.5t40 28t40 48t18.5 84.5q0 41 -20.5 125.5t-52 191t-71.5 225.5t-78 227.5t-70.5 197.5t-51.5 138q-14 39 -26.5 58.5t-28 32t-34.5 23.5t-46 36z" />
<glyph unicode="W" horiz-adv-x="1658" d="M41 1436v24q20 8 37.5 1t36.5 -7q90 0 177 6t177 6q8 0 8 -6v-8t-2 -8q-49 -25 -67.5 -55.5t-18.5 -85.5q0 -27 15.5 -104t40 -178t53 -215t57.5 -216.5t52.5 -181t35.5 -109.5h14q45 100 79 206.5t66 214t65.5 215t76.5 208.5l21 16q6 -23 31.5 -95.5t59.5 -167.5 t71.5 -200.5t70.5 -193.5t56.5 -147.5t29.5 -61.5q31 80 56.5 173t45 190.5t30.5 192.5t11 181q0 43 -13 86t-30.5 85t-31 84t-13.5 83q0 68 38 105.5t104 37.5q37 0 63.5 -16t43 -42t23.5 -57.5t7 -62.5q0 -49 -16.5 -123.5t-42 -163t-56 -184.5t-59.5 -189t-51.5 -177 t-32.5 -146q-8 -41 -26.5 -82t-18.5 -82q0 -37 18.5 -62.5t44 -46t54 -37.5t47.5 -36q-10 -4 -18.5 -8t-18.5 2q-55 5 -110 5q-50 0 -101 -4q-107 -9 -211 -9q-10 0 -12 7t-2 13t5 8t9 2q27 10 51.5 43t24.5 62q0 25 -11.5 74t-29 110.5t-39 130t-42 131t-38.5 112.5t-29 75 l-30 -6q-4 -8 -19.5 -52.5t-37 -107t-44 -133t-42 -133t-32 -106.5t-12.5 -50q0 -23 11.5 -45.5t27.5 -43t37.5 -36.5t40.5 -25l8 -22l-465 -10q-4 0 -12 4l-12 6q27 23 47 34t34.5 24.5t21.5 35t7 64.5q0 119 -31.5 256t-74.5 278t-85 278.5t-61 258.5q-4 23 -18 54.5 t-34.5 62t-45.5 56t-45 36.5z" />
<glyph unicode="X" horiz-adv-x="1378" d="M41 23q0 16 9 23t20 15q16 8 61 57.5t101.5 119t118 149.5t112.5 150.5t84 122t33 65.5q0 10 -27 55t-68 107.5t-90 134.5t-92 135.5t-76.5 111.5t-42.5 60q-25 33 -47 51.5t-59 36.5q-12 6 -24.5 14.5t-12.5 24.5q31 18 57.5 13t61.5 -5q104 0 205.5 7.5t201.5 7.5 l31 -15q-16 -16 -33.5 -27.5t-32 -23.5t-22.5 -30.5t-8 -45.5q0 -16 13 -53t32.5 -84t44 -97t49.5 -91t45.5 -67.5t30.5 -26.5l16 4q33 33 54.5 91t40 124.5t37 136t46 125t67.5 91.5t101 36q53 0 87 -29t34 -88q0 -57 -31.5 -116.5t-81 -117t-104.5 -111.5t-104.5 -99 t-81 -80t-31.5 -56q0 -6 23.5 -52t60.5 -111.5t81 -141t85 -144.5t72.5 -121t44.5 -69q29 -37 64.5 -82t78.5 -61q12 -4 36.5 -8t24.5 -25q0 -18 -16 -12q-135 0 -267 -3t-263 -5l-27 8l-4 10q0 14 16.5 22.5t34.5 18.5t34.5 25.5t16.5 44.5q0 51 -20.5 109.5t-50 119 t-62.5 117.5t-55 106q-14 12 -22.5 30t-24.5 30q-31 -25 -66 -82t-64.5 -124t-49 -132.5t-19.5 -103.5q0 -55 10.5 -83t24.5 -43.5t28.5 -25.5t22.5 -31q-16 -10 -39 -10q-20 0 -57 -1t-82 -2t-93 -1t-89 2t-72 8t-41 17z" />
<glyph unicode="Y" horiz-adv-x="1368" d="M41 1475h467l22 -15q-23 -31 -47 -49t-51 -41q-6 -35 -11 -64.5t-8 -59t-4 -61.5t-1 -71q0 -29 9 -59.5t21.5 -62t23.5 -63.5t15 -59t18.5 -33t24.5 -24q12 -20 15.5 -38.5t6.5 -37t9 -37t24 -38.5q29 -29 47.5 -69t43.5 -75q37 -49 82 -88t83 -86q10 -12 28 -27.5 t37 -31t39.5 -25.5t35.5 -10q33 0 59.5 38t48 97t35.5 131t24.5 139.5t14.5 123t4 79.5q0 86 -27.5 163t-59.5 141.5t-59.5 115.5t-27.5 84q0 27 2 58.5t12.5 57t32 43t60.5 17.5q16 0 32.5 -1t32.5 -1q31 0 55.5 -25.5t44 -66.5t32.5 -90t22.5 -97.5t13.5 -89.5t4 -63 q0 -35 -6 -67.5t-6 -67.5q0 -109 -37 -254.5t-102.5 -300t-155.5 -305t-198.5 -268t-228.5 -190.5t-247 -73q-25 0 -53.5 7t-53 21.5t-41 37t-16.5 53.5t18.5 52.5t44 35.5t55.5 21.5t54 7.5q41 0 83 -7.5t83 -7.5q39 0 98.5 19.5t116 52.5t97 75t40.5 89l-12 24 q-141 80 -265 201t-216 268.5t-144.5 312.5t-52.5 330q0 76 -38 152t-97 123z" />
<glyph unicode="Z" horiz-adv-x="1361" d="M41 20q0 8 4 11q23 29 70 95.5t108.5 156.5t132 196.5t141 216t136 215t116 192.5t80 149.5t29.5 86.5q0 47 -36 62.5t-74 15.5q-80 0 -153 -28.5t-138.5 -74.5t-121.5 -103.5t-102 -116.5l-20 -9q-4 4 -8 10.5t0 10.5q25 82 47 161t37 165q4 25 3 49t3 49q45 -23 80 -35 t68.5 -18.5t71.5 -8.5t89 -2h310.5t308.5 11q12 6 26 6q6 0 13.5 -2t13.5 -4q-18 -23 -38.5 -38.5t-37.5 -37.5q-16 -23 -59 -83.5t-100.5 -145.5t-124 -188t-134 -209.5t-131 -209t-111.5 -188.5t-78 -146.5t-30 -83.5q0 -25 13.5 -41t33 -26t43 -14.5t41.5 -4.5 q72 0 152 15.5t157.5 44.5t147.5 72t124 100t86 126.5t32 151.5q0 80 -48.5 140.5t-134.5 60.5q-23 0 -45 -8t-40.5 -23.5t-31 -35t-12.5 -43.5q0 -33 14.5 -47.5t32 -22.5t32.5 -13.5t20 -19.5q8 -4 11 -12t3 -15q0 -37 -29.5 -50t-58.5 -13q-23 0 -42.5 13.5t-33.5 33 t-22.5 42t-8.5 42.5q0 61 21.5 102t57.5 65t83 34t98 10q43 0 78 -27.5t60.5 -67.5t40 -86t14.5 -81q0 -31 -14.5 -88.5t-36 -127t-49 -142t-53 -131t-47 -96.5t-31.5 -38l-33 15q-29 14 -50.5 26.5t-42 19.5t-44 11t-56.5 4l-805 -2q-6 0 -12 7t-6 13z" />
<glyph unicode="[" horiz-adv-x="729" d="M193 -227v1706h466v-62h-317v-1583h317v-61h-466z" />
<glyph unicode="\" horiz-adv-x="569" d="M-20 1516h94l514 -1706h-92z" />
<glyph unicode="]" horiz-adv-x="729" d="M70 -166h317v1583h-317v62h467v-1706h-467v61z" />
<glyph unicode="^" horiz-adv-x="2048" d="M412 897l514 565h194l512 -565h-98l-512 420l-514 -420h-96z" />
<glyph unicode="_" d="M0 -340h1024v-143h-1024v143z" />
<glyph unicode="`" horiz-adv-x="819" d="M182 1262q0 25 18.5 43t43.5 18q20 0 41.5 -13.5t44.5 -35.5l221 -240h-59l-242 148q-39 25 -53.5 41t-14.5 39z" />
<glyph unicode="a" horiz-adv-x="978" d="M41 422q0 82 26.5 163t73.5 149.5t111.5 121.5t142.5 84q37 14 88.5 17.5t107.5 3.5t112.5 1t99.5 9l31 -31l-3 -274v-67.5v-108t2.5 -127t6.5 -123t9 -96.5t15 -48q10 -27 30.5 -43t43.5 -33l-8 -22q-18 -2 -34.5 -2h-33.5q-16 0 -46 -1t-61.5 0t-59 4t-36.5 13l3 37 q0 6 -4.5 16.5t-6.5 14.5q-6 2 -16 2q-20 0 -56 -18.5t-74 -40t-72 -39t-52 -17.5q-86 0 -150.5 43t-106.5 109.5t-62.5 147.5t-20.5 155zM225 547q0 -70 10.5 -145.5t41 -139t85 -105.5t142.5 -42q12 0 37.5 3t50.5 10q26 6 46 18q18 10 17 25l-15 279q-1 142 -1 277 q0 51 -7 83t-25.5 50.5t-50.5 24.5t-83 6q-59 0 -105 -36t-78 -88t-48.5 -111.5t-16.5 -108.5z" />
<glyph unicode="b" horiz-adv-x="1003" d="M41 1384q29 16 62.5 21t64.5 10q16 4 39.5 15.5t46 23.5t40 22.5t21.5 10.5t11 -6q8 -18 10 -44t2 -53.5t-2 -55.5t-2 -46q0 -100 2 -202.5t6 -200.5l9 -13.5t16 -7.5q16 0 50 15.5t77 35t92 34.5t98 15q70 0 122 -36.5t87 -94t52.5 -124t17.5 -123.5q0 -80 -18.5 -165 t-56.5 -161t-96.5 -135.5t-140.5 -89.5q-90 -33 -179 -33h-183h-193l-24 2q10 25 26.5 31t31.5 17t26.5 40t11.5 100q0 184 -6 365.5t-6 363.5q0 23 -1 86.5t-4.5 133t-9.5 127t-18 69.5q-16 16 -44 22.5t-38 30.5zM350 367q0 -53 3 -105.5t3 -105.5q23 -53 59 -78t95 -25 q76 0 130 43t87 106.5t48.5 138.5t15.5 136t-19.5 121.5t-55.5 109t-88.5 77t-119.5 28.5q-23 0 -49.5 -1t-51 -9t-41 -23.5t-16.5 -42.5v-370z" />
<glyph unicode="c" horiz-adv-x="858" d="M41 512q0 80 28.5 163t80 150.5t124 110.5t158.5 43q119 0 183.5 -67.5t64.5 -184.5q0 -29 -22.5 -34t-45.5 -5q-70 0 -102.5 15.5t-45.5 38t-16.5 48t-9.5 48t-24.5 38t-63.5 15.5q-47 0 -78.5 -31t-51 -75t-28 -92t-8.5 -85q0 -86 23.5 -173t72 -155.5t120 -112.5 t169.5 -44q35 0 72 10t70.5 21.5t61.5 21.5t44 10q0 -31 -41 -68.5t-96 -69.5t-110.5 -54.5t-84.5 -22.5q-115 0 -198.5 46t-138 121t-81 172.5t-26.5 201.5z" />
<glyph unicode="d" horiz-adv-x="962" d="M41 512q0 68 32.5 138.5t84 134t115 110.5t124.5 68q50 17 91 17h12q46 -3 106 -3q20 0 21.5 19.5t1.5 33.5v197q0 39 -13.5 75.5t-48.5 59.5q-10 16 -31.5 23.5t-25.5 29.5q43 16 92 17.5t96 21.5q16 6 34.5 16.5t41.5 10.5q14 0 19.5 -37t5.5 -85t-2 -93t-2 -62 q0 -193 10 -383t10 -383q0 -57 5 -110.5t5 -110.5q0 -35 7.5 -71.5t29.5 -65.5q4 -4 13.5 -10.5t19.5 -16.5q12 -10 27 -22q0 -8 -5.5 -11.5t-9.5 -7.5h-217q-14 0 -20 10.5t-11.5 21.5t-12.5 21.5t-23 10.5q-23 0 -47.5 -16.5t-50 -35t-53.5 -35t-58 -16.5q-25 0 -54.5 8.5 t-59.5 20.5t-56.5 28.5t-42.5 35.5q-49 18 -80 73.5t-48.5 124t-24.5 137t-7 111.5zM203 555q0 -80 17.5 -156.5t57 -137t104 -97.5t157.5 -37q45 0 77.5 7t32.5 61q0 100 -6 199.5t-6 199.5q0 61 -2 115.5t-21.5 94.5t-61.5 62.5t-122 22.5q-78 0 -133 -55 q-29 -12 -47.5 -48t-28.5 -78t-14 -84t-4 -69z" />
<glyph unicode="e" horiz-adv-x="796" d="M41 518q0 82 23.5 167t70.5 153.5t118 112.5t165 44q49 0 105.5 -22.5t105.5 -58t81.5 -78.5t32.5 -84q0 -6 -23.5 -26.5t-52 -44.5t-57 -46.5t-37.5 -34.5q-16 -10 -66 -45t-105.5 -75t-98.5 -74.5t-43 -43.5q18 -49 59 -96t94.5 -84t112 -59.5t111.5 -22.5 q27 0 51.5 7.5t50.5 7.5q4 0 17 -4l-18.5 -18.5t-12.5 -18.5q-45 -23 -74.5 -40.5t-58.5 -29.5t-63.5 -18t-90.5 -6q-102 0 -177 52t-124 132t-72.5 175t-23.5 179zM190 586q0 -10 2.5 -34t6.5 -47.5t13 -42t26 -18.5q29 0 78 37t96 89.5t80.5 105.5t33.5 88q0 61 -42 106 t-105 45q-61 0 -98 -33.5t-56.5 -85t-27 -108.5t-7.5 -102z" />
<glyph unicode="f" horiz-adv-x="569" d="M41 905l12 21q12 6 31.5 6t39 1t34 7t14.5 23q0 33 -17.5 63.5t-39 64t-39 74.5t-17.5 95q0 51 17.5 99t48.5 85t75 58.5t97 21.5q45 0 87 -11.5t73.5 -35t51 -60.5t19.5 -86q0 -20 -8 -45.5t-22.5 -48.5t-35 -38t-42.5 -15q-59 0 -82 45t-23 94q14 23 30.5 43t16.5 49 q0 25 -28.5 42.5t-50.5 17.5q-12 0 -33 -9q-18 -18 -33.5 -44.5t-15.5 -55.5q0 -59 22.5 -104t50 -86t50 -84t22.5 -101q0 -12 6 -28.5t19 -22.5q10 -6 36.5 -2t38.5 4t24.5 -3t10.5 -17q-14 -31 -27.5 -34t-43.5 -3q-14 0 -29.5 -3t-26.5 -18l-2 -43q0 -49 3 -102t7 -107 q2 -39 2 -76v-31q-2 -52 -10 -99q10 -47 10 -102v-19q-2 -66 -2 -123q0 -53 38 -84t83 -43l-6 -15q-88 0 -173 -5t-171 -5q-25 0 -49 10q4 16 25.5 22.5t35.5 16.5q18 29 27.5 66t12.5 76t3 77.5v71.5q0 125 -2 254t-12 254l-22 21q-18 0 -36 -5.5t-38 -5.5q-35 0 -37 37z " />
<glyph unicode="g" horiz-adv-x="937" d="M41 344v143q0 90 44 179.5t115.5 160t160 114.5t178.5 44h249q8 0 20.5 -2t16.5 -12q0 -14 -3 -26.5t-3 -29.5q0 -66 8.5 -130t8.5 -128q0 -78 -6.5 -158.5t-6.5 -158.5q0 -68 11.5 -127t25.5 -111.5t25.5 -96.5t11.5 -81q0 -94 -45 -160.5t-115.5 -109.5t-156.5 -62.5 t-168 -19.5q-37 0 -97.5 7t-119 25.5t-100.5 51.5t-42 86q0 33 31 57.5t63 24.5q41 0 67 -15.5t46.5 -38t39.5 -48t50 -48t77 -38t118 -15.5q37 14 72.5 32.5t64.5 45.5t46 60.5t17 78.5q0 14 -14 55t-34.5 85.5t-40 79t-31.5 34.5l-27 -20q-27 -19 -66.5 -41.5t-87 -42 t-90.5 -19.5q-57 0 -113.5 39t-100.5 95.5t-71.5 122t-27.5 118.5zM209 512q0 -68 19.5 -136.5t58.5 -124.5t96 -92t131 -36q12 0 34.5 3t46 9t40 16.5t16.5 26.5v189q0 111 -2 221t-2 223q0 8 1 22.5t-3 24.5q-6 12 -25.5 21.5t-43 13.5t-47 6t-35.5 2q-76 0 -129.5 -37 t-88 -94t-51 -126t-16.5 -132z" />
<glyph unicode="h" d="M41 43q2 8 20.5 10t41 11.5t41 29t18.5 62.5v1091q0 43 -11.5 65.5t-29 37t-39 25.5t-41.5 32v6q0 10 15.5 12t23.5 5q59 10 104 30.5t97 50.5q16 13 26 13q18 0 24.5 -27t7.5 -61v-22q0 -22 -1 -44q-2 -33 -2 -47q0 -97 8 -203q4 -47 4 -93q0 -57 -6 -112q-2 -12 2 -25 t23 -13q31 0 74.5 18t97 39.5t113 40t120.5 18.5q76 0 133.5 -51t57.5 -129q0 -82 -11.5 -164t-25 -164t-24.5 -163.5t-11 -163.5q0 -35 7 -53.5t19.5 -28.5t29 -19.5t36.5 -27.5q-6 -12 -27.5 -14.5t-33.5 -2.5q-59 0 -136 -1h-14q-68 0 -121 9q-4 4 -7 9.5t-3 11.5l4 8 q33 78 53.5 155t20.5 163q0 68 16.5 138t16.5 140q0 47 -5.5 87t-21.5 68.5t-50 44t-89 15.5q-16 0 -55 -5t-79 -14.5t-71 -24.5t-31 -34v-581q0 -57 22.5 -99.5t76.5 -66.5v-23h-318q-23 0 -47.5 7.5t-42.5 23.5z" />
<glyph unicode="i" horiz-adv-x="485" d="M41 895q0 12 15.5 19.5t36 12.5t41 7t30.5 6q18 6 41.5 19.5t46 26.5t42.5 24.5t30 11.5q6 -178 6 -354v-355v-76.5t8 -84.5t28.5 -74t61.5 -43l16 -23q-23 -4 -52.5 -6t-53.5 -2h-68h-78.5t-76.5 2t-64 6q12 23 36 31t40 31q12 18 19.5 60t9.5 90t2 93v70q0 16 -1 54 t-3 85t-5.5 100.5t-7.5 98.5t-10 77t-12 40q-16 18 -36 24t-40 23zM98 1255q0 49 42 82t87 33q53 0 88 -38t35 -91q0 -18 -9 -39.5t-23.5 -40t-34 -31t-39.5 -12.5q-27 0 -53.5 11.5t-47 30t-33 43t-12.5 52.5z" />
<glyph unicode="j" horiz-adv-x="385" d="M41 895q0 6 19.5 11t44 9.5t48 8.5t33.5 8q14 6 36 20.5t42.5 27.5t38 24.5t27.5 11.5v-371q0 -100 -5.5 -201.5t-5.5 -203.5q0 -49 5.5 -99.5t5.5 -97.5q0 -76 2 -131q1 -18 1 -35q0 -33 -3 -60q-4 -40 -15.5 -70t-38 -55.5t-72.5 -51t-116 -58.5q-16 -4 -25 -4 q-14 0 -14 12q31 43 51.5 58.5t33.5 31t18.5 45t5.5 99.5q0 231 -3 462.5t-14 465.5q-2 31 -17 52t-33.5 36.5t-34 28t-15.5 26.5zM125 1241q0 55 27 87t84 32q43 0 75.5 -35t32.5 -78v-26q0 -29 -20.5 -52.5t-40.5 -40.5q-10 -4 -22.5 -6t-24.5 -2q-20 0 -41 11.5t-36.5 29 t-24.5 39t-9 41.5z" />
<glyph unicode="k" horiz-adv-x="1007" d="M41 1389q0 16 18.5 25t44 14.5t51 8.5t38.5 7q29 10 56 27.5t50 39.5q4 2 5 5.5t5 3.5q20 0 28.5 -22.5t8.5 -53.5t-3 -60.5t-3 -44.5q0 -217 8 -429t8 -429q0 -10 11.5 -18t19.5 -12q55 10 113.5 24t106.5 42t79 73t31 115q0 47 -16.5 88t-16.5 88q0 16 7 35.5t18.5 36 t28 27.5t34.5 11q72 0 116 -33.5t44 -111.5q0 -98 -39 -161.5t-85 -104.5t-85 -67t-39 -48q0 -6 21.5 -61.5t55.5 -137.5t73.5 -177t76.5 -179t65 -147.5t38 -79.5q16 -29 46 -44.5t58 -31.5v-25l-31 -2q-59 0 -110 17.5t-98 46.5q-33 20 -68 73.5t-69.5 124t-67.5 151.5 t-62.5 157.5t-54.5 141t-43 105.5q-10 12 -27 13q-8 0 -25.5 -2t-35.5 -6.5t-33.5 -9.5t-19.5 -11q-16 -10 -16.5 -25.5t-0.5 -31.5q0 -50 -2 -94v-16q0 -34 6 -64q8 -36 31 -69.5t72 -60.5l2 -8q0 -6 -11.5 -10t-24.5 -6t-26.5 -2h-19.5q-66 0 -131.5 -3t-130.5 -3 q-6 0 -26.5 4t-20.5 10q0 12 13 17.5t24 9.5q16 8 28.5 25.5t20.5 39t12 44t4 40.5v361v105.5v139t-2 153.5t-7 150.5t-14.5 130t-21.5 91.5q-6 14 -21.5 26.5t-31 21.5t-26.5 16t-11 16z" />
<glyph unicode="l" horiz-adv-x="497" d="M41 1362v8q0 18 21.5 23.5t33.5 5.5q63 6 122 30.5t112 61.5q10 -18 8 -36.5t-2 -39.5v-475q0 -156 4 -312.5t4 -314.5v-84t9 -86t33 -71.5t71 -42.5v-25q-92 -4 -186.5 -4t-186.5 -2l-25 14q29 31 50.5 43.5t37 26.5t23.5 42t8 93q0 31 -1 122t-4 210t-7 250t-10 242.5 t-13.5 188.5t-15.5 87q-16 16 -40 25.5t-46 19.5z" />
<glyph unicode="m" horiz-adv-x="1574" d="M41 879q0 10 6 19t19 3q100 12 182 70q12 10 26.5 28.5t32.5 18.5q16 0 20.5 -17.5t3.5 -40t-5 -44t-4 -31.5t4 -24.5t18 -14.5q37 0 85 19.5t99.5 42t103.5 42t99 19.5q82 0 133 -68q16 -8 21.5 -23.5t17.5 -27.5l17 -2q10 0 20 5t23 5q27 12 66.5 29.5t83.5 34t85 29 t68 12.5q49 0 92 -12.5t76.5 -38t53 -64.5t19.5 -92q0 -66 -9 -131.5t-20.5 -130t-20.5 -130t-9 -131.5q0 -29 1 -58.5t5 -57.5q2 -29 15.5 -48.5t27.5 -31.5t25.5 -20.5t11.5 -14.5q0 -8 -6 -12l-37 -2q-59 0 -128 2t-128 8q0 35 13.5 58.5t23.5 54.5q6 23 12 67.5t11 101 t9.5 119t7.5 121t4 106.5t1 74q0 43 -21.5 70t-53.5 43t-68.5 22.5t-69.5 6.5q-12 0 -46 -7.5t-71 -19.5t-64.5 -27.5t-27.5 -29.5l-2 -223v-226q0 -61 -1 -99v-9q0 -31 6 -59q7 -30 26.5 -61.5t60.5 -76.5l-31 -14q-49 4 -98 4q-24 0 -48 -1q-72 -3 -146 -3q-6 0 -19.5 1 t-13.5 11q0 23 24.5 34t36.5 23q6 6 11.5 21.5t10.5 32t7 33t2 26.5q0 143 -6 279q-2 30 -2 61q0 30 2 64q1 16 1 32q0 48 -10 90q-12 56 -52 92.5t-128 36.5q-25 0 -54.5 -3t-58 -10t-52 -22.5t-31.5 -39.5v-596q0 -53 20.5 -81t55.5 -63v-14q-10 -2 -29 -2l-328 2l10 22 q41 16 67 57.5t26 84.5v325v74t-2.5 95.5t-7.5 91.5t-17 65q-12 23 -35.5 33t-46.5 24z" />
<glyph unicode="n" horiz-adv-x="1015" d="M41 901q25 10 49.5 16.5t49 12.5t49 15t49.5 26q14 10 40 32.5t44 22.5q10 0 13 -13.5t-1 -21.5q0 -33 1 -63.5t7 -63.5q4 -10 15.5 -12t21.5 -2q35 16 80 36.5t92 38t93 29t87 11.5q43 0 82 -10.5t68.5 -33t47 -57.5t17.5 -82q0 -37 -2 -80t-14 -77q0 -78 -13.5 -152 t-13.5 -149q0 -45 -8 -90.5t-8 -88.5q0 -18 4 -36.5t16 -34.5q6 -29 25.5 -43.5t42.5 -26.5l-6 -20h-71t-101.5 2t-99.5 5t-60 7q0 18 13.5 34.5t23.5 33.5q8 18 17 63t18.5 103.5t16.5 124t13 126t9.5 108.5t3.5 73q0 92 -52.5 133t-140.5 41q-31 0 -59.5 -7.5t-59.5 -11.5 q-16 -10 -33.5 -14t-33 -9t-24.5 -17.5t-9 -39.5q0 -29 -1 -84t-1 -122.5t1 -141.5t3 -138.5t8 -113.5t15 -65q10 -20 28.5 -33.5t40.5 -20.5l21 -22q-2 -6 -18.5 -7t-36 0t-38 2t-24.5 1q-59 0 -117.5 -6t-116.5 -6q-29 0 -47 16q10 23 34 29t42 22q10 23 19.5 47.5 t9.5 50.5v203q0 92 -6 179t-6 180q0 57 -17.5 88.5t-37 49t-37 28t-17.5 26.5z" />
<glyph unicode="o" horiz-adv-x="987" d="M41 436q0 92 30.5 183.5t87 165t138.5 118.5t184 45q229 0 347 -127t118 -352q0 -92 -33.5 -185.5t-93 -168t-144.5 -121.5t-186 -47q-98 0 -180 42t-141 110.5t-93 156.5t-34 180zM131 592q0 -82 38 -170t100.5 -162t143.5 -121t167 -47q25 0 48 2t48 2q27 14 56.5 25.5 t45.5 40.5q53 43 66.5 99t13.5 122q0 74 -44 148.5t-110.5 136t-146.5 99.5t-149 38q-43 0 -91.5 -15.5t-90.5 -43t-68.5 -66.5t-26.5 -88z" />
<glyph unicode="p" horiz-adv-x="997" d="M41 905l29 29q51 0 102 17.5t86 58.5q16 6 28.5 18t30.5 12h9l-2 -67q0 -10 1 -23.5t4 -25t10 -18.5t21 -7q33 14 70 30.5t75 31t75.5 23.5t72.5 9q82 0 139.5 -35.5t94.5 -93t53 -129t16 -141.5q0 -96 -24.5 -174t-67.5 -144.5t-103.5 -125t-133.5 -111.5 q-25 -18 -66 -40t-84 -44.5t-79 -43t-48 -32.5l-2 -26q0 -33 2 -69t11.5 -68.5t30 -59.5t54.5 -41v-21q-23 -6 -45 -7t-45 -1h-239q-10 0 -15.5 9.5t-9.5 19.5q16 16 32.5 29.5t29.5 31.5q6 25 7 49.5t1 49.5q-2 4 -9.5 13t-13.5 9q-16 0 -27.5 -9t-27.5 -9l-23 10v31 q12 6 31 11t34 12t26.5 18.5t11.5 27.5v106t-1 178t-4 213t-8.5 209t-13.5 165.5t-20 83.5q-16 20 -38 32.5t-38 28.5zM334 694q0 -152 4 -301t4 -303q0 -29 2 -64.5t12 -62.5q8 -4 23 -4q12 0 27.5 9t25.5 16q76 57 137.5 119.5t105.5 135t68.5 155.5t24.5 181 q0 53 -20.5 106.5t-55.5 95.5t-83 67.5t-103 25.5q-18 0 -45 -3t-52.5 -11t-47 -19.5t-27.5 -29.5v-113z" />
<glyph unicode="q" horiz-adv-x="919" d="M41 422q0 80 29.5 167t82 161.5t124 130t153.5 71.5q78 14 175 16.5t177 2.5q8 0 25 -4q4 -6 6 -35t2 -72v-92v-93t-1 -78t-1 -46q0 -186 9 -370.5t9 -370.5q0 -18 2.5 -47t5.5 -60t9 -58.5t16 -41.5q12 -18 30.5 -27.5t31.5 -26.5q-39 -6 -78 -11t-80 -5h-166 q-10 0 -24.5 5t-14.5 20q41 25 71 47t30 80v151q0 37 -6 72q-5 22 -5 44q0 14 2 28q-4 18 -5 39.5t-5 41.5q-8 4 -12 5q-20 0 -53 -19.5t-71 -44.5t-77 -44t-72 -19q-72 0 -130 52t-100 127t-65.5 157.5t-23.5 146.5zM217 500q0 -61 16.5 -132t52.5 -131.5t89 -101.5 t127 -41q18 0 42.5 3t48 12.5t40 23.5t16.5 37q0 111 -7 220.5t-7 219.5q0 61 3 112q1 10 1 20q0 37 -9 66q-12 36 -45.5 55.5t-109.5 19.5q-72 0 -121 -38t-79.5 -95.5t-44 -125t-13.5 -124.5z" />
<glyph unicode="r" horiz-adv-x="722" d="M41 911q0 6 28.5 17.5t67.5 27t77 30.5t54 32q12 12 27 24.5t35 12.5q8 -28 8 -53v-10q-2 -30 -2 -64q6 -8 13 -16.5t18 -8.5q10 0 30.5 12.5t48 27.5t58.5 27.5t63 12.5q18 0 38 -6t37 -17.5t28.5 -26.5t11.5 -36q0 -47 -29.5 -81t-77.5 -34q-43 0 -71.5 9.5t-50 20.5 t-38 20.5t-34.5 9.5t-31.5 -13.5t-13.5 -29.5q0 -68 -2 -158t-2 -181t3 -174t15 -136q6 -31 16.5 -48.5t22.5 -29t28.5 -18.5t39.5 -17q6 -4 6 -12q0 -4 -2 -9.5t-4 -9.5q-90 0 -176 -2t-177 -2q-8 0 -20 3t-18 9q16 16 41.5 27.5t33.5 34.5q10 31 15 84q6 54 7 118v43 q0 43 -1 91q-2 70 -4 137t-3 123v34q0 32 1 54q2 23 -12.5 42t-18.5 40q-16 23 -42 35t-42 34z" />
<glyph unicode="s" horiz-adv-x="851" d="M41 242q0 41 19.5 65.5t60.5 24.5q47 0 74.5 -21.5t47 -52.5t33 -68.5t31 -68.5t45 -52.5t72.5 -21.5q51 0 96 10.5t79 34t52.5 63.5t18.5 99q0 61 -41 100t-102.5 68t-133 54.5t-133 59t-102.5 85t-41 131.5q0 63 25.5 113t68.5 84t98.5 51.5t114.5 17.5q27 0 75 -10.5 t96 -30t83 -47t35 -60.5q0 -16 -9.5 -35.5t-23.5 -37t-32.5 -28.5t-35.5 -11q-45 0 -73.5 27.5t-53 61.5t-54.5 61.5t-79 27.5q-57 0 -95 -28.5t-38 -90.5q0 -47 44 -74.5t109.5 -49t142.5 -44t142.5 -58.5t109.5 -94.5t44 -150.5q0 -98 -41 -166.5t-106.5 -111.5 t-147.5 -61.5t-166 -18.5q-49 0 -104.5 19.5t-100.5 53t-74.5 80.5t-29.5 101z" />
<glyph unicode="t" horiz-adv-x="688" d="M41 946q0 12 8 16.5t19.5 4.5t23.5 -1t21 -1q35 0 49 11t14 46q0 12 -4 32.5t-11 42t-15.5 41t-14.5 27.5q-6 6 -17.5 12.5t-23.5 13.5t-21.5 15t-9.5 19q0 16 14.5 18t26.5 4q47 4 97.5 28.5t91.5 47.5q10 6 16.5 15.5t16.5 9.5q6 0 12 -2q12 -18 12 -43q0 -74 -6 -149 t-6 -148q0 -23 12 -30t29.5 -7t36 3t30.5 3q23 0 49.5 1t50 -2t42 -13.5t26.5 -30.5q-20 -6 -51 -9t-63.5 -4.5t-64.5 -1.5h-52q-31 -14 -36 -55t-5 -72q0 -133 8 -265t8 -267q0 -41 32 -70.5t75 -29.5q33 0 54.5 3t38.5 12t32.5 24.5t34.5 42.5h20q4 -10 5 -19.5t1 -19.5 q0 -53 -18.5 -90t-49 -60.5t-72.5 -34t-87 -10.5q-84 0 -131 14.5t-70.5 46t-30 84t-6.5 127.5q0 51 -6 105.5t-8 105.5q-2 38 -2 77q0 56 4 114q6 96 6 192q0 18 -15.5 28.5t-37 15t-43 7.5t-35.5 9q-4 6 -4 16z" />
<glyph unicode="u" horiz-adv-x="1009" d="M41 954q6 2 30.5 7.5t55.5 11.5t59.5 10t42.5 8q33 10 57.5 33t55.5 35l6 4q25 0 25 -27q0 -4 -3 -14t-7.5 -20.5t-8.5 -20.5t-6 -12v-27q0 -68 -8 -137q-10 -82 -22.5 -163t-23.5 -164t-11 -165q0 -96 52 -144t150 -48q12 0 45 7t68 17.5t62.5 22.5t27.5 25v126 q0 106 -2 216t-12 217q-4 45 -21.5 88t-60.5 61q-12 6 -28.5 13.5t-16.5 25.5q10 8 45 18.5t77 22.5t83 27.5t65 33.5q12 12 27 13l18 -19q0 -193 2 -384t2 -384q0 -20 3 -51t11.5 -62.5t19.5 -58t30 -39.5q10 -8 24.5 -12t14.5 -18v-9l-29 -2h-168q-10 0 -30.5 -1t-30.5 3 q-14 6 -16.5 19.5t-2.5 29t-5 26.5t-28 11q-10 0 -50 -18t-91 -39.5t-106.5 -40t-94.5 -18.5q-51 0 -95 14t-77.5 44t-53 72t-19.5 97q0 72 9 143.5t19.5 143t19.5 143.5t9 143q0 53 -13.5 78t-30.5 37t-30.5 21.5t-13.5 29.5z" />
<glyph unicode="v" horiz-adv-x="968" d="M41 930q35 14 58.5 28.5t44 30t42 30.5t50.5 34q12 4 10 4q14 0 19 -12.5l9 -22.5q8 -31 35 -103.5t60.5 -163.5t72.5 -189.5t74 -181.5t61.5 -138.5t34.5 -59.5q80 78 131.5 176.5t51.5 215.5q0 51 -14.5 91t-33 73.5t-33 61t-14.5 56.5q0 25 3.5 49.5t14.5 46t29.5 35 t49.5 13.5q45 0 71.5 -30t40 -72t16.5 -88t3 -79q0 -70 -21.5 -139.5t-53.5 -136t-70 -126t-69.5 -104.5t-53 -73.5t-21.5 -34.5q0 -29 25.5 -48.5t48.5 -29.5l14 -25q-94 0 -188.5 -3t-188.5 -3l-8 23q23 14 42 31.5t26 44.5q-4 31 -22.5 99.5t-47.5 151t-65.5 174 t-72.5 168t-71 131t-59 66.5q-10 6 -20.5 10t-10.5 19z" />
<glyph unicode="w" horiz-adv-x="1458" d="M41 954q39 8 66.5 14.5t51 16.5t47 26.5t54.5 47.5q4 -2 21.5 -54.5t42 -129t51 -169t51.5 -175t43 -145t25 -81.5q4 -12 14 -17t22 -5q23 51 62 148t79 203.5t73.5 205t50.5 151.5h20q80 -182 147.5 -373.5t139.5 -379.5q0 -10 8 -23.5t20 -13.5q27 0 50.5 49t39 113.5 t24.5 124t9 81.5q0 41 -9 79t-21.5 75t-21.5 76t-9 80q0 51 27.5 83.5t80.5 32.5q31 0 50.5 -10t32 -27.5t19.5 -40t15 -47.5q0 -90 -19.5 -177t-48 -168t-63.5 -150.5t-63.5 -123.5t-48 -89t-19.5 -45q16 -31 45 -53.5t60 -36.5l8 -15h-398q0 12 8.5 23.5t19.5 25t19.5 32 t8.5 46.5q0 29 -20.5 92.5t-47.5 134t-54.5 136t-39.5 98.5q-4 10 -9 24.5t-22 14.5l-22 -25q-10 -33 -37 -97t-54.5 -133t-48 -129t-20.5 -85q0 -27 13.5 -47.5t31.5 -37.5t39.5 -31.5t38.5 -26.5v-15l-23 -2h-41.5t-72.5 1t-86 2t-84 2t-65 2t-28 1q20 23 44 47.5t24 59.5 q0 61 -22.5 154.5t-54.5 193.5t-65.5 194.5t-54.5 159.5q-10 33 -38.5 53.5t-51.5 43.5z" />
<glyph unicode="x" horiz-adv-x="1036" d="M41 16q0 23 20.5 34t36.5 24q10 8 37 38.5t61.5 72.5t72.5 90.5t69 91.5t51.5 73.5t20.5 40.5q0 8 -18.5 40t-46.5 74t-61.5 89t-65.5 88t-56.5 70.5t-34.5 36.5q-20 12 -42 20t-42 25l31 22q35 10 67.5 22.5t61.5 30.5q24 29 53 43q4 8 16 9q12 0 21 -9q6 -12 26.5 -48 t49 -83t61.5 -99t62.5 -97t51 -77t27.5 -38q27 8 39.5 41t20.5 78t15 94t25.5 91t53.5 69.5t96 27.5q43 0 82 -28.5t39 -77.5q0 -41 -40 -89t-93 -96t-107.5 -91.5t-83.5 -71.5q-2 -6 -4 -11.5t-2 -11.5q0 -16 32 -64t72 -105.5t77.5 -109.5t50.5 -75q16 -29 34.5 -47.5 t38 -34.5t39 -31.5t39.5 -38.5q-16 -14 -39.5 -17t-50 -2t-53.5 4t-47 3q-49 0 -98.5 -5t-98.5 -5q-10 0 -22.5 2t-22.5 6v23q18 12 36.5 27.5t18.5 37.5q0 25 -18 73t-45 98t-53.5 94t-44.5 63q-25 -20 -44.5 -50t-31.5 -64t-19.5 -68.5t-7.5 -65.5q0 -43 9.5 -69.5 t20.5 -45t20.5 -30t9.5 -23.5q-33 -6 -80 -8t-97.5 -2t-99.5 2t-84 2q-12 8 -12 18z" />
<glyph unicode="y" horiz-adv-x="950" d="M43 883q0 16 12.5 23t28.5 10.5t34.5 4.5t31.5 7q39 6 73.5 21.5t69.5 31.5q14 6 26.5 19.5t28.5 13.5l6 -2l2 -19q0 -35 -11 -71.5t-11 -77.5q0 -35 4 -72t4 -72q0 -39 17.5 -97t46 -122.5t66.5 -130t80 -118t85 -86t84 -33.5q14 6 27.5 37.5t25.5 76.5t21.5 97.5 t15.5 100.5t10 87t4 55q0 94 -17 166t-44 127t-58.5 98t-58 80t-44 70t-17.5 68q0 41 29.5 68.5t68.5 27.5q55 0 94 -39t63.5 -100.5t39 -136t20.5 -148.5t7 -137.5t1 -100.5q0 -47 -13 -96t-13 -98q-16 -41 -25.5 -83t-20 -85t-22.5 -85t-33 -81q-43 -82 -88 -175 t-104.5 -173t-140 -133.5t-195.5 -53.5q-14 0 -37.5 3.5t-47.5 11.5t-40 22.5t-16 34.5q0 43 33.5 66.5t79.5 35t95.5 13.5t77.5 2q31 0 73 20.5t82 50t67.5 64.5t27.5 63q0 16 -17.5 27.5t-29.5 18.5q-57 27 -110.5 71.5t-97.5 100t-79.5 116t-58.5 117.5q-33 31 -48 98.5 t-32.5 143t-46.5 146.5t-86 110z" />
<glyph unicode="z" horiz-adv-x="956" d="M41 18q0 10 7 15.5t11 15.5q14 8 52.5 55.5t87.5 115t103 146t100.5 149.5t80 125t39.5 73q10 31 38 50t38 48q4 10 5 23.5t1 23.5q0 53 -33.5 67.5t-78.5 14.5q-31 0 -71 -16.5t-83 -41t-85 -53t-76 -53t-55.5 -41t-25.5 -16.5q-10 0 -18 8l20 45q74 61 74 156q0 6 4 17 t6 16q4 4 9.5 7t9.5 1q23 -4 44 -9.5t44 -5.5q78 0 153.5 16.5t153.5 16.5q14 0 61.5 -7t98.5 -18.5t91 -25.5t40 -29l-39 -52t-96.5 -132t-125 -176t-125 -186.5t-96 -162t-38.5 -102.5q0 -20 10 -32.5t25.5 -18.5t33 -7t31.5 -1q78 0 153.5 34.5t137 78t100.5 78t43 34.5 q14 0 12 -10q-39 -76 -56 -123t-29.5 -73.5t-24.5 -37t-39 -11.5h-15q-24 0 -60 2q-48 3 -130 3q-123 0 -243.5 -5t-245.5 -7q-4 2 -16.5 8t-12.5 10z" />
<glyph unicode="{" d="M178 604v64q162 14 219.5 74.5t57.5 220.5v206q0 199 81.5 273t301.5 74h10v-54q-135 -2 -185.5 -54t-50.5 -210v-141q0 -227 -59 -308t-217 -114q160 -33 218 -114t58 -308v-141q0 -158 49.5 -209t186.5 -53v-54h-10q-219 0 -301 74t-82 272v207q0 160 -58.5 221.5 t-218.5 73.5z" />
<glyph unicode="|" d="M438 -483v2048h150v-2048h-150z" />
<glyph unicode="}" d="M176 -190q137 2 186.5 54t49.5 208v141q0 227 58 308t218 114q-158 33 -217 113.5t-59 308.5v141q0 158 -50.5 210t-185.5 54v54h10q219 0 302 -74t83 -273v-206q0 -160 57.5 -220.5t219.5 -74.5v-64q-162 -12 -219.5 -73.5t-57.5 -221.5v-207q0 -199 -82.5 -272.5 t-302.5 -73.5h-10v54z" />
<glyph unicode="~" horiz-adv-x="1705" d="M178 451v155q106 72 201.5 108t185.5 36q61 0 127 -13.5t164 -48.5q16 -6 47 -16q160 -57 240 -58q88 0 179 37t208 119v-156q-104 -72 -198.5 -106.5t-190.5 -34.5q-92 0 -256 57q-23 8 -33 13l-16 6q-176 59 -273 59q-84 0 -175 -36.5t-210 -120.5z" />
<glyph unicode="&#xa1;" horiz-adv-x="606" d="M172 147q0 35 40 281t44 465l4 192h82l4 -192q4 -219 44 -465t40 -281q0 -86 -34 -132t-95 -46q-63 0 -96 45t-33 133zM176 1384q0 53 36 90t89 37q51 0 89 -37.5t38 -89.5q0 -51 -37 -87.5t-90 -36.5q-51 0 -88 35.5t-37 88.5z" />
<glyph unicode="&#xa2;" horiz-adv-x="1118" d="M86 455q0 240 129 383t344 143q41 0 80 -6t76 -19l90 226h82l-103 -258q55 -35 83 -80t28 -99q0 -63 -37 -103t-96 -40q-31 0 -54.5 6t-39.5 21l-201 -512q31 -14 57.5 -20.5t53.5 -6.5q90 0 159.5 54.5t108.5 156.5l76 -37q-53 -150 -154.5 -224.5t-249.5 -74.5 q-25 0 -52.5 4t-53.5 13l-111 -281h-84l123 305q-125 61 -189.5 177t-64.5 272zM305 481q0 -113 24.5 -193.5t71.5 -123.5l228 577q12 31 38.5 57.5t26.5 35.5q0 27 -39 46t-96 19q-127 0 -190.5 -105.5t-63.5 -312.5z" />
<glyph unicode="&#xa3;" horiz-adv-x="1118" d="M31 129q0 82 51 132t135 50q39 0 82 -11t102 -40q8 18 11.5 42t3.5 58q0 53 -18.5 134.5t-53.5 171.5h-270v92h239q-27 84 -40 158.5t-13 140.5q0 166 116 275.5t292 109.5q162 0 258 -80t96 -211q0 -78 -40 -122t-110 -44q-51 0 -83.5 31t-32.5 78q0 39 16 65.5t55 46.5 q8 4 27 11q39 12 39 36q0 39 -59.5 70t-145.5 31q-109 0 -172 -63.5t-63 -172.5q0 -57 18 -150.5t53 -209.5h348v-92h-327q14 -59 21 -106.5t7 -88.5q0 -68 -18 -133.5t-53 -122.5q74 -35 137 -50t125 -15q102 0 165.5 45t92.5 139l72 -29q-47 -170 -131 -255t-207 -85 q-86 0 -164 32t-154 97q-47 -66 -102 -97.5t-127 -31.5q-78 0 -128 46t-50 118zM113 141q0 -41 27.5 -65.5t72.5 -24.5q43 0 83.5 28t63.5 75q-51 39 -86.5 57t-62.5 18q-45 0 -71.5 -24.5t-26.5 -63.5z" />
<glyph unicode="&#xa4;" horiz-adv-x="1241" d="M80 428l207 205q-41 51 -62.5 115.5t-21.5 136.5q0 70 21.5 133t62.5 119l-207 206l82 80l205 -204q57 43 120.5 64.5t133.5 21.5q72 0 135 -21.5t121 -64.5l204 204l82 -80l-205 -206q41 -55 61.5 -118t20.5 -134q0 -74 -20.5 -136.5t-61.5 -115.5l205 -205l-82 -82 l-204 205q-59 -43 -122 -64.5t-132 -21.5q-72 0 -135.5 21.5t-120.5 64.5l-205 -205zM319 887q0 -125 89.5 -215t214.5 -90t214 90t89 215t-89 214t-214 89t-214.5 -89t-89.5 -214z" />
<glyph unicode="&#xa5;" horiz-adv-x="1312" d="M-12 1311v96h581v-96h-82q-72 0 -90 -11.5t-18 -39.5q0 -8 3 -16.5t9 -18.5l334 -535l264 463q12 23 17.5 41t5.5 35q0 43 -32 62.5t-101 19.5h-60v96h508v-98h-14q-70 0 -114 -30t-95 -118l-123 -211h328v-86h-377l-133 -227h510v-84h-541v-363q0 -53 21.5 -73.5 t80.5 -20.5h123v-96h-641v96h123q59 0 81 20.5t22 73.5v363h-572v84h535l-144 227h-391v86h338l-162 260q-41 66 -70.5 83.5t-80.5 17.5h-43z" />
<glyph unicode="&#xa6;" d="M438 -350v758h150v-758h-150zM438 674v758h150v-758h-150z" />
<glyph unicode="&#xa7;" d="M117 702q0 113 77.5 182.5t208.5 73.5q-104 90 -146 158t-42 137q0 115 87 189t226 74q123 0 202 -60.5t79 -152.5q0 -51 -34 -86t-83 -35q-43 0 -72.5 26.5t-29.5 63.5q0 33 32.5 71.5t32.5 51.5q0 27 -37.5 47t-91.5 20q-76 0 -118.5 -39t-42.5 -104q0 -55 35.5 -109.5 t156.5 -156.5l176 -150q88 -74 131 -146.5t43 -144.5q0 -111 -78 -179.5t-211 -72.5q98 -82 145.5 -153.5t47.5 -143.5q0 -111 -92 -182t-240 -71q-129 0 -214 60t-85 146q0 55 32 90t83 35q45 0 73.5 -27.5t28.5 -70.5q0 -37 -31.5 -71.5t-31.5 -45.5q0 -31 40 -49t105 -18 q80 0 130 42t50 109q0 49 -40.5 104.5t-145.5 147.5l-180 156q-90 78 -133 147.5t-43 136.5zM254 778q0 -53 27.5 -101t113.5 -128q78 -74 130.5 -104.5t97.5 -30.5q61 0 103 39t42 98q0 45 -28.5 92t-98.5 117q-80 78 -137.5 112.5t-104.5 34.5q-59 0 -102 -39t-43 -90z " />
<glyph unicode="&#xa8;" horiz-adv-x="978" d="M154 1217q0 43 29.5 72.5t72.5 29.5t72.5 -29.5t29.5 -72.5t-29.5 -73t-72.5 -30t-72.5 30t-29.5 73zM602 1217q0 43 30 72.5t73 29.5t72.5 -29.5t29.5 -72.5t-29.5 -73t-72.5 -30t-73 30t-30 73z" />
<glyph unicode="&#xa9;" horiz-adv-x="1683" d="M131 678q0 141 53.5 270t155.5 232q100 100 230.5 155.5t273.5 55.5q137 0 268 -54.5t231 -152.5t154.5 -231.5t54.5 -274.5q0 -139 -53 -269t-156 -233q-100 -100 -229 -154.5t-272 -54.5q-141 0 -269.5 53.5t-232.5 155.5q-102 102 -155.5 229t-53.5 273zM223 678 q0 -127 46 -238.5t137 -201.5q92 -90 202.5 -136.5t233.5 -46.5q127 0 237.5 46t198.5 137q88 90 136 203.5t48 236.5t-48 240.5t-134 203.5t-200.5 134.5t-235.5 48.5q-123 0 -237.5 -49.5t-203.5 -137.5q-88 -90 -134 -202.5t-46 -237.5zM420 670q0 184 118.5 308 t290.5 124q74 0 149 -33t81 -33q27 0 42 14.5t21 47.5h37l2 -316h-43q-33 135 -103.5 204t-176.5 69q-119 0 -179.5 -93.5t-60.5 -277.5q0 -186 66.5 -283.5t193.5 -97.5q84 0 153.5 44t127.5 132l39 -26q-61 -104 -148.5 -157.5t-198.5 -53.5q-174 0 -292.5 123.5 t-118.5 304.5z" />
<glyph unicode="&#xab;" horiz-adv-x="1007" d="M154 475v19q100 82 212.5 194.5t135.5 112.5q6 0 10 -6.5t4 -14.5q0 -23 -55 -103.5t-148 -191.5q92 -111 147.5 -191.5t55.5 -103.5q0 -10 -4 -15t-10 -5q-25 0 -136.5 111.5t-211.5 193.5zM514 475v19q100 82 213 194.5t135 112.5q6 0 10.5 -6.5t4.5 -14.5 q0 -20 -55.5 -101t-149.5 -194q94 -113 149.5 -192.5t55.5 -102.5q0 -8 -5.5 -14t-11.5 -6q-25 0 -135.5 111.5t-210.5 193.5z" />
<glyph unicode="&#xac;" horiz-adv-x="1705" d="M254 721v139h1198v-502h-137v363h-1061z" />
<glyph unicode="&#xad;" horiz-adv-x="673" d="M90 399v174h492v-174h-492z" />
<glyph unicode="&#xae;" horiz-adv-x="1683" d="M131 678q0 141 53.5 270t153.5 232q100 100 231.5 155.5t274.5 55.5q139 0 272 -55.5t234 -157.5q98 -98 150 -230.5t52 -275.5q0 -139 -56 -270.5t-161 -233.5q-100 -98 -228 -149.5t-276 -51.5q-135 0 -262 54.5t-229 154.5t-155.5 228t-53.5 274zM223 678 q0 -127 46 -238.5t137 -201.5q90 -90 200.5 -136.5t235.5 -46.5t237.5 47.5t198.5 135.5q88 90 135 203.5t47 236.5q0 125 -47 241.5t-133 202.5t-200.5 134.5t-235.5 48.5q-123 0 -237.5 -49.5t-203.5 -137.5q-88 -90 -134 -202.5t-46 -237.5zM467 289v45q70 4 95.5 25.5 t25.5 72.5v516q0 53 -25.5 74.5t-95.5 26.5v45h397q143 0 230.5 -54.5t87.5 -140.5q0 -84 -65.5 -132t-219.5 -75q94 -29 144.5 -77t68.5 -130q0 -10 2 -28q12 -125 68 -125q31 0 47 33.5t16 97.5h45v-19q0 -84 -41 -129t-119 -45q-49 0 -83.5 15.5t-51.5 46.5 q-20 37 -22 109.5t-8 97.5q-18 72 -65.5 105.5t-131.5 33.5h-29v-246q0 -51 25.5 -71.5t93.5 -26.5v-45h-389zM737 721q14 0 28.5 -1t35.5 -1q104 0 162.5 45t58.5 127q0 72 -50 116t-134 44q-51 0 -76 -17.5t-25 -52.5v-260z" />
<glyph unicode="&#xb0;" horiz-adv-x="673" d="M49 1167q0 119 85 204t204 85t203 -85t84 -204t-84 -202.5t-205 -83.5t-204 83t-83 203zM143 1169q0 -82 56.5 -139t138.5 -57t137 57t55 139q0 80 -55 136.5t-137 56.5t-138.5 -56.5t-56.5 -136.5z" />
<glyph unicode="&#xb4;" horiz-adv-x="819" d="M268 1024l221 240q23 23 44.5 36t41.5 13q25 0 43.5 -18.5t18.5 -43.5q0 -23 -14.5 -39t-53.5 -41l-241 -147h-60z" />
<glyph unicode="&#xb6;" d="M66 1130q0 156 107.5 252.5t285.5 96.5h499v-86h-120v-1393h-111v1393h-176v-1393h-113v782q-170 8 -271 102.5t-101 245.5z" />
<glyph unicode="&#xb7;" horiz-adv-x="333" d="M41 899q0 49 42 82t87 33q53 0 88 -38t35 -91q0 -18 -9.5 -40t-23.5 -40.5t-33.5 -30.5t-40.5 -12q-27 0 -53.5 11t-46.5 29.5t-32.5 43t-12.5 53.5z" />
<glyph unicode="&#xb8;" horiz-adv-x="819" d="M215 -303l31 72q47 -31 94 -46.5t90 -15.5q47 0 67.5 16.5t20.5 55.5q0 35 -20.5 51t-65.5 16q-12 0 -24.5 -1t-24.5 -3v158h53v-92q8 2 18.5 3t30.5 1q70 0 109 -36t39 -97q0 -68 -47 -106t-133 -38q-47 0 -105.5 15.5t-132.5 46.5z" />
<glyph unicode="&#xbb;" horiz-adv-x="1007" d="M154 190q0 23 55 103t149 192q-94 113 -149 194t-55 101q0 8 4 14.5t10 6.5q25 0 136.5 -113t211.5 -194v-19q-100 -82 -213 -193.5t-135 -111.5q-6 0 -10 5t-4 15zM514 190q0 23 55.5 104t147.5 191q-92 111 -147.5 192t-55.5 103q0 8 4 14.5t10 6.5q25 0 136.5 -113 t212.5 -194v-19q-100 -82 -213 -193.5t-136 -111.5q-6 0 -10 5t-4 15z" />
<glyph unicode="&#xc0;" horiz-adv-x="1421" d="M41 33q0 6 1 7l5 5q33 33 64.5 66.5t42.5 76.5q27 109 78 250.5t101 293t87 303t37 278.5q0 29 -27 28q-53 0 -94 -23.5t-86 -43.5h-8q-2 0 -2 10q0 4 -2 10q0 12 4 25q31 43 64.5 82t71.5 69.5t84 49t105 18.5q80 0 162 -14.5t148 -67.5q29 -25 54 -90.5t49 -158.5 t46.5 -204.5t47 -227.5t52 -229.5t59.5 -208.5t68.5 -167t81.5 -102q14 -10 29.5 -21.5t15.5 -32.5q-29 -8 -67.5 -10t-80.5 -2t-82 1t-71 1q-47 0 -98 1t-98 9v23q37 23 69.5 51.5t32.5 75.5q0 23 -8 73t-21.5 113.5t-30 133t-32.5 132t-30.5 111.5t-24.5 72 q-10 25 -31 27.5t-43 2.5h-258q-23 0 -41.5 -3t-34.5 -21q-10 -10 -18.5 -45t-15.5 -82t-13 -100.5t-11 -103.5t-7.5 -90t-2.5 -58q0 -84 22 -149.5t71 -131.5v-10q0 -16 -38 -22.5t-87 -8.5t-95.5 -1t-60.5 1h-56.5t-56.5 2q-12 -4 -16 6.5t-4 20.5zM455 936q0 -10 8 -18.5 t12 -12.5q10 -4 19.5 -4h19.5q27 0 78 -3t100 -1t86 11.5t37 33.5q0 33 -17.5 100.5t-50 135t-76.5 118t-100 50.5q-6 0 -17 -27t-24.5 -68t-27 -91t-23.5 -95t-17 -81t-7 -48zM501 1805q0 25 18.5 43t43.5 18q20 0 41.5 -13.5t44.5 -35.5l221 -240h-59l-242 148 q-39 25 -53.5 41t-14.5 39z" />
<glyph unicode="&#xc1;" horiz-adv-x="1421" d="M41 33q0 6 1 7l5 5q33 33 64.5 66.5t42.5 76.5q27 109 78 250.5t101 293t87 303t37 278.5q0 29 -27 28q-53 0 -94 -23.5t-86 -43.5h-8q-2 0 -2 10q0 4 -2 10q0 12 4 25q31 43 64.5 82t71.5 69.5t84 49t105 18.5q80 0 162 -14.5t148 -67.5q29 -25 54 -90.5t49 -158.5 t46.5 -204.5t47 -227.5t52 -229.5t59.5 -208.5t68.5 -167t81.5 -102q14 -10 29.5 -21.5t15.5 -32.5q-29 -8 -67.5 -10t-80.5 -2t-82 1t-71 1q-47 0 -98 1t-98 9v23q37 23 69.5 51.5t32.5 75.5q0 23 -8 73t-21.5 113.5t-30 133t-32.5 132t-30.5 111.5t-24.5 72 q-10 25 -31 27.5t-43 2.5h-258q-23 0 -41.5 -3t-34.5 -21q-10 -10 -18.5 -45t-15.5 -82t-13 -100.5t-11 -103.5t-7.5 -90t-2.5 -58q0 -84 22 -149.5t71 -131.5v-10q0 -16 -38 -22.5t-87 -8.5t-95.5 -1t-60.5 1h-56.5t-56.5 2q-12 -4 -16 6.5t-4 20.5zM455 936q0 -10 8 -18.5 t12 -12.5q10 -4 19.5 -4h19.5q27 0 78 -3t100 -1t86 11.5t37 33.5q0 33 -17.5 100.5t-50 135t-76.5 118t-100 50.5q-6 0 -17 -27t-24.5 -68t-27 -91t-23.5 -95t-17 -81t-7 -48zM592 1591l221 240q23 23 44.5 36t41.5 13q25 0 43.5 -18.5t18.5 -43.5q0 -23 -14.5 -39 t-53.5 -41l-241 -147h-60z" />
<glyph unicode="&#xc2;" horiz-adv-x="1421" d="M41 33q0 6 1 7l5 5q33 33 64.5 66.5t42.5 76.5q27 109 78 250.5t101 293t87 303t37 278.5q0 29 -27 28q-53 0 -94 -23.5t-86 -43.5h-8q-2 0 -2 10q0 4 -2 10q0 12 4 25q31 43 64.5 82t71.5 69.5t84 49t105 18.5q80 0 162 -14.5t148 -67.5q29 -25 54 -90.5t49 -158.5 t46.5 -204.5t47 -227.5t52 -229.5t59.5 -208.5t68.5 -167t81.5 -102q14 -10 29.5 -21.5t15.5 -32.5q-29 -8 -67.5 -10t-80.5 -2t-82 1t-71 1q-47 0 -98 1t-98 9v23q37 23 69.5 51.5t32.5 75.5q0 23 -8 73t-21.5 113.5t-30 133t-32.5 132t-30.5 111.5t-24.5 72 q-10 25 -31 27.5t-43 2.5h-258q-23 0 -41.5 -3t-34.5 -21q-10 -10 -18.5 -45t-15.5 -82t-13 -100.5t-11 -103.5t-7.5 -90t-2.5 -58q0 -84 22 -149.5t71 -131.5v-10q0 -16 -38 -22.5t-87 -8.5t-95.5 -1t-60.5 1h-56.5t-56.5 2q-12 -4 -16 6.5t-4 20.5zM450 1579l182 281h107 l182 -281h-59l-176 158l-177 -158h-59zM455 936q0 -10 8 -18.5t12 -12.5q10 -4 19.5 -4h19.5q27 0 78 -3t100 -1t86 11.5t37 33.5q0 33 -17.5 100.5t-50 135t-76.5 118t-100 50.5q-6 0 -17 -27t-24.5 -68t-27 -91t-23.5 -95t-17 -81t-7 -48z" />
<glyph unicode="&#xc3;" horiz-adv-x="1421" d="M41 33q0 6 1 7l5 5q33 33 64.5 66.5t42.5 76.5q27 109 78 250.5t101 293t87 303t37 278.5q0 29 -27 28q-53 0 -94 -23.5t-86 -43.5h-8q-2 0 -2 10q0 4 -2 10q0 12 4 25q31 43 64.5 82t71.5 69.5t84 49t105 18.5q80 0 162 -14.5t148 -67.5q29 -25 54 -90.5t49 -158.5 t46.5 -204.5t47 -227.5t52 -229.5t59.5 -208.5t68.5 -167t81.5 -102q14 -10 29.5 -21.5t15.5 -32.5q-29 -8 -67.5 -10t-80.5 -2t-82 1t-71 1q-47 0 -98 1t-98 9v23q37 23 69.5 51.5t32.5 75.5q0 23 -8 73t-21.5 113.5t-30 133t-32.5 132t-30.5 111.5t-24.5 72 q-10 25 -31 27.5t-43 2.5h-258q-23 0 -41.5 -3t-34.5 -21q-10 -10 -18.5 -45t-15.5 -82t-13 -100.5t-11 -103.5t-7.5 -90t-2.5 -58q0 -84 22 -149.5t71 -131.5v-10q0 -16 -38 -22.5t-87 -8.5t-95.5 -1t-60.5 1h-56.5t-56.5 2q-12 -4 -16 6.5t-4 20.5zM455 936q0 -10 8 -18.5 t12 -12.5q10 -4 19.5 -4h19.5q27 0 78 -3t100 -1t86 11.5t37 33.5q0 33 -17.5 100.5t-50 135t-76.5 118t-100 50.5q-6 0 -17 -27t-24.5 -68t-27 -91t-23.5 -95t-17 -81t-7 -48zM455 1626q45 86 92 120.5t108 18.5q12 -2 24.5 -7t23.5 -11l77 -43q8 -6 19.5 -9.5t19.5 -5.5 q27 -8 48.5 4.5t37.5 44.5l45 -12q-41 -84 -90 -118t-104 -19q-10 2 -21.5 6t-19.5 10l-78 43q-12 6 -22.5 10.5t-16.5 6.5q-33 8 -55.5 -3.5t-40.5 -46.5z" />
<glyph unicode="&#xc4;" horiz-adv-x="1421" d="M41 33q0 6 1 7l5 5q33 33 64.5 66.5t42.5 76.5q27 109 78 250.5t101 293t87 303t37 278.5q0 29 -27 28q-53 0 -94 -23.5t-86 -43.5h-8q-2 0 -2 10q0 4 -2 10q0 12 4 25q31 43 64.5 82t71.5 69.5t84 49t105 18.5q80 0 162 -14.5t148 -67.5q29 -25 54 -90.5t49 -158.5 t46.5 -204.5t47 -227.5t52 -229.5t59.5 -208.5t68.5 -167t81.5 -102q14 -10 29.5 -21.5t15.5 -32.5q-29 -8 -67.5 -10t-80.5 -2t-82 1t-71 1q-47 0 -98 1t-98 9v23q37 23 69.5 51.5t32.5 75.5q0 23 -8 73t-21.5 113.5t-30 133t-32.5 132t-30.5 111.5t-24.5 72 q-10 25 -31 27.5t-43 2.5h-258q-23 0 -41.5 -3t-34.5 -21q-10 -10 -18.5 -45t-15.5 -82t-13 -100.5t-11 -103.5t-7.5 -90t-2.5 -58q0 -84 22 -149.5t71 -131.5v-10q0 -16 -38 -22.5t-87 -8.5t-95.5 -1t-60.5 1h-56.5t-56.5 2q-12 -4 -16 6.5t-4 20.5zM342 1690 q0 43 29.5 72.5t72.5 29.5t72.5 -29.5t29.5 -72.5t-29.5 -73t-72.5 -30t-72.5 30t-29.5 73zM455 936q0 -10 8 -18.5t12 -12.5q10 -4 19.5 -4h19.5q27 0 78 -3t100 -1t86 11.5t37 33.5q0 33 -17.5 100.5t-50 135t-76.5 118t-100 50.5q-6 0 -17 -27t-24.5 -68t-27 -91 t-23.5 -95t-17 -81t-7 -48zM790 1690q0 43 30 72.5t73 29.5t72.5 -29.5t29.5 -72.5t-29.5 -73t-72.5 -30t-73 30t-30 73z" />
<glyph unicode="&#xc5;" horiz-adv-x="1421" d="M41 33q0 6 1 7l5 5q33 33 64.5 66.5t42.5 76.5q27 109 78 250.5t101 293t87 303t37 278.5q0 29 -27 28q-53 0 -94 -23.5t-86 -43.5h-8q-2 0 -2 10q0 4 -2 10q0 12 4 25q31 43 64.5 82t71.5 69.5t84 49t105 18.5q80 0 162 -14.5t148 -67.5q29 -25 54 -90.5t49 -158.5 t46.5 -204.5t47 -227.5t52 -229.5t59.5 -208.5t68.5 -167t81.5 -102q14 -10 29.5 -21.5t15.5 -32.5q-29 -8 -67.5 -10t-80.5 -2t-82 1t-71 1q-47 0 -98 1t-98 9v23q37 23 69.5 51.5t32.5 75.5q0 23 -8 73t-21.5 113.5t-30 133t-32.5 132t-30.5 111.5t-24.5 72 q-10 25 -31 27.5t-43 2.5h-258q-23 0 -41.5 -3t-34.5 -21q-10 -10 -18.5 -45t-15.5 -82t-13 -100.5t-11 -103.5t-7.5 -90t-2.5 -58q0 -84 22 -149.5t71 -131.5v-10q0 -16 -38 -22.5t-87 -8.5t-95.5 -1t-60.5 1h-56.5t-56.5 2q-12 -4 -16 6.5t-4 20.5zM455 936q0 -10 8 -18.5 t12 -12.5q10 -4 19.5 -4h19.5q27 0 78 -3t100 -1t86 11.5t37 33.5q0 33 -17.5 100.5t-50 135t-76.5 118t-100 50.5q-6 0 -17 -27t-24.5 -68t-27 -91t-23.5 -95t-17 -81t-7 -48zM459 1804q0 43 16.5 82t45 67.5t67.5 45t82 16.5t81 -16.5t66.5 -45t45 -67.5t16.5 -82 t-16.5 -81t-45 -66.5t-67.5 -45t-82 -16.5t-82 16.5t-66.5 45t-44 66.5t-16.5 81zM592 1806q0 -33 22.5 -56.5t55.5 -23.5t54.5 24t21.5 56q0 31 -21.5 53.5t-54.5 22.5t-55.5 -22.5t-22.5 -53.5z" />
<glyph unicode="&#xc6;" horiz-adv-x="1925" d="M41 33q0 6 1 7l5 5q33 33 64.5 66.5t42.5 76.5q27 109 78 250.5t101 293t87 303t37 278.5q0 29 -27 28q-53 0 -94 -23.5t-86 -43.5h-8q-2 0 -2 10q0 4 -2 10q0 12 4 25q31 43 64.5 82t71.5 69.5t84 49t105 18.5q76 0 154 -13.5t141 -58.5h113.5h144.5h155t146.5 2 t117.5 4.5t71 6.5q18 4 43.5 21.5t38.5 17.5q16 0 27.5 -13.5t11.5 -25.5q0 -45 10 -81t25.5 -69t32 -64.5t30.5 -66.5l2 -8q0 -12 -10.5 -24.5t-22.5 -12.5q-14 0 -23.5 10.5t-21.5 14.5q-31 39 -86 79.5t-122.5 74.5t-139.5 55.5t-133 21.5q-41 0 -94.5 -3t-101.5 -16.5 t-81.5 -38t-33.5 -67.5v-12q23 -80 44 -179.5t44 -207.5q16 -10 52 -16.5t73.5 -8.5t68.5 -2h39q55 0 108.5 13.5t105.5 33t102.5 45t101.5 49.5q4 -10 6 -39.5t3 -65.5t1 -68.5v-45.5v-90l-10 -28q-66 33 -142.5 56t-156.5 37.5t-160 20.5t-149 6h-15q-2 -10 4 -47 q29 -141 64 -272.5t78 -229.5q47 -94 82.5 -132t85.5 -38q20 0 49.5 6.5t59.5 17.5t56.5 25.5t42.5 30.5q49 23 92.5 53.5t88.5 61.5q6 6 18 20.5t24.5 27.5t25 24.5t20.5 11.5t15 -8t7 -19q0 -2 -16 -38.5t-37.5 -83t-41 -89.5t-23.5 -55q-4 -10 -5.5 -27.5t-5.5 -35 t-10 -30.5t-18 -13q-10 0 -14.5 8t-10.5 14q-12 10 -33.5 17.5t-45 10.5t-47 4t-38.5 1h-69.5t-61.5 1t-63.5 2t-75.5 1q-63 -4 -123 0h-61v2h-11q-47 0 -98 1t-98 9v23q37 23 69.5 51.5t32.5 75.5q0 23 -8 73t-21.5 113.5t-30 133t-32.5 132t-30.5 111.5t-24.5 72 q-10 25 -31 27.5t-43 2.5h-258q-23 0 -41.5 -3t-34.5 -21q-10 -10 -18.5 -45t-15.5 -82t-13 -100.5t-11 -103.5t-7.5 -90t-2.5 -58q0 -84 22 -149.5t71 -131.5v-10q0 -16 -38 -22.5t-87 -8.5t-95.5 -1t-60.5 1h-56.5t-56.5 2q-12 -4 -16 6.5t-4 20.5zM455 936q0 -10 8 -18.5 t12 -12.5q10 -4 19.5 -4h19.5q27 0 78 -3t100 -1t86 11.5t37 33.5q0 33 -17.5 100.5t-50 135t-76.5 118t-100 50.5q-6 0 -17 -27t-24.5 -68t-27 -91t-23.5 -95t-17 -81t-7 -48z" />
<glyph unicode="&#xc7;" horiz-adv-x="1112" d="M41 831q0 117 34 243t101.5 230.5t168.5 172t237 67.5q47 0 90 -11t88 -11q29 0 51.5 13t46.5 24q18 -16 22.5 -38t8.5 -44q4 -20 21.5 -56.5t36 -73t33.5 -65.5t15 -31l-10 -22q-29 6 -47 27.5t-41 37.5q-8 14 -56 42t-107.5 55.5t-117 48t-81.5 20.5q-80 0 -137.5 -44 t-94.5 -109.5t-54.5 -142.5t-17.5 -142q0 -90 18.5 -190.5t54.5 -200t90.5 -188.5t126 -157.5t161.5 -109.5t197 -41q25 0 48 6t45.5 14.5t43 14.5t37.5 6l8 -2l10 -22q-12 -41 -58 -76t-102.5 -59.5t-115 -38t-97.5 -13.5q-168 0 -291.5 81t-204.5 207t-121 279.5 t-40 298.5zM346 -303l31 72q47 -31 94 -46.5t90 -15.5q47 0 67.5 16.5t20.5 55.5q0 35 -20.5 51t-65.5 16q-12 0 -24.5 -1t-24.5 -3v158h53v-92q8 2 18.5 3t30.5 1q70 0 109 -36t39 -97q0 -68 -47 -106t-133 -38q-47 0 -105.5 15.5t-132.5 46.5z" />
<glyph unicode="&#xc8;" horiz-adv-x="1316" d="M41 1448v25q27 8 65 8q47 0 92.5 -7.5t92.5 -7.5h85h119.5h134t130 2t110 4.5t68.5 6.5q18 4 44 21.5t38 17.5q16 0 25.5 -13.5t13.5 -25.5q25 -72 47 -140.5t51 -140.5l2 -8q0 -12 -10 -24.5t-23 -12.5q-14 0 -23 10.5t-22 14.5q-31 39 -92 80.5t-133 75.5t-141.5 55.5 t-114.5 21.5q-31 0 -69.5 -3t-73.5 -15.5t-59.5 -37t-24.5 -65.5v-377q0 -14 17.5 -21t41 -9t47 -2h35.5q76 0 147.5 13t142 33.5t140.5 47t137 51.5q4 -10 7.5 -41t4.5 -67.5t1 -69.5v-47l2 -92l-15 -29q-90 33 -172 56.5t-163.5 39t-167.5 21.5t-183 6l-14 -2 q-6 -12 -8 -58.5t-2 -101.5v-111.5v-91.5q0 -55 5 -108.5t5 -110.5q0 -41 19.5 -69.5t49 -46t65.5 -25.5t71 -8q27 0 73 7t94 18t91 26.5t63 32.5q63 23 117.5 54.5t110.5 63.5q8 6 23.5 20.5t32.5 30t31.5 26.5t24.5 11t19.5 -9t9.5 -19q0 -2 -21.5 -41t-48 -87t-50 -93 t-30.5 -58q-4 -10 -7 -28.5t-7 -37t-12 -31.5t-25 -13q-10 0 -16 8t-15 14q-16 12 -42.5 18.5t-56.5 10.5t-59.5 5t-47.5 1q-197 0 -390.5 1t-390.5 1q-4 4 -4 10q0 8 11.5 16.5t25.5 17.5t28.5 21.5t20.5 30.5q10 29 17.5 56.5t7.5 56.5v453q0 51 -5 133t-9.5 168 t-4.5 162.5t9 117.5q-6 45 -5 74t-5.5 49.5t-29 37.5t-73.5 42zM473 1778q0 25 18.5 43t43.5 18q20 0 41.5 -13.5t44.5 -35.5l221 -240h-59l-242 148q-39 25 -53.5 41t-14.5 39z" />
<glyph unicode="&#xc9;" horiz-adv-x="1316" d="M41 1448v25q27 8 65 8q47 0 92.5 -7.5t92.5 -7.5h85h119.5h134t130 2t110 4.5t68.5 6.5q18 4 44 21.5t38 17.5q16 0 25.5 -13.5t13.5 -25.5q25 -72 47 -140.5t51 -140.5l2 -8q0 -12 -10 -24.5t-23 -12.5q-14 0 -23 10.5t-22 14.5q-31 39 -92 80.5t-133 75.5t-141.5 55.5 t-114.5 21.5q-31 0 -69.5 -3t-73.5 -15.5t-59.5 -37t-24.5 -65.5v-377q0 -14 17.5 -21t41 -9t47 -2h35.5q76 0 147.5 13t142 33.5t140.5 47t137 51.5q4 -10 7.5 -41t4.5 -67.5t1 -69.5v-47l2 -92l-15 -29q-90 33 -172 56.5t-163.5 39t-167.5 21.5t-183 6l-14 -2 q-6 -12 -8 -58.5t-2 -101.5v-111.5v-91.5q0 -55 5 -108.5t5 -110.5q0 -41 19.5 -69.5t49 -46t65.5 -25.5t71 -8q27 0 73 7t94 18t91 26.5t63 32.5q63 23 117.5 54.5t110.5 63.5q8 6 23.5 20.5t32.5 30t31.5 26.5t24.5 11t19.5 -9t9.5 -19q0 -2 -21.5 -41t-48 -87t-50 -93 t-30.5 -58q-4 -10 -7 -28.5t-7 -37t-12 -31.5t-25 -13q-10 0 -16 8t-15 14q-16 12 -42.5 18.5t-56.5 10.5t-59.5 5t-47.5 1q-197 0 -390.5 1t-390.5 1q-4 4 -4 10q0 8 11.5 16.5t25.5 17.5t28.5 21.5t20.5 30.5q10 29 17.5 56.5t7.5 56.5v453q0 51 -5 133t-9.5 168 t-4.5 162.5t9 117.5q-6 45 -5 74t-5.5 49.5t-29 37.5t-73.5 42zM473 1546l221 240q23 23 44.5 36t41.5 13q25 0 43.5 -18.5t18.5 -43.5q0 -23 -14.5 -39t-53.5 -41l-241 -147h-60z" />
<glyph unicode="&#xca;" horiz-adv-x="1316" d="M41 1448v25q27 8 65 8q47 0 92.5 -7.5t92.5 -7.5h85h119.5h134t130 2t110 4.5t68.5 6.5q18 4 44 21.5t38 17.5q16 0 25.5 -13.5t13.5 -25.5q25 -72 47 -140.5t51 -140.5l2 -8q0 -12 -10 -24.5t-23 -12.5q-14 0 -23 10.5t-22 14.5q-31 39 -92 80.5t-133 75.5t-141.5 55.5 t-114.5 21.5q-31 0 -69.5 -3t-73.5 -15.5t-59.5 -37t-24.5 -65.5v-377q0 -14 17.5 -21t41 -9t47 -2h35.5q76 0 147.5 13t142 33.5t140.5 47t137 51.5q4 -10 7.5 -41t4.5 -67.5t1 -69.5v-47l2 -92l-15 -29q-90 33 -172 56.5t-163.5 39t-167.5 21.5t-183 6l-14 -2 q-6 -12 -8 -58.5t-2 -101.5v-111.5v-91.5q0 -55 5 -108.5t5 -110.5q0 -41 19.5 -69.5t49 -46t65.5 -25.5t71 -8q27 0 73 7t94 18t91 26.5t63 32.5q63 23 117.5 54.5t110.5 63.5q8 6 23.5 20.5t32.5 30t31.5 26.5t24.5 11t19.5 -9t9.5 -19q0 -2 -21.5 -41t-48 -87t-50 -93 t-30.5 -58q-4 -10 -7 -28.5t-7 -37t-12 -31.5t-25 -13q-10 0 -16 8t-15 14q-16 12 -42.5 18.5t-56.5 10.5t-59.5 5t-47.5 1q-197 0 -390.5 1t-390.5 1q-4 4 -4 10q0 8 11.5 16.5t25.5 17.5t28.5 21.5t20.5 30.5q10 29 17.5 56.5t7.5 56.5v453q0 51 -5 133t-9.5 168 t-4.5 162.5t9 117.5q-6 45 -5 74t-5.5 49.5t-29 37.5t-73.5 42zM422 1550l182 281h107l182 -281h-59l-176 158l-177 -158h-59z" />
<glyph unicode="&#xcb;" horiz-adv-x="1316" d="M41 1448v25q27 8 65 8q47 0 92.5 -7.5t92.5 -7.5h85h119.5h134t130 2t110 4.5t68.5 6.5q18 4 44 21.5t38 17.5q16 0 25.5 -13.5t13.5 -25.5q25 -72 47 -140.5t51 -140.5l2 -8q0 -12 -10 -24.5t-23 -12.5q-14 0 -23 10.5t-22 14.5q-31 39 -92 80.5t-133 75.5t-141.5 55.5 t-114.5 21.5q-31 0 -69.5 -3t-73.5 -15.5t-59.5 -37t-24.5 -65.5v-377q0 -14 17.5 -21t41 -9t47 -2h35.5q76 0 147.5 13t142 33.5t140.5 47t137 51.5q4 -10 7.5 -41t4.5 -67.5t1 -69.5v-47l2 -92l-15 -29q-90 33 -172 56.5t-163.5 39t-167.5 21.5t-183 6l-14 -2 q-6 -12 -8 -58.5t-2 -101.5v-111.5v-91.5q0 -55 5 -108.5t5 -110.5q0 -41 19.5 -69.5t49 -46t65.5 -25.5t71 -8q27 0 73 7t94 18t91 26.5t63 32.5q63 23 117.5 54.5t110.5 63.5q8 6 23.5 20.5t32.5 30t31.5 26.5t24.5 11t19.5 -9t9.5 -19q0 -2 -21.5 -41t-48 -87t-50 -93 t-30.5 -58q-4 -10 -7 -28.5t-7 -37t-12 -31.5t-25 -13q-10 0 -16 8t-15 14q-16 12 -42.5 18.5t-56.5 10.5t-59.5 5t-47.5 1q-197 0 -390.5 1t-390.5 1q-4 4 -4 10q0 8 11.5 16.5t25.5 17.5t28.5 21.5t20.5 30.5q10 29 17.5 56.5t7.5 56.5v453q0 51 -5 133t-9.5 168 t-4.5 162.5t9 117.5q-6 45 -5 74t-5.5 49.5t-29 37.5t-73.5 42zM246 1645q0 43 29.5 72.5t72.5 29.5t72.5 -29.5t29.5 -72.5t-29.5 -73t-72.5 -30t-72.5 30t-29.5 73zM694 1645q0 43 30 72.5t73 29.5t72.5 -29.5t29.5 -72.5t-29.5 -73t-72.5 -30t-73 30t-30 73z" />
<glyph unicode="&#xcc;" horiz-adv-x="563" d="M41 1454q10 16 35 16h219t219 -10q-10 -23 -26.5 -32l-33 -18t-31.5 -24.5t-24 -46.5q-12 -47 -17 -123.5t-7 -168t-1 -190.5t3 -189t4 -164t2 -117q0 -27 1 -71t5 -91t10.5 -89t18.5 -62q14 -29 47 -37t57 -23l-16 -16q-59 0 -119.5 4t-120.5 4q-47 0 -92 -5t-90 -5 q-16 0 -37 10q6 14 17.5 22.5t24.5 15.5t26.5 15.5t21.5 22.5q18 35 26.5 81t11.5 94t3 95v88v187q0 154 -5 304t-5 304q0 51 -6 81t-21.5 51.5t-39 39.5t-60.5 47zM98 1776q0 25 18.5 43t43.5 18q20 0 41.5 -13.5t44.5 -35.5l221 -240h-59l-242 148q-39 25 -53.5 41 t-14.5 39z" />
<glyph unicode="&#xcd;" horiz-adv-x="563" d="M41 1454q10 16 35 16h219t219 -10q-10 -23 -26.5 -32l-33 -18t-31.5 -24.5t-24 -46.5q-12 -47 -17 -123.5t-7 -168t-1 -190.5t3 -189t4 -164t2 -117q0 -27 1 -71t5 -91t10.5 -89t18.5 -62q14 -29 47 -37t57 -23l-16 -16q-59 0 -119.5 4t-120.5 4q-47 0 -92 -5t-90 -5 q-16 0 -37 10q6 14 17.5 22.5t24.5 15.5t26.5 15.5t21.5 22.5q18 35 26.5 81t11.5 94t3 95v88v187q0 154 -5 304t-5 304q0 51 -6 81t-21.5 51.5t-39 39.5t-60.5 47zM94 1542l221 240q23 23 44.5 36t41.5 13q25 0 43.5 -18.5t18.5 -43.5q0 -23 -14.5 -39t-53.5 -41l-241 -147 h-60z" />
<glyph unicode="&#xce;" horiz-adv-x="563" d="M41 1454q10 16 35 16h219t219 -10q-10 -23 -26.5 -32l-33 -18t-31.5 -24.5t-24 -46.5q-12 -47 -17 -123.5t-7 -168t-1 -190.5t3 -189t4 -164t2 -117q0 -27 1 -71t5 -91t10.5 -89t18.5 -62q14 -29 47 -37t57 -23l-16 -16q-59 0 -119.5 4t-120.5 4q-47 0 -92 -5t-90 -5 q-16 0 -37 10q6 14 17.5 22.5t24.5 15.5t26.5 15.5t21.5 22.5q18 35 26.5 81t11.5 94t3 95v88v187q0 154 -5 304t-5 304q0 51 -6 81t-21.5 51.5t-39 39.5t-60.5 47zM47 1550l182 281h107l182 -281h-59l-176 158l-177 -158h-59z" />
<glyph unicode="&#xcf;" horiz-adv-x="563" d="M-45 1627q0 43 29.5 72.5t72.5 29.5t72.5 -29.5t29.5 -72.5t-29.5 -73t-72.5 -30t-72.5 30t-29.5 73zM41 1454q10 16 35 16h219t219 -10q-10 -23 -26.5 -32l-33 -18t-31.5 -24.5t-24 -46.5q-12 -47 -17 -123.5t-7 -168t-1 -190.5t3 -189t4 -164t2 -117q0 -27 1 -71t5 -91 t10.5 -89t18.5 -62q14 -29 47 -37t57 -23l-16 -16q-59 0 -119.5 4t-120.5 4q-47 0 -92 -5t-90 -5q-16 0 -37 10q6 14 17.5 22.5t24.5 15.5t26.5 15.5t21.5 22.5q18 35 26.5 81t11.5 94t3 95v88v187q0 154 -5 304t-5 304q0 51 -6 81t-21.5 51.5t-39 39.5t-60.5 47zM403 1627 q0 43 30 72.5t73 29.5t72.5 -29.5t29.5 -72.5t-29.5 -73t-72.5 -30t-73 30t-30 73z" />
<glyph unicode="&#xd0;" horiz-adv-x="1347" d="M41 1253q0 33 25.5 66t66.5 62.5t92 55t101.5 44t94.5 29t73 10.5q190 0 340.5 -58.5t255 -166t161 -261t56.5 -344.5q0 -135 -39 -250.5t-113 -205t-178.5 -148.5t-235.5 -82q-35 -6 -84 -8t-101 -2t-103.5 1t-90.5 1q-29 0 -63.5 2t-62.5 6q-29 -4 -56.5 -2t-56.5 2v31 q49 23 72.5 42t34 43.5t13.5 58.5t9 83q-4 12 -4 41t1 61.5t3 63.5t2 47q0 33 -1 64.5t-3 64.5h-139v117h131q-6 86 -6 172q0 63 -21.5 98t-49.5 54.5t-51.5 32t-27.5 34.5q33 25 62.5 29t68.5 15t90 41t125 103q18 -16 23.5 -84.5t4.5 -153.5t-4 -169t-3 -133v-39h149v-117 h-147q2 -92 5 -180t3 -178q18 -41 32.5 -76t36 -61.5t55.5 -41t89 -14.5q115 0 196.5 43t135 115t78 165t24.5 195q0 137 -43 280.5t-125 260.5t-201.5 190.5t-275.5 73.5q-31 0 -69 -5t-77.5 -12t-77.5 -18.5t-65 -23.5q-10 -4 -26.5 -17.5t-34 -28t-32.5 -25.5t-20 -11 q-6 0 -14 5t-8 13z" />
<glyph unicode="&#xd1;" horiz-adv-x="1257" d="M41 1470q0 12 28.5 17.5t66.5 6.5t74 1h48q66 0 133.5 -1t130.5 -5l10 -16q-35 -23 -53 -42.5t-18 -64.5q0 -18 34.5 -87t89 -162t120 -198.5t127 -199.5t110.5 -164t70 -90l24 6q8 16 8 37v123.5t-2 133t-7 132.5t-13 123q-6 43 -19.5 91t-26.5 96t-23.5 95.5 t-10.5 90.5q0 41 19.5 76.5t50.5 64.5q27 6 55 6q78 0 114 -50t36 -124q0 -49 -17.5 -100.5t-39 -104.5t-39 -111.5t-17.5 -119.5q0 -160 7 -322t7 -323q0 -63 12.5 -126t12.5 -126q-25 -16 -60 -17q-10 0 -23 2t-24 9q-8 4 -53 70.5t-110.5 164.5t-142.5 216t-148.5 225.5 t-129 191.5t-81.5 117q-33 43 -55.5 94t-57.5 94h-20v-43q0 -225 17 -458.5t64 -452.5q10 -51 26.5 -97.5t49.5 -85.5q4 -4 9.5 -11t5.5 -17q0 -14 -15 -17q-72 -10 -150.5 -13t-150.5 -3q-6 4 -15 13.5t-9 15.5t9 26.5t21.5 47t23.5 53t15 43.5q20 109 26.5 229.5 t6.5 231.5v186q0 25 -2 99.5t-5 157.5t-8 151.5t-12 80.5l-22.5 30t-34.5 43.5t-32.5 38.5t-14.5 21zM398 1585q45 86 92 120.5t108 18.5q12 -2 24.5 -7t23.5 -11l77 -43q8 -6 19.5 -9.5t19.5 -5.5q27 -8 48.5 4.5t37.5 44.5l45 -12q-41 -84 -90 -118t-104 -19 q-10 2 -21.5 6t-19.5 10l-78 43q-12 6 -22.5 10.5t-16.5 6.5q-33 8 -55.5 -3.5t-40.5 -46.5z" />
<glyph unicode="&#xd2;" horiz-adv-x="1400" d="M41 774q8 143 56 283.5t136.5 250t212 177t281.5 67.5q160 0 279.5 -66.5t197.5 -174t117 -246.5t39 -283q0 -74 -15.5 -157.5t-46 -168.5t-75.5 -165t-103.5 -143.5t-130 -105.5t-155.5 -52q-27 -4 -52.5 -6t-52.5 -11q-109 -8 -203 21t-173 84t-139 134t-101 171 t-59.5 192.5t-12.5 198.5zM164 909q0 -63 21.5 -141t60.5 -155.5t92 -151.5t114.5 -131.5t131 -92t139.5 -34.5q109 0 204 17.5t165.5 63.5t110.5 125.5t40 206.5q0 150 -50 283t-142.5 232.5t-219 157t-280.5 57.5q-86 0 -156.5 -39t-122 -101.5t-80 -140.5t-28.5 -156z M536 1825q0 25 18.5 43t43.5 18q20 0 41.5 -13.5t44.5 -35.5l221 -240h-59l-242 148q-39 25 -53.5 41t-14.5 39z" />
<glyph unicode="&#xd3;" horiz-adv-x="1400" d="M41 774q8 143 56 283.5t136.5 250t212 177t281.5 67.5q160 0 279.5 -66.5t197.5 -174t117 -246.5t39 -283q0 -74 -15.5 -157.5t-46 -168.5t-75.5 -165t-103.5 -143.5t-130 -105.5t-155.5 -52q-27 -4 -52.5 -6t-52.5 -11q-109 -8 -203 21t-173 84t-139 134t-101 171 t-59.5 192.5t-12.5 198.5zM164 909q0 -63 21.5 -141t60.5 -155.5t92 -151.5t114.5 -131.5t131 -92t139.5 -34.5q109 0 204 17.5t165.5 63.5t110.5 125.5t40 206.5q0 150 -50 283t-142.5 232.5t-219 157t-280.5 57.5q-86 0 -156.5 -39t-122 -101.5t-80 -140.5t-28.5 -156z M491 1591l221 240q23 23 44.5 36t41.5 13q25 0 43.5 -18.5t18.5 -43.5q0 -23 -14.5 -39t-53.5 -41l-241 -147h-60z" />
<glyph unicode="&#xd4;" horiz-adv-x="1400" d="M41 774q8 143 56 283.5t136.5 250t212 177t281.5 67.5q160 0 279.5 -66.5t197.5 -174t117 -246.5t39 -283q0 -74 -15.5 -157.5t-46 -168.5t-75.5 -165t-103.5 -143.5t-130 -105.5t-155.5 -52q-27 -4 -52.5 -6t-52.5 -11q-109 -8 -203 21t-173 84t-139 134t-101 171 t-59.5 192.5t-12.5 198.5zM164 909q0 -63 21.5 -141t60.5 -155.5t92 -151.5t114.5 -131.5t131 -92t139.5 -34.5q109 0 204 17.5t165.5 63.5t110.5 125.5t40 206.5q0 150 -50 283t-142.5 232.5t-219 157t-280.5 57.5q-86 0 -156.5 -39t-122 -101.5t-80 -140.5t-28.5 -156z M481 1591l182 281h107l182 -281h-59l-176 158l-177 -158h-59z" />
<glyph unicode="&#xd5;" horiz-adv-x="1400" d="M41 774q8 143 56 283.5t136.5 250t212 177t281.5 67.5q160 0 279.5 -66.5t197.5 -174t117 -246.5t39 -283q0 -74 -15.5 -157.5t-46 -168.5t-75.5 -165t-103.5 -143.5t-130 -105.5t-155.5 -52q-27 -4 -52.5 -6t-52.5 -11q-109 -8 -203 21t-173 84t-139 134t-101 171 t-59.5 192.5t-12.5 198.5zM164 909q0 -63 21.5 -141t60.5 -155.5t92 -151.5t114.5 -131.5t131 -92t139.5 -34.5q109 0 204 17.5t165.5 63.5t110.5 125.5t40 206.5q0 150 -50 283t-142.5 232.5t-219 157t-280.5 57.5q-86 0 -156.5 -39t-122 -101.5t-80 -140.5t-28.5 -156z M465 1608q45 86 92 120.5t108 18.5q12 -2 24.5 -7t23.5 -11l77 -43q8 -6 19.5 -9.5t19.5 -5.5q27 -8 48.5 4.5t37.5 44.5l45 -12q-41 -84 -90 -118t-104 -19q-10 2 -21.5 6t-19.5 10l-78 43q-12 6 -22.5 10.5t-16.5 6.5q-33 8 -55.5 -3.5t-40.5 -46.5z" />
<glyph unicode="&#xd6;" horiz-adv-x="1400" d="M41 774q8 143 56 283.5t136.5 250t212 177t281.5 67.5q160 0 279.5 -66.5t197.5 -174t117 -246.5t39 -283q0 -74 -15.5 -157.5t-46 -168.5t-75.5 -165t-103.5 -143.5t-130 -105.5t-155.5 -52q-27 -4 -52.5 -6t-52.5 -11q-109 -8 -203 21t-173 84t-139 134t-101 171 t-59.5 192.5t-12.5 198.5zM164 909q0 -63 21.5 -141t60.5 -155.5t92 -151.5t114.5 -131.5t131 -92t139.5 -34.5q109 0 204 17.5t165.5 63.5t110.5 125.5t40 206.5q0 150 -50 283t-142.5 232.5t-219 157t-280.5 57.5q-86 0 -156.5 -39t-122 -101.5t-80 -140.5t-28.5 -156z M387 1713q0 43 29.5 72.5t72.5 29.5t72.5 -29.5t29.5 -72.5t-29.5 -73t-72.5 -30t-72.5 30t-29.5 73zM835 1713q0 43 30 72.5t73 29.5t72.5 -29.5t29.5 -72.5t-29.5 -73t-72.5 -30t-73 30t-30 73z" />
<glyph unicode="&#xd7;" horiz-adv-x="1705" d="M293 141l469 469l-469 469l98 99l469 -469l469 469l98 -99l-469 -469l469 -469l-98 -96l-469 467l-469 -467z" />
<glyph unicode="&#xd8;" horiz-adv-x="1400" d="M41 774q8 143 56 283.5t136.5 250t212 177t281.5 67.5q160 0 279.5 -66.5t197.5 -174t117 -246.5t39 -283q0 -74 -15.5 -157.5t-46 -168.5t-75.5 -165t-103.5 -143.5t-130 -105.5t-155.5 -52q-27 -4 -52.5 -6t-52.5 -11q-109 -8 -203 21t-173 84t-139 134t-101 171 t-59.5 192.5t-12.5 198.5zM106 -61l1111 1706h92l-1108 -1706h-95zM164 909q0 -63 21.5 -141t60.5 -155.5t92 -151.5t114.5 -131.5t131 -92t139.5 -34.5q109 0 204 17.5t165.5 63.5t110.5 125.5t40 206.5q0 150 -50 283t-142.5 232.5t-219 157t-280.5 57.5q-86 0 -156.5 -39 t-122 -101.5t-80 -140.5t-28.5 -156z" />
<glyph unicode="&#xd9;" horiz-adv-x="1296" d="M41 1454l31 21q53 -12 111.5 -11.5t116.5 6t114.5 7.5t109.5 -11q0 -8 -15 -22t-35.5 -30.5t-41 -34t-29.5 -31.5q-31 -55 -52 -124t-35.5 -141.5t-20.5 -144.5t-6 -135q0 -92 20.5 -209t68.5 -221.5t128 -176t199 -71.5q123 0 211 48t144 128t81.5 183.5t25.5 211.5 q0 123 -45 224.5t-100 189.5t-100 166t-45 156q0 53 31.5 81.5t84.5 28.5q66 0 114 -64.5t79 -151.5t45 -176t14 -138q0 -43 5 -88t5 -90q0 -90 -13 -188.5t-43 -195t-76 -184.5t-111.5 -153.5t-150.5 -105.5t-193 -40q-178 0 -291 80t-177.5 204t-88 274.5t-23.5 293.5 q0 39 6 77t6 75q0 51 9.5 111.5t23.5 107.5q-4 29 0 60.5t4 62.5q0 39 -7 57.5t-20.5 29.5t-31 21.5t-37.5 32.5zM463 1774q0 25 18.5 43t43.5 18q20 0 41.5 -13.5t44.5 -35.5l221 -240h-59l-242 148q-39 25 -53.5 41t-14.5 39z" />
<glyph unicode="&#xda;" horiz-adv-x="1296" d="M41 1454l31 21q53 -12 111.5 -11.5t116.5 6t114.5 7.5t109.5 -11q0 -8 -15 -22t-35.5 -30.5t-41 -34t-29.5 -31.5q-31 -55 -52 -124t-35.5 -141.5t-20.5 -144.5t-6 -135q0 -92 20.5 -209t68.5 -221.5t128 -176t199 -71.5q123 0 211 48t144 128t81.5 183.5t25.5 211.5 q0 123 -45 224.5t-100 189.5t-100 166t-45 156q0 53 31.5 81.5t84.5 28.5q66 0 114 -64.5t79 -151.5t45 -176t14 -138q0 -43 5 -88t5 -90q0 -90 -13 -188.5t-43 -195t-76 -184.5t-111.5 -153.5t-150.5 -105.5t-193 -40q-178 0 -291 80t-177.5 204t-88 274.5t-23.5 293.5 q0 39 6 77t6 75q0 51 9.5 111.5t23.5 107.5q-4 29 0 60.5t4 62.5q0 39 -7 57.5t-20.5 29.5t-31 21.5t-37.5 32.5zM463 1532l221 240q23 23 44.5 36t41.5 13q25 0 43.5 -18.5t18.5 -43.5q0 -23 -14.5 -39t-53.5 -41l-241 -147h-60z" />
<glyph unicode="&#xdb;" horiz-adv-x="1296" d="M41 1454l31 21q53 -12 111.5 -11.5t116.5 6t114.5 7.5t109.5 -11q0 -8 -15 -22t-35.5 -30.5t-41 -34t-29.5 -31.5q-31 -55 -52 -124t-35.5 -141.5t-20.5 -144.5t-6 -135q0 -92 20.5 -209t68.5 -221.5t128 -176t199 -71.5q123 0 211 48t144 128t81.5 183.5t25.5 211.5 q0 123 -45 224.5t-100 189.5t-100 166t-45 156q0 53 31.5 81.5t84.5 28.5q66 0 114 -64.5t79 -151.5t45 -176t14 -138q0 -43 5 -88t5 -90q0 -90 -13 -188.5t-43 -195t-76 -184.5t-111.5 -153.5t-150.5 -105.5t-193 -40q-178 0 -291 80t-177.5 204t-88 274.5t-23.5 293.5 q0 39 6 77t6 75q0 51 9.5 111.5t23.5 107.5q-4 29 0 60.5t4 62.5q0 39 -7 57.5t-20.5 29.5t-31 21.5t-37.5 32.5zM444 1556l182 281h107l182 -281h-59l-176 158l-177 -158h-59z" />
<glyph unicode="&#xdc;" horiz-adv-x="1296" d="M41 1454l31 21q53 -12 111.5 -11.5t116.5 6t114.5 7.5t109.5 -11q0 -8 -15 -22t-35.5 -30.5t-41 -34t-29.5 -31.5q-31 -55 -52 -124t-35.5 -141.5t-20.5 -144.5t-6 -135q0 -92 20.5 -209t68.5 -221.5t128 -176t199 -71.5q123 0 211 48t144 128t81.5 183.5t25.5 211.5 q0 123 -45 224.5t-100 189.5t-100 166t-45 156q0 53 31.5 81.5t84.5 28.5q66 0 114 -64.5t79 -151.5t45 -176t14 -138q0 -43 5 -88t5 -90q0 -90 -13 -188.5t-43 -195t-76 -184.5t-111.5 -153.5t-150.5 -105.5t-193 -40q-178 0 -291 80t-177.5 204t-88 274.5t-23.5 293.5 q0 39 6 77t6 75q0 51 9.5 111.5t23.5 107.5q-4 29 0 60.5t4 62.5q0 39 -7 57.5t-20.5 29.5t-31 21.5t-37.5 32.5zM326 1706q0 43 29.5 72.5t72.5 29.5t72.5 -29.5t29.5 -72.5t-29.5 -73t-72.5 -30t-72.5 30t-29.5 73zM774 1706q0 43 30 72.5t73 29.5t72.5 -29.5t29.5 -72.5 t-29.5 -73t-72.5 -30t-73 30t-30 73z" />
<glyph unicode="&#xdd;" horiz-adv-x="1368" d="M41 1475h467l22 -15q-23 -31 -47 -49t-51 -41q-6 -35 -11 -64.5t-8 -59t-4 -61.5t-1 -71q0 -29 9 -59.5t21.5 -62t23.5 -63.5t15 -59t18.5 -33t24.5 -24q12 -20 15.5 -38.5t6.5 -37t9 -37t24 -38.5q29 -29 47.5 -69t43.5 -75q37 -49 82 -88t83 -86q10 -12 28 -27.5 t37 -31t39.5 -25.5t35.5 -10q33 0 59.5 38t48 97t35.5 131t24.5 139.5t14.5 123t4 79.5q0 86 -27.5 163t-59.5 141.5t-59.5 115.5t-27.5 84q0 27 2 58.5t12.5 57t32 43t60.5 17.5q16 0 32.5 -1t32.5 -1q31 0 55.5 -25.5t44 -66.5t32.5 -90t22.5 -97.5t13.5 -89.5t4 -63 q0 -35 -6 -67.5t-6 -67.5q0 -109 -37 -254.5t-102.5 -300t-155.5 -305t-198.5 -268t-228.5 -190.5t-247 -73q-25 0 -53.5 7t-53 21.5t-41 37t-16.5 53.5t18.5 52.5t44 35.5t55.5 21.5t54 7.5q41 0 83 -7.5t83 -7.5q39 0 98.5 19.5t116 52.5t97 75t40.5 89l-12 24 q-141 80 -265 201t-216 268.5t-144.5 312.5t-52.5 330q0 76 -38 152t-97 123zM499 1434l221 240q23 23 44.5 36t41.5 13q25 0 43.5 -18.5t18.5 -43.5q0 -23 -14.5 -39t-53.5 -41l-241 -147h-60z" />
<glyph unicode="&#xde;" horiz-adv-x="1103" d="M41 1454q10 16 35 16h219t219 -10q-10 -23 -26.5 -32l-33 -18t-31.5 -24.5t-24 -46.5q-10 -41 -15 -100t-9 -133q51 16 99 26.5t87 10.5q86 0 178 -17.5t168 -59.5t124 -112.5t48 -177.5q0 -84 -43 -141t-110.5 -100t-149.5 -75t-158.5 -61.5t-139 -62.5t-89.5 -78 q0 -53 7 -106.5t22 -77.5q14 -29 47 -37t57 -23l-16 -16q-59 0 -119.5 4t-120.5 4q-47 0 -92 -5t-90 -5q-16 0 -37 10q6 14 17.5 22.5t24.5 15.5t26.5 15.5t21.5 22.5q18 35 26.5 81t11.5 94t3 95v88v187q0 154 -5 304t-5 304q0 51 -6 81t-21.5 51.5t-39 39.5t-60.5 47z M373 913q0 -80 2 -158.5t3 -148t3 -127t2 -92.5v-35q51 49 125 96.5t142.5 97.5t116.5 107t48 129q0 66 -31.5 116t-81 84t-110 50.5t-117.5 16.5q-14 0 -31.5 -2.5t-33 -8.5t-25.5 -17t-10 -30v-82z" />
<glyph unicode="&#xdf;" horiz-adv-x="997" d="M27 1260q0 53 25.5 104t73.5 91t114.5 64.5t148.5 24.5q72 10 136.5 -12.5t115.5 -56.5q63 -47 111.5 -112t66 -141.5t-1 -160.5t-86.5 -170q-6 -8 -15 -15.5t-20 -17.5q72 -8 123 -41t83 -82t47.5 -106.5t15.5 -114.5q0 -84 -25 -151.5t-69 -126t-106.5 -108.5 t-135.5 -97q-25 -16 -67 -37l-85 -42.5t-79 -41t-48 -31.5l-2 -26q0 -33 2 -69t11.5 -68.5t30 -59.5t54.5 -41v-21q-23 -6 -45 -7t-45 -1h-239q-10 0 -15.5 9.5t-9.5 19.5q16 16 32.5 29.5t29.5 31.5q6 25 7 49.5t1 49.5q-2 4 -9.5 13t-13.5 9q-16 0 -27.5 -9t-27.5 -9 l-23 10v31q12 6 31 11t34 12t26.5 18.5t11.5 27.5l-12 1059q0 35 -19.5 63.5t-43 62.5t-43 77t-19.5 109zM166 1346q-2 -59 21.5 -101.5t51 -79.5t51 -76.5t23.5 -97.5q8 -193 13.5 -330t8.5 -240.5t5 -180t2 -150.5q0 -29 2 -64.5t12 -62.5q8 -4 23 -4q12 0 27.5 10.5 t25.5 14.5q76 49 139.5 104t108.5 117.5t69.5 134.5t24.5 158q0 45 -19.5 89t-53 79.5t-78.5 59.5t-99 28q-39 -16 -69.5 -23.5t-40.5 2.5q10 14 30 29l-2 2q14 2 36 18.5t44.5 37t41 42t28.5 33.5q53 74 66.5 149.5t-4 143t-58.5 125t-94 96.5q-29 20 -83 38.5t-109.5 18.5 t-98.5 -26.5t-45 -93.5z" />
<glyph unicode="&#xe0;" horiz-adv-x="978" d="M41 422q0 82 26.5 163t73.5 149.5t111.5 121.5t142.5 84q37 14 88.5 17.5t107.5 3.5t112.5 1t99.5 9l31 -31l-3 -274v-67.5v-108t2.5 -127t6.5 -123t9 -96.5t15 -48q10 -27 30.5 -43t43.5 -33l-8 -22q-18 -2 -34.5 -2h-33.5q-16 0 -46 -1t-61.5 0t-59 4t-36.5 13l3 37 q0 6 -4.5 16.5t-6.5 14.5q-6 2 -16 2q-20 0 -56 -18.5t-74 -40t-72 -39t-52 -17.5q-86 0 -150.5 43t-106.5 109.5t-62.5 147.5t-20.5 155zM225 547q0 -70 10.5 -145.5t41 -139t85 -105.5t142.5 -42q12 0 37.5 3t51 10t45 18.5t17.5 27.5q-14 135 -15 276.5t-1 276.5 q0 51 -7 83t-25.5 50.5t-50.5 24.5t-83 6q-59 0 -105 -36t-78 -88t-48.5 -111.5t-16.5 -108.5zM305 1262q0 25 18.5 43t43.5 18q20 0 41.5 -13.5t44.5 -35.5l221 -240h-59l-242 148q-39 25 -53.5 41t-14.5 39z" />
<glyph unicode="&#xe1;" horiz-adv-x="978" d="M41 422q0 82 26.5 163t73.5 149.5t111.5 121.5t142.5 84q37 14 88.5 17.5t107.5 3.5t112.5 1t99.5 9l31 -31l-3 -274v-67.5v-108t2.5 -127t6.5 -123t9 -96.5t15 -48q10 -27 30.5 -43t43.5 -33l-8 -22q-18 -2 -34.5 -2h-33.5q-16 0 -46 -1t-61.5 0t-59 4t-36.5 13l3 37 q0 6 -4.5 16.5t-6.5 14.5q-6 2 -16 2q-20 0 -56 -18.5t-74 -40t-72 -39t-52 -17.5q-86 0 -150.5 43t-106.5 109.5t-62.5 147.5t-20.5 155zM225 547q0 -70 10.5 -145.5t41 -139t85 -105.5t142.5 -42q12 0 37.5 3t51 10t45 18.5t17.5 27.5q-14 135 -15 276.5t-1 276.5 q0 51 -7 83t-25.5 50.5t-50.5 24.5t-83 6q-59 0 -105 -36t-78 -88t-48.5 -111.5t-16.5 -108.5zM305 1024l221 240q23 23 44.5 36t41.5 13q25 0 43.5 -18.5t18.5 -43.5q0 -23 -14.5 -39t-53.5 -41l-241 -147h-60z" />
<glyph unicode="&#xe2;" horiz-adv-x="978" d="M41 422q0 82 26.5 163t73.5 149.5t111.5 121.5t142.5 84q37 14 88.5 17.5t107.5 3.5t112.5 1t99.5 9l31 -31l-3 -274v-67.5v-108t2.5 -127t6.5 -123t9 -96.5t15 -48q10 -27 30.5 -43t43.5 -33l-8 -22q-18 -2 -34.5 -2h-33.5q-16 0 -46 -1t-61.5 0t-59 4t-36.5 13l3 37 q0 6 -4.5 16.5t-6.5 14.5q-6 2 -16 2q-20 0 -56 -18.5t-74 -40t-72 -39t-52 -17.5q-86 0 -150.5 43t-106.5 109.5t-62.5 147.5t-20.5 155zM225 547q0 -70 10.5 -145.5t41 -139t85 -105.5t142.5 -42q12 0 37.5 3t51 10t45 18.5t17.5 27.5q-14 135 -15 276.5t-1 276.5 q0 51 -7 83t-25.5 50.5t-50.5 24.5t-83 6q-59 0 -105 -36t-78 -88t-48.5 -111.5t-16.5 -108.5zM254 1044l182 281h107l182 -281h-59l-176 158l-177 -158h-59z" />
<glyph unicode="&#xe3;" horiz-adv-x="978" d="M41 422q0 82 26.5 163t73.5 149.5t111.5 121.5t142.5 84q37 14 88.5 17.5t107.5 3.5t112.5 1t99.5 9l31 -31l-3 -274v-67.5v-108t2.5 -127t6.5 -123t9 -96.5t15 -48q10 -27 30.5 -43t43.5 -33l-8 -22q-18 -2 -34.5 -2h-33.5q-16 0 -46 -1t-61.5 0t-59 4t-36.5 13l3 37 q0 6 -4.5 16.5t-6.5 14.5q-6 2 -16 2q-20 0 -56 -18.5t-74 -40t-72 -39t-52 -17.5q-86 0 -150.5 43t-106.5 109.5t-62.5 147.5t-20.5 155zM225 547q0 -70 10.5 -145.5t41 -139t85 -105.5t142.5 -42q12 0 37.5 3t51 10t45 18.5t17.5 27.5q-14 135 -15 276.5t-1 276.5 q0 51 -7 83t-25.5 50.5t-50.5 24.5t-83 6q-59 0 -105 -36t-78 -88t-48.5 -111.5t-16.5 -108.5zM242 1096q45 86 92 120.5t108 18.5q12 -2 24.5 -7t23.5 -11l77 -43q8 -6 19.5 -9.5t19.5 -5.5q27 -8 48.5 4.5t37.5 44.5l45 -12q-41 -84 -90 -118t-104 -19q-10 2 -21.5 6 t-19.5 10l-78 43q-12 6 -22.5 10.5t-16.5 6.5q-33 8 -55.5 -3.5t-40.5 -46.5z" />
<glyph unicode="&#xe4;" horiz-adv-x="978" d="M41 422q0 82 26.5 163t73.5 149.5t111.5 121.5t142.5 84q37 14 88.5 17.5t107.5 3.5t112.5 1t99.5 9l31 -31l-3 -274v-67.5v-108t2.5 -127t6.5 -123t9 -96.5t15 -48q10 -27 30.5 -43t43.5 -33l-8 -22q-18 -2 -34.5 -2h-33.5q-16 0 -46 -1t-61.5 0t-59 4t-36.5 13l3 37 q0 6 -4.5 16.5t-6.5 14.5q-6 2 -16 2q-20 0 -56 -18.5t-74 -40t-72 -39t-52 -17.5q-86 0 -150.5 43t-106.5 109.5t-62.5 147.5t-20.5 155zM162 1217q0 43 29.5 72.5t72.5 29.5t72.5 -29.5t29.5 -72.5t-29.5 -73t-72.5 -30t-72.5 30t-29.5 73zM225 547q0 -70 10.5 -145.5 t41 -139t85 -105.5t142.5 -42q12 0 37.5 3t51 10t45 18.5t17.5 27.5q-14 135 -15 276.5t-1 276.5q0 51 -7 83t-25.5 50.5t-50.5 24.5t-83 6q-59 0 -105 -36t-78 -88t-48.5 -111.5t-16.5 -108.5zM610 1217q0 43 30 72.5t73 29.5t72.5 -29.5t29.5 -72.5t-29.5 -73t-72.5 -30 t-73 30t-30 73z" />
<glyph unicode="&#xe5;" horiz-adv-x="978" d="M41 422q0 82 26.5 163t73.5 149.5t111.5 121.5t142.5 84q37 14 88.5 17.5t107.5 3.5t112.5 1t99.5 9l31 -31l-3 -274v-67.5v-108t2.5 -127t6.5 -123t9 -96.5t15 -48q10 -27 30.5 -43t43.5 -33l-8 -22q-18 -2 -34.5 -2h-33.5q-16 0 -46 -1t-61.5 0t-59 4t-36.5 13l3 37 q0 6 -4.5 16.5t-6.5 14.5q-6 2 -16 2q-20 0 -56 -18.5t-74 -40t-72 -39t-52 -17.5q-86 0 -150.5 43t-106.5 109.5t-62.5 147.5t-20.5 155zM225 547q0 -70 10.5 -145.5t41 -139t85 -105.5t142.5 -42q12 0 37.5 3t51 10t45 18.5t17.5 27.5q-14 135 -15 276.5t-1 276.5 q0 51 -7 83t-25.5 50.5t-50.5 24.5t-83 6q-59 0 -105 -36t-78 -88t-48.5 -111.5t-16.5 -108.5zM279 1290q0 43 16.5 82t45 67.5t67.5 45t82 16.5t81 -16.5t66.5 -45t45 -67.5t16.5 -82t-16.5 -81t-45 -66.5t-67.5 -45t-82 -16.5t-82 16.5t-66.5 45t-44 66.5t-16.5 81z M412 1292q0 -33 22.5 -56.5t55.5 -23.5t54.5 24t21.5 56q0 31 -21.5 53.5t-54.5 22.5t-55.5 -22.5t-22.5 -53.5z" />
<glyph unicode="&#xe6;" horiz-adv-x="1396" d="M18 287q0 109 60.5 173t152 98t199 42t201.5 6v2q-6 37 -21.5 85t-41 92t-62.5 75t-84 31t-62.5 -15.5t-18.5 -38t-1 -48t-8 -48t-42 -38t-100 -15.5q-23 0 -46 5t-27 34q-16 117 38 184.5t173 67.5q141 0 230 -55.5t142 -143.5q45 92 124 153.5t192 61.5 q49 0 105.5 -22.5t105.5 -58t81.5 -78.5t32.5 -84q0 -6 -23.5 -26.5t-52 -44.5t-57 -46.5t-37.5 -34.5q-16 -10 -66 -45t-105.5 -75t-98.5 -74.5t-43 -43.5q18 -49 59 -96t94.5 -84t112 -59.5t111.5 -22.5q27 0 51.5 7.5t50.5 7.5q4 0 17 -4l-18.5 -18.5t-12.5 -18.5 q-45 -23 -74.5 -40.5t-58.5 -29.5t-63.5 -18t-90.5 -6q-59 0 -106 17t-88 46v-4q-39 23 -55.5 26t-29 -5.5t-28.5 -24t-54 -30.5t-106.5 -26.5t-187.5 -11.5q-86 0 -153.5 25.5t-113.5 68.5t-71 101.5t-25 124.5zM225 352q0 -37 11.5 -86t43 -92t88 -72.5t144.5 -29.5 q12 0 43 9t62.5 21.5t56 25.5t22.5 24q-14 74 -35.5 149.5t-21.5 151.5q0 29 -7 46t-25.5 27.5t-50.5 13.5t-83 3q-59 0 -105 -19.5t-78 -48.5t-48.5 -62.5t-16.5 -60.5zM788 586q0 -10 2.5 -34t6.5 -47.5t13 -42t26 -18.5q29 0 78 37t96 89.5t80.5 105.5t33.5 88 q0 61 -42 106t-105 45q-61 0 -98 -33.5t-56.5 -85t-27 -108.5t-7.5 -102z" />
<glyph unicode="&#xe7;" horiz-adv-x="858" d="M41 512q0 80 28.5 163t80 150.5t124 110.5t158.5 43q119 0 183.5 -67.5t64.5 -184.5q0 -29 -22.5 -34t-45.5 -5q-70 0 -102.5 15.5t-45.5 38t-16.5 48t-9.5 48t-24.5 38t-63.5 15.5q-47 0 -78.5 -31t-51 -75t-28 -92t-8.5 -85q0 -86 23.5 -173t72 -155.5t120 -112.5 t169.5 -44q35 0 72 10t70.5 21.5t61.5 21.5t44 10q0 -31 -41 -68.5t-96 -69.5t-110.5 -54.5t-84.5 -22.5q-115 0 -198.5 46t-138 121t-81 172.5t-26.5 201.5zM219 -303l31 72q47 -31 94 -46.5t90 -15.5q47 0 67.5 16.5t20.5 55.5q0 35 -20.5 51t-65.5 16q-12 0 -24.5 -1 t-24.5 -3v158h53v-92q8 2 18.5 3t30.5 1q70 0 109 -36t39 -97q0 -68 -47 -106t-133 -38q-47 0 -105.5 15.5t-132.5 46.5z" />
<glyph unicode="&#xe8;" horiz-adv-x="796" d="M41 518q0 82 23.5 167t70.5 153.5t118 112.5t165 44q49 0 105.5 -22.5t105.5 -58t81.5 -78.5t32.5 -84q0 -6 -23.5 -26.5t-52 -44.5t-57 -46.5t-37.5 -34.5q-16 -10 -66 -45t-105.5 -75t-98.5 -74.5t-43 -43.5q18 -49 59 -96t94.5 -84t112 -59.5t111.5 -22.5 q27 0 51.5 7.5t50.5 7.5q4 0 17 -4l-18.5 -18.5t-12.5 -18.5q-45 -23 -74.5 -40.5t-58.5 -29.5t-63.5 -18t-90.5 -6q-102 0 -177 52t-124 132t-72.5 175t-23.5 179zM190 586q0 -10 2.5 -34t6.5 -47.5t13 -42t26 -18.5q29 0 78 37t96 89.5t80.5 105.5t33.5 88q0 61 -42 106 t-105 45q-61 0 -98 -33.5t-56.5 -85t-27 -108.5t-7.5 -102zM213 1262q0 25 18.5 43t43.5 18q20 0 41.5 -13.5t44.5 -35.5l221 -240h-59l-242 148q-39 25 -53.5 41t-14.5 39z" />
<glyph unicode="&#xe9;" horiz-adv-x="796" d="M41 518q0 82 23.5 167t70.5 153.5t118 112.5t165 44q49 0 105.5 -22.5t105.5 -58t81.5 -78.5t32.5 -84q0 -6 -23.5 -26.5t-52 -44.5t-57 -46.5t-37.5 -34.5q-16 -10 -66 -45t-105.5 -75t-98.5 -74.5t-43 -43.5q18 -49 59 -96t94.5 -84t112 -59.5t111.5 -22.5 q27 0 51.5 7.5t50.5 7.5q4 0 17 -4l-18.5 -18.5t-12.5 -18.5q-45 -23 -74.5 -40.5t-58.5 -29.5t-63.5 -18t-90.5 -6q-102 0 -177 52t-124 132t-72.5 175t-23.5 179zM190 586q0 -10 2.5 -34t6.5 -47.5t13 -42t26 -18.5q29 0 78 37t96 89.5t80.5 105.5t33.5 88q0 61 -42 106 t-105 45q-61 0 -98 -33.5t-56.5 -85t-27 -108.5t-7.5 -102zM215 1024l221 240q23 23 44.5 36t41.5 13q25 0 43.5 -18.5t18.5 -43.5q0 -23 -14.5 -39t-53.5 -41l-241 -147h-60z" />
<glyph unicode="&#xea;" horiz-adv-x="796" d="M41 518q0 82 23.5 167t70.5 153.5t118 112.5t165 44q49 0 105.5 -22.5t105.5 -58t81.5 -78.5t32.5 -84q0 -6 -23.5 -26.5t-52 -44.5t-57 -46.5t-37.5 -34.5q-16 -10 -66 -45t-105.5 -75t-98.5 -74.5t-43 -43.5q18 -49 59 -96t94.5 -84t112 -59.5t111.5 -22.5 q27 0 51.5 7.5t50.5 7.5q4 0 17 -4l-18.5 -18.5t-12.5 -18.5q-45 -23 -74.5 -40.5t-58.5 -29.5t-63.5 -18t-90.5 -6q-102 0 -177 52t-124 132t-72.5 175t-23.5 179zM164 1044l182 281h107l182 -281h-59l-176 158l-177 -158h-59zM190 586q0 -10 2.5 -34t6.5 -47.5t13 -42 t26 -18.5q29 0 78 37t96 89.5t80.5 105.5t33.5 88q0 61 -42 106t-105 45q-61 0 -98 -33.5t-56.5 -85t-27 -108.5t-7.5 -102z" />
<glyph unicode="&#xeb;" horiz-adv-x="796" d="M41 518q0 82 23.5 167t70.5 153.5t118 112.5t165 44q49 0 105.5 -22.5t105.5 -58t81.5 -78.5t32.5 -84q0 -6 -23.5 -26.5t-52 -44.5t-57 -46.5t-37.5 -34.5q-16 -10 -66 -45t-105.5 -75t-98.5 -74.5t-43 -43.5q18 -49 59 -96t94.5 -84t112 -59.5t111.5 -22.5 q27 0 51.5 7.5t50.5 7.5q4 0 17 -4l-18.5 -18.5t-12.5 -18.5q-45 -23 -74.5 -40.5t-58.5 -29.5t-63.5 -18t-90.5 -6q-102 0 -177 52t-124 132t-72.5 175t-23.5 179zM72 1217q0 43 29.5 72.5t72.5 29.5t72.5 -29.5t29.5 -72.5t-29.5 -73t-72.5 -30t-72.5 30t-29.5 73z M190 586q0 -10 2.5 -34t6.5 -47.5t13 -42t26 -18.5q29 0 78 37t96 89.5t80.5 105.5t33.5 88q0 61 -42 106t-105 45q-61 0 -98 -33.5t-56.5 -85t-27 -108.5t-7.5 -102zM520 1217q0 43 30 72.5t73 29.5t72.5 -29.5t29.5 -72.5t-29.5 -73t-72.5 -30t-73 30t-30 73z" />
<glyph unicode="&#xec;" horiz-adv-x="485" d="M41 895q0 12 15.5 19.5t36 12.5t41 7t30.5 6q18 6 41.5 19.5t46 26.5t42.5 24.5t30 11.5q6 -178 6 -354v-355v-76.5t8 -84.5t28.5 -74t61.5 -43l16 -23q-23 -4 -52.5 -6t-53.5 -2h-68h-78.5t-76.5 2t-64 6q12 23 36 31t40 31q12 18 19.5 60t9.5 90t2 93v70q0 16 -1 54 t-3 85t-5.5 100.5t-7.5 98.5t-10 77t-12 40q-16 18 -36 24t-40 23zM59 1262q0 25 18.5 43t43.5 18q20 0 41.5 -13.5t44.5 -35.5l221 -240h-59l-242 148q-39 25 -53.5 41t-14.5 39z" />
<glyph unicode="&#xed;" horiz-adv-x="485" d="M41 895q0 12 15.5 19.5t36 12.5t41 7t30.5 6q18 6 41.5 19.5t46 26.5t42.5 24.5t30 11.5q6 -178 6 -354v-355v-76.5t8 -84.5t28.5 -74t61.5 -43l16 -23q-23 -4 -52.5 -6t-53.5 -2h-68h-78.5t-76.5 2t-64 6q12 23 36 31t40 31q12 18 19.5 60t9.5 90t2 93v70q0 16 -1 54 t-3 85t-5.5 100.5t-7.5 98.5t-10 77t-12 40q-16 18 -36 24t-40 23zM59 1024l221 240q23 23 44.5 36t41.5 13q25 0 43.5 -18.5t18.5 -43.5q0 -23 -14.5 -39t-53.5 -41l-241 -147h-60z" />
<glyph unicode="&#xee;" horiz-adv-x="485" d="M8 1044l182 281h107l182 -281h-59l-176 158l-177 -158h-59zM41 895q0 12 15.5 19.5t36 12.5t41 7t30.5 6q18 6 41.5 19.5t46 26.5t42.5 24.5t30 11.5q6 -178 6 -354v-355v-76.5t8 -84.5t28.5 -74t61.5 -43l16 -23q-23 -4 -52.5 -6t-53.5 -2h-68h-78.5t-76.5 2t-64 6 q12 23 36 31t40 31q12 18 19.5 60t9.5 90t2 93v70q0 16 -1 54t-3 85t-5.5 100.5t-7.5 98.5t-10 77t-12 40q-16 18 -36 24t-40 23z" />
<glyph unicode="&#xef;" horiz-adv-x="485" d="M-84 1217q0 43 29.5 72.5t72.5 29.5t72.5 -29.5t29.5 -72.5t-29.5 -73t-72.5 -30t-72.5 30t-29.5 73zM41 895q0 12 15.5 19.5t36 12.5t41 7t30.5 6q18 6 41.5 19.5t46 26.5t42.5 24.5t30 11.5q6 -178 6 -354v-355v-76.5t8 -84.5t28.5 -74t61.5 -43l16 -23 q-23 -4 -52.5 -6t-53.5 -2h-68h-78.5t-76.5 2t-64 6q12 23 36 31t40 31q12 18 19.5 60t9.5 90t2 93v70q0 16 -1 54t-3 85t-5.5 100.5t-7.5 98.5t-10 77t-12 40q-16 18 -36 24t-40 23zM364 1217q0 43 30 72.5t73 29.5t72.5 -29.5t29.5 -72.5t-29.5 -73t-72.5 -30t-73 30 t-30 73z" />
<glyph unicode="&#xf0;" horiz-adv-x="1071" d="M41 582q0 70 30.5 148.5t83 146t122 111.5t147.5 44q55 0 104.5 -27.5t96.5 -63.5t95 -69.5t101 -46.5q4 8 6 15.5t2 17.5q0 33 -18 82t-29 82q-31 92 -69.5 167t-91.5 134l-203 -131h-60l199 192q-98 82 -235 134v30q25 0 58.5 -9t69 -22.5t68.5 -30t53 -30.5l35 -24 l82 77q23 23 44.5 36.5t41.5 13.5q25 0 43.5 -18.5t18.5 -43.5q0 -23 -14.5 -39t-53.5 -41l-78 -49q178 -147 259 -336.5t81 -441.5q0 -102 -31.5 -209t-93 -194t-150.5 -143t-204 -56q-106 0 -199.5 56t-162 142t-108.5 191.5t-40 204.5zM160 461q0 -55 18.5 -112.5 t52 -104.5t82.5 -78t111 -31q104 0 182 54.5t128 137.5t76 181t26 188q0 33 -36 58.5t-84 44t-98.5 29t-78.5 10.5q-74 0 -142.5 -31t-121 -82t-84 -119.5t-31.5 -144.5z" />
<glyph unicode="&#xf1;" horiz-adv-x="1015" d="M41 901q25 10 49.5 16.5t49 12.5t49 15t49.5 26q14 10 40 32.5t44 22.5q10 0 13 -13.5t-1 -21.5q0 -33 1 -63.5t7 -63.5q4 -10 15.5 -12t21.5 -2q35 16 80 36.5t92 38t93 29t87 11.5q43 0 82 -10.5t68.5 -33t47 -57.5t17.5 -82q0 -37 -2 -80t-14 -77q0 -78 -13.5 -152 t-13.5 -149q0 -45 -8 -90.5t-8 -88.5q0 -18 4 -36.5t16 -34.5q6 -29 25.5 -43.5t42.5 -26.5l-6 -20h-71t-101.5 2t-99.5 5t-60 7q0 18 13.5 34.5t23.5 33.5q8 18 17 63t18.5 103.5t16.5 124t13 126t9.5 108.5t3.5 73q0 92 -52.5 133t-140.5 41q-31 0 -59.5 -7.5t-59.5 -11.5 q-16 -10 -33.5 -14t-33 -9t-24.5 -17.5t-9 -39.5q0 -29 -1 -84t-1 -122.5t1 -141.5t3 -138.5t8 -113.5t15 -65q10 -20 28.5 -33.5t40.5 -20.5l21 -22q-2 -6 -18.5 -7t-36 0t-38 2t-24.5 1q-59 0 -117.5 -6t-116.5 -6q-29 0 -47 16q10 23 34 29t42 22q10 23 19.5 47.5 t9.5 50.5v203q0 92 -6 179t-6 180q0 57 -17.5 88.5t-37 49t-37 28t-17.5 26.5zM260 1096q45 86 92 120.5t108 18.5q12 -2 24.5 -7t23.5 -11l77 -43q8 -6 19.5 -9.5t19.5 -5.5q27 -8 48.5 4.5t37.5 44.5l45 -12q-41 -84 -90 -118t-104 -19q-10 2 -21.5 6t-19.5 10l-78 43 q-12 6 -22.5 10.5t-16.5 6.5q-33 8 -55.5 -3.5t-40.5 -46.5z" />
<glyph unicode="&#xf2;" horiz-adv-x="987" d="M41 436q0 92 30.5 183.5t87 165t138.5 118.5t184 45q229 0 347 -127t118 -352q0 -92 -33.5 -185.5t-93 -168t-144.5 -121.5t-186 -47q-98 0 -180 42t-141 110.5t-93 156.5t-34 180zM131 592q0 -82 38 -170t100.5 -162t143.5 -121t167 -47q25 0 48 2t48 2q27 14 56.5 25.5 t45.5 40.5q53 43 66.5 99t13.5 122q0 74 -44 148.5t-110.5 136t-146.5 99.5t-149 38q-43 0 -91.5 -15.5t-90.5 -43t-68.5 -66.5t-26.5 -88zM309 1262q0 25 18.5 43t43.5 18q20 0 41.5 -13.5t44.5 -35.5l221 -240h-59l-242 148q-39 25 -53.5 41t-14.5 39z" />
<glyph unicode="&#xf3;" horiz-adv-x="987" d="M41 436q0 92 30.5 183.5t87 165t138.5 118.5t184 45q229 0 347 -127t118 -352q0 -92 -33.5 -185.5t-93 -168t-144.5 -121.5t-186 -47q-98 0 -180 42t-141 110.5t-93 156.5t-34 180zM131 592q0 -82 38 -170t100.5 -162t143.5 -121t167 -47q25 0 48 2t48 2q27 14 56.5 25.5 t45.5 40.5q53 43 66.5 99t13.5 122q0 74 -44 148.5t-110.5 136t-146.5 99.5t-149 38q-43 0 -91.5 -15.5t-90.5 -43t-68.5 -66.5t-26.5 -88zM309 1024l221 240q23 23 44.5 36t41.5 13q25 0 43.5 -18.5t18.5 -43.5q0 -23 -14.5 -39t-53.5 -41l-241 -147h-60z" />
<glyph unicode="&#xf4;" horiz-adv-x="987" d="M41 436q0 92 30.5 183.5t87 165t138.5 118.5t184 45q229 0 347 -127t118 -352q0 -92 -33.5 -185.5t-93 -168t-144.5 -121.5t-186 -47q-98 0 -180 42t-141 110.5t-93 156.5t-34 180zM131 592q0 -82 38 -170t100.5 -162t143.5 -121t167 -47q25 0 48 2t48 2q27 14 56.5 25.5 t45.5 40.5q53 43 66.5 99t13.5 122q0 74 -44 148.5t-110.5 136t-146.5 99.5t-149 38q-43 0 -91.5 -15.5t-90.5 -43t-68.5 -66.5t-26.5 -88zM258 1044l182 281h107l182 -281h-59l-176 158l-177 -158h-59z" />
<glyph unicode="&#xf5;" horiz-adv-x="987" d="M41 436q0 92 30.5 183.5t87 165t138.5 118.5t184 45q229 0 347 -127t118 -352q0 -92 -33.5 -185.5t-93 -168t-144.5 -121.5t-186 -47q-98 0 -180 42t-141 110.5t-93 156.5t-34 180zM131 592q0 -82 38 -170t100.5 -162t143.5 -121t167 -47q25 0 48 2t48 2q27 14 56.5 25.5 t45.5 40.5q53 43 66.5 99t13.5 122q0 74 -44 148.5t-110.5 136t-146.5 99.5t-149 38q-43 0 -91.5 -15.5t-90.5 -43t-68.5 -66.5t-26.5 -88zM246 1096q45 86 92 120.5t108 18.5q12 -2 24.5 -7t23.5 -11l77 -43q8 -6 19.5 -9.5t19.5 -5.5q27 -8 48.5 4.5t37.5 44.5l45 -12 q-41 -84 -90 -118t-104 -19q-10 2 -21.5 6t-19.5 10l-78 43q-12 6 -22.5 10.5t-16.5 6.5q-33 8 -55.5 -3.5t-40.5 -46.5z" />
<glyph unicode="&#xf6;" horiz-adv-x="987" d="M41 436q0 92 30.5 183.5t87 165t138.5 118.5t184 45q229 0 347 -127t118 -352q0 -92 -33.5 -185.5t-93 -168t-144.5 -121.5t-186 -47q-98 0 -180 42t-141 110.5t-93 156.5t-34 180zM131 592q0 -82 38 -170t100.5 -162t143.5 -121t167 -47q25 0 48 2t48 2q27 14 56.5 25.5 t45.5 40.5q53 43 66.5 99t13.5 122q0 74 -44 148.5t-110.5 136t-146.5 99.5t-149 38q-43 0 -91.5 -15.5t-90.5 -43t-68.5 -66.5t-26.5 -88zM166 1217q0 43 29.5 72.5t72.5 29.5t72.5 -29.5t29.5 -72.5t-29.5 -73t-72.5 -30t-72.5 30t-29.5 73zM614 1217q0 43 30 72.5 t73 29.5t72.5 -29.5t29.5 -72.5t-29.5 -73t-72.5 -30t-73 30t-30 73z" />
<glyph unicode="&#xf7;" horiz-adv-x="1705" d="M254 541v139h1198v-139h-1198zM729 242q0 51 37 88t88 37t88 -37t37 -88t-37 -88t-88 -37q-53 0 -89 35.5t-36 89.5zM729 979q0 51 37 89t88 38t88 -38t37 -89t-37 -88t-88 -37t-88 37t-37 88z" />
<glyph unicode="&#xf8;" horiz-adv-x="987" d="M41 436q0 92 30.5 183.5t87 165t138.5 118.5t184 45q229 0 347 -127t118 -352q0 -92 -33.5 -185.5t-93 -168t-144.5 -121.5t-186 -47q-98 0 -180 42t-141 110.5t-93 156.5t-34 180zM75 -28l693 969h124l-691 -969h-126zM131 592q0 -82 38 -170t100.5 -162t143.5 -121 t167 -47q25 0 48 2t48 2q27 14 56.5 25.5t45.5 40.5q53 43 66.5 99t13.5 122q0 74 -44 148.5t-110.5 136t-146.5 99.5t-149 38q-43 0 -91.5 -15.5t-90.5 -43t-68.5 -66.5t-26.5 -88z" />
<glyph unicode="&#xf9;" horiz-adv-x="1009" d="M41 954q6 2 30.5 7.5t55.5 11.5t59.5 10t42.5 8q33 10 57.5 33t55.5 35l6 4q25 0 25 -27q0 -4 -3 -14t-7.5 -20.5t-8.5 -20.5t-6 -12q2 -82 -8 -164t-22.5 -163t-23.5 -164t-11 -165q0 -96 52 -144t150 -48q12 0 45 7t68 17.5t62.5 22.5t27.5 25v126q0 106 -2 216 t-12 217q-4 45 -21.5 88t-60.5 61q-12 6 -28.5 13.5t-16.5 25.5q10 8 45 18.5t77 22.5t83 27.5t65 33.5q12 12 27 13l18 -19q0 -193 2 -384t2 -384q0 -20 3 -51t11.5 -62.5t19.5 -58t30 -39.5q10 -8 24.5 -12t14.5 -18v-9l-29 -2h-168q-10 0 -30.5 -1t-30.5 3 q-14 6 -16.5 19.5t-2.5 29t-5 26.5t-28 11q-10 0 -50 -18t-91 -39.5t-106.5 -40t-94.5 -18.5q-51 0 -95 14t-77.5 44t-53 72t-19.5 97q0 72 9 143.5t19.5 143t19.5 143.5t9 143q0 53 -13.5 78t-30.5 37t-30.5 21.5t-13.5 29.5zM319 1262q0 25 18.5 43t43.5 18 q20 0 41.5 -13.5t44.5 -35.5l221 -240h-59l-242 148q-39 25 -53.5 41t-14.5 39z" />
<glyph unicode="&#xfa;" horiz-adv-x="1009" d="M41 954q6 2 30.5 7.5t55.5 11.5t59.5 10t42.5 8q33 10 57.5 33t55.5 35l6 4q25 0 25 -27q0 -4 -3 -14t-7.5 -20.5t-8.5 -20.5t-6 -12q2 -82 -8 -164t-22.5 -163t-23.5 -164t-11 -165q0 -96 52 -144t150 -48q12 0 45 7t68 17.5t62.5 22.5t27.5 25v126q0 106 -2 216 t-12 217q-4 45 -21.5 88t-60.5 61q-12 6 -28.5 13.5t-16.5 25.5q10 8 45 18.5t77 22.5t83 27.5t65 33.5q12 12 27 13l18 -19q0 -193 2 -384t2 -384q0 -20 3 -51t11.5 -62.5t19.5 -58t30 -39.5q10 -8 24.5 -12t14.5 -18v-9l-29 -2h-168q-10 0 -30.5 -1t-30.5 3 q-14 6 -16.5 19.5t-2.5 29t-5 26.5t-28 11q-10 0 -50 -18t-91 -39.5t-106.5 -40t-94.5 -18.5q-51 0 -95 14t-77.5 44t-53 72t-19.5 97q0 72 9 143.5t19.5 143t19.5 143.5t9 143q0 53 -13.5 78t-30.5 37t-30.5 21.5t-13.5 29.5zM319 1024l221 240q23 23 44.5 36t41.5 13 q25 0 43.5 -18.5t18.5 -43.5q0 -23 -14.5 -39t-53.5 -41l-241 -147h-60z" />
<glyph unicode="&#xfb;" horiz-adv-x="1009" d="M41 954q6 2 30.5 7.5t55.5 11.5t59.5 10t42.5 8q33 10 57.5 33t55.5 35l6 4q25 0 25 -27q0 -4 -3 -14t-7.5 -20.5t-8.5 -20.5t-6 -12q2 -82 -8 -164t-22.5 -163t-23.5 -164t-11 -165q0 -96 52 -144t150 -48q12 0 45 7t68 17.5t62.5 22.5t27.5 25v126q0 106 -2 216 t-12 217q-4 45 -21.5 88t-60.5 61q-12 6 -28.5 13.5t-16.5 25.5q10 8 45 18.5t77 22.5t83 27.5t65 33.5q12 12 27 13l18 -19q0 -193 2 -384t2 -384q0 -20 3 -51t11.5 -62.5t19.5 -58t30 -39.5q10 -8 24.5 -12t14.5 -18v-9l-29 -2h-168q-10 0 -30.5 -1t-30.5 3 q-14 6 -16.5 19.5t-2.5 29t-5 26.5t-28 11q-10 0 -50 -18t-91 -39.5t-106.5 -40t-94.5 -18.5q-51 0 -95 14t-77.5 44t-53 72t-19.5 97q0 72 9 143.5t19.5 143t19.5 143.5t9 143q0 53 -13.5 78t-30.5 37t-30.5 21.5t-13.5 29.5zM268 1044l182 281h107l182 -281h-59l-176 158 l-177 -158h-59z" />
<glyph unicode="&#xfc;" horiz-adv-x="1009" d="M41 954q6 2 30.5 7.5t55.5 11.5t59.5 10t42.5 8q33 10 57.5 33t55.5 35l6 4q25 0 25 -27q0 -4 -3 -14t-7.5 -20.5t-8.5 -20.5t-6 -12q2 -82 -8 -164t-22.5 -163t-23.5 -164t-11 -165q0 -96 52 -144t150 -48q12 0 45 7t68 17.5t62.5 22.5t27.5 25v126q0 106 -2 216 t-12 217q-4 45 -21.5 88t-60.5 61q-12 6 -28.5 13.5t-16.5 25.5q10 8 45 18.5t77 22.5t83 27.5t65 33.5q12 12 27 13l18 -19q0 -193 2 -384t2 -384q0 -20 3 -51t11.5 -62.5t19.5 -58t30 -39.5q10 -8 24.5 -12t14.5 -18v-9l-29 -2h-168q-10 0 -30.5 -1t-30.5 3 q-14 6 -16.5 19.5t-2.5 29t-5 26.5t-28 11q-10 0 -50 -18t-91 -39.5t-106.5 -40t-94.5 -18.5q-51 0 -95 14t-77.5 44t-53 72t-19.5 97q0 72 9 143.5t19.5 143t19.5 143.5t9 143q0 53 -13.5 78t-30.5 37t-30.5 21.5t-13.5 29.5zM179 1217q0 43 29.5 72.5t72.5 29.5 t72.5 -29.5t29.5 -72.5t-29.5 -73t-72.5 -30t-72.5 30t-29.5 73zM627 1217q0 43 30 72.5t73 29.5t72.5 -29.5t29.5 -72.5t-29.5 -73t-72.5 -30t-73 30t-30 73z" />
<glyph unicode="&#xfd;" horiz-adv-x="950" d="M43 883q0 16 12.5 23t28.5 10.5t34.5 4.5t31.5 7q39 6 73.5 21.5t69.5 31.5q14 6 26.5 19.5t28.5 13.5l6 -2l2 -19q0 -35 -11 -71.5t-11 -77.5q0 -35 4 -72t4 -72q0 -39 17.5 -97t46 -122.5t66.5 -130t80 -118t85 -86t84 -33.5q14 6 27.5 35.5t24.5 71.5t19.5 91 t14.5 93.5t9 78t3 45.5q0 102 -37 171t-80 117t-79.5 84t-36.5 75q0 31 28.5 51.5t67.5 20.5q53 0 91 -29t62.5 -74t38 -100.5t19.5 -109.5t7 -101t1 -74q0 -35 -13.5 -70.5t-13.5 -72.5q-14 -31 -22 -72t-17.5 -86t-20.5 -91t-32 -85q-43 -82 -88 -175t-104.5 -173 t-140 -133.5t-195.5 -53.5q-14 0 -37.5 3.5t-47.5 11.5t-40 22.5t-16 34.5q0 43 33.5 66.5t79.5 35t95.5 13.5t77.5 2q31 0 73 20.5t82 50t67.5 64.5t27.5 63q0 16 -17.5 27.5t-29.5 18.5q-57 27 -110.5 71.5t-97.5 100t-79.5 116t-58.5 117.5q-33 31 -48 98.5t-32.5 143 t-46.5 146.5t-86 110zM389 1071l221 240q23 23 44.5 36t41.5 13q25 0 43.5 -18.5t18.5 -43.5q0 -23 -14.5 -39t-53.5 -40l-241 -148h-60z" />
<glyph unicode="&#xfe;" horiz-adv-x="997" d="M41 1391l29 28q51 0 102 17.5t86 58.5q16 6 28.5 18.5t30.5 12.5h9l-2 -533q0 -10 1 -26.5t4 -31.5t10 -25.5t21 -10.5q33 14 70 30.5t75 31t75.5 23.5t72.5 9q82 0 139.5 -35.5t94.5 -93t53 -129t16 -141.5q0 -96 -24.5 -174t-67.5 -144.5t-103.5 -125t-133.5 -111.5 q-25 -18 -66 -40t-84 -44.5t-79 -43t-48 -32.5l-2 -26q0 -33 2 -69t11.5 -68.5t30 -59.5t54.5 -41v-21q-23 -6 -45 -7t-45 -1h-239q-10 0 -15.5 9.5t-9.5 19.5q16 16 32.5 29.5t29.5 31.5q6 25 7 49.5t1 49.5q-2 4 -9.5 13t-13.5 9q-16 0 -27.5 -9t-27.5 -9l-23 10v31 q12 6 31 11t34 12t26.5 18.5t11.5 27.5v91v173.5t-1 225.5t-4 250t-6 247.5t-8.5 218t-12.5 161t-15 73.5q-16 20 -38 32.5t-38 29.5zM334 694q0 -152 4 -301t4 -303q0 -29 2 -64.5t12 -62.5q8 -4 23 -4q12 0 27.5 9t25.5 16q76 57 137.5 119.5t105.5 135t68.5 155.5 t24.5 181q0 53 -20.5 106.5t-55.5 95.5t-83 67.5t-103 25.5q-18 0 -45 -3t-52.5 -11t-47 -19.5t-27.5 -29.5v-113z" />
<glyph unicode="&#xff;" horiz-adv-x="950" d="M43 883q0 16 12.5 23t28.5 10.5t34.5 4.5t31.5 7q39 6 73.5 21.5t69.5 31.5q14 6 26.5 19.5t28.5 13.5l6 -2l2 -19q0 -35 -11 -71.5t-11 -77.5q0 -35 4 -72t4 -72q0 -39 17.5 -97t46 -122.5t66.5 -130t80 -118t85 -86t84 -33.5q14 6 27.5 35.5t24.5 71.5t19.5 91 t14.5 93.5t9 78t3 45.5q0 102 -37 171t-80 117t-79.5 84t-36.5 75q0 31 28.5 51.5t67.5 20.5q53 0 91 -29t62.5 -74t38 -100.5t19.5 -109.5t7 -101t1 -74q0 -35 -13.5 -70.5t-13.5 -72.5q-14 -31 -22 -72t-17.5 -86t-20.5 -91t-32 -85q-43 -82 -88 -175t-104.5 -173 t-140 -133.5t-195.5 -53.5q-14 0 -37.5 3.5t-47.5 11.5t-40 22.5t-16 34.5q0 43 33.5 66.5t79.5 35t95.5 13.5t77.5 2q31 0 73 20.5t82 50t67.5 64.5t27.5 63q0 16 -17.5 27.5t-29.5 18.5q-57 27 -110.5 71.5t-97.5 100t-79.5 116t-58.5 117.5q-33 31 -48 98.5t-32.5 143 t-46.5 146.5t-86 110zM150 1217q0 43 29.5 72.5t72.5 29.5t72.5 -29.5t29.5 -72.5t-29.5 -73t-72.5 -30t-72.5 30t-29.5 73zM598 1217q0 43 29.5 72.5t72.5 29.5t73 -29.5t30 -72.5t-30 -73t-73 -30t-72.5 30t-29.5 73z" />
<glyph unicode="&#x152;" horiz-adv-x="2297" d="M41 774q8 143 56 283.5t136.5 250t212 177t281.5 67.5q88 0 164 -20.5t139 -58.5q14 4 39 -11.5t41 -15.5q35 0 57.5 3t40 7t33.5 7t37 3h85h119.5h134.5t130 2t109.5 4.5t68.5 6.5q18 4 44 21.5t38 17.5q16 0 25.5 -13.5t13.5 -25.5q25 -72 47.5 -140.5t50.5 -140.5 l2 -8q0 -12 -10 -24.5t-22 -12.5q-14 0 -23.5 10.5t-22.5 14.5q-31 39 -92 80.5t-132.5 75.5t-141.5 55.5t-115 21.5q-31 0 -69.5 -3t-73.5 -15.5t-59.5 -37t-24.5 -65.5v-377q0 -14 17.5 -21t41 -9t47 -2h35.5q76 0 147.5 13t142.5 33.5t140.5 47t136.5 51.5q4 -10 7.5 -41 t4.5 -67.5t1 -69.5v-47l2 -92l-15 -29q-90 33 -171.5 56.5t-163.5 39t-168 21.5t-183 6l-14 -2q-6 -12 -8 -58.5t-2 -101.5v-111.5v-91.5q0 -55 5 -108.5t5 -110.5q0 -41 19.5 -69.5t49 -46t65.5 -25.5t71 -8q27 0 73 7t94 18t91 26.5t63 32.5q63 23 117.5 54.5t110.5 63.5 q8 6 23.5 20.5t32.5 30t31.5 26.5t24.5 11t19.5 -9t9.5 -19q0 -2 -21.5 -41t-48 -87t-50 -93t-29.5 -58q-4 -10 -7.5 -28.5t-7.5 -37t-12 -31.5t-25 -13q-10 0 -16 8t-14 14q-16 12 -43 18.5t-56.5 10.5t-59.5 5t-48 1q-197 0 -390.5 1t-390.5 1q-4 4 -4 10q0 8 11.5 16.5 t26 17.5t28.5 21.5t20 30.5q6 23 12.5 42.5t10.5 41.5q-63 -78 -141 -130t-174 -62q-27 -4 -52.5 -6t-52.5 -11q-109 -8 -203 21t-173 84t-139 134t-101 171t-59.5 192.5t-12.5 198.5zM164 909q0 -63 21.5 -141t60.5 -155.5t92 -151.5t114.5 -131.5t131 -92t139.5 -34.5 q135 0 245.5 26.5t182.5 102.5v332q0 31 -2 87t-5 122.5t-5 132t-4 114.5q-45 74 -93.5 118t-106.5 68.5t-133 32t-171 7.5q-86 0 -169 -39t-149.5 -101.5t-107.5 -140.5t-41 -156z" />
<glyph unicode="&#x153;" horiz-adv-x="1611" d="M41 436q0 92 30.5 183.5t87 165t138.5 118.5t184 45q154 0 257.5 -58.5t156.5 -168.5q20 55 51 105.5t74 88t97 59t120 21.5q49 0 105.5 -22.5t105.5 -58t82 -78.5t33 -84q0 -6 -23.5 -26.5t-52.5 -44.5t-57.5 -46.5t-36.5 -34.5q-16 -10 -66.5 -45t-106 -75t-98.5 -74.5 t-43 -43.5q18 -49 59.5 -96t94.5 -84t111.5 -59.5t111.5 -22.5q27 0 51.5 7.5t51.5 7.5q4 0 16 -4l-18.5 -18.5t-12.5 -18.5q-45 -23 -74.5 -40.5t-58.5 -29.5t-63.5 -18t-90.5 -6q-68 0 -122 22.5t-98 62t-76.5 91t-55.5 110.5q-25 -66 -65.5 -124t-94 -101t-118 -68.5 t-138.5 -25.5q-98 0 -180 42t-141 110.5t-93 156.5t-34 180zM131 592q0 -82 38 -170t100.5 -162t143.5 -121t167 -47q25 0 48 2t48 2q27 14 56.5 25.5t45.5 40.5q53 43 66.5 99t13.5 122q0 74 -44 148.5t-110.5 136t-146.5 99.5t-149 38q-43 0 -91.5 -15.5t-90.5 -43 t-68.5 -66.5t-26.5 -88zM1010 586q0 -10 2 -34t6 -47.5t13 -42t26 -18.5q29 0 78 37t96 89.5t81 105.5t34 88q0 61 -42 106t-106 45q-61 0 -98 -33.5t-56.5 -85t-26.5 -108.5t-7 -102z" />
<glyph unicode="&#x178;" horiz-adv-x="1368" d="M41 1475h467l22 -15q-23 -31 -47 -49t-51 -41q-6 -35 -11 -64.5t-8 -59t-4 -61.5t-1 -71q0 -29 9 -59.5t21.5 -62t23.5 -63.5t15 -59t18.5 -33t24.5 -24q12 -20 15.5 -38.5t6.5 -37t9 -37t24 -38.5q29 -29 47.5 -69t43.5 -75q37 -49 82 -88t83 -86q10 -12 28 -27.5 t37 -31t39.5 -25.5t35.5 -10q33 0 59.5 38t48 97t35.5 131t24.5 139.5t14.5 123t4 79.5q0 86 -27.5 163t-59.5 141.5t-59.5 115.5t-27.5 84q0 27 2 58.5t12.5 57t32 43t60.5 17.5q16 0 32.5 -1t32.5 -1q31 0 55.5 -25.5t44 -66.5t32.5 -90t22.5 -97.5t13.5 -89.5t4 -63 q0 -35 -6 -67.5t-6 -67.5q0 -109 -37 -254.5t-102.5 -300t-155.5 -305t-198.5 -268t-228.5 -190.5t-247 -73q-25 0 -53.5 7t-53 21.5t-41 37t-16.5 53.5t18.5 52.5t44 35.5t55.5 21.5t54 7.5q41 0 83 -7.5t83 -7.5q39 0 98.5 19.5t116 52.5t97 75t40.5 89l-12 24 q-141 80 -265 201t-216 268.5t-144.5 312.5t-52.5 330q0 76 -38 152t-97 123zM353 1663q0 43 29.5 72.5t72.5 29.5t72.5 -29.5t29.5 -72.5t-29.5 -73t-72.5 -30t-72.5 30t-29.5 73zM801 1663q0 43 30 72.5t73 29.5t72.5 -29.5t29.5 -72.5t-29.5 -73t-72.5 -30t-73 30t-30 73 z" />
<glyph unicode="&#x2c6;" horiz-adv-x="819" d="M174 1044l182 281h107l182 -281h-59l-176 158l-177 -158h-59z" />
<glyph unicode="&#x2dc;" horiz-adv-x="819" d="M162 1096q45 86 92 120.5t108 18.5q12 -2 24.5 -7t23.5 -11l77 -43q8 -6 19.5 -9.5t19.5 -5.5q27 -8 48.5 4.5t37.5 44.5l45 -12q-41 -84 -90 -118t-104 -19q-10 2 -21.5 6t-19.5 10l-78 43q-12 6 -22.5 10.5t-16.5 6.5q-33 8 -55.5 -3.5t-40.5 -46.5z" />
<glyph unicode="&#x2000;" horiz-adv-x="1007" />
<glyph unicode="&#x2001;" horiz-adv-x="2015" />
<glyph unicode="&#x2002;" horiz-adv-x="1007" />
<glyph unicode="&#x2003;" horiz-adv-x="2015" />
<glyph unicode="&#x2004;" horiz-adv-x="671" />
<glyph unicode="&#x2005;" horiz-adv-x="503" />
<glyph unicode="&#x2006;" horiz-adv-x="335" />
<glyph unicode="&#x2007;" horiz-adv-x="335" />
<glyph unicode="&#x2008;" horiz-adv-x="251" />
<glyph unicode="&#x2009;" horiz-adv-x="403" />
<glyph unicode="&#x200a;" horiz-adv-x="111" />
<glyph unicode="&#x2010;" horiz-adv-x="673" d="M90 399v174h492v-174h-492z" />
<glyph unicode="&#x2011;" horiz-adv-x="673" d="M90 399v174h492v-174h-492z" />
<glyph unicode="&#x2012;" horiz-adv-x="673" d="M90 399v174h492v-174h-492z" />
<glyph unicode="&#x2013;" d="M0 424v125h1024v-125h-1024z" />
<glyph unicode="&#x2014;" horiz-adv-x="2048" d="M0 424v125h2048v-125h-2048z" />
<glyph unicode="&#x2018;" horiz-adv-x="266" d="M33 1182q0 45 8 97t28.5 100t51.5 87t78 60q8 4 12 4q10 0 13 -7t3 -18q0 -12 -11 -22t-23.5 -23.5t-23.5 -35t-11 -56.5q0 -29 12 -51.5t25.5 -46t25.5 -47t12 -52.5q0 -45 -32.5 -81.5t-79.5 -36.5q-6 0 -13.5 3t-11.5 3q-31 20 -47 54t-16 69z" />
<glyph unicode="&#x2019;" horiz-adv-x="266" d="M33 1411q0 45 32.5 82t79.5 37q6 0 13.5 -3t11.5 -3q31 -20 47 -54t16 -69q0 -45 -8 -97.5t-28.5 -100.5t-52 -87t-76.5 -59q-8 -4 -13 -4q-10 0 -13 7t-3 17q0 12 11 22.5t23.5 24t24 35t11.5 55.5q0 27 -12.5 50.5t-26 47t-25.5 47t-12 52.5z" />
<glyph unicode="&#x201a;" horiz-adv-x="266" d="M33 80q0 45 32.5 82t79.5 37q6 0 13.5 -3t11.5 -3q31 -20 47 -54.5t16 -68.5q0 -45 -8 -97.5t-28.5 -100.5t-52 -87t-76.5 -59q-8 -4 -13 -5q-10 0 -13 7.5t-3 17.5q0 12 11 22.5t23.5 23.5t24 34.5t11.5 56.5q0 27 -12.5 50.5t-26 47t-25.5 47t-12 52.5z" />
<glyph unicode="&#x201c;" horiz-adv-x="559" d="M33 1196q0 45 8 97.5t28.5 100.5t51.5 87t78 59q8 4 12 4q10 0 13 -7t3 -17q0 -12 -11 -22.5t-23.5 -24t-23.5 -35t-11 -56.5q0 -29 12 -51t25.5 -45.5t25.5 -47.5t12 -52q0 -45 -32.5 -82t-79.5 -37q-6 0 -13.5 3t-11.5 3q-31 20 -47 54t-16 69zM309 1196q0 45 8.5 97.5 t29 100.5t51 87t77.5 59q8 4 12 4q10 0 13.5 -7t3.5 -17q0 -12 -11.5 -22.5t-23.5 -24t-23.5 -35t-11.5 -56.5q0 -29 12.5 -51t25.5 -45.5t25.5 -47.5t12.5 -52q0 -45 -33 -82t-80 -37q-6 0 -13 3t-11 3q-31 20 -47.5 54t-16.5 69z" />
<glyph unicode="&#x201d;" horiz-adv-x="559" d="M33 1425q0 45 32.5 82t79.5 37q6 0 13.5 -3t11.5 -3q31 -20 47 -54t16 -69q0 -45 -8 -97t-28.5 -100.5t-52 -87t-76.5 -59.5q-8 -4 -13 -4q-10 0 -13 7t-3 18q0 12 11 22t23.5 23.5t24 35t11.5 56.5q0 27 -12.5 50.5t-26 47t-25.5 47t-12 51.5zM309 1425q0 45 33 82 t80 37q6 0 13 -3t11 -3q31 -20 47.5 -54t16.5 -69q0 -45 -8 -97t-28.5 -100.5t-52.5 -87t-77 -59.5q-8 -4 -12 -4q-10 0 -13.5 7t-3.5 18q0 12 11.5 22t23.5 23.5t23.5 35t11.5 56.5q0 27 -12.5 50.5t-25.5 47t-25.5 47t-12.5 51.5z" />
<glyph unicode="&#x201e;" horiz-adv-x="559" d="M33 80q0 45 32.5 82t79.5 37q6 0 13.5 -3t11.5 -3q31 -20 47 -54.5t16 -68.5q0 -45 -8 -97.5t-28.5 -100.5t-52 -87t-76.5 -59q-8 -4 -13 -5q-10 0 -13 7.5t-3 17.5q0 12 11 22.5t23.5 23.5t24 34.5t11.5 56.5q0 27 -12.5 50.5t-26 47t-25.5 47t-12 52.5zM309 80 q0 45 33 82t80 37q6 0 13 -3t11 -3q31 -20 47.5 -54.5t16.5 -68.5q0 -45 -8 -97.5t-28.5 -100.5t-52.5 -87t-77 -59q-8 -4 -12 -5q-10 0 -13.5 7.5t-3.5 17.5q0 12 11.5 22.5t23.5 23.5t23.5 34.5t11.5 56.5q0 27 -12.5 50.5t-25.5 47t-25.5 47t-12.5 52.5z" />
<glyph unicode="&#x2022;" horiz-adv-x="1208" d="M307 762q0 123 87 209t210 86q121 0 208 -86t87 -209t-87 -210t-210 -87t-209 87t-86 210z" />
<glyph unicode="&#x2026;" horiz-adv-x="2048" d="M215 96q0 53 37 90t88 37t89 -38t38 -89q0 -53 -37 -90t-90 -37q-51 0 -88 38t-37 89zM897 96q0 53 37 90t88 37t89 -38t38 -89q0 -53 -37 -90t-90 -37q-51 0 -88 38t-37 89zM1581 96q0 53 37 90t88 37t89 -38t38 -89q0 -53 -37 -90t-90 -37q-51 0 -88 38t-37 89z" />
<glyph unicode="&#x202f;" horiz-adv-x="403" />
<glyph unicode="&#x2039;" horiz-adv-x="647" d="M154 475v19q100 82 212.5 194.5t135.5 112.5q6 0 10 -6.5t4 -14.5q0 -23 -55 -103.5t-148 -191.5q92 -111 147.5 -191.5t55.5 -103.5q0 -10 -4 -15t-10 -5q-25 0 -136.5 111.5t-211.5 193.5z" />
<glyph unicode="&#x203a;" horiz-adv-x="647" d="M154 190q0 23 55 104t147 191q-92 111 -147 192t-55 103q0 8 4 14.5t10 6.5q25 0 136.5 -113t211.5 -194v-19q-100 -82 -213 -193.5t-135 -111.5q-6 0 -10 5t-4 15z" />
<glyph unicode="&#x205f;" horiz-adv-x="503" />
<glyph unicode="&#x20ac;" horiz-adv-x="1118" d="M-39 803l37 78h96q39 295 174 462.5t332 167.5q82 0 153.5 -33.5t133.5 -101.5l61 127h60l20 -596l-80 -4q-33 252 -116.5 385t-208.5 133q-141 0 -220 -139t-90 -401h490l-35 -78h-459q0 -14 -1 -36t-1 -28t1 -29.5t1 -39.5h400l-35 -80h-363q10 -260 92 -394.5 t228 -134.5q131 0 217 117t119 340l92 -12q-27 -256 -146.5 -400.5t-302.5 -144.5q-201 0 -342 171t-176 458h-110l34 80h70q0 16 -1 39.5t-1 29.5q0 14 1 29.5t1 34.5h-125z" />
<glyph unicode="&#x2122;" horiz-adv-x="1441" d="M41 1352q0 2 8 15t17.5 32.5t17.5 45t8 52.5q0 4 2 9.5t2 9.5q4 0 6 1t7 1q10 0 21 -6.5t24 -10.5q25 -4 56.5 -6t57.5 -2h64q27 0 52.5 2t51.5 2q27 0 51.5 9.5t47.5 9.5q8 -39 22 -82t37 -76q2 -2 2 -4q0 -12 -14 -13l-2 2q-29 35 -55.5 54.5t-61.5 46.5q-14 4 -21.5 8 t-23.5 4q-29 0 -35 -22.5t-6 -44.5v-200t-1 -124t-1 -73.5v-47.5v-31.5t2 -41t4 -40t8 -26.5q8 -12 29.5 -17.5t21.5 -15.5l-10 -12q-12 2 -41 4t-59.5 2t-58 -2t-40.5 -4q-6 4 -18 4q0 4 1 10t7 6q18 6 28.5 57.5t13.5 123t1 154.5t-4 154.5t-5 122t-1 56.5q2 8 -8 9t-17 1 q-8 0 -25.5 -8t-37 -19.5t-34.5 -22.5t-17 -15l-60 -58q-4 4 -9 7.5t-5 9.5zM637 705q0 49 11 120.5t26.5 149.5t32 152.5t28.5 127.5q8 31 18.5 72t10.5 74q0 31 -25 48.5t-45 33.5q-4 0 -4 4q0 10 10.5 11t16.5 1q18 0 35.5 -4t33.5 0q33 2 67 2h65q12 0 22 -6 q0 -8 -8 -11t-17.5 -8.5t-17.5 -16.5t-8 -38q0 -16 12 -70.5t28.5 -117t32 -116.5t23.5 -71q8 0 12 6.5t7 12.5q6 20 19 69.5t27.5 101.5t25.5 96t11 54q0 27 -9 44.5t-21.5 29.5t-21.5 19.5t-9 11.5v4q0 2 28.5 3t63.5 2t67 1h40h20t21 -2q0 -8 -6.5 -12t-15.5 -9.5 t-17 -12.5t-15 -19q-4 -12 -4 -24.5v-22.5q0 -41 7.5 -85t16.5 -89t19.5 -90.5t14.5 -86.5q4 -35 15 -72.5t11 -72.5q0 -8 4 -23.5t11.5 -31t15.5 -27.5t14 -18q10 -8 18.5 -11.5t18.5 -11.5l2 -4q0 -4 -8 -5t-18.5 -1t-20.5 1t-14 1q-31 0 -62.5 -1t-64.5 -1 q-10 0 -17.5 -2t-17.5 -2q-4 0 -16 4q0 10 8 15t18.5 13.5t18.5 20.5t8 37q0 27 -8 90.5t-19.5 134t-24 132t-22.5 85.5h-10q-16 -29 -29.5 -70.5t-26 -86.5t-23.5 -89t-19 -77q-2 -10 -9.5 -39t-15.5 -59.5t-16.5 -54t-14.5 -23.5h-4q-4 2 -14 35.5t-24.5 85t-31 111.5 t-32 116.5t-28.5 102.5t-19 67h-13q-4 -10 -10 -37t-12 -63.5t-13.5 -77.5t-13.5 -78t-9 -65.5t-3 -39.5q0 -78 6 -157.5t33 -155.5q12 -37 49 -61q4 0 8 -3.5t4 -7.5q0 -8 -9 -11t-20.5 -4t-22.5 -1h-17q-68 0 -93.5 49t-25.5 105z" />
<glyph unicode="&#x25fc;" horiz-adv-x="1054" d="M0 0v1055h1055v-1055h-1055z" />
</font>
</defs>
</svg>
